# Made in Blockbench 5.0.4
mtllib destino.mtl

o mesh1674032168
v -0.31773613 0.06818588789541724 -0.26830938888489564
v -0.7794228300000001 -0.05260164228781805 -0.4500001400000208
v -0.44999993 -0.05260164228781805 -0.7794230949038465
v 2.69999999982784e-7 -0.05260164228781805 -0.9000000149999999
v 0.51250017 -0.05260164228781805 -0.7794229949038299
v -0.41660863000000004 0.06531847200003743 0.058696114782688276
v -0.37909703 0.060644296858582795 0.16844046307341298
v 0.01713481999999998 0.055845377216060234 0.0930874105145709
v -0.29166483000000004 0.05530931300876834 0.4319146757357818
v 0.009759636999999988 0.05074293743264513 0.45376217937703234
v 0.30715127 0.04816835804942481 0.4156282730213813
v 0.38356437 0.048275632190392305 0.1402308583718122
v 0.46852367 0.05103603665698652 -0.036377530646252626
v 0.36851187 0.05570994908625922 -0.08362221893703398
v 0.09358015999999997 0.06104467022389179 -0.2845966915994461
v -0.20784458 0.06561130851219693 -0.3064432952405467
v -0.39414963000000003 0.06807861375444973 -0.05541252423541821
v 0.0008091049999999766 0.09346033228781804 -0.5514637360772867
v -0.41169123 0.09346033228781804 -0.49117512602918517
v -0.5764027300000001 0.09346033228781804 -0.2014638985773139
v -0.6366910299999999 0.09346059499999998 0.02353622892270731
v -0.5764027300000001 0.09346033228781804 0.24853637642273188
v -0.41169093 0.09346033228781804 0.6007475038745864
v 0.000808806999999967 0.09346033228781804 0.6610365139227548
v 0.41330887 0.09346033228781804 0.6007478038746363
v 0.57802037 0.09346033228781804 0.24853637642273188
v 0.76330867 0.09346033228781804 -0.03896348107724436
v 0.57802007 0.09346033228781804 -0.2639635985772639
v 0.47580887 0.09346033228781804 -0.49117512602918517
vt 0.005915537 -0.0595106299999999
vt 0.003921193 -0.05530034000000006
vt 0.004299185 -0.05065695999999997
vt 0.006948224 -0.04682465999999996
vt 0.613238493532049 0.051986500293880855
vt 0.3682149039197249 0.03762203006535958
vt 0.34682941178983867 0.5085623534879866
vt 0.36831574277750484 0.04197703532025765
vt 0.148985953419258 0.15288899281735147
vt 0.3469302506476187 0.5129173587428847
vt 0.149046434063332 0.15287201855416566
vt 0.014178812457259321 0.35934059070587987
vt 0.34699009908983824 0.5129025062625854
vt 0.01429050145154246 0.35915175202785565
vt 0.000022970000711107072 0.6058556932997099
vt 0.3471015773501698 0.5127136675845612
vt 0 0.6057389952402489
vt 0.11015632625396894 0.8265720376204843
vt 0.34707860734945883 0.5125948477422138
vt 0.11004885193871541 0.826508384133514
vt 0.3151123742498398 0.9623003679082742
vt 0.34697029009839936 0.5125333160381298
vt 0.3148490595154707 0.9579305101730768
vt 0.5598734288434153 0.9722928586186645
vt 0.3467057109603214 0.5081634583029326
vt 0.5597635337497178 0.9767327351895386
vt 0.7790926087198691 0.8658207776924447
vt 0.3465939192610606 0.5126054566566931
vt 0.7791188724922418 0.8657910727318461
vt 0.9139834511000551 0.6593225005801318
vt 0.34662047173894683 0.5125736299132079
vt 0.9138398332501252 0.6550948022992212
vt 0.9281048991137242 0.40839086102732003
vt 0.34647664315506543 0.5083480534151839
vt 0.9282197307058824 0.412830737598194
vt 0.8180625825895027 0.1919976952179584
vt 0.3465913904536429 0.5127858082031242
vt 0.8179445689146773 0.187612985002509
vt 0.6128794028787313 0.051825244793521574
vt 0.34647348214579315 0.5084032197705612
vt 0.901639077471115 0.4028859713308275
vt 0.6216380433476161 0.2343799716712669
vt 0.56323947 0.5324657079914665
vt 0.8808470038623233 0.5532719796098403
vt 0.7840546959276924 0.3632444087089681
vt 0.2715266594739366 0.3425306302677946
vt 0.42290444524738624 0.6771521405218468
vt 0.8751034930139462 0.5263816840718811
vt 0.6477084856827711 0.41790760348175837
vt 0.28740895162254176 0.5711244920384361
vt 0.5812624882176689 0.7911897619387201
vt 0.8042339545531864 0.5174777166439533
vt 0.812177104800645 0.391507764118767
vt 0.9887447142830175 0.8203305574488778
vt 0.6373233631335449 0.88091036
vt 0.6353530156762683 0.3987565746017838
vt 0.8582408499902374 0.4227501596528467
vt 0.7682127139522905 0.8649468552606846
vt 0.3212865187000153 0.6213249916993051
vt 0.6504655667483616 0.28127445072415636
vt 0.6617629061744175 0.40019088220153565
vt 0.26091298323936085 0.6892798468944517
vt 0.06292793320061252 0.256161617401496
vt 0.5893959729368847 0.17615112819572698
vt 0.5085269071862383 0.43517843241514353
vt 0 0.4786718966664517
vt 0.0711692668084935 0.16110520141343887
vt 0.5664539739683446 0.2789038996642763
vt 0.5772425117694883 0.29480334252288776
vt 0.09109116634090805 0.44664383888049375
vt 0.3681902108826116 0.8199762246646228
vt 0.7285812541793009 0.473566700205576
vt 0.6150555324791755 0.16763718459586485
vt 0.3013857109015912 0.415517226498492
vt 0.6687781409090436 0.5845750685000146
vt 0.8027500134807799 0.2465842519039605
vt 0.6552317225196783 0.13161233606715772
vt 0.5186778164355161 0.5870087804011226
vt 0.9390558188022644 0.6194569683345784
vt 0.5196881625483295 0.12219568895057709
vt 0.4458130277912351 0.7271040598923584
vt 0.012848602313036599 0.5097627964572713
vt 0.6910071246023952 0.33258139392753927
vt 0.3594751259598105 0.8774632679982086
vt 0.009294040999388737 0.4212670989612852
vt 0.18853619495273954 1
vt 0.5855378173239774 0.518654600098299
vt 0.7139095125673185 0.8644526208117302
vt 0.2216964630036434 0.8487769906120964
vt 0.4195385448365174 0.2980731023637969
vt 0.5672219143787325 0.4209077697636574
vt 0.7761866735330563 0.7659440273749278
vt 0.683887701416422 0.12309758593494646
vt 0.4048871280256027 0.10778359408368243
vn 0 -1 0
vn 0.018961821499118077 0.9991691845673687 0.036074782555345304
vn 0.015011169426579221 0.9997708326487387 0.015262600607184061
vn 0.014100164877130072 0.9997964252764445 0.014432371769068081
vn 0.010497099950239999 0.9998417976509918 0.014359337124945847
vn 0.019893418560707525 0.999784643643085 0.005909165206547989
vn 0.017552581212017374 0.999556244682969 0.02406700247385412
vn 0.024250072334278814 0.9985789882544386 0.04745459101629878
vn 0.008135567144345875 0.9998481477325161 0.015410841089848824
vn 0.013944541974835563 0.9997652084401235 0.01658546778925723
vn 0.026683661201010633 0.9995996566236357 0.009407906399378068
vn 0.0261602701258616 0.9996088059736405 0.00989319396833152
vn 0.01960479702366192 0.999414724505621 0.028033201298012747
vn 0.018812108990149397 0.9915032802741358 0.1287142174002981
vn 0.1135575086740005 0.9914315351131155 0.06456162487891468
vn 0.11385011892670294 0.9930295119322945 0.030504734909264756
vn 0.1323296239137696 0.9905714123521515 -0.035456278224095465
vn 0.13814873116232418 0.9883021176359564 -0.06460535855890294
vn 0.029297624025660666 0.9792646482834979 -0.20045547597570923
vn -0.029667740622166885 0.9787314706494399 -0.2029889985362764
vn -0.22747346736731142 0.9679563903881127 -0.10637785460662605
vn -0.16755614636246088 0.9799305005512171 -0.10798681357278289
vn -0.14049734104058273 0.9832974951328838 0.11570018680159072
vn -0.1285916724450989 0.9900090425706578 0.05784701726192877
vn -0.015997993528622013 0.9918955929014234 0.12604442465175505
vn 0.006464614135479244 0.992949261707065 0.11836372940843892
vn -0.04034183965599348 0.9958466173864531 0.08162138575844853
vn -0.03317623095031908 0.9852790021919615 0.16770398188338856
usemtl none
f 2/1/1 3/2/1 4/3/1 5/4/1
usemtl m_ce518a7f-3a3c-b7b4-a411-58a4764f446a
f 6/5/2 7/6/2 8/7/2
f 7/8/3 9/9/3 8/10/3
f 9/11/4 10/12/4 8/13/4
f 10/14/5 11/15/5 8/16/5
f 11/17/6 12/18/6 8/19/6
f 12/20/7 13/21/7 8/22/7
f 13/23/8 14/24/8 8/25/8
f 14/26/9 15/27/9 8/28/9
f 15/29/10 16/30/10 8/31/10
f 16/32/11 1/33/11 8/34/11
f 1/35/12 17/36/12 8/37/12
f 17/38/13 6/39/13 8/40/13
usemtl m_30ae76e4-5ce7-2975-b4b9-f65251f55362
f 16/41/14 18/42/14 19/43/14 1/44/14
f 1/45/15 19/46/15 20/47/15 17/48/15
f 17/49/16 20/50/16 21/51/16 6/52/16
f 6/53/17 21/54/17 22/55/17 7/56/17
f 7/57/18 22/58/18 23/59/18 9/60/18
f 9/61/19 23/62/19 24/63/19 10/64/19
f 10/65/20 24/66/20 25/67/20 11/68/20
f 11/69/21 25/70/21 26/71/21 12/72/21
f 12/73/22 26/74/22 27/75/22 13/76/22
f 13/77/23 27/78/23 28/79/23
usemtl m_ce518a7f-3a3c-b7b4-a411-58a4764f446a
f 14/80/24 28/81/24 29/82/24
f 15/83/25 29/84/25 18/85/25
f 18/86/26 16/87/26 15/88/26
f 29/89/27 15/90/27 14/91/27
f 28/92/28 14/93/28 13/94/28
o mesh1674032168_selection
v -0.7794228300000001 -0.05260164228781805 -0.4500001400000208
v -0.44999993 -0.05260164228781805 -0.7794230949038465
v 2.69999999982784e-7 -0.05260164228781805 -0.9000000149999999
v 0.51250017 -0.05260164228781805 -0.7794229949038299
v 0.0008091049999999766 0.09346033228781804 -0.5514637360772867
v -0.41169123 0.09346033228781804 -0.49117512602918517
v -0.5764027300000001 0.09346033228781804 -0.2014638985773139
v -0.90000003 -0.05260164228781805 -1.6302322467914541e-7
v -0.6366910299999999 0.09346059499999998 0.02353622892270731
v -0.7794228300000001 -0.05260164228781805 0.44999980999997075
v -0.5764027300000001 0.09346033228781804 0.24853637642273188
v -0.44999993 -0.052601905000000004 0.7794227649037966
v -0.41169093 0.09346033228781804 0.6007475038745864
v -2.8023200017215994e-8 -0.052601905000000004 0.8999999849999999
v 0.000808806999999967 0.09346033228781804 0.6610365139227548
v 0.44999986999999997 -0.052601905000000004 0.7794230649038465
v 0.41330887 0.09346033228781804 0.6007478038746363
v 0.77942277 -0.052601905000000004 0.4500001100000207
v 0.57802037 0.09346033228781804 0.24853637642273188
v 0.9624999699999999 -0.052601905000000004 1.3500002499139615e-7
v 0.76330867 0.09346033228781804 -0.03896348107724436
v 0.90442277 -0.052601905000000004 -0.4500001400000208
v 0.57802007 0.09346033228781804 -0.2639635985772639
v 0.47580887 0.09346033228781804 -0.49117512602918517
vt 0.4154312319899578 0.7677473998086022
vt 0.7687925767083154 0.7690408185628783
vt 0.7097150903186864 0.3489350883505
vt 0.3858921837720224 0.5576945347024205
vt 0.5181506678283136 0.9013408038060903
vt 0.992879990060579 0.6810005930633479
vt 0.7590729416424532 0.2789465416219118
vt 0.4012467020089454 0.700313778085375
vt 0.4342905534723517 0.7715479372367761
vt 0.7637662678600714 0.3951583975518974
vt 0.43971739400193643 0.16919509024451995
vt 0.2722657100992595 0.6585667522055876
vt 0.7878265857616906 0.8199039694827767
vt 0.9787703642861905 0.18897075530615082
vt 0.48570254384811806 0.1474016407900921
vt 0.5412932062309714 0.7991186409034652
vt 0.7056307886095736 0.27047713775330007
vt 0.613850632336501 0.780105897324237
vt 0.16566946515524222 0.6085963265810704
vt 0.4815412514475095 0.1847218845611457
vt 0.06402376966283085 0.5672954368692309
vt 0.3260624797324141 0.24447266110574162
vt 0.5871973418054753 0.4954727461545918
vt 0.19459078108560895 0.6927950450435317
vt 1 0.7655363290579984
vt 0.6986316499950962 0.9597469099999999
vt 0.5952531640554806 0.6604192425299777
vt 0.9483110840634641 0.6158721538142029
vt 1 0.183782271314318
vt 0.8014327573298023 0.5351255882736371
vt 0.5526611341889003 0.23257874660510347
vt 0.9712699191625267 0.0325087592709834
vt 0.9089189582426019 0.5183602557193903
vt 0.5979444903518777 0.36416453545283534
vt 0.7499899659010895 0.07531083023981533
vt 0.9849413904362467 0.37393340311287526
vt 0.11607469676653318 0.23162477693190908
vt 0.10024154799999999 0.6016821236796724
vt 0.4023049940604978 0.5984305236128478
vt 0.34081532684522725 0.20262835290067105
vt 0.492675010509965 0.5869895018160713
vt 0.6566411603882357 0.21208440691936215
vt 0.8308048505595689 0.46747635133736654
vt 0.5797565965907477 0.7146858700000005
vt 0.2589924595094689 0.490955078260655
vt 0.5488368914232823 0.28723457128638896
vt 0.6039249115055688 0.6916572863286726
vt 0.2865364695506034 0.6931659912606027
vn -0.102958695530424 0.9174709940544223 -0.38424794349932956
vn -0.37800406610792137 0.8451188671664935 -0.37800400310724397
vn -0.47250151882301156 0.8721886926529905 -0.1266064734451391
vn -0.48983250918455945 0.8618801953471779 0.1312503021492492
vn -0.3215979642433574 0.8905891737729953 0.32159862088146735
vn -0.16172396948252804 0.7807424975689223 0.6035615214579668
vn 0.13848700076724127 0.8448055315677133 0.5168413339227884
vn 0.48946162067698873 0.7217026559643963 0.48946153910005213
vn 0.45041183163355825 0.8738137903538549 0.1832447590299177
vn 0.599357818375162 0.7967350039222741 -0.0773533391492579
vn 0.24634731611821517 0.9238042479164239 -0.2930848194173875
vn 0.10330622021085692 0.8924829834012299 -0.4390921875927491
usemtl m_30ae76e4-5ce7-2975-b4b9-f65251f55362
f 34/95/29 32/96/29 31/97/29 35/98/29
f 35/99/30 31/100/30 30/101/30 36/102/30
f 36/103/31 30/104/31 37/105/31 38/106/31
f 38/107/32 37/108/32 39/109/32 40/110/32
f 40/111/33 39/112/33 41/113/33 42/114/33
f 42/115/34 41/116/34 43/117/34 44/118/34
f 44/119/35 43/120/35 45/121/35 46/122/35
f 46/123/36 45/124/36 47/125/36 48/126/36
f 48/127/37 47/128/37 49/129/37 50/130/37
f 50/131/38 49/132/38 51/133/38 52/134/38
f 52/135/39 51/136/39 33/137/39 53/138/39
f 53/139/40 33/140/40 32/141/40 34/142/40