# Made in Blockbench 5.0.4
mtllib gradas_mod.mtl

o unknown
o 16945_bleachers
v 0.28589899212106523 0.010858806020902306 -0.13779511137442024
v -0.10946249999997826 0.08264109397924616 -0.1282980209659882
v -0.10946249999997826 0.08264109397924616 -0.13639531278814437
v 0.09354994999998496 0.08264109397924616 -0.13639531278814437
v 0.09354994999998496 0.08264109397924616 -0.1282980209659882
v -0.10946249999997826 0.08264109397924616 -0.14449270461019942
v 0.09354994999998496 0.08264109397924616 -0.14449270461019942
v -0.10946249999997826 0.08679218749999593 -0.1282980209659882
v 0.09354994999998496 0.08679218749999593 -0.1282980209659882
v 0.09354994999998496 0.08679218749999593 -0.13639531278814437
v -0.10946249999997826 0.08679218749999593 -0.13639531278814437
v 0.09354994999998496 0.08679218749999593 -0.14449270461019942
v -0.10946249999997826 0.08679218749999593 -0.14449270461019942
v 0.2965625000000218 0.08679218749999593 -0.1282980209659882
v 0.2965625000000218 0.08264109397924616 -0.1282980209659882
v 0.2965625000000218 0.08264109397924616 -0.13639531278814437
v 0.2965625000000218 0.08679218749999593 -0.13639531278814437
v 0.2965625000000218 0.08264109397924616 -0.14449270461019942
v 0.2965625000000218 0.08679218749999593 -0.14449270461019942
v -0.10946249999997826 0.06380572337850562 -0.09274255687515726
v -0.10946249999997826 0.06380572337850562 -0.1008399486972123
v 0.09354994999998496 0.06380572337850562 -0.1008399486972123
v 0.09354994999998496 0.06380572337850562 -0.09274255687515726
v -0.10946249999997826 0.06380572337850562 -0.10893724051936993
v 0.09354994999998496 0.06380572337850562 -0.10893724051936993
v -0.10946249999997826 0.06795691689909955 -0.09274255687515726
v 0.09354994999998496 0.06795691689909955 -0.09274255687515726
v 0.09354994999998496 0.06795691689909955 -0.1008399486972123
v -0.10946249999997826 0.06795691689909955 -0.1008399486972123
v 0.09354994999998496 0.06795691689909955 -0.10893724051936993
v -0.10946249999997826 0.06795691689909955 -0.10893724051936993
v 0.2965625000000218 0.06795691689909955 -0.09274255687515726
v 0.2965625000000218 0.06380572337850562 -0.09274255687515726
v 0.2965625000000218 0.06380572337850562 -0.1008399486972123
v 0.2965625000000218 0.06795691689909955 -0.1008399486972123
v 0.2965625000000218 0.06380572337850562 -0.10893724051936993
v 0.2965625000000218 0.06795691689909955 -0.10893724051936993
v -0.10946249999997826 0.047793248371638036 -0.05728029269019996
v -0.10946249999997826 0.047793248371638064 -0.06537768451225495
v 0.09354994999998496 0.047793248371638064 -0.06537768451225495
v 0.09354994999998496 0.047793248371638036 -0.05728029269019996
v -0.10946249999997826 0.047793248371638064 -0.07347497633441119
v 0.09354994999998496 0.047793248371638064 -0.07347497633441119
v -0.10946249999997826 0.051944341892387835 -0.05728029269019996
v 0.09354994999998496 0.051944341892387835 -0.05728029269019996
v 0.09354994999998496 0.05194434189238786 -0.06537768451225495
v -0.10946249999997826 0.05194434189238786 -0.06537768451225495
v 0.09354994999998496 0.05194434189238786 -0.07347497633441119
v -0.10946249999997826 0.05194434189238786 -0.07347497633441119
v 0.2965625000000218 0.051944341892387835 -0.05728029269019996
v 0.2965625000000218 0.047793248371638036 -0.05728029269019996
v 0.2965625000000218 0.047793248371638064 -0.06537768451225495
v 0.2965625000000218 0.05194434189238786 -0.06537768451225495
v 0.2965625000000218 0.047793248371638064 -0.07347497633441119
v 0.2965625000000218 0.05194434189238786 -0.07347497633441119
v -0.10946249999997826 0.04258825649586917 -0.11029673914634652
v -0.10946249999997826 0.04258825649586917 -0.11839413096840157
v 0.09354994999998496 0.04258825649586917 -0.11839413096840157
v 0.09354994999998496 0.04258825649586917 -0.11029673914634652
v -0.10946249999997826 0.04258825649586917 -0.12649142279055775
v 0.09354994999998496 0.04258825649586917 -0.12649142279055775
v -0.10946249999997826 0.0467394500164631 -0.11029673914634652
v 0.09354994999998496 0.0467394500164631 -0.11029673914634652
v 0.09354994999998496 0.0467394500164631 -0.11839413096840157
v -0.10946249999997826 0.0467394500164631 -0.11839413096840157
v 0.09354994999998496 0.0467394500164631 -0.12649142279055775
v -0.10946249999997826 0.0467394500164631 -0.12649142279055775
v 0.2965625000000218 0.0467394500164631 -0.11029673914634652
v 0.2965625000000218 0.04258825649586917 -0.11029673914634652
v 0.2965625000000218 0.04258825649586917 -0.11839413096840157
v 0.2965625000000218 0.0467394500164631 -0.11839413096840157
v 0.2965625000000218 0.04258825649586917 -0.12649142279055775
v 0.2965625000000218 0.0467394500164631 -0.12649142279055775
v -0.10946249999997826 0.026575781489000916 -0.07483447496138773
v -0.10946249999997826 0.026575781489000916 -0.08293176678354391
v 0.09354994999998496 0.026575781489000916 -0.08293176678354391
v 0.09354994999998496 0.026575781489000916 -0.07483447496138773
v -0.10946249999997826 0.026575781489000916 -0.0910291586056004
v 0.09354994999998496 0.026575781489000916 -0.0910291586056004
v -0.10946249999997826 0.030726875009750687 -0.07483447496138773
v 0.09354994999998496 0.030726875009750687 -0.07483447496138773
v 0.09354994999998496 0.030726875009750687 -0.08293176678354391
v -0.10946249999997826 0.030726875009750687 -0.08293176678354391
v 0.09354994999998496 0.030726875009750687 -0.0910291586056004
v -0.10946249999997826 0.030726875009750687 -0.0910291586056004
v 0.2965625000000218 0.030726875009750687 -0.07483447496138773
v 0.2965625000000218 0.026575781489000916 -0.07483447496138773
v 0.2965625000000218 0.026575781489000916 -0.08293176678354391
v 0.2965625000000218 0.030726875009750687 -0.08293176678354391
v 0.2965625000000218 0.026575781489000916 -0.0910291586056004
v 0.2965625000000218 0.030726875009750687 -0.0910291586056004
v 0.28589899212106523 0.010858806020902306 -0.14905749999999351
v 0.28589899212106523 0.006707812499995941 -0.14905749999999351
v 0.28174798905401155 0.006707812499995941 -0.14905749999999351
v 0.28174798905401155 0.010858806020902306 -0.14905749999999351
v 0.28174798905401155 0.006707812499995913 -0.05004249999999355
v 0.28589899212106523 0.006707812499995913 -0.05004249999999355
v 0.28589899212106523 0.010858806020902279 -0.05004249999999355
v 0.28174798905401155 0.010858806020902279 -0.05004249999999355
v 0.28589899212106523 0.006707812499995941 -0.13779511137442024
v 0.28174798905401155 0.006707812499995941 -0.13779511137442024
v 0.28174798905401155 0.006707812499995941 -0.13479061440880563
v 0.28589899212106523 0.006707812499995941 -0.13479061440880563
v 0.28589899212106523 0.006707812499995941 -0.11997132937551236
v 0.28174798905401155 0.006707812499995941 -0.11997132937551236
v 0.28174798905401155 0.006707812499995941 -0.11696673240999894
v 0.28589899212106523 0.006707812499995941 -0.11696673240999894
v 0.28589899212106523 0.006707812499995941 -0.10242484709654881
v 0.28174798905401155 0.006707812499995941 -0.10242484709654881
v 0.28174798905401155 0.006707812499995941 -0.09942045013083312
v 0.28589899212106523 0.006707812499995941 -0.09942045013083312
v 0.28589899212106523 0.006707812499995941 -0.08445526524488961
v 0.28174798905401155 0.006707812499995941 -0.08445526524488961
v 0.28174798905401155 0.006707812499995941 -0.08145066827937764
v 0.28589899212106523 0.006707812499995941 -0.08145066827937764
v 0.28589899212106523 0.006707812499995941 -0.06702988284362016
v 0.28174798905401155 0.006707812499995941 -0.06702988284362016
v 0.28174798905401155 0.006707812499995941 -0.06402528587810674
v 0.28589899212106523 0.006707812499995941 -0.06402528587810674
v 0.28174798905401155 0.010858806020902306 -0.13779511137442024
v 0.28174798905401155 0.010858806020902306 -0.13479061440880563
v 0.28174798905401155 0.010858806020902306 -0.11997132937551236
v 0.28174798905401155 0.010858806020902306 -0.11696673240999894
v 0.28174798905401155 0.010858806020902306 -0.10242484709654881
v 0.28174798905401155 0.010858806020902306 -0.09942045013083312
v 0.28174798905401155 0.010858806020902306 -0.08445526524488961
v 0.28174798905401155 0.010858806020902306 -0.08145066827937764
v 0.28174798905401155 0.010858806020902306 -0.06702988284362016
v 0.28174798905401155 0.010858806020902306 -0.06402528587810674
v 0.28589899212106523 0.010858806020902306 -0.13479061440880563
v 0.28589899212106523 0.010858806020902306 -0.11997132937551236
v 0.28589899212106523 0.010858806020902306 -0.11696673240999894
v 0.28589899212106523 0.010858806020902306 -0.10242484709654881
v 0.28589899212106523 0.010858806020902306 -0.09942045013083312
v 0.28589899212106523 0.010858806020902306 -0.08445526524488961
v 0.28589899212106523 0.010858806020902306 -0.08145066827937764
v 0.28589899212106523 0.010858806020902306 -0.06702988284362016
v 0.28589899212106523 0.010858806020902306 -0.06402528587810674
v 0.28589899212106523 0.08485539052305258 -0.13479061440880563
v 0.28589899212106523 0.08485539052305258 -0.13779511137442024
v 0.28174798905401155 0.08485539052305258 -0.13779511137442024
v 0.28174798905401155 0.08485539052305258 -0.13479061440880563
v 0.28589899212106523 0.04477045308977887 -0.11696673240999894
v 0.28589899212106523 0.04477045308977887 -0.11997132937551236
v 0.28174798905401155 0.04477045308977887 -0.11997132937551236
v 0.28174798905401155 0.04477045308977887 -0.11696673240999894
v 0.28589899212106523 0.06607691983349978 -0.099420250131034
v 0.28589899212106523 0.06607691983349978 -0.10242484709654881
v 0.28174798905401155 0.06607691983349978 -0.10242484709654881
v 0.28174798905401155 0.06607691983349978 -0.099420250131034
v 0.28589899212106523 0.028189978969474838 -0.08145066827937764
v 0.28589899212106523 0.028189978969474838 -0.08445526524488961
v 0.28174798905401155 0.028189978969474838 -0.08445526524488961
v 0.28174798905401155 0.028189978969474838 -0.08145066827937764
v 0.28589899212106523 0.04938224589144519 -0.06402528587810674
v 0.28589899212106523 0.04938224589144519 -0.06702988284362016
v 0.28174798905401155 0.04938224589144519 -0.06702988284362016
v 0.28174798905401155 0.04938224589144519 -0.06402528587810674
v 0.28589899212106523 0.0347294687622878 -0.13779511137442024
v 0.28174798905401155 0.0347294687622878 -0.13779511137442024
v 0.28589899212106523 0.0347294687622878 -0.13479061440880563
v 0.28174798905401155 0.0347294687622878 -0.13479061440880563
v 0.28589899212106523 0.0347294687622878 -0.11997132937551236
v 0.28174798905401155 0.0347294687622878 -0.11997132937551236
v 0.28589899212106523 0.0347294687622878 -0.11696673240999894
v 0.28174798905401155 0.0347294687622878 -0.11696673240999894
v 0.28589899212106523 0.0347294687622878 -0.10242484709654881
v 0.28174798905401155 0.0347294687622878 -0.10242484709654881
v 0.28589899212106523 0.018891893482426564 -0.099420250131034
v 0.28174798905401155 0.018891893482426564 -0.099420250131034
v 0.28589899212106523 0.018891893482426564 -0.08445526524488961
v 0.28174798905401155 0.018891893482426564 -0.08445526524488961
v 0.28589899212106523 0.018891893482426564 -0.08145066827937764
v 0.28174798905401155 0.018891893482426564 -0.08145066827937764
v 0.28589899212106523 0.018891893482426564 -0.06702988284362016
v 0.28174798905401155 0.018891893482426564 -0.06702988284362016
v 0.28589899212106523 0.018891893482426564 -0.06402528587810674
v 0.28174798905401155 0.018891893482426564 -0.06402528587810674
v 0.28589899212106523 0.03860376271508137 -0.13779511137442024
v 0.28174798905401155 0.03860376271508137 -0.13779511137442024
v 0.28589899212106523 0.03860376271508137 -0.13479061440880563
v 0.28174798905401155 0.03860376271508137 -0.13479061440880563
v 0.28589899212106523 0.03860376271508137 -0.11997132937551236
v 0.28174798905401155 0.03860376271508137 -0.11997132937551236
v 0.28589899212106523 0.03860376271508137 -0.11696673240999894
v 0.28174798905401155 0.03860376271508137 -0.11696673240999894
v 0.28589899212106523 0.03860376271508137 -0.10242484709654881
v 0.28174798905401155 0.03860376271508137 -0.10242484709654881
v 0.28589899212106523 0.022766387434908386 -0.099420250131034
v 0.28174798905401155 0.022766387434908386 -0.099420250131034
v 0.28589899212106523 0.022766387434908386 -0.08445526524488961
v 0.28174798905401155 0.022766387434908386 -0.08445526524488961
v 0.28589899212106523 0.022766387434908386 -0.08145066827937764
v 0.28174798905401155 0.022766387434908386 -0.08145066827937764
v 0.28589899212106523 0.022766387434908386 -0.06702988284362016
v 0.28174798905401155 0.022766387434908386 -0.06702988284362016
v 0.28589899212106523 0.022766387434908386 -0.06402528587810674
v 0.28174798905401155 0.022766387434908386 -0.06402528587810674
v 0.09568665157873113 0.006707812499995941 -0.14905749999999351
v 0.09153544851152731 0.006707812499995941 -0.14905749999999351
v 0.09153544851152731 0.010858806020902306 -0.14905749999999351
v 0.09568665157873113 0.010858806020902306 -0.14905749999999351
v 0.09153544851152731 0.010858806020902279 -0.05004249999999355
v 0.09153544851152731 0.006707812499995913 -0.05004249999999355
v 0.09568665157873113 0.006707812499995913 -0.05004249999999355
v 0.09568665157873113 0.010858806020902279 -0.05004249999999355
v 0.09153544851152731 0.006707812499995941 -0.13779511137442024
v 0.09568665157873113 0.006707812499995941 -0.13779511137442024
v 0.09153544851152731 0.006707812499995941 -0.11997132937551236
v 0.09153544851152731 0.006707812499995941 -0.13479061440880563
v 0.09568665157873113 0.006707812499995941 -0.13479061440880563
v 0.09568665157873113 0.006707812499995941 -0.11997132937551236
v 0.09153544851152731 0.006707812499995941 -0.10242484709654881
v 0.09153544851152731 0.006707812499995941 -0.11696673240999894
v 0.09568665157873113 0.006707812499995941 -0.11696673240999894
v 0.09568665157873113 0.006707812499995941 -0.10242484709654881
v 0.09153544851152731 0.006707812499995941 -0.08445526524488961
v 0.09153544851152731 0.006707812499995941 -0.09942045013083312
v 0.09568665157873113 0.006707812499995941 -0.09942045013083312
v 0.09568665157873113 0.006707812499995941 -0.08445526524488961
v 0.09153544851152731 0.006707812499995941 -0.06702988284362016
v 0.09153544851152731 0.006707812499995941 -0.08145066827937764
v 0.09568665157873113 0.006707812499995941 -0.08145066827937764
v 0.09568665157873113 0.006707812499995941 -0.06702988284362016
v 0.09153544851152731 0.006707812499995941 -0.06402528587810674
v 0.09568665157873113 0.006707812499995941 -0.06402528587810674
v 0.09568665157873113 0.010858806020902306 -0.13779511137442024
v 0.09568665157873113 0.010858806020902306 -0.13479061440880563
v 0.09568665157873113 0.010858806020902306 -0.11997132937551236
v 0.09568665157873113 0.010858806020902306 -0.11696673240999894
v 0.09568665157873113 0.010858806020902306 -0.10242484709654881
v 0.09568665157873113 0.010858806020902306 -0.09942045013083312
v 0.09568665157873113 0.010858806020902306 -0.08445526524488961
v 0.09568665157873113 0.010858806020902306 -0.08145066827937764
v 0.09568665157873113 0.010858806020902306 -0.06702988284362016
v 0.09568665157873113 0.010858806020902306 -0.06402528587810674
v 0.09153544851152731 0.010858806020902306 -0.13779511137442024
v 0.09153544851152731 0.010858806020902306 -0.13479061440880563
v 0.09153544851152731 0.010858806020902306 -0.11997132937551236
v 0.09153544851152731 0.010858806020902306 -0.11696673240999894
v 0.09153544851152731 0.010858806020902306 -0.10242484709654881
v 0.09153544851152731 0.010858806020902306 -0.09942045013083312
v 0.09153544851152731 0.010858806020902306 -0.08445526524488961
v 0.09153544851152731 0.010858806020902306 -0.08145066827937764
v 0.09153544851152731 0.010858806020902306 -0.06702988284362016
v 0.09153544851152731 0.010858806020902306 -0.06402528587810674
v 0.09568665157873113 0.08485539052305258 -0.13779511137442024
v 0.09153544851152731 0.08485539052305258 -0.13779511137442024
v 0.09153544851152731 0.08485539052305258 -0.13479061440880563
v 0.09568665157873113 0.08485539052305258 -0.13479061440880563
v 0.09568665157873113 0.04477045308977887 -0.11997132937551236
v 0.09153544851152731 0.04477045308977887 -0.11997132937551236
v 0.09153544851152731 0.04477045308977887 -0.11696673240999894
v 0.09568665157873113 0.04477045308977887 -0.11696673240999894
v 0.09568665157873113 0.06607691983349978 -0.10242484709654881
v 0.09153544851152731 0.06607691983349978 -0.10242484709654881
v 0.09153544851152731 0.06607691983349978 -0.099420250131034
v 0.09568665157873113 0.06607691983349978 -0.099420250131034
v 0.09568665157873113 0.028189978969474838 -0.08445526524488961
v 0.09153544851152731 0.028189978969474838 -0.08445526524488961
v 0.09153544851152731 0.028189978969474838 -0.08145066827937764
v 0.09568665157873113 0.028189978969474838 -0.08145066827937764
v 0.09568665157873113 0.04938224589144519 -0.06702988284362016
v 0.09153544851152731 0.04938224589144519 -0.06702988284362016
v 0.09153544851152731 0.04938224589144519 -0.06402528587810674
v 0.09568665157873113 0.04938224589144519 -0.06402528587810674
v 0.09153544851152731 0.0347294687622878 -0.13779511137442024
v 0.09568665157873113 0.0347294687622878 -0.13779511137442024
v 0.09153544851152731 0.0347294687622878 -0.13479061440880563
v 0.09568665157873113 0.0347294687622878 -0.13479061440880563
v 0.09153544851152731 0.0347294687622878 -0.11997132937551236
v 0.09568665157873113 0.0347294687622878 -0.11997132937551236
v 0.09153544851152731 0.0347294687622878 -0.11696673240999894
v 0.09568665157873113 0.0347294687622878 -0.11696673240999894
v 0.09153544851152731 0.0347294687622878 -0.10242484709654881
v 0.09568665157873113 0.0347294687622878 -0.10242484709654881
v 0.09153544851152731 0.018891893482426564 -0.099420250131034
v 0.09568665157873113 0.018891893482426564 -0.099420250131034
v 0.09153544851152731 0.018891893482426564 -0.08445526524488961
v 0.09568665157873113 0.018891893482426564 -0.08445526524488961
v 0.09153544851152731 0.018891893482426564 -0.08145066827937764
v 0.09568665157873113 0.018891893482426564 -0.08145066827937764
v 0.09153544851152731 0.018891893482426564 -0.06702988284362016
v 0.09568665157873113 0.018891893482426564 -0.06702988284362016
v 0.09153544851152731 0.018891893482426564 -0.06402528587810674
v 0.09568665157873113 0.018891893482426564 -0.06402528587810674
v 0.09153544851152731 0.03860376271508137 -0.13779511137442024
v 0.09568665157873113 0.03860376271508137 -0.13779511137442024
v 0.09153544851152731 0.03860376271508137 -0.13479061440880563
v 0.09568665157873113 0.03860376271508137 -0.13479061440880563
v 0.09153544851152731 0.03860376271508137 -0.11997132937551236
v 0.09568665157873113 0.03860376271508137 -0.11997132937551236
v 0.09153544851152731 0.03860376271508137 -0.11696673240999894
v 0.09568665157873113 0.03860376271508137 -0.11696673240999894
v 0.09153544851152731 0.03860376271508137 -0.10242484709654881
v 0.09568665157873113 0.03860376271508137 -0.10242484709654881
v 0.09153544851152731 0.022766387434908386 -0.099420250131034
v 0.09568665157873113 0.022766387434908386 -0.099420250131034
v 0.09153544851152731 0.022766387434908386 -0.08445526524488961
v 0.09568665157873113 0.022766387434908386 -0.08445526524488961
v 0.09153544851152731 0.022766387434908386 -0.08145066827937764
v 0.09568665157873113 0.022766387434908386 -0.08145066827937764
v 0.09153544851152731 0.022766387434908386 -0.06702988284362016
v 0.09568665157873113 0.022766387434908386 -0.06702988284362016
v 0.09153544851152731 0.022766387434908386 -0.06402528587810674
v 0.09568665157873113 0.022766387434908386 -0.06402528587810674
v -0.09541448962031343 0.006707812499995941 -0.14905749999999351
v -0.09956569268751442 0.006707812499995941 -0.14905749999999351
v -0.09956569268751442 0.010858806020902306 -0.14905749999999351
v -0.09541448962031343 0.010858806020902306 -0.14905749999999351
v -0.09956569268751442 0.010858806020902279 -0.05004249999999355
v -0.09956569268751442 0.006707812499995913 -0.05004249999999355
v -0.09541448962031343 0.006707812499995913 -0.05004249999999355
v -0.09541448962031343 0.010858806020902279 -0.05004249999999355
v -0.09956569268751442 0.006707812499995941 -0.13779511137442024
v -0.09541448962031343 0.006707812499995941 -0.13779511137442024
v -0.09956569268751442 0.006707812499995941 -0.11997132937551236
v -0.09956569268751442 0.006707812499995941 -0.13479061440880563
v -0.09541448962031343 0.006707812499995941 -0.13479061440880563
v -0.09541448962031343 0.006707812499995941 -0.11997132937551236
v -0.09956569268751442 0.006707812499995941 -0.10242484709654881
v -0.09956569268751442 0.006707812499995941 -0.11696673240999894
v -0.09541448962031343 0.006707812499995941 -0.11696673240999894
v -0.09541448962031343 0.006707812499995941 -0.10242484709654881
v -0.09956569268751442 0.006707812499995941 -0.08445526524488961
v -0.09956569268751442 0.006707812499995941 -0.09942045013083312
v -0.09541448962031343 0.006707812499995941 -0.09942045013083312
v -0.09541448962031343 0.006707812499995941 -0.08445526524488961
v -0.09956569268751442 0.006707812499995941 -0.06702988284362016
v -0.09956569268751442 0.006707812499995941 -0.08145066827937764
v -0.09541448962031343 0.006707812499995941 -0.08145066827937764
v -0.09541448962031343 0.006707812499995941 -0.06702988284362016
v -0.09956569268751442 0.006707812499995941 -0.06402528587810674
v -0.09541448962031343 0.006707812499995941 -0.06402528587810674
v -0.09541448962031343 0.010858806020902306 -0.13779511137442024
v -0.09541448962031343 0.010858806020902306 -0.13479061440880563
v -0.09541448962031343 0.010858806020902306 -0.11997132937551236
v -0.09541448962031343 0.010858806020902306 -0.11696673240999894
v -0.09541448962031343 0.010858806020902306 -0.10242484709654881
v -0.09541448962031343 0.010858806020902306 -0.09942045013083312
v -0.09541448962031343 0.010858806020902306 -0.08445526524488961
v -0.09541448962031343 0.010858806020902306 -0.08145066827937764
v -0.09541448962031343 0.010858806020902306 -0.06702988284362016
v -0.09541448962031343 0.010858806020902306 -0.06402528587810674
v -0.09956569268751442 0.010858806020902306 -0.13779511137442024
v -0.09956569268751442 0.010858806020902306 -0.13479061440880563
v -0.09956569268751442 0.010858806020902306 -0.11997132937551236
v -0.09956569268751442 0.010858806020902306 -0.11696673240999894
v -0.09956569268751442 0.010858806020902306 -0.10242484709654881
v -0.09956569268751442 0.010858806020902306 -0.09942045013083312
v -0.09956569268751442 0.010858806020902306 -0.08445526524488961
v -0.09956569268751442 0.010858806020902306 -0.08145066827937764
v -0.09956569268751442 0.010858806020902306 -0.06702988284362016
v -0.09956569268751442 0.010858806020902306 -0.06402528587810674
v -0.09541448962031343 0.08485539052305258 -0.13779511137442024
v -0.09956569268751442 0.08485539052305258 -0.13779511137442024
v -0.09956569268751442 0.08485539052305258 -0.13479061440880563
v -0.09541448962031343 0.08485539052305258 -0.13479061440880563
v -0.09541448962031343 0.04477045308977887 -0.11997132937551236
v -0.09956569268751442 0.04477045308977887 -0.11997132937551236
v -0.09956569268751442 0.04477045308977887 -0.11696673240999894
v -0.09541448962031343 0.04477045308977887 -0.11696673240999894
v -0.09541448962031343 0.06607691983349978 -0.10242484709654881
v -0.09956569268751442 0.06607691983349978 -0.10242484709654881
v -0.09956569268751442 0.06607691983349978 -0.099420250131034
v -0.09541448962031343 0.06607691983349978 -0.099420250131034
v -0.09541448962031343 0.028189978969474838 -0.08445526524488961
v -0.09956569268751442 0.028189978969474838 -0.08445526524488961
v -0.09956569268751442 0.028189978969474838 -0.08145066827937764
v -0.09541448962031343 0.028189978969474838 -0.08145066827937764
v -0.09541448962031343 0.04938224589144519 -0.06702988284362016
v -0.09956569268751442 0.04938224589144519 -0.06702988284362016
v -0.09956569268751442 0.04938224589144519 -0.06402528587810674
v -0.09541448962031343 0.04938224589144519 -0.06402528587810674
v -0.09956569268751442 0.0347294687622878 -0.13779511137442024
v -0.09541448962031343 0.0347294687622878 -0.13779511137442024
v -0.09956569268751442 0.0347294687622878 -0.13479061440880563
v -0.09541448962031343 0.0347294687622878 -0.13479061440880563
v -0.09956569268751442 0.0347294687622878 -0.11997132937551236
v -0.09541448962031343 0.0347294687622878 -0.11997132937551236
v -0.09956569268751442 0.0347294687622878 -0.11696673240999894
v -0.09541448962031343 0.0347294687622878 -0.11696673240999894
v -0.09956569268751442 0.0347294687622878 -0.10242484709654881
v -0.09541448962031343 0.0347294687622878 -0.10242484709654881
v -0.09956569268751442 0.018891893482426564 -0.099420250131034
v -0.09541448962031343 0.018891893482426564 -0.099420250131034
v -0.09956569268751442 0.018891893482426564 -0.08445526524488961
v -0.09541448962031343 0.018891893482426564 -0.08445526524488961
v -0.09956569268751442 0.018891893482426564 -0.08145066827937764
v -0.09541448962031343 0.018891893482426564 -0.08145066827937764
v -0.09956569268751442 0.018891893482426564 -0.06702988284362016
v -0.09541448962031343 0.018891893482426564 -0.06702988284362016
v -0.09956569268751442 0.018891893482426564 -0.06402528587810674
v -0.09541448962031343 0.018891893482426564 -0.06402528587810674
v -0.09956569268751442 0.03860376271508137 -0.13779511137442024
v -0.09541448962031343 0.03860376271508137 -0.13779511137442024
v -0.09956569268751442 0.03860376271508137 -0.13479061440880563
v -0.09541448962031343 0.03860376271508137 -0.13479061440880563
v -0.09956569268751442 0.03860376271508137 -0.11997132937551236
v -0.09541448962031343 0.03860376271508137 -0.11997132937551236
v -0.09956569268751442 0.03860376271508137 -0.11696673240999894
v -0.09541448962031343 0.03860376271508137 -0.11696673240999894
v -0.09956569268751442 0.03860376271508137 -0.10242484709654881
v -0.09541448962031343 0.03860376271508137 -0.10242484709654881
v -0.09956569268751442 0.022766387434908386 -0.099420250131034
v -0.09541448962031343 0.022766387434908386 -0.099420250131034
v -0.09956569268751442 0.022766387434908386 -0.08445526524488961
v -0.09541448962031343 0.022766387434908386 -0.08445526524488961
v -0.09956569268751442 0.022766387434908386 -0.08145066827937764
v -0.09541448962031343 0.022766387434908386 -0.08145066827937764
v -0.09956569268751442 0.022766387434908386 -0.06702988284362016
v -0.09541448962031343 0.022766387434908386 -0.06702988284362016
v -0.09956569268751442 0.022766387434908386 -0.06402528587810674
v -0.09541448962031343 0.022766387434908386 -0.06402528587810674
v 0.2847533912746174 0.010714006246912794 -0.14314860596766854
v 0.28355439038871016 0.007617111080713834 -0.14314860596766854
v 0.09356575001165765 0.08339339280501734 -0.14314860596766854
v 0.09356575001165765 0.0864901879713729 -0.14314860596766854
v 0.09356575001165765 0.08339339280501734 -0.13982760932170346
v 0.28355439038871016 0.007617111080713834 -0.13982770932160232
v 0.2847533912746174 0.010714006246912794 -0.13982770932160232
v 0.09356575001165765 0.0864901879713729 -0.13982760932170346
v -0.09664379052860872 0.007617111080713834 -0.14314860596766854
v -0.09784279141451596 0.010714006246912794 -0.14314860596766854
v -0.09784279141451596 0.010714006246912794 -0.13982770932160232
v -0.09664379052860872 0.007617111080713834 -0.13982770932160232
vt 1 0
vt 1 0.5
vt 0.5 0.5
vt 0.5 0
vt 1 0.5
vt 1 1
vt 0.5 1
vt 0.5 0.5
vt 0 0
vt 0.5 0
vt 0.5 0.5
vt 0 0.5
vt 0 0.5
vt 0.5 0.5
vt 0.5 1
vt 0 1
vt 0 0
vt 0.5 0
vt 0.5 1
vt 0 1
vt 0 1
vt 0 0
vt 0.5 0
vt 0.5 1
vt 0.5 1
vt 0.5 0
vt 1 0
vt 1 1
vt 0 0
vt 0.5 0
vt 0.5 1
vt 0 1
vt 0 1
vt 0 0
vt 0.5 0
vt 0.5 1
vt 0.5 1
vt 0.5 0
vt 1 0
vt 1 1
vt 1 0
vt 1 0.5
vt 0.5 0.5
vt 0.5 0
vt 1 0.5
vt 1 1
vt 0.5 1
vt 0.5 0.5
vt 0 0
vt 0.5 0
vt 0.5 0.5
vt 0 0.5
vt 0 0.5
vt 0.5 0.5
vt 0.5 1
vt 0 1
vt 0 0
vt 0.5 0
vt 0.5 1
vt 0 1
vt 0 1
vt 0 0
vt 0.5 0
vt 0.5 1
vt 0.5 1
vt 0.5 0
vt 1 0
vt 1 1
vt 0 0
vt 0.5 0
vt 0.5 1
vt 0 1
vt 0 1
vt 0 0
vt 0.5 0
vt 0.5 1
vt 0.5 1
vt 0.5 0
vt 1 0
vt 1 1
vt 1 0
vt 1 0.5
vt 0.5 0.5
vt 0.5 0
vt 1 0.5
vt 1 1
vt 0.5 1
vt 0.5 0.5
vt 0 0
vt 0.5 0
vt 0.5 0.5
vt 0 0.5
vt 0 0.5
vt 0.5 0.5
vt 0.5 1
vt 0 1
vt 0 0
vt 0.5 0
vt 0.5 1
vt 0 1
vt 0 1
vt 0 0
vt 0.5 0
vt 0.5 1
vt 0.5 1
vt 0.5 0
vt 1 0
vt 1 1
vt 0 0
vt 0.5 0
vt 0.5 1
vt 0 1
vt 0 1
vt 0 0
vt 0.5 0
vt 0.5 1
vt 0.5 1
vt 0.5 0
vt 1 0
vt 1 1
vt 1 0
vt 1 0.5
vt 0.5 0.5
vt 0.5 0
vt 1 0.5
vt 1 1
vt 0.5 1
vt 0.5 0.5
vt 0 0
vt 0.5 0
vt 0.5 0.5
vt 0 0.5
vt 0 0.5
vt 0.5 0.5
vt 0.5 1
vt 0 1
vt 0 0
vt 0.5 0
vt 0.5 1
vt 0 1
vt 0 1
vt 0 0
vt 0.5 0
vt 0.5 1
vt 0.5 1
vt 0.5 0
vt 1 0
vt 1 1
vt 0 0
vt 0.5 0
vt 0.5 1
vt 0 1
vt 0 1
vt 0 0
vt 0.5 0
vt 0.5 1
vt 0.5 1
vt 0.5 0
vt 1 0
vt 1 1
vt 1 0
vt 1 0.5
vt 0.5 0.5
vt 0.5 0
vt 1 0.5
vt 1 1
vt 0.5 1
vt 0.5 0.5
vt 0 0
vt 0.5 0
vt 0.5 0.5
vt 0 0.5
vt 0 0.5
vt 0.5 0.5
vt 0.5 1
vt 0 1
vt 0 0
vt 0.5 0
vt 0.5 1
vt 0 1
vt 0 1
vt 0 0
vt 0.5 0
vt 0.5 1
vt 0.5 1
vt 0.5 0
vt 1 0
vt 1 1
vt 0 0
vt 0.5 0
vt 0.5 1
vt 0 1
vt 0 1
vt 0 0
vt 0.5 0
vt 0.5 1
vt 0.5 1
vt 0.5 0
vt 1 0
vt 1 1
vt 0.5 0.5
vt 0 0.5
vt 0 0
vt 0.5 0
vt 0.5 1
vt 0 1
vt 0 0.5
vt 0.5 0.5
vt 0.5 0
vt 1 0
vt 1 0.5
vt 0.5 0.5
vt 0.5 0.5
vt 1 0.5
vt 1 1
vt 0.5 1
vt 0.5 0
vt 1 0
vt 1 1
vt 0.5 1
vt 0.5 0
vt 1 0
vt 1 1
vt 0.5 1
vt 0.5 0.5
vt 0 0.5
vt 0 0
vt 0.5 0
vt 0.5 1
vt 0 1
vt 0 0.5
vt 0.5 0.5
vt 0.5 0
vt 1 0
vt 1 0.5
vt 0.5 0.5
vt 0.5 0.5
vt 1 0.5
vt 1 1
vt 0.5 1
vt 0.5 0
vt 1 0
vt 1 1
vt 0.5 1
vt 0.5 0
vt 1 0
vt 1 1
vt 0.5 1
vt 0.5 0.5
vt 0 0.5
vt 0 0
vt 0.5 0
vt 0.5 1
vt 0 1
vt 0 0.5
vt 0.5 0.5
vt 0.5 0
vt 1 0
vt 1 0.5
vt 0.5 0.5
vt 0.5 0.5
vt 1 0.5
vt 1 1
vt 0.5 1
vt 0.5 0
vt 1 0
vt 1 1
vt 0.5 1
vt 0.5 0
vt 1 0
vt 1 1
vt 0.5 1
vt 0.5 0.5
vt 0 0.5
vt 0 0
vt 0.5 0
vt 0.5 1
vt 0 1
vt 0 0.5
vt 0.5 0.5
vt 0.5 0
vt 1 0
vt 1 0.5
vt 0.5 0.5
vt 0.5 0.5
vt 1 0.5
vt 1 1
vt 0.5 1
vt 0.5 0
vt 1 0
vt 1 1
vt 0.5 1
vt 0.5 0
vt 1 0
vt 1 1
vt 0.5 1
vt 0.5 0.5
vt 0 0.5
vt 0 0
vt 0.5 0
vt 0.5 1
vt 0 1
vt 0 0.5
vt 0.5 0.5
vt 0.5 0
vt 1 0
vt 1 0.5
vt 0.5 0.5
vt 0.5 0.5
vt 1 0.5
vt 1 1
vt 0.5 1
vt 0.5 0
vt 1 0
vt 1 1
vt 0.5 1
vt 0.5 0
vt 1 0
vt 1 1
vt 0.5 1
vt 1 1
vt 1 0
vt 0 0
vt 0 1
vt 1 0
vt 0 0
vt 0 1
vt 1 1
vt 1 0
vt 0 0
vt 0 0.13870000000000005
vt 1 0.13870000000000005
vt 1 0.1946
vt 0 0.1946
vt 0 0.3054
vt 1 0.3054
vt 1 0.36129999999999995
vt 0 0.36129999999999995
vt 0 0.47209999999999996
vt 1 0.47209999999999996
vt 1 0.5279
vt 0 0.5279
vt 0 0.6387
vt 1 0.6387
vt 1 0.6946
vt 0 0.6946
vt 0 0.8054
vt 1 0.8054
vt 1 0.8613
vt 0 0.8613
vt 0 1
vt 1 1
vt 1 0
vt 0 0
vt 0 0.13870000000000005
vt 1 0.13870000000000005
vt 1 0.1946
vt 0 0.1946
vt 0 0.3054
vt 1 0.3054
vt 1 0.36129999999999995
vt 0 0.36129999999999995
vt 0 0.47209999999999996
vt 1 0.47209999999999996
vt 1 0.5279
vt 0 0.5279
vt 0 0.6387
vt 1 0.6387
vt 1 0.6946
vt 0 0.6946
vt 0 0.8054
vt 1 0.8054
vt 1 0.8613
vt 0 0.8613
vt 0 1
vt 1 1
vt 1 0
vt 0 0
vt 0 0.13870000000000005
vt 1 0.13870000000000005
vt 1 0.1946
vt 0 0.1946
vt 0 0.3054
vt 1 0.3054
vt 1 0.36129999999999995
vt 0 0.36129999999999995
vt 0 0.47209999999999996
vt 1 0.47209999999999996
vt 1 0.5279
vt 0 0.5279
vt 0 0.6387
vt 1 0.6387
vt 1 0.6946
vt 0 0.6946
vt 0 0.8054
vt 1 0.8054
vt 1 0.8613
vt 0 0.8613
vt 0 1
vt 1 1
vt 1 0
vt 0 0
vt 0 0.13870000000000005
vt 1 0.13870000000000005
vt 1 0.1946
vt 0 0.1946
vt 0 0.3054
vt 1 0.3054
vt 1 0.36129999999999995
vt 0 0.36129999999999995
vt 0 0.47209999999999996
vt 1 0.47209999999999996
vt 1 0.5279
vt 0 0.5279
vt 0 0.6387
vt 1 0.6387
vt 1 0.6946
vt 0 0.6946
vt 0 0.8054
vt 1 0.8054
vt 1 0.8613
vt 0 0.8613
vt 0 1
vt 1 1
vt 1 0.1946
vt 1 0.13870000000000005
vt 0 0.13870000000000005
vt 0 0.1946
vt 1 0.36129999999999995
vt 1 0.3054
vt 0 0.3054
vt 0 0.36129999999999995
vt 1 0.5279
vt 1 0.47209999999999996
vt 0 0.47209999999999996
vt 0 0.5279
vt 1 0.6946
vt 1 0.6387
vt 0 0.6387
vt 0 0.6946
vt 1 0.8613
vt 1 0.8054
vt 0 0.8054
vt 0 0.8613
vt 1 0.1946
vt 1 0.13870000000000005
vt 0 0.13870000000000005
vt 0 0.1946
vt 1 0.36129999999999995
vt 1 0.3054
vt 0 0.3054
vt 0 0.36129999999999995
vt 1 0.5279
vt 1 0.47209999999999996
vt 0 0.47209999999999996
vt 0 0.5279
vt 1 0.6946
vt 1 0.6387
vt 0 0.6387
vt 0 0.6946
vt 1 0.8613
vt 1 0.8054
vt 0 0.8054
vt 0 0.8613
vt 1 0.1946
vt 1 0.13870000000000005
vt 0 0.13870000000000005
vt 0 0.1946
vt 1 0.36129999999999995
vt 1 0.3054
vt 0 0.3054
vt 0 0.36129999999999995
vt 1 0.5279
vt 1 0.47209999999999996
vt 0 0.47209999999999996
vt 0 0.5279
vt 1 0.6946
vt 1 0.6387
vt 0 0.6387
vt 0 0.6946
vt 1 0.8613
vt 1 0.8054
vt 0 0.8054
vt 0 0.8613
vt 1 0.1946
vt 1 0.13870000000000005
vt 0 0.13870000000000005
vt 0 0.1946
vt 1 0.36129999999999995
vt 1 0.3054
vt 0 0.3054
vt 0 0.36129999999999995
vt 1 0.5279
vt 1 0.47209999999999996
vt 0 0.47209999999999996
vt 0 0.5279
vt 1 0.6946
vt 1 0.6387
vt 0 0.6387
vt 0 0.6946
vt 1 0.8613
vt 1 0.8054
vt 0 0.8054
vt 0 0.8613
vt 1 0.13870000000000005
vt 1 0.13870000000000005
vt 0 0.13870000000000005
vt 0 0.13870000000000005
vt 0.1086 0.1946
vt 0 0.1946
vt 0 0.13870000000000005
vt 0.1086 0.13870000000000005
vt 0 0.1946
vt 0 0.1946
vt 1 0.1946
vt 1 0.1946
vt 0.8914 0.13870000000000005
vt 1 0.13870000000000005
vt 1 0.1946
vt 0.8914 0.1946
vt 1 0.3054
vt 1 0.3054
vt 0 0.3054
vt 0 0.3054
vt 0.2369 0.36129999999999995
vt 0 0.36129999999999995
vt 0 0.3054
vt 0.2369 0.3054
vt 0 0.36129999999999995
vt 0 0.36129999999999995
vt 1 0.36129999999999995
vt 1 0.36129999999999995
vt 0.7631 0.3054
vt 1 0.3054
vt 1 0.36129999999999995
vt 0.7631 0.36129999999999995
vt 1 0.47209999999999996
vt 1 0.47209999999999996
vt 0 0.47209999999999996
vt 0 0.47209999999999996
vt 0.1455 0.5279
vt 0 0.5279
vt 0 0.47209999999999996
vt 0.1455 0.47209999999999996
vt 0 0.5279
vt 0 0.5279
vt 1 0.5279
vt 1 0.5279
vt 0.8545 0.5279
vt 0.8545 0.47209999999999996
vt 1 0.47209999999999996
vt 1 0.5279
vt 1 0.6387
vt 1 0.6387
vt 0 0.6387
vt 0 0.6387
vt 0.4635 0.6946
vt 0 0.6946
vt 0 0.6387
vt 0.4635 0.6387
vt 0 0.6946
vt 0 0.6946
vt 1 0.6946
vt 1 0.6946
vt 0.5365 0.6387
vt 1 0.6387
vt 1 0.6946
vt 0.5365 0.6946
vt 1 0.8054
vt 1 0.8054
vt 0 0.8054
vt 0 0.8054
vt 0.2085 0.8613
vt 0 0.8613
vt 0 0.8054
vt 0.2085 0.8054
vt 0 0.8613
vt 0 0.8613
vt 1 0.8613
vt 1 0.8613
vt 0.7915 0.8054
vt 1 0.8054
vt 1 0.8613
vt 0.7915 0.8613
vt 0 0.13870000000000005
vt 1 0.13870000000000005
vt 1 0.13870000000000005
vt 0 0.13870000000000005
vt 1 0.13870000000000005
vt 1 0.1946
vt 0.1609 0.1946
vt 0.1609 0.13870000000000005
vt 1 0.1946
vt 0 0.1946
vt 0 0.1946
vt 1 0.1946
vt 0 0.1946
vt 0 0.13870000000000005
vt 0.8391 0.13870000000000005
vt 0.8391 0.1946
vt 0 0.3054
vt 1 0.3054
vt 1 0.3054
vt 0 0.3054
vt 1 0.3054
vt 1 0.36129999999999995
vt 0.3511 0.36129999999999995
vt 0.3511 0.3054
vt 1 0.36129999999999995
vt 0 0.36129999999999995
vt 0 0.36129999999999995
vt 1 0.36129999999999995
vt 0 0.36129999999999995
vt 0 0.3054
vt 0.6489 0.3054
vt 0.6489 0.36129999999999995
vt 0 0.47209999999999996
vt 1 0.47209999999999996
vt 1 0.47209999999999996
vt 0 0.47209999999999996
vt 0.2156 0.47209999999999996
vt 1 0.47209999999999996
vt 1 0.5279
vt 0.2156 0.5279
vt 1 0.5279
vt 0 0.5279
vt 0 0.5279
vt 1 0.5279
vt 0 0.5279
vt 0 0.47209999999999996
vt 0.7844 0.47209999999999996
vt 0.7844 0.5279
vt 0 0.6387
vt 1 0.6387
vt 1 0.6387
vt 0 0.6387
vt 1 0.6387
vt 1 0.6946
vt 0.6871 0.6946
vt 0.6871 0.6387
vt 1 0.6946
vt 0 0.6946
vt 0 0.6946
vt 1 0.6946
vt 0 0.6946
vt 0 0.6387
vt 0.3129 0.6387
vt 0.3129 0.6946
vt 0 0.8054
vt 1 0.8054
vt 1 0.8054
vt 0 0.8054
vt 1 0.8054
vt 1 0.8613
vt 0.3091 0.8613
vt 0.3091 0.8054
vt 1 0.8613
vt 0 0.8613
vt 0 0.8613
vt 1 0.8613
vt 0 0.8613
vt 0 0.8054
vt 0.6909 0.8054
vt 0.6909 0.8613
vt 1 0.13870000000000005
vt 1 0.13870000000000005
vt 0 0.13870000000000005
vt 0 0.13870000000000005
vt 0.1609 0.1946
vt 0.1086 0.1946
vt 0.1086 0.13870000000000005
vt 0.1609 0.13870000000000005
vt 0.8391 0.13870000000000005
vt 0.8914 0.13870000000000005
vt 0.8914 0.1946
vt 0.8391 0.1946
vt 0.3511 0.36129999999999995
vt 0.2369 0.36129999999999995
vt 0.2369 0.3054
vt 0.3511 0.3054
vt 0.6489 0.3054
vt 0.7631 0.3054
vt 0.7631 0.36129999999999995
vt 0.6489 0.36129999999999995
vt 0.2156 0.5279
vt 0.1455 0.5279
vt 0.1455 0.47209999999999996
vt 0.2156 0.47209999999999996
vt 0.7844 0.5279
vt 0.7844 0.47209999999999996
vt 0.8545 0.47209999999999996
vt 0.8545 0.5279
vt 0.6871 0.6946
vt 0.4635 0.6946
vt 0.4635 0.6387
vt 0.6871 0.6387
vt 0.3129 0.6387
vt 0.5365 0.6387
vt 0.5365 0.6946
vt 0.3129 0.6946
vt 0.3091 0.8613
vt 0.2085 0.8613
vt 0.2085 0.8054
vt 0.3091 0.8054
vt 0 0.8613
vt 0 0.8613
vt 1 0.8613
vt 1 0.8613
vt 0.6909 0.8054
vt 0.7915 0.8054
vt 0.7915 0.8613
vt 0.6909 0.8613
vt 1 0.3054
vt 0 0.3054
vt 0 0.3054
vt 1 0.3054
vt 0.3511 0.3054
vt 0.2369 0.3054
vt 1 0.3054
vt 1 0.3054
vt 0 0.3054
vt 1 0.3054
vt 1 0.3054
vt 0 0.3054
vt 0.7631 0.3054
vt 0.6489 0.3054
vt 0 0.3054
vt 0 0.3054
vt 1 0.47209999999999996
vt 0 0.47209999999999996
vt 0 0.47209999999999996
vt 1 0.47209999999999996
vt 0.2156 0.47209999999999996
vt 0.1455 0.47209999999999996
vt 1 0.47209999999999996
vt 1 0.47209999999999996
vt 0 0.47209999999999996
vt 1 0.47209999999999996
vt 1 0.47209999999999996
vt 0 0.47209999999999996
vt 0.8545 0.47209999999999996
vt 0.7844 0.47209999999999996
vt 0 0.47209999999999996
vt 0 0.47209999999999996
vt 1 0.6387
vt 0 0.6387
vt 0 0.6387
vt 1 0.6387
vt 0.6871 0.6387
vt 0.4635 0.6387
vt 1 0.6387
vt 1 0.6387
vt 0 0.6387
vt 1 0.6387
vt 1 0.6387
vt 0 0.6387
vt 0.5365 0.6387
vt 0.3129 0.6387
vt 0 0.6387
vt 0 0.6387
vt 1 0.8054
vt 0 0.8054
vt 0 0.8054
vt 1 0.8054
vt 0.3091 0.8054
vt 0.2085 0.8054
vt 1 0.8054
vt 1 0.8054
vt 0 0.8054
vt 1 0.8054
vt 1 0.8054
vt 0 0.8054
vt 0.7915 0.8054
vt 0.6909 0.8054
vt 0 0.8054
vt 0 0.8054
vt 0 0
vt 1 0
vt 1 1
vt 0 1
vt 0 1
vt 0 0
vt 1 0
vt 1 1
vt 0 0.13870000000000005
vt 0 0
vt 1 0
vt 1 0.13870000000000005
vt 0 0.3054
vt 0 0.1946
vt 1 0.1946
vt 1 0.3054
vt 0 0.47209999999999996
vt 0 0.36129999999999995
vt 1 0.36129999999999995
vt 1 0.47209999999999996
vt 0 0.6387
vt 0 0.5279
vt 1 0.5279
vt 1 0.6387
vt 0 0.8054
vt 0 0.6946
vt 1 0.6946
vt 1 0.8054
vt 0 1
vt 0 0.8613
vt 1 0.8613
vt 1 1
vt 0 0.13870000000000005
vt 0 0
vt 1 0
vt 1 0.13870000000000005
vt 0 0.3054
vt 0 0.1946
vt 1 0.1946
vt 1 0.3054
vt 0 0.47209999999999996
vt 0 0.36129999999999995
vt 1 0.36129999999999995
vt 1 0.47209999999999996
vt 0 0.6387
vt 0 0.5279
vt 1 0.5279
vt 1 0.6387
vt 0 0.8054
vt 0 0.6946
vt 1 0.6946
vt 1 0.8054
vt 0 1
vt 0 0.8613
vt 1 0.8613
vt 1 1
vt 0 0.13870000000000005
vt 0 0
vt 1 0
vt 1 0.13870000000000005
vt 0 0.3054
vt 0 0.1946
vt 1 0.1946
vt 1 0.3054
vt 0 0.47209999999999996
vt 0 0.36129999999999995
vt 1 0.36129999999999995
vt 1 0.47209999999999996
vt 0 0.6387
vt 0 0.5279
vt 1 0.5279
vt 1 0.6387
vt 0 0.8054
vt 0 0.6946
vt 1 0.6946
vt 1 0.8054
vt 0 1
vt 0 0.8613
vt 1 0.8613
vt 1 1
vt 0 0.13870000000000005
vt 0 0
vt 1 0
vt 1 0.13870000000000005
vt 0 0.3054
vt 0 0.1946
vt 1 0.1946
vt 1 0.3054
vt 0 0.47209999999999996
vt 0 0.36129999999999995
vt 1 0.36129999999999995
vt 1 0.47209999999999996
vt 0 0.6387
vt 0 0.5279
vt 1 0.5279
vt 1 0.6387
vt 0 0.8054
vt 0 0.6946
vt 1 0.6946
vt 1 0.8054
vt 0 1
vt 0 0.8613
vt 1 0.8613
vt 1 1
vt 0 0.13870000000000005
vt 1 0.13870000000000005
vt 1 0.1946
vt 0 0.1946
vt 0 0.3054
vt 1 0.3054
vt 1 0.36129999999999995
vt 0 0.36129999999999995
vt 0 0.47209999999999996
vt 1 0.47209999999999996
vt 1 0.5279
vt 0 0.5279
vt 0 0.6387
vt 1 0.6387
vt 1 0.6946
vt 0 0.6946
vt 0 0.8054
vt 1 0.8054
vt 1 0.8613
vt 0 0.8613
vt 0 0.13870000000000005
vt 1 0.13870000000000005
vt 1 0.1946
vt 0 0.1946
vt 0 0.3054
vt 1 0.3054
vt 1 0.36129999999999995
vt 0 0.36129999999999995
vt 0 0.47209999999999996
vt 1 0.47209999999999996
vt 1 0.5279
vt 0 0.5279
vt 0 0.6387
vt 1 0.6387
vt 1 0.6946
vt 0 0.6946
vt 0 0.8054
vt 1 0.8054
vt 1 0.8613
vt 0 0.8613
vt 0 0.13870000000000005
vt 1 0.13870000000000005
vt 1 0.1946
vt 0 0.1946
vt 0 0.3054
vt 1 0.3054
vt 1 0.36129999999999995
vt 0 0.36129999999999995
vt 0 0.47209999999999996
vt 1 0.47209999999999996
vt 1 0.5279
vt 0 0.5279
vt 0 0.6387
vt 1 0.6387
vt 1 0.6946
vt 0 0.6946
vt 0 0.8054
vt 1 0.8054
vt 1 0.8613
vt 0 0.8613
vt 0 0.13870000000000005
vt 1 0.13870000000000005
vt 1 0.1946
vt 0 0.1946
vt 0 0.3054
vt 1 0.3054
vt 1 0.36129999999999995
vt 0 0.36129999999999995
vt 0 0.47209999999999996
vt 1 0.47209999999999996
vt 1 0.5279
vt 0 0.5279
vt 0 0.6387
vt 1 0.6387
vt 1 0.6946
vt 0 0.6946
vt 0 0.8054
vt 1 0.8054
vt 1 0.8613
vt 0 0.8613
vt 0 0.13870000000000005
vt 1 0.13870000000000005
vt 1 0.13870000000000005
vt 0 0.13870000000000005
vt 0 0.13870000000000005
vt 0 0.1946
vt 0.1086 0.1946
vt 0.1086 0.13870000000000005
vt 1 0.1946
vt 0 0.1946
vt 0 0.1946
vt 1 0.1946
vt 1 0.1946
vt 1 0.13870000000000005
vt 0.8914 0.13870000000000005
vt 0.8914 0.1946
vt 0 0.3054
vt 1 0.3054
vt 1 0.3054
vt 0 0.3054
vt 0 0.3054
vt 0 0.36129999999999995
vt 0.2369 0.36129999999999995
vt 0.2369 0.3054
vt 1 0.36129999999999995
vt 0 0.36129999999999995
vt 0 0.36129999999999995
vt 1 0.36129999999999995
vt 1 0.36129999999999995
vt 1 0.3054
vt 0.7631 0.3054
vt 0.7631 0.36129999999999995
vt 0 0.47209999999999996
vt 1 0.47209999999999996
vt 1 0.47209999999999996
vt 0 0.47209999999999996
vt 0 0.47209999999999996
vt 0 0.5279
vt 0.1455 0.5279
vt 0.1455 0.47209999999999996
vt 1 0.5279
vt 0 0.5279
vt 0 0.5279
vt 1 0.5279
vt 0.8545 0.5279
vt 1 0.5279
vt 1 0.47209999999999996
vt 0.8545 0.47209999999999996
vt 0 0.6387
vt 1 0.6387
vt 1 0.6387
vt 0 0.6387
vt 0 0.6387
vt 0 0.6946
vt 0.4635 0.6946
vt 0.4635 0.6387
vt 1 0.6946
vt 0 0.6946
vt 0 0.6946
vt 1 0.6946
vt 1 0.6946
vt 1 0.6387
vt 0.5365 0.6387
vt 0.5365 0.6946
vt 0 0.8054
vt 1 0.8054
vt 1 0.8054
vt 0 0.8054
vt 0 0.8054
vt 0 0.8613
vt 0.2085 0.8613
vt 0.2085 0.8054
vt 1 0.8613
vt 0 0.8613
vt 0 0.8613
vt 1 0.8613
vt 1 0.8613
vt 1 0.8054
vt 0.7915 0.8054
vt 0.7915 0.8613
vt 1 0.13870000000000005
vt 1 0.13870000000000005
vt 0 0.13870000000000005
vt 0 0.13870000000000005
vt 0.1609 0.1946
vt 1 0.1946
vt 1 0.13870000000000005
vt 0.1609 0.13870000000000005
vt 0 0.1946
vt 0 0.1946
vt 1 0.1946
vt 1 0.1946
vt 0.8391 0.13870000000000005
vt 0 0.13870000000000005
vt 0 0.1946
vt 0.8391 0.1946
vt 1 0.3054
vt 1 0.3054
vt 0 0.3054
vt 0 0.3054
vt 0.3511 0.36129999999999995
vt 1 0.36129999999999995
vt 1 0.3054
vt 0.3511 0.3054
vt 0 0.36129999999999995
vt 0 0.36129999999999995
vt 1 0.36129999999999995
vt 1 0.36129999999999995
vt 0.6489 0.3054
vt 0 0.3054
vt 0 0.36129999999999995
vt 0.6489 0.36129999999999995
vt 1 0.47209999999999996
vt 1 0.47209999999999996
vt 0 0.47209999999999996
vt 0 0.47209999999999996
vt 0.2156 0.47209999999999996
vt 0.2156 0.5279
vt 1 0.5279
vt 1 0.47209999999999996
vt 0 0.5279
vt 0 0.5279
vt 1 0.5279
vt 1 0.5279
vt 0.7844 0.47209999999999996
vt 0 0.47209999999999996
vt 0 0.5279
vt 0.7844 0.5279
vt 1 0.6387
vt 1 0.6387
vt 0 0.6387
vt 0 0.6387
vt 0.6871 0.6946
vt 1 0.6946
vt 1 0.6387
vt 0.6871 0.6387
vt 0 0.6946
vt 0 0.6946
vt 1 0.6946
vt 1 0.6946
vt 0.3129 0.6387
vt 0 0.6387
vt 0 0.6946
vt 0.3129 0.6946
vt 1 0.8054
vt 1 0.8054
vt 0 0.8054
vt 0 0.8054
vt 0.3091 0.8613
vt 1 0.8613
vt 1 0.8054
vt 0.3091 0.8054
vt 0 0.8613
vt 0 0.8613
vt 1 0.8613
vt 1 0.8613
vt 0.6909 0.8054
vt 0 0.8054
vt 0 0.8613
vt 0.6909 0.8613
vt 0 0.13870000000000005
vt 1 0.13870000000000005
vt 1 0.13870000000000005
vt 0 0.13870000000000005
vt 0.1086 0.13870000000000005
vt 0.1086 0.1946
vt 0.1609 0.1946
vt 0.1609 0.13870000000000005
vt 0.8914 0.1946
vt 0.8914 0.13870000000000005
vt 0.8391 0.13870000000000005
vt 0.8391 0.1946
vt 0.2369 0.3054
vt 0.2369 0.36129999999999995
vt 0.3511 0.36129999999999995
vt 0.3511 0.3054
vt 0.7631 0.36129999999999995
vt 0.7631 0.3054
vt 0.6489 0.3054
vt 0.6489 0.36129999999999995
vt 0.1455 0.47209999999999996
vt 0.1455 0.5279
vt 0.2156 0.5279
vt 0.2156 0.47209999999999996
vt 0.7844 0.5279
vt 0.8545 0.5279
vt 0.8545 0.47209999999999996
vt 0.7844 0.47209999999999996
vt 0.4635 0.6387
vt 0.4635 0.6946
vt 0.6871 0.6946
vt 0.6871 0.6387
vt 0.5365 0.6946
vt 0.5365 0.6387
vt 0.3129 0.6387
vt 0.3129 0.6946
vt 0.2085 0.8054
vt 0.2085 0.8613
vt 0.3091 0.8613
vt 0.3091 0.8054
vt 1 0.8613
vt 0 0.8613
vt 0 0.8613
vt 1 0.8613
vt 0.7915 0.8613
vt 0.7915 0.8054
vt 0.6909 0.8054
vt 0.6909 0.8613
vt 0 0.3054
vt 0 0.3054
vt 1 0.3054
vt 1 0.3054
vt 1 0.3054
vt 0.2369 0.3054
vt 0.3511 0.3054
vt 1 0.3054
vt 1 0.3054
vt 1 0.3054
vt 0 0.3054
vt 0 0.3054
vt 0 0.3054
vt 0.6489 0.3054
vt 0.7631 0.3054
vt 0 0.3054
vt 0 0.47209999999999996
vt 0 0.47209999999999996
vt 1 0.47209999999999996
vt 1 0.47209999999999996
vt 1 0.47209999999999996
vt 0.1455 0.47209999999999996
vt 0.2156 0.47209999999999996
vt 1 0.47209999999999996
vt 1 0.47209999999999996
vt 1 0.47209999999999996
vt 0 0.47209999999999996
vt 0 0.47209999999999996
vt 0 0.47209999999999996
vt 0.7844 0.47209999999999996
vt 0.8545 0.47209999999999996
vt 0 0.47209999999999996
vt 0 0.6387
vt 0 0.6387
vt 1 0.6387
vt 1 0.6387
vt 1 0.6387
vt 0.4635 0.6387
vt 0.6871 0.6387
vt 1 0.6387
vt 1 0.6387
vt 1 0.6387
vt 0 0.6387
vt 0 0.6387
vt 0 0.6387
vt 0.3129 0.6387
vt 0.5365 0.6387
vt 0 0.6387
vt 0 0.8054
vt 0 0.8054
vt 1 0.8054
vt 1 0.8054
vt 1 0.8054
vt 0.2085 0.8054
vt 0.3091 0.8054
vt 1 0.8054
vt 1 0.8054
vt 1 0.8054
vt 0 0.8054
vt 0 0.8054
vt 0 0.8054
vt 0.6909 0.8054
vt 0.7915 0.8054
vt 0 0.8054
vt 0 0
vt 1 0
vt 1 1
vt 0 1
vt 0 1
vt 0 0
vt 1 0
vt 1 1
vt 0 0.13870000000000005
vt 0 0
vt 1 0
vt 1 0.13870000000000005
vt 0 0.3054
vt 0 0.1946
vt 1 0.1946
vt 1 0.3054
vt 0 0.47209999999999996
vt 0 0.36129999999999995
vt 1 0.36129999999999995
vt 1 0.47209999999999996
vt 0 0.6387
vt 0 0.5279
vt 1 0.5279
vt 1 0.6387
vt 0 0.8054
vt 0 0.6946
vt 1 0.6946
vt 1 0.8054
vt 0 1
vt 0 0.8613
vt 1 0.8613
vt 1 1
vt 0 0.13870000000000005
vt 0 0
vt 1 0
vt 1 0.13870000000000005
vt 0 0.3054
vt 0 0.1946
vt 1 0.1946
vt 1 0.3054
vt 0 0.47209999999999996
vt 0 0.36129999999999995
vt 1 0.36129999999999995
vt 1 0.47209999999999996
vt 0 0.6387
vt 0 0.5279
vt 1 0.5279
vt 1 0.6387
vt 0 0.8054
vt 0 0.6946
vt 1 0.6946
vt 1 0.8054
vt 0 1
vt 0 0.8613
vt 1 0.8613
vt 1 1
vt 0 0.13870000000000005
vt 0 0
vt 1 0
vt 1 0.13870000000000005
vt 0 0.3054
vt 0 0.1946
vt 1 0.1946
vt 1 0.3054
vt 0 0.47209999999999996
vt 0 0.36129999999999995
vt 1 0.36129999999999995
vt 1 0.47209999999999996
vt 0 0.6387
vt 0 0.5279
vt 1 0.5279
vt 1 0.6387
vt 0 0.8054
vt 0 0.6946
vt 1 0.6946
vt 1 0.8054
vt 0 1
vt 0 0.8613
vt 1 0.8613
vt 1 1
vt 0 0.13870000000000005
vt 0 0
vt 1 0
vt 1 0.13870000000000005
vt 0 0.3054
vt 0 0.1946
vt 1 0.1946
vt 1 0.3054
vt 0 0.47209999999999996
vt 0 0.36129999999999995
vt 1 0.36129999999999995
vt 1 0.47209999999999996
vt 0 0.6387
vt 0 0.5279
vt 1 0.5279
vt 1 0.6387
vt 0 0.8054
vt 0 0.6946
vt 1 0.6946
vt 1 0.8054
vt 0 1
vt 0 0.8613
vt 1 0.8613
vt 1 1
vt 0 0.13870000000000005
vt 1 0.13870000000000005
vt 1 0.1946
vt 0 0.1946
vt 0 0.3054
vt 1 0.3054
vt 1 0.36129999999999995
vt 0 0.36129999999999995
vt 0 0.47209999999999996
vt 1 0.47209999999999996
vt 1 0.5279
vt 0 0.5279
vt 0 0.6387
vt 1 0.6387
vt 1 0.6946
vt 0 0.6946
vt 0 0.8054
vt 1 0.8054
vt 1 0.8613
vt 0 0.8613
vt 0 0.13870000000000005
vt 1 0.13870000000000005
vt 1 0.1946
vt 0 0.1946
vt 0 0.3054
vt 1 0.3054
vt 1 0.36129999999999995
vt 0 0.36129999999999995
vt 0 0.47209999999999996
vt 1 0.47209999999999996
vt 1 0.5279
vt 0 0.5279
vt 0 0.6387
vt 1 0.6387
vt 1 0.6946
vt 0 0.6946
vt 0 0.8054
vt 1 0.8054
vt 1 0.8613
vt 0 0.8613
vt 0 0.13870000000000005
vt 1 0.13870000000000005
vt 1 0.1946
vt 0 0.1946
vt 0 0.3054
vt 1 0.3054
vt 1 0.36129999999999995
vt 0 0.36129999999999995
vt 0 0.47209999999999996
vt 1 0.47209999999999996
vt 1 0.5279
vt 0 0.5279
vt 0 0.6387
vt 1 0.6387
vt 1 0.6946
vt 0 0.6946
vt 0 0.8054
vt 1 0.8054
vt 1 0.8613
vt 0 0.8613
vt 0 0.13870000000000005
vt 1 0.13870000000000005
vt 1 0.1946
vt 0 0.1946
vt 0 0.3054
vt 1 0.3054
vt 1 0.36129999999999995
vt 0 0.36129999999999995
vt 0 0.47209999999999996
vt 1 0.47209999999999996
vt 1 0.5279
vt 0 0.5279
vt 0 0.6387
vt 1 0.6387
vt 1 0.6946
vt 0 0.6946
vt 0 0.8054
vt 1 0.8054
vt 1 0.8613
vt 0 0.8613
vt 0 0.13870000000000005
vt 1 0.13870000000000005
vt 1 0.13870000000000005
vt 0 0.13870000000000005
vt 0 0.13870000000000005
vt 0 0.1946
vt 0.1086 0.1946
vt 0.1086 0.13870000000000005
vt 1 0.1946
vt 0 0.1946
vt 0 0.1946
vt 1 0.1946
vt 1 0.1946
vt 1 0.13870000000000005
vt 0.8914 0.13870000000000005
vt 0.8914 0.1946
vt 0 0.3054
vt 1 0.3054
vt 1 0.3054
vt 0 0.3054
vt 0 0.3054
vt 0 0.36129999999999995
vt 0.2369 0.36129999999999995
vt 0.2369 0.3054
vt 1 0.36129999999999995
vt 0 0.36129999999999995
vt 0 0.36129999999999995
vt 1 0.36129999999999995
vt 1 0.36129999999999995
vt 1 0.3054
vt 0.7631 0.3054
vt 0.7631 0.36129999999999995
vt 0 0.47209999999999996
vt 1 0.47209999999999996
vt 1 0.47209999999999996
vt 0 0.47209999999999996
vt 0 0.47209999999999996
vt 0 0.5279
vt 0.1455 0.5279
vt 0.1455 0.47209999999999996
vt 1 0.5279
vt 0 0.5279
vt 0 0.5279
vt 1 0.5279
vt 0.8545 0.5279
vt 1 0.5279
vt 1 0.47209999999999996
vt 0.8545 0.47209999999999996
vt 0 0.6387
vt 1 0.6387
vt 1 0.6387
vt 0 0.6387
vt 0 0.6387
vt 0 0.6946
vt 0.4635 0.6946
vt 0.4635 0.6387
vt 1 0.6946
vt 0 0.6946
vt 0 0.6946
vt 1 0.6946
vt 1 0.6946
vt 1 0.6387
vt 0.5365 0.6387
vt 0.5365 0.6946
vt 0 0.8054
vt 1 0.8054
vt 1 0.8054
vt 0 0.8054
vt 0 0.8054
vt 0 0.8613
vt 0.2085 0.8613
vt 0.2085 0.8054
vt 1 0.8613
vt 0 0.8613
vt 0 0.8613
vt 1 0.8613
vt 1 0.8613
vt 1 0.8054
vt 0.7915 0.8054
vt 0.7915 0.8613
vt 1 0.13870000000000005
vt 1 0.13870000000000005
vt 0 0.13870000000000005
vt 0 0.13870000000000005
vt 0.1609 0.1946
vt 1 0.1946
vt 1 0.13870000000000005
vt 0.1609 0.13870000000000005
vt 0 0.1946
vt 0 0.1946
vt 1 0.1946
vt 1 0.1946
vt 0.8391 0.13870000000000005
vt 0 0.13870000000000005
vt 0 0.1946
vt 0.8391 0.1946
vt 1 0.3054
vt 1 0.3054
vt 0 0.3054
vt 0 0.3054
vt 0.3511 0.36129999999999995
vt 1 0.36129999999999995
vt 1 0.3054
vt 0.3511 0.3054
vt 0 0.36129999999999995
vt 0 0.36129999999999995
vt 1 0.36129999999999995
vt 1 0.36129999999999995
vt 0.6489 0.3054
vt 0 0.3054
vt 0 0.36129999999999995
vt 0.6489 0.36129999999999995
vt 1 0.47209999999999996
vt 1 0.47209999999999996
vt 0 0.47209999999999996
vt 0 0.47209999999999996
vt 0.2156 0.47209999999999996
vt 0.2156 0.5279
vt 1 0.5279
vt 1 0.47209999999999996
vt 0 0.5279
vt 0 0.5279
vt 1 0.5279
vt 1 0.5279
vt 0.7844 0.47209999999999996
vt 0 0.47209999999999996
vt 0 0.5279
vt 0.7844 0.5279
vt 1 0.6387
vt 1 0.6387
vt 0 0.6387
vt 0 0.6387
vt 0.6871 0.6946
vt 1 0.6946
vt 1 0.6387
vt 0.6871 0.6387
vt 0 0.6946
vt 0 0.6946
vt 1 0.6946
vt 1 0.6946
vt 0.3129 0.6387
vt 0 0.6387
vt 0 0.6946
vt 0.3129 0.6946
vt 1 0.8054
vt 1 0.8054
vt 0 0.8054
vt 0 0.8054
vt 0.3091 0.8613
vt 1 0.8613
vt 1 0.8054
vt 0.3091 0.8054
vt 0 0.8613
vt 0 0.8613
vt 1 0.8613
vt 1 0.8613
vt 0.6909 0.8054
vt 0 0.8054
vt 0 0.8613
vt 0.6909 0.8613
vt 0 0.13870000000000005
vt 1 0.13870000000000005
vt 1 0.13870000000000005
vt 0 0.13870000000000005
vt 0.1086 0.13870000000000005
vt 0.1086 0.1946
vt 0.1609 0.1946
vt 0.1609 0.13870000000000005
vt 0.8914 0.1946
vt 0.8914 0.13870000000000005
vt 0.8391 0.13870000000000005
vt 0.8391 0.1946
vt 0.2369 0.3054
vt 0.2369 0.36129999999999995
vt 0.3511 0.36129999999999995
vt 0.3511 0.3054
vt 0.7631 0.36129999999999995
vt 0.7631 0.3054
vt 0.6489 0.3054
vt 0.6489 0.36129999999999995
vt 0.1455 0.47209999999999996
vt 0.1455 0.5279
vt 0.2156 0.5279
vt 0.2156 0.47209999999999996
vt 0.7844 0.5279
vt 0.8545 0.5279
vt 0.8545 0.47209999999999996
vt 0.7844 0.47209999999999996
vt 0.4635 0.6387
vt 0.4635 0.6946
vt 0.6871 0.6946
vt 0.6871 0.6387
vt 0.5365 0.6946
vt 0.5365 0.6387
vt 0.3129 0.6387
vt 0.3129 0.6946
vt 0.2085 0.8054
vt 0.2085 0.8613
vt 0.3091 0.8613
vt 0.3091 0.8054
vt 1 0.8613
vt 0 0.8613
vt 0 0.8613
vt 1 0.8613
vt 0.7915 0.8613
vt 0.7915 0.8054
vt 0.6909 0.8054
vt 0.6909 0.8613
vt 0 0.3054
vt 0 0.3054
vt 1 0.3054
vt 1 0.3054
vt 1 0.3054
vt 0.2369 0.3054
vt 0.3511 0.3054
vt 1 0.3054
vt 1 0.3054
vt 1 0.3054
vt 0 0.3054
vt 0 0.3054
vt 0 0.3054
vt 0.6489 0.3054
vt 0.7631 0.3054
vt 0 0.3054
vt 0 0.47209999999999996
vt 0 0.47209999999999996
vt 1 0.47209999999999996
vt 1 0.47209999999999996
vt 1 0.47209999999999996
vt 0.1455 0.47209999999999996
vt 0.2156 0.47209999999999996
vt 1 0.47209999999999996
vt 1 0.47209999999999996
vt 1 0.47209999999999996
vt 0 0.47209999999999996
vt 0 0.47209999999999996
vt 0 0.47209999999999996
vt 0.7844 0.47209999999999996
vt 0.8545 0.47209999999999996
vt 0 0.47209999999999996
vt 0 0.6387
vt 0 0.6387
vt 1 0.6387
vt 1 0.6387
vt 1 0.6387
vt 0.4635 0.6387
vt 0.6871 0.6387
vt 1 0.6387
vt 1 0.6387
vt 1 0.6387
vt 0 0.6387
vt 0 0.6387
vt 0 0.6387
vt 0.3129 0.6387
vt 0.5365 0.6387
vt 0 0.6387
vt 0 0.8054
vt 0 0.8054
vt 1 0.8054
vt 1 0.8054
vt 1 0.8054
vt 0.2085 0.8054
vt 0.3091 0.8054
vt 1 0.8054
vt 1 0.8054
vt 1 0.8054
vt 0 0.8054
vt 0 0.8054
vt 0 0.8054
vt 0.6909 0.8054
vt 0.7915 0.8054
vt 0 0.8054
vt 0 0
vt 1 0
vt 1 1
vt 0 1
vt 0 1
vt 0 0
vt 1 0
vt 1 1
vt 0 1
vt 0 0
vt 1 0
vt 1 1
vt 0 1
vt 0 0
vt 1 0
vt 1 1
vt 0 1
vt 0 0
vt 1 0
vt 1 1
vt 1 1
vt 1 0
vt 0 0
vt 0 1
vt 1 0
vt 0 0
vt 0 1
vt 1 1
vt 1 0
vt 0 0
vt 0 1
vt 1 1
vt 1 0
vt 0 0
vt 0 1
vt 1 1
vt 1 0
vt 0 0
vt 0 1
vt 1 1
vn 0 -1 -2.220446049250313e-16
vn 0 -1 -2.220446049250313e-16
vn 0 1 2.220446049250313e-16
vn 0 1 2.220446049250313e-16
vn 0 -2.220446049250313e-16 1
vn 1 0 0
vn 1 0 0
vn 0 2.220446049250313e-16 -1
vn -1 0 0
vn -1 0 0
vn 0 -1 -2.220446049250313e-16
vn 0 -1 -2.220446049250313e-16
vn 0 1 2.220446049250313e-16
vn 0 1 2.220446049250313e-16
vn 0 -2.220446049250313e-16 1
vn 1 0 0
vn 1 0 0
vn 0 2.220446049250313e-16 -1
vn -1 0 0
vn -1 0 0
vn 0 -1 -2.220446049250313e-16
vn 0 -1 -2.220446049250313e-16
vn 0 1 2.220446049250313e-16
vn 0 1 2.220446049250313e-16
vn 0 -2.220446049250313e-16 1
vn 1 0 0
vn 1 0 0
vn 0 2.220446049250313e-16 -1
vn -1 0 0
vn -1 0 0
vn 0 -1 -2.220446049250313e-16
vn 0 -1 -2.220446049250313e-16
vn 0 1 2.220446049250313e-16
vn 0 1 2.220446049250313e-16
vn 0 -2.220446049250313e-16 1
vn 1 0 0
vn 1 0 0
vn 0 2.220446049250313e-16 -1
vn -1 0 0
vn -1 0 0
vn 0 -1 -2.220446049250313e-16
vn 0 -1 -2.220446049250313e-16
vn 0 1 2.220446049250313e-16
vn 0 1 2.220446049250313e-16
vn 0 -2.220446049250313e-16 1
vn 1 0 0
vn 1 0 0
vn 0 2.220446049250313e-16 -1
vn -1 0 0
vn -1 0 0
vn 0 -1 -2.220446049250313e-16
vn 0 -1 -2.220446049250313e-16
vn 0 1 2.220446049250313e-16
vn 0 1 2.220446049250313e-16
vn 0 -2.220446049250313e-16 1
vn 0 2.220446049250313e-16 -1
vn 0 -1 -2.220446049250313e-16
vn 0 -1 -2.220446049250313e-16
vn 0 1 2.220446049250313e-16
vn 0 1 2.220446049250313e-16
vn 0 -2.220446049250313e-16 1
vn 0 2.220446049250313e-16 -1
vn 0 -1 -2.220446049250313e-16
vn 0 -1 -2.220446049250313e-16
vn 0 1 2.220446049250313e-16
vn 0 1 2.220446049250313e-16
vn 0 -2.220446049250313e-16 1
vn 0 2.220446049250313e-16 -1
vn 0 -1 -2.220446049250313e-16
vn 0 -1 -2.220446049250313e-16
vn 0 1 2.220446049250313e-16
vn 0 1 2.220446049250313e-16
vn 0 -2.220446049250313e-16 1
vn 0 2.220446049250313e-16 -1
vn 0 -1 -2.220446049250313e-16
vn 0 -1 -2.220446049250313e-16
vn 0 1 2.220446049250313e-16
vn 0 1 2.220446049250313e-16
vn 0 -2.220446049250313e-16 1
vn 0 2.220446049250313e-16 -1
vn 0 2.220446049250313e-16 -1
vn 0 -2.220446049250313e-16 1
vn 0 -1 -2.220446049250313e-16
vn 0 -1 -2.220446049250313e-16
vn 0 -1 -2.220446049250313e-16
vn 0 -1 -2.220446049250313e-16
vn 0 -1 -2.220446049250313e-16
vn 0 -1 -2.220446049250313e-16
vn -1 0 0
vn -1 0 0
vn -1 0 0
vn -1 0 0
vn -1 0 0
vn -1 0 0
vn 0 1 2.220446049250313e-16
vn 0 1 2.220446049250313e-16
vn 0 1 2.220446049250313e-16
vn 0 1 2.220446049250313e-16
vn 0 1 2.220446049250313e-16
vn 0 1 2.220446049250313e-16
vn 1 0 0
vn 1 0 0
vn 1 0 0
vn 1 0 0
vn 1 0 0
vn 1 0 0
vn 0 -1 -2.220446049250313e-16
vn 0 -1 -2.220446049250313e-16
vn 0 -1 -2.220446049250313e-16
vn 0 -1 -2.220446049250313e-16
vn 0 -1 -2.220446049250313e-16
vn -1 0 0
vn -1 0 0
vn -1 0 0
vn -1 0 0
vn -1 0 0
vn 0 1 2.220446049250313e-16
vn 0 1 2.220446049250313e-16
vn 0 1 2.220446049250313e-16
vn 0 1 2.220446049250313e-16
vn 0 1 2.220446049250313e-16
vn 1 0 0
vn 1 0 0
vn 1 0 0
vn 1 0 0
vn 1 0 0
vn 0 2.220446049250313e-16 -1
vn 1 0 0
vn 0 -2.220446049250313e-16 1
vn -1 0 0
vn 0 2.220446049250313e-16 -1
vn 1 0 0
vn 0 -2.220446049250313e-16 1
vn -1 0 0
vn 0 2.220446049250313e-16 -1
vn 1 0 0
vn 0 -0.00002489700255457484 0.9999999996900698
vn -1 0 0
vn 0 2.220446049250313e-16 -1
vn 1 0 0
vn 0 -2.220446049250313e-16 1
vn -1 0 0
vn 0 2.220446049250313e-16 -1
vn 1 0 0
vn 0 -2.220446049250313e-16 1
vn -1 0 0
vn 0 2.220446049250313e-16 -1
vn 1 0 0
vn 0 -2.220446049250313e-16 1
vn -1 0 0
vn 0 2.220446049250313e-16 -1
vn 1 0 0
vn 0 -2.220446049250313e-16 1
vn -1 0 0
vn 0 2.220446049250313e-16 -1
vn 1 0 0
vn 0 -2.220446049250313e-16 1
vn -1 0 0
vn 0 2.220446049250313e-16 -1
vn 1 0 0
vn 0 -2.220446049250313e-16 1
vn -1 0 0
vn 0 2.220446049250313e-16 -1
vn 1 0 0
vn 0 -2.220446049250313e-16 1
vn -1 0 0
vn 0 2.220446049250313e-16 -1
vn 1 0 0
vn -1 0 0
vn 1 0 0
vn -1 0 0
vn 1 0 0
vn -1 0 0
vn 1 0 0
vn -1 0 0
vn 1 0 0
vn 0 -2.220446049250313e-16 1
vn -1 0 0
vn 0 -1 -2.220446049250313e-16
vn 1 0 0
vn 0 1 2.220446049250313e-16
vn -1 0 0
vn 0 -1 -2.220446049250313e-16
vn 1 0 0
vn 0 1 2.220446049250313e-16
vn -1 0 0
vn 0 -1 -2.220446049250313e-16
vn 1 0 0
vn 0 1 2.220446049250313e-16
vn -1 0 0
vn 0 -1 -2.220446049250313e-16
vn 1 0 0
vn 0 1 2.220446049250313e-16
vn -1 0 0
vn 0 2.220446049250313e-16 -1
vn 0 -2.220446049250313e-16 1
vn 0 -1 -2.220446049250313e-16
vn 0 -1 -2.220446049250313e-16
vn 0 -1 -2.220446049250313e-16
vn 0 -1 -2.220446049250313e-16
vn 0 -1 -2.220446049250313e-16
vn 0 -1 -2.220446049250313e-16
vn 1 0 0
vn 1 0 0
vn 1 0 0
vn 1 0 0
vn 1 0 0
vn 1 0 0
vn 0 1 2.220446049250313e-16
vn 0 1 2.220446049250313e-16
vn 0 1 2.220446049250313e-16
vn 0 1 2.220446049250313e-16
vn 0 1 2.220446049250313e-16
vn 0 1 2.220446049250313e-16
vn -1 0 0
vn -1 0 0
vn -1 0 0
vn -1 0 0
vn -1 0 0
vn -1 0 0
vn 0 -1 -2.220446049250313e-16
vn 0 -1 -2.220446049250313e-16
vn 0 -1 -2.220446049250313e-16
vn 0 -1 -2.220446049250313e-16
vn 0 -1 -2.220446049250313e-16
vn 1 0 0
vn 1 0 0
vn 1 0 0
vn 1 0 0
vn 1 0 0
vn 0 1 2.220446049250313e-16
vn 0 1 2.220446049250313e-16
vn 0 1 2.220446049250313e-16
vn 0 1 2.220446049250313e-16
vn 0 1 2.220446049250313e-16
vn -1 0 0
vn -1 0 0
vn -1 0 0
vn -1 0 0
vn -1 0 0
vn 0 2.220446049250313e-16 -1
vn -1 0 0
vn 0 -2.220446049250313e-16 1
vn 1 0 0
vn 0 2.220446049250313e-16 -1
vn -1 0 0
vn 0 -2.220446049250313e-16 1
vn 1 0 0
vn 0 2.220446049250313e-16 -1
vn -1 0 0
vn 0 -0.00002489700255457484 0.9999999996900697
vn 1 0 0
vn 0 2.220446049250313e-16 -1
vn -1 0 0
vn 0 -2.220446049250313e-16 1
vn 1 0 0
vn 0 2.220446049250313e-16 -1
vn -1 0 0
vn 0 -2.220446049250313e-16 1
vn 1 0 0
vn 0 2.220446049250313e-16 -1
vn -1 0 0
vn 0 -2.220446049250313e-16 1
vn 1 0 0
vn 0 2.220446049250313e-16 -1
vn -1 0 0
vn 0 -2.220446049250313e-16 1
vn 1 0 0
vn 0 2.220446049250313e-16 -1
vn -1 0 0
vn 0 -2.220446049250313e-16 1
vn 1 0 0
vn 0 2.220446049250313e-16 -1
vn -1 0 0
vn 0 -2.220446049250313e-16 1
vn 1 0 0
vn 0 2.220446049250313e-16 -1
vn -1 0 0
vn 0 -2.220446049250313e-16 1
vn 1 0 0
vn 0 2.220446049250313e-16 -1
vn -1 0 0
vn 1 0 0
vn -1 0 0
vn 1 0 0
vn -1 0 0
vn 1 0 0
vn -1 0 0
vn 1 0 0
vn -1 0 0
vn 0 -2.220446049250313e-16 1
vn 1 0 0
vn 0 -1 -2.220446049250313e-16
vn -1 0 0
vn 0 1 2.220446049250313e-16
vn 1 0 0
vn 0 -1 -2.220446049250313e-16
vn -1 0 0
vn 0 1 2.220446049250313e-16
vn 1 0 0
vn 0 -1 -2.220446049250313e-16
vn -1 0 0
vn 0 1 2.220446049250313e-16
vn 1 0 0
vn 0 -1 -2.220446049250313e-16
vn -1 0 0
vn 0 1 2.220446049250313e-16
vn 1 0 0
vn 0 2.220446049250313e-16 -1
vn 0 -2.220446049250313e-16 1
vn 0 -1 -2.220446049250313e-16
vn 0 -1 -2.220446049250313e-16
vn 0 -1 -2.220446049250313e-16
vn 0 -1 -2.220446049250313e-16
vn 0 -1 -2.220446049250313e-16
vn 0 -1 -2.220446049250313e-16
vn 1 0 0
vn 1 0 0
vn 1 0 0
vn 1 0 0
vn 1 0 0
vn 1 0 0
vn 0 1 2.220446049250313e-16
vn 0 1 2.220446049250313e-16
vn 0 1 2.220446049250313e-16
vn 0 1 2.220446049250313e-16
vn 0 1 2.220446049250313e-16
vn 0 1 2.220446049250313e-16
vn -1 0 0
vn -1 0 0
vn -1 0 0
vn -1 0 0
vn -1 0 0
vn -1 0 0
vn 0 -1 -2.220446049250313e-16
vn 0 -1 -2.220446049250313e-16
vn 0 -1 -2.220446049250313e-16
vn 0 -1 -2.220446049250313e-16
vn 0 -1 -2.220446049250313e-16
vn 1 0 0
vn 1 0 0
vn 1 0 0
vn 1 0 0
vn 1 0 0
vn 0 1 2.220446049250313e-16
vn 0 1 2.220446049250313e-16
vn 0 1 2.220446049250313e-16
vn 0 1 2.220446049250313e-16
vn 0 1 2.220446049250313e-16
vn -1 0 0
vn -1 0 0
vn -1 0 0
vn -1 0 0
vn -1 0 0
vn 0 2.220446049250313e-16 -1
vn -1 0 0
vn 0 -2.220446049250313e-16 1
vn 1 0 0
vn 0 2.220446049250313e-16 -1
vn -1 0 0
vn 0 -2.220446049250313e-16 1
vn 1 0 0
vn 0 2.220446049250313e-16 -1
vn -1 0 0
vn 0 -0.000024897002554574833 0.9999999996900697
vn 1 0 0
vn 0 2.220446049250313e-16 -1
vn -1 0 0
vn 0 -2.220446049250313e-16 1
vn 1 0 0
vn 0 2.220446049250313e-16 -1
vn -1 0 0
vn 0 -2.220446049250313e-16 1
vn 1 0 0
vn 0 2.220446049250313e-16 -1
vn -1 0 0
vn 0 -2.220446049250313e-16 1
vn 1 0 0
vn 0 2.220446049250313e-16 -1
vn -1 0 0
vn 0 -2.220446049250313e-16 1
vn 1 0 0
vn 0 2.220446049250313e-16 -1
vn -1 0 0
vn 0 -2.220446049250313e-16 1
vn 1 0 0
vn 0 2.220446049250313e-16 -1
vn -1 0 0
vn 0 -2.220446049250313e-16 1
vn 1 0 0
vn 0 2.220446049250313e-16 -1
vn -1 0 0
vn 0 -2.220446049250313e-16 1
vn 1 0 0
vn 0 2.220446049250313e-16 -1
vn -1 0 0
vn 1 0 0
vn -1 0 0
vn 1 0 0
vn -1 0 0
vn 1 0 0
vn -1 0 0
vn 1 0 0
vn -1 0 0
vn 0 -2.220446049250313e-16 1
vn 1 0 0
vn 0 -1 -2.220446049250313e-16
vn -1 0 0
vn 0 1 2.220446049250313e-16
vn 1 0 0
vn 0 -1 -2.220446049250313e-16
vn -1 0 0
vn 0 1 2.220446049250313e-16
vn 1 0 0
vn 0 -1 -2.220446049250313e-16
vn -1 0 0
vn 0 1 2.220446049250313e-16
vn 1 0 0
vn 0 -1 -2.220446049250313e-16
vn -1 0 0
vn 0 1 2.220446049250313e-16
vn 1 0 0
vn 0 2.220446049250313e-16 -1
vn 4.559410952719723e-7 -1.7652317837779285e-7 0.9999999999998807
vn 0.9325475425369529 -0.3610472003883841 -8.016858296952736e-17
vn 0.3684592961435106 0.9296438818630653 2.0642240846925682e-16
vn -0.37046675660878287 -0.928845725752005 -2.0624518221090792e-16
vn 0 2.220446049250313e-16 -1
vn -4.55482344549067e-7 -1.7634556741789376e-7 0.9999999999998808
vn -0.9325475425369558 -0.36104720038837684 -8.016858296952575e-17
vn -0.3680917096754767 0.9297894886845005 2.0645473967839678e-16
vn 0.3700954745480791 -0.9289937242624582 -2.06278044481691e-16
usemtl none
f 2/1/1 3/2/1 4/3/1 5/4/1
f 3/5/2 6/6/2 7/7/2 4/8/2
f 8/9/3 9/10/3 10/11/3 11/12/3
f 11/13/4 10/14/4 12/15/4 13/16/4
f 2/17/5 5/18/5 9/19/5 8/20/5
f 14/21/6 15/22/6 16/23/6 17/24/6
f 17/25/7 16/26/7 18/27/7 19/28/7
f 18/29/8 7/30/8 12/31/8 19/32/8
f 13/33/9 6/34/9 3/35/9 11/36/9
f 11/37/10 3/38/10 2/39/10 8/40/10
f 20/41/11 21/42/11 22/43/11 23/44/11
f 21/45/12 24/46/12 25/47/12 22/48/12
f 26/49/13 27/50/13 28/51/13 29/52/13
f 29/53/14 28/54/14 30/55/14 31/56/14
f 20/57/15 23/58/15 27/59/15 26/60/15
f 32/61/16 33/62/16 34/63/16 35/64/16
f 35/65/17 34/66/17 36/67/17 37/68/17
f 36/69/18 25/70/18 30/71/18 37/72/18
f 31/73/19 24/74/19 21/75/19 29/76/19
f 29/77/20 21/78/20 20/79/20 26/80/20
f 38/81/21 39/82/21 40/83/21 41/84/21
f 39/85/22 42/86/22 43/87/22 40/88/22
f 44/89/23 45/90/23 46/91/23 47/92/23
f 47/93/24 46/94/24 48/95/24 49/96/24
f 38/97/25 41/98/25 45/99/25 44/100/25
f 50/101/26 51/102/26 52/103/26 53/104/26
f 53/105/27 52/106/27 54/107/27 55/108/27
f 54/109/28 43/110/28 48/111/28 55/112/28
f 49/113/29 42/114/29 39/115/29 47/116/29
f 47/117/30 39/118/30 38/119/30 44/120/30
f 56/121/31 57/122/31 58/123/31 59/124/31
f 57/125/32 60/126/32 61/127/32 58/128/32
f 62/129/33 63/130/33 64/131/33 65/132/33
f 65/133/34 64/134/34 66/135/34 67/136/34
f 56/137/35 59/138/35 63/139/35 62/140/35
f 68/141/36 69/142/36 70/143/36 71/144/36
f 71/145/37 70/146/37 72/147/37 73/148/37
f 72/149/38 61/150/38 66/151/38 73/152/38
f 67/153/39 60/154/39 57/155/39 65/156/39
f 65/157/40 57/158/40 56/159/40 62/160/40
f 74/161/41 75/162/41 76/163/41 77/164/41
f 75/165/42 78/166/42 79/167/42 76/168/42
f 80/169/43 81/170/43 82/171/43 83/172/43
f 83/173/44 82/174/44 84/175/44 85/176/44
f 74/177/45 77/178/45 81/179/45 80/180/45
f 86/181/46 87/182/46 88/183/46 89/184/46
f 89/185/47 88/186/47 90/187/47 91/188/47
f 90/189/48 79/190/48 84/191/48 91/192/48
f 85/193/49 78/194/49 75/195/49 83/196/49
f 83/197/50 75/198/50 74/199/50 80/200/50
f 4/201/51 16/202/51 15/203/51 5/204/51
f 7/205/52 18/206/52 16/207/52 4/208/52
f 9/209/53 14/210/53 17/211/53 10/212/53
f 10/213/54 17/214/54 19/215/54 12/216/54
f 5/217/55 15/218/55 14/219/55 9/220/55
f 7/221/56 6/222/56 13/223/56 12/224/56
f 22/225/57 34/226/57 33/227/57 23/228/57
f 25/229/58 36/230/58 34/231/58 22/232/58
f 27/233/59 32/234/59 35/235/59 28/236/59
f 28/237/60 35/238/60 37/239/60 30/240/60
f 23/241/61 33/242/61 32/243/61 27/244/61
f 25/245/62 24/246/62 31/247/62 30/248/62
f 40/249/63 52/250/63 51/251/63 41/252/63
f 43/253/64 54/254/64 52/255/64 40/256/64
f 45/257/65 50/258/65 53/259/65 46/260/65
f 46/261/66 53/262/66 55/263/66 48/264/66
f 41/265/67 51/266/67 50/267/67 45/268/67
f 43/269/68 42/270/68 49/271/68 48/272/68
f 58/273/69 70/274/69 69/275/69 59/276/69
f 61/277/70 72/278/70 70/279/70 58/280/70
f 63/281/71 68/282/71 71/283/71 64/284/71
f 64/285/72 71/286/72 73/287/72 66/288/72
f 59/289/73 69/290/73 68/291/73 63/292/73
f 61/293/74 60/294/74 67/295/74 66/296/74
f 76/297/75 88/298/75 87/299/75 77/300/75
f 79/301/76 90/302/76 88/303/76 76/304/76
f 81/305/77 86/306/77 89/307/77 82/308/77
f 82/309/78 89/310/78 91/311/78 84/312/78
f 77/313/79 87/314/79 86/315/79 81/316/79
f 79/317/80 78/318/80 85/319/80 84/320/80
f 92/321/81 93/322/81 94/323/81 95/324/81
f 96/325/82 97/326/82 98/327/82 99/328/82
f 94/329/83 93/330/83 100/331/83 101/332/83
f 102/333/84 103/334/84 104/335/84 105/336/84
f 106/337/85 107/338/85 108/339/85 109/340/85
f 110/341/86 111/342/86 112/343/86 113/344/86
f 114/345/87 115/346/87 116/347/87 117/348/87
f 118/349/88 119/350/88 97/351/88 96/352/88
f 95/353/89 94/354/89 101/355/89 120/356/89
f 121/357/90 102/358/90 105/359/90 122/360/90
f 123/361/91 106/362/91 109/363/91 124/364/91
f 125/365/92 110/366/92 113/367/92 126/368/92
f 127/369/93 114/370/93 117/371/93 128/372/93
f 129/373/94 118/374/94 96/375/94 99/376/94
f 92/377/95 95/378/95 120/379/95 1/380/95
f 130/381/96 121/382/96 122/383/96 131/384/96
f 132/385/97 123/386/97 124/387/97 133/388/97
f 134/389/98 125/390/98 126/391/98 135/392/98
f 136/393/99 127/394/99 128/395/99 137/396/99
f 138/397/100 129/398/100 99/399/100 98/400/100
f 93/401/101 92/402/101 1/403/101 100/404/101
f 103/405/102 130/406/102 131/407/102 104/408/102
f 107/409/103 132/410/103 133/411/103 108/412/103
f 111/413/104 134/414/104 135/415/104 112/416/104
f 115/417/105 136/418/105 137/419/105 116/420/105
f 119/421/106 138/422/106 98/423/106 97/424/106
f 102/425/107 101/426/107 100/427/107 103/428/107
f 106/429/108 105/430/108 104/431/108 107/432/108
f 110/433/109 109/434/109 108/435/109 111/436/109
f 114/437/110 113/438/110 112/439/110 115/440/110
f 118/441/111 117/442/111 116/443/111 119/444/111
f 121/445/112 120/446/112 101/447/112 102/448/112
f 123/449/113 122/450/113 105/451/113 106/452/113
f 125/453/114 124/454/114 109/455/114 110/456/114
f 127/457/115 126/458/115 113/459/115 114/460/115
f 129/461/116 128/462/116 117/463/116 118/464/116
f 139/465/117 140/466/117 141/467/117 142/468/117
f 143/469/118 144/470/118 145/471/118 146/472/118
f 147/473/119 148/474/119 149/475/119 150/476/119
f 151/477/120 152/478/120 153/479/120 154/480/120
f 155/481/121 156/482/121 157/483/121 158/484/121
f 103/485/122 100/486/122 1/487/122 130/488/122
f 107/489/123 104/490/123 131/491/123 132/492/123
f 111/493/124 108/494/124 133/495/124 134/496/124
f 115/497/125 112/498/125 135/499/125 136/500/125
f 119/501/126 116/502/126 137/503/126 138/504/126
f 159/505/127 1/506/127 120/507/127 160/508/127
f 161/509/128 130/510/128 1/511/128 159/512/128
f 162/513/129 121/514/129 130/515/129 161/516/129
f 160/517/130 120/518/130 121/519/130 162/520/130
f 163/521/131 131/522/131 122/523/131 164/524/131
f 165/525/132 132/526/132 131/527/132 163/528/132
f 166/529/133 123/530/133 132/531/133 165/532/133
f 164/533/134 122/534/134 123/535/134 166/536/134
f 167/537/135 133/538/135 124/539/135 168/540/135
f 169/541/136 134/542/136 133/543/136 167/544/136
f 170/545/137 125/546/137 134/547/137 169/548/137
f 170/549/138 168/550/138 124/551/138 125/552/138
f 171/553/139 135/554/139 126/555/139 172/556/139
f 173/557/140 136/558/140 135/559/140 171/560/140
f 174/561/141 127/562/141 136/563/141 173/564/141
f 172/565/142 126/566/142 127/567/142 174/568/142
f 175/569/143 137/570/143 128/571/143 176/572/143
f 177/573/144 138/574/144 137/575/144 175/576/144
f 178/577/145 129/578/145 138/579/145 177/580/145
f 176/581/146 128/582/146 129/583/146 178/584/146
f 141/585/147 140/586/147 179/587/147 180/588/147
f 140/589/148 139/590/148 181/591/148 179/592/148
f 139/593/149 142/594/149 182/595/149 181/596/149
f 142/597/150 141/598/150 180/599/150 182/600/150
f 145/601/151 144/602/151 183/603/151 184/604/151
f 144/605/152 143/606/152 185/607/152 183/608/152
f 143/609/153 146/610/153 186/611/153 185/612/153
f 146/613/154 145/614/154 184/615/154 186/616/154
f 149/617/155 148/618/155 187/619/155 188/620/155
f 187/621/156 148/622/156 147/623/156 189/624/156
f 147/625/157 150/626/157 190/627/157 189/628/157
f 150/629/158 149/630/158 188/631/158 190/632/158
f 153/633/159 152/634/159 191/635/159 192/636/159
f 152/637/160 151/638/160 193/639/160 191/640/160
f 151/641/161 154/642/161 194/643/161 193/644/161
f 154/645/162 153/646/162 192/647/162 194/648/162
f 157/649/163 156/650/163 195/651/163 196/652/163
f 156/653/164 155/654/164 197/655/164 195/656/164
f 155/657/165 158/658/165 198/659/165 197/660/165
f 158/661/166 157/662/166 196/663/166 198/664/166
f 179/665/167 159/666/167 160/667/167 180/668/167
f 181/669/168 161/670/168 159/671/168 179/672/168
f 180/673/169 160/674/169 162/675/169 182/676/169
f 185/677/170 165/678/170 163/679/170 183/680/170
f 184/681/171 164/682/171 166/683/171 186/684/171
f 189/685/172 169/686/172 167/687/172 187/688/172
f 190/689/173 188/690/173 168/691/173 170/692/173
f 193/693/174 173/694/174 171/695/174 191/696/174
f 192/697/175 172/698/175 174/699/175 194/700/175
f 197/701/176 177/702/176 175/703/176 195/704/176
f 198/705/177 178/706/177 177/707/177 197/708/177
f 196/709/178 176/710/178 178/711/178 198/712/178
f 163/713/179 164/714/179 162/715/179 161/716/179
f 183/717/180 163/718/180 161/719/180 181/720/180
f 184/721/181 183/722/181 181/723/181 182/724/181
f 164/725/182 184/726/182 182/727/182 162/728/182
f 167/729/183 168/730/183 166/731/183 165/732/183
f 187/733/184 167/734/184 165/735/184 185/736/184
f 188/737/185 187/738/185 185/739/185 186/740/185
f 168/741/186 188/742/186 186/743/186 166/744/186
f 171/745/187 172/746/187 170/747/187 169/748/187
f 191/749/188 171/750/188 169/751/188 189/752/188
f 192/753/189 191/754/189 189/755/189 190/756/189
f 172/757/190 192/758/190 190/759/190 170/760/190
f 175/761/191 176/762/191 174/763/191 173/764/191
f 195/765/192 175/766/192 173/767/192 193/768/192
f 196/769/193 195/770/193 193/771/193 194/772/193
f 176/773/194 196/774/194 194/775/194 174/776/194
f 199/777/195 200/778/195 201/779/195 202/780/195
f 203/781/196 204/782/196 205/783/196 206/784/196
f 207/785/197 200/786/197 199/787/197 208/788/197
f 209/789/198 210/790/198 211/791/198 212/792/198
f 213/793/199 214/794/199 215/795/199 216/796/199
f 217/797/200 218/798/200 219/799/200 220/800/200
f 221/801/201 222/802/201 223/803/201 224/804/201
f 204/805/202 225/806/202 226/807/202 205/808/202
f 208/809/203 199/810/203 202/811/203 227/812/203
f 212/813/204 211/814/204 228/815/204 229/816/204
f 216/817/205 215/818/205 230/819/205 231/820/205
f 220/821/206 219/822/206 232/823/206 233/824/206
f 224/825/207 223/826/207 234/827/207 235/828/207
f 205/829/208 226/830/208 236/831/208 206/832/208
f 227/833/209 202/834/209 201/835/209 237/836/209
f 229/837/210 228/838/210 238/839/210 239/840/210
f 231/841/211 230/842/211 240/843/211 241/844/211
f 233/845/212 232/846/212 242/847/212 243/848/212
f 235/849/213 234/850/213 244/851/213 245/852/213
f 206/853/214 236/854/214 246/855/214 203/856/214
f 237/857/215 201/858/215 200/859/215 207/860/215
f 239/861/216 238/862/216 210/863/216 209/864/216
f 241/865/217 240/866/217 214/867/217 213/868/217
f 243/869/218 242/870/218 218/871/218 217/872/218
f 245/873/219 244/874/219 222/875/219 221/876/219
f 203/877/220 246/878/220 225/879/220 204/880/220
f 207/881/221 208/882/221 211/883/221 210/884/221
f 209/885/222 212/886/222 215/887/222 214/888/222
f 213/889/223 216/890/223 219/891/223 218/892/223
f 217/893/224 220/894/224 223/895/224 222/896/224
f 221/897/225 224/898/225 226/899/225 225/900/225
f 208/901/226 227/902/226 228/903/226 211/904/226
f 212/905/227 229/906/227 230/907/227 215/908/227
f 216/909/228 231/910/228 232/911/228 219/912/228
f 220/913/229 233/914/229 234/915/229 223/916/229
f 224/917/230 235/918/230 236/919/230 226/920/230
f 247/921/231 248/922/231 249/923/231 250/924/231
f 251/925/232 252/926/232 253/927/232 254/928/232
f 255/929/233 256/930/233 257/931/233 258/932/233
f 259/933/234 260/934/234 261/935/234 262/936/234
f 263/937/235 264/938/235 265/939/235 266/940/235
f 237/941/236 207/942/236 210/943/236 238/944/236
f 239/945/237 209/946/237 214/947/237 240/948/237
f 241/949/238 213/950/238 218/951/238 242/952/238
f 243/953/239 217/954/239 222/955/239 244/956/239
f 245/957/240 221/958/240 225/959/240 246/960/240
f 227/961/241 237/962/241 267/963/241 268/964/241
f 237/965/242 238/966/242 269/967/242 267/968/242
f 238/969/243 228/970/243 270/971/243 269/972/243
f 228/973/244 227/974/244 268/975/244 270/976/244
f 229/977/245 239/978/245 271/979/245 272/980/245
f 239/981/246 240/982/246 273/983/246 271/984/246
f 240/985/247 230/986/247 274/987/247 273/988/247
f 230/989/248 229/990/248 272/991/248 274/992/248
f 231/993/249 241/994/249 275/995/249 276/996/249
f 241/997/250 242/998/250 277/999/250 275/1000/250
f 242/1001/251 232/1002/251 278/1003/251 277/1004/251
f 278/1005/252 232/1006/252 231/1007/252 276/1008/252
f 233/1009/253 243/1010/253 279/1011/253 280/1012/253
f 243/1013/254 244/1014/254 281/1015/254 279/1016/254
f 244/1017/255 234/1018/255 282/1019/255 281/1020/255
f 234/1021/256 233/1022/256 280/1023/256 282/1024/256
f 235/1025/257 245/1026/257 283/1027/257 284/1028/257
f 245/1029/258 246/1030/258 285/1031/258 283/1032/258
f 246/1033/259 236/1034/259 286/1035/259 285/1036/259
f 236/1037/260 235/1038/260 284/1039/260 286/1040/260
f 287/1041/261 248/1042/261 247/1043/261 288/1044/261
f 289/1045/262 249/1046/262 248/1047/262 287/1048/262
f 290/1049/263 250/1050/263 249/1051/263 289/1052/263
f 288/1053/264 247/1054/264 250/1055/264 290/1056/264
f 291/1057/265 252/1058/265 251/1059/265 292/1060/265
f 293/1061/266 253/1062/266 252/1063/266 291/1064/266
f 294/1065/267 254/1066/267 253/1067/267 293/1068/267
f 292/1069/268 251/1070/268 254/1071/268 294/1072/268
f 295/1073/269 256/1074/269 255/1075/269 296/1076/269
f 295/1077/270 297/1078/270 257/1079/270 256/1080/270
f 298/1081/271 258/1082/271 257/1083/271 297/1084/271
f 296/1085/272 255/1086/272 258/1087/272 298/1088/272
f 299/1089/273 260/1090/273 259/1091/273 300/1092/273
f 301/1093/274 261/1094/274 260/1095/274 299/1096/274
f 302/1097/275 262/1098/275 261/1099/275 301/1100/275
f 300/1101/276 259/1102/276 262/1103/276 302/1104/276
f 303/1105/277 264/1106/277 263/1107/277 304/1108/277
f 305/1109/278 265/1110/278 264/1111/278 303/1112/278
f 306/1113/279 266/1114/279 265/1115/279 305/1116/279
f 304/1117/280 263/1118/280 266/1119/280 306/1120/280
f 268/1121/281 267/1122/281 287/1123/281 288/1124/281
f 267/1125/282 269/1126/282 289/1127/282 287/1128/282
f 270/1129/283 268/1130/283 288/1131/283 290/1132/283
f 271/1133/284 273/1134/284 293/1135/284 291/1136/284
f 274/1137/285 272/1138/285 292/1139/285 294/1140/285
f 275/1141/286 277/1142/286 297/1143/286 295/1144/286
f 298/1145/287 278/1146/287 276/1147/287 296/1148/287
f 279/1149/288 281/1150/288 301/1151/288 299/1152/288
f 282/1153/289 280/1154/289 300/1155/289 302/1156/289
f 283/1157/290 285/1158/290 305/1159/290 303/1160/290
f 285/1161/291 286/1162/291 306/1163/291 305/1164/291
f 286/1165/292 284/1166/292 304/1167/292 306/1168/292
f 270/1169/293 272/1170/293 271/1171/293 269/1172/293
f 269/1173/294 271/1174/294 291/1175/294 289/1176/294
f 289/1177/295 291/1178/295 292/1179/295 290/1180/295
f 290/1181/296 292/1182/296 272/1183/296 270/1184/296
f 274/1185/297 276/1186/297 275/1187/297 273/1188/297
f 273/1189/298 275/1190/298 295/1191/298 293/1192/298
f 293/1193/299 295/1194/299 296/1195/299 294/1196/299
f 294/1197/300 296/1198/300 276/1199/300 274/1200/300
f 278/1201/301 280/1202/301 279/1203/301 277/1204/301
f 277/1205/302 279/1206/302 299/1207/302 297/1208/302
f 297/1209/303 299/1210/303 300/1211/303 298/1212/303
f 298/1213/304 300/1214/304 280/1215/304 278/1216/304
f 282/1217/305 284/1218/305 283/1219/305 281/1220/305
f 281/1221/306 283/1222/306 303/1223/306 301/1224/306
f 301/1225/307 303/1226/307 304/1227/307 302/1228/307
f 302/1229/308 304/1230/308 284/1231/308 282/1232/308
f 307/1233/309 308/1234/309 309/1235/309 310/1236/309
f 311/1237/310 312/1238/310 313/1239/310 314/1240/310
f 315/1241/311 308/1242/311 307/1243/311 316/1244/311
f 317/1245/312 318/1246/312 319/1247/312 320/1248/312
f 321/1249/313 322/1250/313 323/1251/313 324/1252/313
f 325/1253/314 326/1254/314 327/1255/314 328/1256/314
f 329/1257/315 330/1258/315 331/1259/315 332/1260/315
f 312/1261/316 333/1262/316 334/1263/316 313/1264/316
f 316/1265/317 307/1266/317 310/1267/317 335/1268/317
f 320/1269/318 319/1270/318 336/1271/318 337/1272/318
f 324/1273/319 323/1274/319 338/1275/319 339/1276/319
f 328/1277/320 327/1278/320 340/1279/320 341/1280/320
f 332/1281/321 331/1282/321 342/1283/321 343/1284/321
f 313/1285/322 334/1286/322 344/1287/322 314/1288/322
f 335/1289/323 310/1290/323 309/1291/323 345/1292/323
f 337/1293/324 336/1294/324 346/1295/324 347/1296/324
f 339/1297/325 338/1298/325 348/1299/325 349/1300/325
f 341/1301/326 340/1302/326 350/1303/326 351/1304/326
f 343/1305/327 342/1306/327 352/1307/327 353/1308/327
f 314/1309/328 344/1310/328 354/1311/328 311/1312/328
f 345/1313/329 309/1314/329 308/1315/329 315/1316/329
f 347/1317/330 346/1318/330 318/1319/330 317/1320/330
f 349/1321/331 348/1322/331 322/1323/331 321/1324/331
f 351/1325/332 350/1326/332 326/1327/332 325/1328/332
f 353/1329/333 352/1330/333 330/1331/333 329/1332/333
f 311/1333/334 354/1334/334 333/1335/334 312/1336/334
f 315/1337/335 316/1338/335 319/1339/335 318/1340/335
f 317/1341/336 320/1342/336 323/1343/336 322/1344/336
f 321/1345/337 324/1346/337 327/1347/337 326/1348/337
f 325/1349/338 328/1350/338 331/1351/338 330/1352/338
f 329/1353/339 332/1354/339 334/1355/339 333/1356/339
f 316/1357/340 335/1358/340 336/1359/340 319/1360/340
f 320/1361/341 337/1362/341 338/1363/341 323/1364/341
f 324/1365/342 339/1366/342 340/1367/342 327/1368/342
f 328/1369/343 341/1370/343 342/1371/343 331/1372/343
f 332/1373/344 343/1374/344 344/1375/344 334/1376/344
f 355/1377/345 356/1378/345 357/1379/345 358/1380/345
f 359/1381/346 360/1382/346 361/1383/346 362/1384/346
f 363/1385/347 364/1386/347 365/1387/347 366/1388/347
f 367/1389/348 368/1390/348 369/1391/348 370/1392/348
f 371/1393/349 372/1394/349 373/1395/349 374/1396/349
f 345/1397/350 315/1398/350 318/1399/350 346/1400/350
f 347/1401/351 317/1402/351 322/1403/351 348/1404/351
f 349/1405/352 321/1406/352 326/1407/352 350/1408/352
f 351/1409/353 325/1410/353 330/1411/353 352/1412/353
f 353/1413/354 329/1414/354 333/1415/354 354/1416/354
f 335/1417/355 345/1418/355 375/1419/355 376/1420/355
f 345/1421/356 346/1422/356 377/1423/356 375/1424/356
f 346/1425/357 336/1426/357 378/1427/357 377/1428/357
f 336/1429/358 335/1430/358 376/1431/358 378/1432/358
f 337/1433/359 347/1434/359 379/1435/359 380/1436/359
f 347/1437/360 348/1438/360 381/1439/360 379/1440/360
f 348/1441/361 338/1442/361 382/1443/361 381/1444/361
f 338/1445/362 337/1446/362 380/1447/362 382/1448/362
f 339/1449/363 349/1450/363 383/1451/363 384/1452/363
f 349/1453/364 350/1454/364 385/1455/364 383/1456/364
f 350/1457/365 340/1458/365 386/1459/365 385/1460/365
f 386/1461/366 340/1462/366 339/1463/366 384/1464/366
f 341/1465/367 351/1466/367 387/1467/367 388/1468/367
f 351/1469/368 352/1470/368 389/1471/368 387/1472/368
f 352/1473/369 342/1474/369 390/1475/369 389/1476/369
f 342/1477/370 341/1478/370 388/1479/370 390/1480/370
f 343/1481/371 353/1482/371 391/1483/371 392/1484/371
f 353/1485/372 354/1486/372 393/1487/372 391/1488/372
f 354/1489/373 344/1490/373 394/1491/373 393/1492/373
f 344/1493/374 343/1494/374 392/1495/374 394/1496/374
f 395/1497/375 356/1498/375 355/1499/375 396/1500/375
f 397/1501/376 357/1502/376 356/1503/376 395/1504/376
f 398/1505/377 358/1506/377 357/1507/377 397/1508/377
f 396/1509/378 355/1510/378 358/1511/378 398/1512/378
f 399/1513/379 360/1514/379 359/1515/379 400/1516/379
f 401/1517/380 361/1518/380 360/1519/380 399/1520/380
f 402/1521/381 362/1522/381 361/1523/381 401/1524/381
f 400/1525/382 359/1526/382 362/1527/382 402/1528/382
f 403/1529/383 364/1530/383 363/1531/383 404/1532/383
f 403/1533/384 405/1534/384 365/1535/384 364/1536/384
f 406/1537/385 366/1538/385 365/1539/385 405/1540/385
f 404/1541/386 363/1542/386 366/1543/386 406/1544/386
f 407/1545/387 368/1546/387 367/1547/387 408/1548/387
f 409/1549/388 369/1550/388 368/1551/388 407/1552/388
f 410/1553/389 370/1554/389 369/1555/389 409/1556/389
f 408/1557/390 367/1558/390 370/1559/390 410/1560/390
f 411/1561/391 372/1562/391 371/1563/391 412/1564/391
f 413/1565/392 373/1566/392 372/1567/392 411/1568/392
f 414/1569/393 374/1570/393 373/1571/393 413/1572/393
f 412/1573/394 371/1574/394 374/1575/394 414/1576/394
f 376/1577/395 375/1578/395 395/1579/395 396/1580/395
f 375/1581/396 377/1582/396 397/1583/396 395/1584/396
f 378/1585/397 376/1586/397 396/1587/397 398/1588/397
f 379/1589/398 381/1590/398 401/1591/398 399/1592/398
f 382/1593/399 380/1594/399 400/1595/399 402/1596/399
f 383/1597/400 385/1598/400 405/1599/400 403/1600/400
f 406/1601/401 386/1602/401 384/1603/401 404/1604/401
f 387/1605/402 389/1606/402 409/1607/402 407/1608/402
f 390/1609/403 388/1610/403 408/1611/403 410/1612/403
f 391/1613/404 393/1614/404 413/1615/404 411/1616/404
f 393/1617/405 394/1618/405 414/1619/405 413/1620/405
f 394/1621/406 392/1622/406 412/1623/406 414/1624/406
f 378/1625/407 380/1626/407 379/1627/407 377/1628/407
f 377/1629/408 379/1630/408 399/1631/408 397/1632/408
f 397/1633/409 399/1634/409 400/1635/409 398/1636/409
f 398/1637/410 400/1638/410 380/1639/410 378/1640/410
f 382/1641/411 384/1642/411 383/1643/411 381/1644/411
f 381/1645/412 383/1646/412 403/1647/412 401/1648/412
f 401/1649/413 403/1650/413 404/1651/413 402/1652/413
f 402/1653/414 404/1654/414 384/1655/414 382/1656/414
f 386/1657/415 388/1658/415 387/1659/415 385/1660/415
f 385/1661/416 387/1662/416 407/1663/416 405/1664/416
f 405/1665/417 407/1666/417 408/1667/417 406/1668/417
f 406/1669/418 408/1670/418 388/1671/418 386/1672/418
f 390/1673/419 392/1674/419 391/1675/419 389/1676/419
f 389/1677/420 391/1678/420 411/1679/420 409/1680/420
f 409/1681/421 411/1682/421 412/1683/421 410/1684/421
f 410/1685/422 412/1686/422 392/1687/422 390/1688/422
f 415/1689/423 416/1690/423 417/1691/423 418/1692/423
f 419/1693/424 420/1694/424 421/1695/424 422/1696/424
f 420/1697/425 416/1698/425 415/1699/425 421/1700/425
f 421/1701/426 415/1702/426 418/1703/426 422/1704/426
f 419/1705/427 417/1706/427 416/1707/427 420/1708/427
f 417/1709/428 423/1710/428 424/1711/428 418/1712/428
f 425/1713/429 426/1714/429 419/1715/429 422/1716/429
f 424/1717/430 423/1718/430 426/1719/430 425/1720/430
f 418/1721/431 424/1722/431 425/1723/431 422/1724/431
f 423/1725/432 417/1726/432 419/1727/432 426/1728/432