# Made in Blockbench 5.0.4
mtllib road_straight.mtl

o road_straight_Cube.952
v -1 0 1
v -1 0.07 1
v -1 0.07 -1
v -1 0 -1
v 1 0.1 -1
v 0.93 0.1 -1
v 0.93 0.1 1
v 1 0.1 1
v 1 0 -1
v 1 0.07 -1
v 1 0.07 1
v 1 0 1
v -0.9 0.07 -1
v -0.9 0 -1
v 0.9 0.07 1
v 0.9 0 1
v 0.9 0.07 -1
v -0.9 0.07 1
v -0.93 0.1 -1
v -0.93 0.1 1
v -1 0.1 -1
v 0.9 0 -1
v -0.9 0 1
v -1 0.1 1
v 0.02 0.073 -0.7
v 0.02 0.073 -0.9
v -0.02 0.073 -0.9
v -0.02 0.073 -0.7
v -0.58 0.073 1
v -0.58 0.073 -1
v -0.62 0.073 -1
v -0.62 0.073 1
v 0.62 0.073 1
v 0.62 0.073 -1
v 0.58 0.073 -1
v 0.58 0.073 1
v 0.02 0.073 -0.3
v 0.02 0.073 -0.5
v -0.02 0.073 -0.5
v -0.02 0.073 -0.3
v 0.02 0.073 0.1
v 0.02 0.073 -0.1
v -0.02 0.073 -0.1
v -0.02 0.073 0.1
v 0.02 0.073 0.5
v 0.02 0.073 0.3
v -0.02 0.073 0.3
v -0.02 0.073 0.5
v 0.02 0.073 0.9
v 0.02 0.073 0.7
v -0.02 0.073 0.7
v -0.02 0.073 0.9
vt 0.308694 0.811717
vt 0.308694 0.82577
vt 0.308694 0.82577
vt 0.308694 0.811717
vt 0.345504 0.863281
vt 0.341823 0.863281
vt 0.341823 0.863281
vt 0.345504 0.863281
vt 0.172752 0.9058585
vt 0.172752 0.912885
vt 0.172752 0.912885
vt 0.172752 0.9058585
vt 0.308694 0.82577
vt 0.312375 0.82577
vt 0.312375 0.811717
vt 0.308694 0.811717
vt 0.172752 0.912885
vt 0.18214196875 0.89335375
vt 0.1709115 0.9058585
vt 0.172752 0.9058585
vt 0.172752 0.912885
vt 0.1709115 0.912885
vt 0.1709115 0.9160155
vt 0.172752 0.9160155
vt 0.312375 0.82577
vt 0.312375 0.82577
vt 0.312375 0.832031
vt 0.312375 0.832031
vt 0.312375 0.82577
vt 0.308694 0.82577
vt 0.308694 0.832031
vt 0.312375 0.832031
vt 0.341823 0.780467
vt 0.341823 0.780467
vt 0.312375 0.780467
vt 0.312375 0.780467
vt 0.341823 0.791153
vt 0.312375 0.791153
vt 0.312375 0.780467
vt 0.341823 0.780467
vt 0.308694 0.811717
vt 0.312375 0.811717
vt 0.312375 0.811717
vt 0.308694 0.811717
vt 0.1709115 0.9058585
vt 0.172752 0.9058585
vt 0.172752 0.9058585
vt 0.1709115 0.9058585
vt 0.312375 0.791153
vt 0.341823 0.791153
vt 0.341823 0.780467
vt 0.312375 0.780467
vt 0.312375 0.811717
vt 0.312375 0.82577
vt 0.308694 0.82577
vt 0.308694 0.811717
vt 0.1709115 0.9058585
vt 0.1709115 0.912885
vt 0.172752 0.912885
vt 0.172752 0.9058585
vt 0.154347 0.912885
vt 0.1561875 0.912885
vt 0.1561875 0.9160155
vt 0.154347 0.9160155
vt 0.312375 0.863281
vt 0.308694 0.863281
vt 0.308694 0.863281
vt 0.312375 0.863281
vt 0.172752 0.912885
vt 0.172752 0.912885
vt 0.172752 0.9160155
vt 0.172752 0.9160155
vt 0.1709115 0.912885
vt 0.18214196875 0.89335375
vt 0.1709115 0.9160155
vt 0.1709115 0.9160155
vt 0.308694 0.82577
vt 0.308694 0.82577
vt 0.308694 0.832031
vt 0.308694 0.832031
vt 0.172752 0.912885
vt 0.172752 0.9160155
vt 0.1709115 0.9160155
vt 0.18214196875 0.89335375
vt 0.1709115 0.8955765
vt 0.1709115 0.8955765
vt 0.1561875 0.8955765
vt 0.1561875 0.8955765
vt 0.216823 0.916153
vt 0.216823 0.916153
vt 0.187375 0.916153
vt 0.187375 0.916153
vt 0.466823 0.666153
vt 0.466823 0.666153
vt 0.437375 0.666153
vt 0.437375 0.666153
vt 0.466823 0.666153
vt 0.466823 0.666153
vt 0.437375 0.666153
vt 0.437375 0.666153
vt 0.216823 0.916153
vt 0.216823 0.916153
vt 0.187375 0.916153
vt 0.187375 0.916153
vt 0.216823 0.916153
vt 0.216823 0.916153
vt 0.187375 0.916153
vt 0.187375 0.916153
vt 0.216823 0.916153
vt 0.216823 0.916153
vt 0.187375 0.916153
vt 0.187375 0.916153
vt 0.216823 0.916153
vt 0.216823 0.916153
vt 0.187375 0.916153
vt 0.187375 0.916153
vn -1 0 0
vn 0 1 0
vn 1 0 0
vn 0 0 -1
vn 0 0 1
vn 0 0 -1
vn 0.7071067811865472 0.7071067811865479 0
vn 0 0 -1
vn 0 -1 0
vn 0 0 1
vn 0 -1 0
vn 0 -1 0
vn 0 0 -1
vn 0 0 1
vn 0 0 -1
vn 0 0 1
vn 0 1 0
vn 1 0 0
vn -0.7071067811865472 0.7071067811865479 0
vn -1 0 0
vn 0 0 1
vn 0 1 0
vn 0 1 0
vn 0 1 0
vn 0 1 0
vn 0 1 0
vn 0 1 0
vn 0 1 0
vn 0 1 0
usemtl none
f 1/1/1 2/2/1 3/3/1 4/4/1
f 5/5/2 6/6/2 7/7/2 8/8/2
usemtl m_da6af850-ef94-f4a1-505b-f27e00d3b280
f 9/9/3 10/10/3 11/11/3 12/12/3
usemtl none
f 3/13/4 13/14/4 14/15/4 4/16/4
usemtl m_da6af850-ef94-f4a1-505b-f27e00d3b280
f 11/17/5 15/18/5 16/19/5 12/20/5
f 10/21/6 17/22/6 6/23/6 5/24/6
usemtl none
f 18/25/7 13/26/7 19/27/7 20/28/7
f 13/29/8 3/30/8 21/31/8 19/32/8
f 22/33/9 16/34/9 23/35/9 14/36/9
f 15/37/10 18/38/10 23/39/10 16/40/10
f 4/41/11 14/42/11 23/43/11 1/44/11
usemtl m_da6af850-ef94-f4a1-505b-f27e00d3b280
f 22/45/12 9/46/12 12/47/12 16/48/12
usemtl none
f 13/49/13 17/50/13 22/51/13 14/52/13
f 23/53/14 18/54/14 2/55/14 1/56/14
usemtl m_da6af850-ef94-f4a1-505b-f27e00d3b280
f 22/57/15 17/58/15 10/59/15 9/60/15
f 2/61/16 18/62/16 20/63/16 24/64/16
usemtl none
f 19/65/17 21/66/17 24/67/17 20/68/17
usemtl m_da6af850-ef94-f4a1-505b-f27e00d3b280
f 11/69/18 10/70/18 5/71/18 8/72/18
f 17/73/19 15/74/19 7/75/19 6/76/19
usemtl none
f 3/77/20 2/78/20 24/79/20 21/80/20
usemtl m_da6af850-ef94-f4a1-505b-f27e00d3b280
f 11/81/21 8/82/21 7/83/21 15/84/21
f 15/85/22 17/86/22 13/87/22 18/88/22
usemtl none
f 25/89/23 26/90/23 27/91/23 28/92/23
f 29/93/24 30/94/24 31/95/24 32/96/24
f 33/97/25 34/98/25 35/99/25 36/100/25
f 37/101/26 38/102/26 39/103/26 40/104/26
f 41/105/27 42/106/27 43/107/27 44/108/27
f 45/109/28 46/110/28 47/111/28 48/112/28
f 49/113/29 50/114/29 51/115/29 52/116/29