mtllib Hill_desert_002.mtl
o Hill_desert_002
usemtl Material_25.004
v -1102.2418212890625 809.5654296875 567.7352905273438
v -892.0428466796875 373.1016540527344 947.0072631835938
v -512.7708740234375 809.5654296875 567.7352905273438
v -512.7708740234375 809.5654296875 567.7352905273438
v -512.7708740234375 373.1016540527344 947.0072631835938
v -133.49893188476562 809.5654296875 567.7352905273438
v -133.49893188476562 809.5654296875 567.7352905273438
v -133.49893188476562 373.1016540527344 1157.853271484375
v 245.7730255126953 809.5654296875 567.7352905273438
v 245.7730255126953 809.5654296875 567.7352905273438
v 245.7730255126953 373.1016540527344 1157.853271484375
v 625.0450439453125 809.5654296875 567.7352905273438
v 625.0450439453125 809.5654296875 567.7352905273438
v 625.0450439453125 373.1016540527344 1157.853271484375
v 1129.0361328125 809.5654296875 567.7352905273438
v -1163.7470703125 1025.07861328125 188.46334838867188
v -1102.2418212890625 809.5654296875 567.7352905273438
v -512.7708740234375 1025.07861328125 188.46334838867188
v -512.7708740234375 1025.07861328125 188.46334838867188
v -512.7708740234375 809.5654296875 567.7352905273438
v -133.49893188476562 1025.07861328125 268.5107116699219
v -133.49893188476562 1025.07861328125 268.5107116699219
v -133.49893188476562 809.5654296875 567.7352905273438
v 245.7730255126953 1025.07861328125 188.46334838867188
v 245.7730255126953 1025.07861328125 188.46334838867188
v 245.7730255126953 809.5654296875 567.7352905273438
v 641.5028076171875 1025.07861328125 -14.39491081237793
v 641.5028076171875 1025.07861328125 -14.39491081237793
v 625.0450439453125 809.5654296875 567.7352905273438
v 1129.0361328125 1025.07861328125 188.46334838867188
v -1315.2659912109375 373.1015930175781 -190.80857849121094
v -1163.7470703125 1025.07861328125 188.46334838867188
v -512.7708740234375 1321.990234375 -190.80862426757812
v -512.7708740234375 1321.990234375 -190.80862426757812
v -512.7708740234375 1025.07861328125 188.46334838867188
v -133.49893188476562 1321.990234375 -190.80862426757812
v -133.49893188476562 1321.990234375 -190.80862426757812
v -133.49893188476562 1025.07861328125 268.5107116699219
v 245.7730255126953 1321.990234375 -190.80862426757812
v 245.7730255126953 1321.990234375 -190.80862426757812
v 245.7730255126953 1025.07861328125 188.46334838867188
v 641.5028076171875 1321.990234375 -393.6669006347656
v 641.5028076171875 1321.990234375 -393.6669006347656
v 641.5028076171875 1025.07861328125 -14.39491081237793
v 1129.0361328125 1321.990234375 -190.80862426757812
v -1102.2418212890625 373.1015625 -570.08056640625
v -1315.2659912109375 373.1015930175781 -190.80857849121094
v -512.7708740234375 872.15625 -570.0806274414062
v -512.7708740234375 872.15625 -570.0806274414062
v -512.7708740234375 1321.990234375 -190.80862426757812
v -133.49893188476562 872.15625 -570.0806274414062
v -133.49893188476562 872.15625 -570.0806274414062
v -133.49893188476562 1321.990234375 -190.80862426757812
v 245.7730255126953 872.15625 -570.0806274414062
v 245.7730255126953 872.15625 -570.0806274414062
v 245.7730255126953 1321.990234375 -190.80862426757812
v 625.0450439453125 872.15625 -570.0806274414062
v 625.0450439453125 872.15625 -570.0806274414062
v 641.5028076171875 1321.990234375 -393.6669006347656
v 1129.0361328125 872.15625 -570.0806274414062
v -892.0428466796875 373.1015319824219 -949.3524780273438
v -1102.2418212890625 373.1015625 -570.08056640625
v -512.7708740234375 373.1015319824219 -1092.2413330078125
v -512.7708740234375 373.1015319824219 -1092.2413330078125
v -512.7708740234375 872.15625 -570.0806274414062
v -133.49893188476562 373.1015319824219 -949.3524780273438
v -133.49893188476562 373.1015319824219 -949.3524780273438
v -133.49893188476562 872.15625 -570.0806274414062
v 245.7730255126953 373.1015319824219 -1184.6912841796875
v 245.7730255126953 373.1015319824219 -1184.6912841796875
v 245.7730255126953 872.15625 -570.0806274414062
v 625.0450439453125 373.1015319824219 -1184.6912841796875
v 625.0450439453125 373.1015319824219 -1184.6912841796875
v 625.0450439453125 872.15625 -570.0806274414062
v 1129.0361328125 373.1015319824219 -949.3524780273438
v 1129.0361328125 373.1016540527344 1248.8382568359375
v 1760.737548828125 373.1016540527344 947.0072631835938
v 1129.0361328125 809.5654296875 567.7352905273438
v 1129.0361328125 809.5654296875 567.7352905273438
v 2238.69091796875 620.427978515625 567.7352905273438
v 1129.0361328125 1025.07861328125 188.46334838867188
v 1129.0361328125 1025.07861328125 188.46334838867188
v 2523.723876953125 415.4611511230469 188.46336364746094
v 1129.0361328125 1321.990234375 -190.80862426757812
v 1129.0361328125 1321.990234375 -190.80862426757812
v 2404.63134765625 373.1015930175781 -190.80857849121094
v 1129.0361328125 872.15625 -570.0806274414062
v 1129.0361328125 872.15625 -570.0806274414062
v 2238.69091796875 373.1015625 -570.08056640625
v 1129.0361328125 373.1015319824219 -949.3524780273438
v -1404.939697265625 0.000030160856113070622 689.9999389648438
v -892.0428466796875 373.1016540527344 947.0072631835938
v -1102.2418212890625 809.5654296875 567.7352905273438
v -1150 0.000050268095947103575 1150
v -512.7708740234375 373.1016540527344 947.0072631835938
v -892.0428466796875 373.1016540527344 947.0072631835938
v -689.9999389648438 0.000050268095947103575 1150
v -133.49893188476562 373.1016540527344 1157.853271484375
v -512.7708740234375 373.1016540527344 947.0072631835938
v -230 0.00006144617509562522 1405.724609375
v 245.7730255126953 373.1016540527344 1157.853271484375
v -133.49893188476562 373.1016540527344 1157.853271484375
v 230 0.00006144617509562522 1405.724609375
v 625.0450439453125 373.1016540527344 1157.853271484375
v 245.7730255126953 373.1016540527344 1157.853271484375
v 689.9999389648438 0.00006144617509562522 1405.724609375
v 1129.0361328125 373.1016540527344 1248.8382568359375
v 625.0450439453125 373.1016540527344 1157.853271484375
v 1301.265625 0.00006626977119594812 1516.0755615234375
v 1760.737548828125 373.1016540527344 947.0072631835938
v 1129.0361328125 373.1016540527344 1248.8382568359375
v 2067.4248046875 0.000050268095947103575 1150
v 2238.69091796875 620.427978515625 567.7352905273438
v 1760.737548828125 373.1016540527344 947.0072631835938
v 2647.1103515625 0.000030160856113070622 689.9999389648438
v 2523.723876953125 415.4611511230469 188.46336364746094
v 2238.69091796875 620.427978515625 567.7352905273438
v 2992.81298828125 0.000010053619007521775 230
v 2404.63134765625 373.1015930175781 -190.80857849121094
v 2523.723876953125 415.4611511230469 188.46336364746094
v 2848.371337890625 -0.000010053619007521775 -230
v 2238.69091796875 373.1015625 -570.08056640625
v 2404.63134765625 373.1015930175781 -190.80857849121094
v 2647.1103515625 -0.000030160856113070622 -689.9999389648438
v 1760.737548828125 373.1015319824219 -949.3524780273438
v 2238.69091796875 373.1015625 -570.08056640625
v 2067.4248046875 -0.000050268095947103575 -1150
v 1129.0361328125 373.1015319824219 -949.3524780273438
v 1760.737548828125 373.1015319824219 -949.3524780273438
v 1301.265625 -0.000050268095947103575 -1150
v 625.0450439453125 373.1015319824219 -1184.6912841796875
v 1129.0361328125 373.1015319824219 -949.3524780273438
v 689.9999389648438 -0.00006274466431932524 -1435.4306640625
v 245.7730255126953 373.1015319824219 -1184.6912841796875
v 625.0450439453125 373.1015319824219 -1184.6912841796875
v 230 -0.00006274466431932524 -1435.4306640625
v -133.49893188476562 373.1015319824219 -949.3524780273438
v 245.7730255126953 373.1015319824219 -1184.6912841796875
v -230 -0.000050268095947103575 -1150
v -512.7708740234375 373.1015319824219 -1092.2413330078125
v -133.49893188476562 373.1015319824219 -949.3524780273438
v -689.9999389648438 -0.00005784339737147093 -1323.302734375
v -892.0428466796875 373.1015319824219 -949.3524780273438
v -512.7708740234375 373.1015319824219 -1092.2413330078125
v -1150 -0.000050268095947103575 -1150
v -1102.2418212890625 373.1015625 -570.08056640625
v -892.0428466796875 373.1015319824219 -949.3524780273438
v -1404.939697265625 -0.000030160856113070622 -689.9999389648438
v -1315.2659912109375 373.1015930175781 -190.80857849121094
v -1102.2418212890625 373.1015625 -570.08056640625
v -1663.306396484375 -0.000010053619007521775 -230
v -1163.7470703125 1025.07861328125 188.46334838867188
v -1315.2659912109375 373.1015930175781 -190.80857849121094
v -1479.53662109375 0.000010053619007521775 230
v -1102.2418212890625 809.5654296875 567.7352905273438
v -1163.7470703125 1025.07861328125 188.46334838867188
v -892.0428466796875 373.1016540527344 947.0072631835938
v -512.7708740234375 373.1016540527344 947.0072631835938
v -512.7708740234375 809.5654296875 567.7352905273438
v -512.7708740234375 373.1016540527344 947.0072631835938
v -133.49893188476562 373.1016540527344 1157.853271484375
v -133.49893188476562 809.5654296875 567.7352905273438
v -133.49893188476562 373.1016540527344 1157.853271484375
v 245.7730255126953 373.1016540527344 1157.853271484375
v 245.7730255126953 809.5654296875 567.7352905273438
v 245.7730255126953 373.1016540527344 1157.853271484375
v 625.0450439453125 373.1016540527344 1157.853271484375
v 625.0450439453125 809.5654296875 567.7352905273438
v 625.0450439453125 373.1016540527344 1157.853271484375
v 1129.0361328125 373.1016540527344 1248.8382568359375
v 1129.0361328125 809.5654296875 567.7352905273438
v -1102.2418212890625 809.5654296875 567.7352905273438
v -512.7708740234375 809.5654296875 567.7352905273438
v -512.7708740234375 1025.07861328125 188.46334838867188
v -512.7708740234375 809.5654296875 567.7352905273438
v -133.49893188476562 809.5654296875 567.7352905273438
v -133.49893188476562 1025.07861328125 268.5107116699219
v -133.49893188476562 809.5654296875 567.7352905273438
v 245.7730255126953 809.5654296875 567.7352905273438
v 245.7730255126953 1025.07861328125 188.46334838867188
v 245.7730255126953 809.5654296875 567.7352905273438
v 625.0450439453125 809.5654296875 567.7352905273438
v 641.5028076171875 1025.07861328125 -14.39491081237793
v 625.0450439453125 809.5654296875 567.7352905273438
v 1129.0361328125 809.5654296875 567.7352905273438
v 1129.0361328125 1025.07861328125 188.46334838867188
v -1163.7470703125 1025.07861328125 188.46334838867188
v -512.7708740234375 1025.07861328125 188.46334838867188
v -512.7708740234375 1321.990234375 -190.80862426757812
v -512.7708740234375 1025.07861328125 188.46334838867188
v -133.49893188476562 1025.07861328125 268.5107116699219
v -133.49893188476562 1321.990234375 -190.80862426757812
v -133.49893188476562 1025.07861328125 268.5107116699219
v 245.7730255126953 1025.07861328125 188.46334838867188
v 245.7730255126953 1321.990234375 -190.80862426757812
v 245.7730255126953 1025.07861328125 188.46334838867188
v 641.5028076171875 1025.07861328125 -14.39491081237793
v 641.5028076171875 1321.990234375 -393.6669006347656
v 641.5028076171875 1025.07861328125 -14.39491081237793
v 1129.0361328125 1025.07861328125 188.46334838867188
v 1129.0361328125 1321.990234375 -190.80862426757812
v -1315.2659912109375 373.1015930175781 -190.80857849121094
v -512.7708740234375 1321.990234375 -190.80862426757812
v -512.7708740234375 872.15625 -570.0806274414062
v -512.7708740234375 1321.990234375 -190.80862426757812
v -133.49893188476562 1321.990234375 -190.80862426757812
v -133.49893188476562 872.15625 -570.0806274414062
v -133.49893188476562 1321.990234375 -190.80862426757812
v 245.7730255126953 1321.990234375 -190.80862426757812
v 245.7730255126953 872.15625 -570.0806274414062
v 245.7730255126953 1321.990234375 -190.80862426757812
v 641.5028076171875 1321.990234375 -393.6669006347656
v 625.0450439453125 872.15625 -570.0806274414062
v 641.5028076171875 1321.990234375 -393.6669006347656
v 1129.0361328125 1321.990234375 -190.80862426757812
v 1129.0361328125 872.15625 -570.0806274414062
v -1102.2418212890625 373.1015625 -570.08056640625
v -512.7708740234375 872.15625 -570.0806274414062
v -512.7708740234375 373.1015319824219 -1092.2413330078125
v -512.7708740234375 872.15625 -570.0806274414062
v -133.49893188476562 872.15625 -570.0806274414062
v -133.49893188476562 373.1015319824219 -949.3524780273438
v -133.49893188476562 872.15625 -570.0806274414062
v 245.7730255126953 872.15625 -570.0806274414062
v 245.7730255126953 373.1015319824219 -1184.6912841796875
v 245.7730255126953 872.15625 -570.0806274414062
v 625.0450439453125 872.15625 -570.0806274414062
v 625.0450439453125 373.1015319824219 -1184.6912841796875
v 625.0450439453125 872.15625 -570.0806274414062
v 1129.0361328125 872.15625 -570.0806274414062
v 1129.0361328125 373.1015319824219 -949.3524780273438
v 1760.737548828125 373.1016540527344 947.0072631835938
v 2238.69091796875 620.427978515625 567.7352905273438
v 1129.0361328125 809.5654296875 567.7352905273438
v 2238.69091796875 620.427978515625 567.7352905273438
v 2523.723876953125 415.4611511230469 188.46336364746094
v 1129.0361328125 1025.07861328125 188.46334838867188
v 2523.723876953125 415.4611511230469 188.46336364746094
v 2404.63134765625 373.1015930175781 -190.80857849121094
v 1129.0361328125 1321.990234375 -190.80862426757812
v 2404.63134765625 373.1015930175781 -190.80857849121094
v 2238.69091796875 373.1015625 -570.08056640625
v 1129.0361328125 872.15625 -570.0806274414062
v 2238.69091796875 373.1015625 -570.08056640625
v 1760.737548828125 373.1015319824219 -949.3524780273438
v 1129.0361328125 373.1015319824219 -949.3524780273438
v -1404.939697265625 0.000030160856113070622 689.9999389648438
v -1150 0.000050268095947103575 1150
v -892.0428466796875 373.1016540527344 947.0072631835938
v -1150 0.000050268095947103575 1150
v -689.9999389648438 0.000050268095947103575 1150
v -512.7708740234375 373.1016540527344 947.0072631835938
v -689.9999389648438 0.000050268095947103575 1150
v -230 0.00006144617509562522 1405.724609375
v -133.49893188476562 373.1016540527344 1157.853271484375
v -230 0.00006144617509562522 1405.724609375
v 230 0.00006144617509562522 1405.724609375
v 245.7730255126953 373.1016540527344 1157.853271484375
v 230 0.00006144617509562522 1405.724609375
v 689.9999389648438 0.00006144617509562522 1405.724609375
v 625.0450439453125 373.1016540527344 1157.853271484375
v 689.9999389648438 0.00006144617509562522 1405.724609375
v 1301.265625 0.00006626977119594812 1516.0755615234375
v 1129.0361328125 373.1016540527344 1248.8382568359375
v 1301.265625 0.00006626977119594812 1516.0755615234375
v 2067.4248046875 0.000050268095947103575 1150
v 1760.737548828125 373.1016540527344 947.0072631835938
v 2067.4248046875 0.000050268095947103575 1150
v 2647.1103515625 0.000030160856113070622 689.9999389648438
v 2238.69091796875 620.427978515625 567.7352905273438
v 2647.1103515625 0.000030160856113070622 689.9999389648438
v 2992.81298828125 0.000010053619007521775 230
v 2523.723876953125 415.4611511230469 188.46336364746094
v 2992.81298828125 0.000010053619007521775 230
v 2848.371337890625 -0.000010053619007521775 -230
v 2404.63134765625 373.1015930175781 -190.80857849121094
v 2848.371337890625 -0.000010053619007521775 -230
v 2647.1103515625 -0.000030160856113070622 -689.9999389648438
v 2238.69091796875 373.1015625 -570.08056640625
v 2647.1103515625 -0.000030160856113070622 -689.9999389648438
v 2067.4248046875 -0.000050268095947103575 -1150
v 1760.737548828125 373.1015319824219 -949.3524780273438
v 2067.4248046875 -0.000050268095947103575 -1150
v 1301.265625 -0.000050268095947103575 -1150
v 1129.0361328125 373.1015319824219 -949.3524780273438
v 1301.265625 -0.000050268095947103575 -1150
v 689.9999389648438 -0.00006274466431932524 -1435.4306640625
v 625.0450439453125 373.1015319824219 -1184.6912841796875
v 689.9999389648438 -0.00006274466431932524 -1435.4306640625
v 230 -0.00006274466431932524 -1435.4306640625
v 245.7730255126953 373.1015319824219 -1184.6912841796875
v 230 -0.00006274466431932524 -1435.4306640625
v -230 -0.000050268095947103575 -1150
v -133.49893188476562 373.1015319824219 -949.3524780273438
v -230 -0.000050268095947103575 -1150
v -689.9999389648438 -0.00005784339737147093 -1323.302734375
v -512.7708740234375 373.1015319824219 -1092.2413330078125
v -689.9999389648438 -0.00005784339737147093 -1323.302734375
v -1150 -0.000050268095947103575 -1150
v -892.0428466796875 373.1015319824219 -949.3524780273438
v -1150 -0.000050268095947103575 -1150
v -1404.939697265625 -0.000030160856113070622 -689.9999389648438
v -1102.2418212890625 373.1015625 -570.08056640625
v -1404.939697265625 -0.000030160856113070622 -689.9999389648438
v -1663.306396484375 -0.000010053619007521775 -230
v -1315.2659912109375 373.1015930175781 -190.80857849121094
v -1663.306396484375 -0.000010053619007521775 -230
v -1479.53662109375 0.000010053619007521775 230
v -1163.7470703125 1025.07861328125 188.46334838867188
v -1479.53662109375 0.000010053619007521775 230
v -1404.939697265625 0.000030160856113070622 689.9999389648438
v -1102.2418212890625 809.5654296875 567.7352905273438
vt 0.013963324949145317 0.019602417945861816
vt 0.013448549434542656 0.01521974802017212
vt 0.01783396117389202 0.017949283123016357
vt 0.01783396117389202 0.017949283123016357
vt 0.016377968713641167 0.013981997966766357
vt 0.020416749641299248 0.017215728759765625
vt 0.020416749641299248 0.017215728759765625
vt 0.019360525533556938 0.012005031108856201
vt 0.02313239686191082 0.016748428344726562
vt 0.02313239686191082 0.016748428344726562
vt 0.022509558126330376 0.011447310447692871
vt 0.025892002508044243 0.016522645950317383
vt 0.025892002508044243 0.016522645950317383
vt 0.02570752613246441 0.011195182800292969
vt 0.029620571061968803 0.016596972942352295
vt 0.014778776094317436 0.022328734397888184
vt 0.013963324949145317 0.019602417945861816
vt 0.018584681674838066 0.021108150482177734
vt 0.018584681674838066 0.021108150482177734
vt 0.01783396117389202 0.017949283123016357
vt 0.02093021385371685 0.019741535186767578
vt 0.02093021385371685 0.019741535186767578
vt 0.020416749641299248 0.017215728759765625
vt 0.023470057174563408 0.019852876663208008
vt 0.023470057174563408 0.019852876663208008
vt 0.02313239686191082 0.016748428344726562
vt 0.026224715635180473 0.020864427089691162
vt 0.026224715635180473 0.020864427089691162
vt 0.025892002508044243 0.016522645950317383
vt 0.02963290922343731 0.019486665725708008
vt 0.011290116235613823 0.026197373867034912
vt 0.014778776094317436 0.022328734397888184
vt 0.019696367904543877 0.023600757122039795
vt 0.019696367904543877 0.023600757122039795
vt 0.018584681674838066 0.021108150482177734
vt 0.02177785150706768 0.02358877658843994
vt 0.02177785150706768 0.02358877658843994
vt 0.02093021385371685 0.019741535186767578
vt 0.02393208257853985 0.023401379585266113
vt 0.02393208257853985 0.023401379585266113
vt 0.023470057174563408 0.019852876663208008
vt 0.02650405280292034 0.02413201332092285
vt 0.02650405280292034 0.02413201332092285
vt 0.026224715635180473 0.020864427089691162
vt 0.029280168935656548 0.022529304027557373
vt 0.01328958384692669 0.029024899005889893
vt 0.011290116235613823 0.026197373867034912
vt 0.018835676833987236 0.027559399604797363
vt 0.018835676833987236 0.027559399604797363
vt 0.019696367904543877 0.023600757122039795
vt 0.02162991277873516 0.027853727340698242
vt 0.02162991277873516 0.027853727340698242
vt 0.02177785150706768 0.02358877658843994
vt 0.024332059547305107 0.02771174907684326
vt 0.024332059547305107 0.02771174907684326
vt 0.02393208257853985 0.023401379585266113
vt 0.02702157013118267 0.027357518672943115
vt 0.02702157013118267 0.027357518672943115
vt 0.02650405280292034 0.02413201332092285
vt 0.030561788007616997 0.026369452476501465
vt 0.015428168699145317 0.03161865472793579
vt 0.01328958384692669 0.029024899005889893
vt 0.018345845863223076 0.032764554023742676
vt 0.018345845863223076 0.032764554023742676
vt 0.018835676833987236 0.027559399604797363
vt 0.021580977365374565 0.032414019107818604
vt 0.021580977365374565 0.032414019107818604
vt 0.02162991277873516 0.027853727340698242
vt 0.02500743977725506 0.03341585397720337
vt 0.02500743977725506 0.03341585397720337
vt 0.024332059547305107 0.02771174907684326
vt 0.02804545871913433 0.03295540809631348
vt 0.02804545871913433 0.03295540809631348
vt 0.02702157013118267 0.027357518672943115
vt 0.03184865415096283 0.030742883682250977
vt 0.029839081689715385 0.01078861951828003
vt 0.03472505509853363 0.013183176517486572
vt 0.029620571061968803 0.016596972942352295
vt 0.029620571061968803 0.016596972942352295
vt 0.03781108558177948 0.017125248908996582
vt 0.02963290922343731 0.019486665725708008
vt 0.02963290922343731 0.019486665725708008
vt 0.040851399302482605 0.01960313320159912
vt 0.029280168935656548 0.022529304027557373
vt 0.029280168935656548 0.022529304027557373
vt 0.0406106561422348 0.022643625736236572
vt 0.030561788007616997 0.026369452476501465
vt 0.030561788007616997 0.026369452476501465
vt 0.03954558074474335 0.025723516941070557
vt 0.03184865415096283 0.030742883682250977
vt 0.007971001788973808 0.01764214038848877
vt 0.013448549434542656 0.01521974802017212
vt 0.013963324949145317 0.019602417945861816
vt 0.010323477908968925 0.013253092765808105
vt 0.016377968713641167 0.013981997966766357
vt 0.013448549434542656 0.01521974802017212
vt 0.01407657377421856 0.011465728282928467
vt 0.019360525533556938 0.012005031108856201
vt 0.016377968713641167 0.013981997966766357
vt 0.017953140661120415 0.00898653268814087
vt 0.022509558126330376 0.011447310447692871
vt 0.019360525533556938 0.012005031108856201
vt 0.021968288347125053 0.00821000337600708
vt 0.02570752613246441 0.011195182800292969
vt 0.022509558126330376 0.011447310447692871
vt 0.026025695726275444 0.007881641387939453
vt 0.029839081689715385 0.01078861951828003
vt 0.02570752613246441 0.011195182800292969
vt 0.03129737079143524 0.00757676362991333
vt 0.03472505509853363 0.013183176517486572
vt 0.029839081689715385 0.01078861951828003
vt 0.0376153439283371 0.010568439960479736
vt 0.03781108558177948 0.017125248908996582
vt 0.03472505509853363 0.013183176517486572
vt 0.04245178401470184 0.014416813850402832
vt 0.040851399302482605 0.01960313320159912
vt 0.03781108558177948 0.017125248908996582
vt 0.04536609351634979 0.018483638763427734
vt 0.0406106561422348 0.022643625736236572
vt 0.040851399302482605 0.01960313320159912
vt 0.04490290582180023 0.02269965410232544
vt 0.03954558074474335 0.025723516941070557
vt 0.0406106561422348 0.022643625736236572
vt 0.04361586272716522 0.026764273643493652
vt 0.03637783229351044 0.029105842113494873
vt 0.03954558074474335 0.025723516941070557
vt 0.03964589536190033 0.031176388263702393
vt 0.03184865415096283 0.030742883682250977
vt 0.03637783229351044 0.029105842113494873
vt 0.03397755324840546 0.03338897228240967
vt 0.02804545871913433 0.03295540809631348
vt 0.03184865415096283 0.030742883682250977
vt 0.029147488996386528 0.036069631576538086
vt 0.02500743977725506 0.03341585397720337
vt 0.02804545871913433 0.03295540809631348
vt 0.02521614544093609 0.03668099641799927
vt 0.021580977365374565 0.032414019107818604
vt 0.02500743977725506 0.03341585397720337
vt 0.020839108154177666 0.03556543588638306
vt 0.018345845863223076 0.032764554023742676
vt 0.021580977365374565 0.032414019107818604
vt 0.016774548217654228 0.035852670669555664
vt 0.015428168699145317 0.03161865472793579
vt 0.018345845863223076 0.032764554023742676
vt 0.012930197641253471 0.03432708978652954
vt 0.01328958384692669 0.029024899005889893
vt 0.015428168699145317 0.03161865472793579
vt 0.010126156732439995 0.030906319618225098
vt 0.011290116235613823 0.026197373867034912
vt 0.01328958384692669 0.029024899005889893
vt 0.007581307087093592 0.02712118625640869
vt 0.014778776094317436 0.022328734397888184
vt 0.011290116235613823 0.026197373867034912
vt 0.007295562420040369 0.022499144077301025
vt 0.013963324949145317 0.019602417945861816
vt 0.014778776094317436 0.022328734397888184
vt 0.013448549434542656 0.01521974802017212
vt 0.016377968713641167 0.013981997966766357
vt 0.01783396117389202 0.017949283123016357
vt 0.016377968713641167 0.013981997966766357
vt 0.019360525533556938 0.012005031108856201
vt 0.020416749641299248 0.017215728759765625
vt 0.019360525533556938 0.012005031108856201
vt 0.022509558126330376 0.011447310447692871
vt 0.02313239686191082 0.016748428344726562
vt 0.022509558126330376 0.011447310447692871
vt 0.02570752613246441 0.011195182800292969
vt 0.025892002508044243 0.016522645950317383
vt 0.02570752613246441 0.011195182800292969
vt 0.029839081689715385 0.01078861951828003
vt 0.029620571061968803 0.016596972942352295
vt 0.013963324949145317 0.019602417945861816
vt 0.01783396117389202 0.017949283123016357
vt 0.018584681674838066 0.021108150482177734
vt 0.01783396117389202 0.017949283123016357
vt 0.020416749641299248 0.017215728759765625
vt 0.02093021385371685 0.019741535186767578
vt 0.020416749641299248 0.017215728759765625
vt 0.02313239686191082 0.016748428344726562
vt 0.023470057174563408 0.019852876663208008
vt 0.02313239686191082 0.016748428344726562
vt 0.025892002508044243 0.016522645950317383
vt 0.026224715635180473 0.020864427089691162
vt 0.025892002508044243 0.016522645950317383
vt 0.029620571061968803 0.016596972942352295
vt 0.02963290922343731 0.019486665725708008
vt 0.014778776094317436 0.022328734397888184
vt 0.018584681674838066 0.021108150482177734
vt 0.019696367904543877 0.023600757122039795
vt 0.018584681674838066 0.021108150482177734
vt 0.02093021385371685 0.019741535186767578
vt 0.02177785150706768 0.02358877658843994
vt 0.02093021385371685 0.019741535186767578
vt 0.023470057174563408 0.019852876663208008
vt 0.02393208257853985 0.023401379585266113
vt 0.023470057174563408 0.019852876663208008
vt 0.026224715635180473 0.020864427089691162
vt 0.02650405280292034 0.02413201332092285
vt 0.026224715635180473 0.020864427089691162
vt 0.02963290922343731 0.019486665725708008
vt 0.029280168935656548 0.022529304027557373
vt 0.011290116235613823 0.026197373867034912
vt 0.019696367904543877 0.023600757122039795
vt 0.018835676833987236 0.027559399604797363
vt 0.019696367904543877 0.023600757122039795
vt 0.02177785150706768 0.02358877658843994
vt 0.02162991277873516 0.027853727340698242
vt 0.02177785150706768 0.02358877658843994
vt 0.02393208257853985 0.023401379585266113
vt 0.024332059547305107 0.02771174907684326
vt 0.02393208257853985 0.023401379585266113
vt 0.02650405280292034 0.02413201332092285
vt 0.02702157013118267 0.027357518672943115
vt 0.02650405280292034 0.02413201332092285
vt 0.029280168935656548 0.022529304027557373
vt 0.030561788007616997 0.026369452476501465
vt 0.01328958384692669 0.029024899005889893
vt 0.018835676833987236 0.027559399604797363
vt 0.018345845863223076 0.032764554023742676
vt 0.018835676833987236 0.027559399604797363
vt 0.02162991277873516 0.027853727340698242
vt 0.021580977365374565 0.032414019107818604
vt 0.02162991277873516 0.027853727340698242
vt 0.024332059547305107 0.02771174907684326
vt 0.02500743977725506 0.03341585397720337
vt 0.024332059547305107 0.02771174907684326
vt 0.02702157013118267 0.027357518672943115
vt 0.02804545871913433 0.03295540809631348
vt 0.02702157013118267 0.027357518672943115
vt 0.030561788007616997 0.026369452476501465
vt 0.03184865415096283 0.030742883682250977
vt 0.03472505509853363 0.013183176517486572
vt 0.03781108558177948 0.017125248908996582
vt 0.029620571061968803 0.016596972942352295
vt 0.03781108558177948 0.017125248908996582
vt 0.040851399302482605 0.01960313320159912
vt 0.02963290922343731 0.019486665725708008
vt 0.040851399302482605 0.01960313320159912
vt 0.0406106561422348 0.022643625736236572
vt 0.029280168935656548 0.022529304027557373
vt 0.0406106561422348 0.022643625736236572
vt 0.03954558074474335 0.025723516941070557
vt 0.030561788007616997 0.026369452476501465
vt 0.03954558074474335 0.025723516941070557
vt 0.03637783229351044 0.029105842113494873
vt 0.03184865415096283 0.030742883682250977
vt 0.007971001788973808 0.01764214038848877
vt 0.010323477908968925 0.013253092765808105
vt 0.013448549434542656 0.01521974802017212
vt 0.010323477908968925 0.013253092765808105
vt 0.01407657377421856 0.011465728282928467
vt 0.016377968713641167 0.013981997966766357
vt 0.01407657377421856 0.011465728282928467
vt 0.017953140661120415 0.00898653268814087
vt 0.019360525533556938 0.012005031108856201
vt 0.017953140661120415 0.00898653268814087
vt 0.021968288347125053 0.00821000337600708
vt 0.022509558126330376 0.011447310447692871
vt 0.021968288347125053 0.00821000337600708
vt 0.026025695726275444 0.007881641387939453
vt 0.02570752613246441 0.011195182800292969
vt 0.026025695726275444 0.007881641387939453
vt 0.03129737079143524 0.00757676362991333
vt 0.029839081689715385 0.01078861951828003
vt 0.03129737079143524 0.00757676362991333
vt 0.0376153439283371 0.010568439960479736
vt 0.03472505509853363 0.013183176517486572
vt 0.0376153439283371 0.010568439960479736
vt 0.04245178401470184 0.014416813850402832
vt 0.03781108558177948 0.017125248908996582
vt 0.04245178401470184 0.014416813850402832
vt 0.04536609351634979 0.018483638763427734
vt 0.040851399302482605 0.01960313320159912
vt 0.04536609351634979 0.018483638763427734
vt 0.04490290582180023 0.02269965410232544
vt 0.0406106561422348 0.022643625736236572
vt 0.04490290582180023 0.02269965410232544
vt 0.04361586272716522 0.026764273643493652
vt 0.03954558074474335 0.025723516941070557
vt 0.04361586272716522 0.026764273643493652
vt 0.03964589536190033 0.031176388263702393
vt 0.03637783229351044 0.029105842113494873
vt 0.03964589536190033 0.031176388263702393
vt 0.03397755324840546 0.03338897228240967
vt 0.03184865415096283 0.030742883682250977
vt 0.03397755324840546 0.03338897228240967
vt 0.029147488996386528 0.036069631576538086
vt 0.02804545871913433 0.03295540809631348
vt 0.029147488996386528 0.036069631576538086
vt 0.02521614544093609 0.03668099641799927
vt 0.02500743977725506 0.03341585397720337
vt 0.02521614544093609 0.03668099641799927
vt 0.020839108154177666 0.03556543588638306
vt 0.021580977365374565 0.032414019107818604
vt 0.020839108154177666 0.03556543588638306
vt 0.016774548217654228 0.035852670669555664
vt 0.018345845863223076 0.032764554023742676
vt 0.016774548217654228 0.035852670669555664
vt 0.012930197641253471 0.03432708978652954
vt 0.015428168699145317 0.03161865472793579
vt 0.012930197641253471 0.03432708978652954
vt 0.010126156732439995 0.030906319618225098
vt 0.01328958384692669 0.029024899005889893
vt 0.010126156732439995 0.030906319618225098
vt 0.007581307087093592 0.02712118625640869
vt 0.011290116235613823 0.026197373867034912
vt 0.007581307087093592 0.02712118625640869
vt 0.007295562420040369 0.022499144077301025
vt 0.014778776094317436 0.022328734397888184
vt 0.007295562420040369 0.022499144077301025
vt 0.007971001788973808 0.01764214038848877
vt 0.013963324949145317 0.019602417945861816
vn 0 0.6559208472982794 0.7548296775296446
vn 0 0.6559208133374715 0.7548297070404092
vn 0 0.655920906319811 0.7548296262419736
vn 0 0.655920906319811 0.7548296262419736
vn 0 0.6559208088874261 0.754829710907344
vn 0 0.6559209742414118 0.7548295672204403
vn 0 0.803987513435516 0.5946461790340335
vn 0 0.8039874353665272 0.5946462845866897
vn 0 0.8039874849392463 0.5946462175622284
vn 0 0.8039874849392463 0.5946462175622284
vn 0 0.8039873932136188 0.5946463415792365
vn 0 0.803987442786348 0.5946462745547716
vn 0 0.803987442786348 0.5946462745547716
vn 0 0.8039873362210683 0.5946464186356047
vn 0 0.8039874849392463 0.5946462175622284
vn 0 0.8694391589774504 0.4940400275651598
vn 0 0.8694391589774504 0.4940400275651598
vn 0 0.86943913162819 0.4940400756959083
vn -0.10370769556965265 0.8647509984448714 0.4913760520906881
vn -0.10370769556965265 0.8647509984448714 0.4913760520906881
vn -0.10370769556965265 0.8647509984448714 0.4913760520906881
vn 0.12241992942802304 0.8053391472761953 0.5800363943265011
vn 0.12241992942802304 0.8053391472761953 0.5800363943265011
vn 0.12241992942802304 0.8053391472761953 0.5800363943265011
vn 0.24550337674020511 0.842830524487153 0.4789204516429295
vn 0.24550337674020511 0.842830524487153 0.4789204516429295
vn 0.24550337674020511 0.842830524487153 0.4789204516429295
vn -0.14154128332012697 0.929651115007144 0.34016888376520454
vn -0.14154128332012697 0.929651115007144 0.34016888376520454
vn -0.14154128332012697 0.929651115007144 0.34016888376520454
vn -0.5947722638562781 0.5030115116478721 -0.6270768479995101
vn -0.5947722638562781 0.5030115116478721 -0.6270768479995101
vn -0.5947722638562781 0.5030115116478721 -0.6270768479995101
vn 0 0.7874142224920649 0.6164242388300581
vn 0 0.7874142451405665 0.6164242098990855
vn 0 0.7874142514230389 0.6164242018739168
vn 0 0.8398160697581979 0.5428710426757848
vn 0 0.8398160697581979 0.5428710426757848
vn 0 0.8398160697581979 0.5428710426757848
vn 0.30130561349644197 0.7508212119486182 0.5877775386687901
vn 0.3013056269806008 0.7508211859450473 0.5877775649732642
vn 0.3013056269806008 0.7508211859450473 0.5877775649732642
vn -0.24844645227018702 0.7627253613235273 0.5970966283176055
vn -0.24844658324180843 0.7627253059411658 0.5970966445663769
vn -0.24844659722318402 0.7627253031174481 0.59709664235584
vn -0.6073848127315611 0.7174274464992834 -0.34114739962744045
vn -0.6073848127315611 0.7174274464992834 -0.34114739962744045
vn -0.6073848127315611 0.7174274464992834 -0.34114739962744045
vn 0 0.6445975367099144 -0.7645220831784457
vn 0 0.6445975073362066 -0.7645221079445309
vn 0 0.6445975073362066 -0.7645221079445309
vn 0 0.6445975073362066 -0.7645221079445309
vn 0 0.6445975073362066 -0.7645221079445309
vn 0 0.6445975367099144 -0.7645220831784457
vn 0 0.6445975367099144 -0.7645220831784457
vn 0 0.6445974431239386 -0.7645221620843183
vn 0 0.644597571548471 -0.7645220538047374
vn 0 0.36510232328681597 -0.930967396599134
vn 0 0.36510232328681597 -0.930967396599134
vn 0 0.36510232328681597 -0.930967396599134
vn 0 0.9999999999999969 -7.945153868149621e-8
vn 0 0.9999999999999969 -7.945153868149621e-8
vn 0 0.9999999999999969 -7.945153868149621e-8
vn 0.2519101055573426 0.699607033459478 -0.6686488596057857
vn 0.2519101055573426 0.699607033459478 -0.6686488596057857
vn 0.2519101055573426 0.699607033459478 -0.6686488596057857
vn -0.44292235433320926 0.5424846417961682 -0.7138138422916791
vn -0.44292235433320926 0.5424846417961682 -0.7138138422916791
vn -0.44292235433320926 0.5424846417961682 -0.7138138422916791
vn 0 0.7763095594071424 -0.6303518604502475
vn 0 0.7763095065562022 -0.6303519255387944
vn 0 0.7763095065562022 -0.6303519255387944
vn 0.28236528352356605 0.7447191841113292 -0.6047009041478376
vn 0.28236528352356605 0.7447191841113292 -0.6047009041478376
vn 0.28236528352356605 0.7447191841113292 -0.6047009041478376
vn 0.2496350940334146 0.8153017065877439 0.5224609526673171
vn 0.2496350940334146 0.8153017065877439 0.5224609526673171
vn 0.2496350940334146 0.8153017065877439 0.5224609526673171
vn 0.14659226929234573 0.8600465957096355 0.4887029361401334
vn 0.14659226929234573 0.8600465957096355 0.4887029361401334
vn 0.14659226929234573 0.8600465957096355 0.4887029361401334
vn 0.32544206092957373 0.7445488829576219 0.5828674170550875
vn 0.32544206092957373 0.7445488829576219 0.5828674170550875
vn 0.32544206092957373 0.7445488829576219 0.5828674170550875
vn 0.43236652911573853 0.5812322217040321 -0.6893680359237756
vn 0.43236652911573853 0.5812322217040321 -0.6893680359237756
vn 0.43236652911573853 0.5812322217040321 -0.6893680359237756
vn 0.2625764933338813 0.5838422835153123 -0.7682328899026047
vn 0.2625764933338813 0.5838422835153123 -0.7682328899026047
vn 0.2625764933338813 0.5838422835153123 -0.7682328899026047
vn -0.6055965713253895 0.33541752191223967 0.7216286294162565
vn -0.6055965713253895 0.33541752191223967 0.7216286294162565
vn -0.6055965713253895 0.33541752191223967 0.7216286294162565
vn 0 0.47791329461913545 0.8784070143312173
vn 0 0.4779132966458692 0.878407013228536
vn 0 0.4779135056315268 0.8784068995260593
vn -0.396871136564245 0.5769281794748871 0.7138957743886686
vn -0.3968711867807555 0.5769281658274414 0.7138957575012047
vn -0.39687117207992506 0.5769280685710597 0.7138958442705583
vn 0 0.5533656278414848 0.8329384622669309
vn 0 0.5533656966673223 0.8329384165422369
vn 0 0.5533658343189929 0.8329383250928275
vn 0 0.5533654763098392 0.8329385629374982
vn 0 0.5533655864885874 0.8329384897398737
vn 0 0.5533656966673223 0.8329384165422369
vn -0.15079806579358399 0.5286896170698911 0.835312655330569
vn -0.1507980366689682 0.5286896194458921 0.8353126590845744
vn -0.150798155163422 0.5286894977304337 0.8353127147295498
vn 0.3292527866643953 0.6455570015827876 0.6890927079727163
vn 0.3292528394284193 0.6455569869985279 0.6890926964245855
vn 0.32925274619038786 0.6455569794870636 0.6890927480111998
vn 0.2652775236141709 0.6198585965929493 0.7385141540247908
vn 0.2652775236141709 0.6198585965929493 0.7385141540247908
vn 0.2652775236141709 0.6198585965929493 0.7385141540247908
vn 0.7763733702761911 0.5658001347954014 0.277695151904915
vn 0.7763733702761911 0.5658001347954014 0.277695151904915
vn 0.7763733702761911 0.5658001347954014 0.277695151904915
vn 0.6498586649233575 0.7054644895588477 -0.2828490226172006
vn 0.6498586649233575 0.7054644895588477 -0.2828490226172006
vn 0.6498586649233575 0.7054644895588477 -0.2828490226172006
vn 0.6066337276279864 0.7493661105888257 -0.2654165646773947
vn 0.6066337477991132 0.7493661214818013 -0.2654164878196606
vn 0.6066336247616225 0.749366295566792 -0.265416277528486
vn 0.4546784652173583 0.6818811137857306 -0.5729796156321086
vn 0.454678496971491 0.6818810720183364 -0.5729796401399183
vn 0.4546785014355244 0.6818811830122137 -0.5729795045079795
vn 0 0.4736362415729478 -0.8807205633279219
vn 0 0.47363607626220666 -0.8807206522291511
vn 0 0.47363647798068864 -0.8807204361918989
vn 0.3494492750497734 0.5637686222354833 -0.7483649809751206
vn 0.3494492750497734 0.5637686222354833 -0.7483649809751206
vn 0.3494492527316745 0.5637686939144726 -0.7483649373983552
vn 0 0.5577840807647925 -0.8299860958144873
vn 0 0.5577840807647925 -0.8299860958144873
vn 0 0.5577841352911621 -0.8299860591705686
vn -0.4534396990176979 0.5102719177201561 -0.7307633059622889
vn -0.4534396891341345 0.5102718805308051 -0.7307633380633536
vn -0.4534395373810519 0.5102722090065761 -0.730763202860685
vn 0.3259651250522711 0.3809877204683488 -0.8652139007794482
vn 0.3259651021176547 0.3809876986929944 -0.8652139190084975
vn 0.3259650836120954 0.38098782607531595 -0.8652138698889219
vn -0.2824494505632749 0.598462514601548 -0.7497098948882134
vn -0.28244943794168503 0.5984624878585382 -0.7497099209911757
vn -0.28244947034914225 0.5984623145644545 -0.7497100471153131
vn -0.6613768254119401 0.6543887173436794 -0.3665461791116064
vn -0.661407152939734 0.654393355389056 -0.36648317077706055
vn -0.6613767516331089 0.6543887629238981 -0.3665462308606751
vn -0.6594867891706513 0.6541055629661091 -0.3704363473070299
vn -0.6594961290388487 0.654107153891496 -0.3704169097257048
vn -0.661407152939734 0.654393355389056 -0.36648317077706055
vn -0.47995801994776566 0.521799198413022 -0.7052417285040271
vn -0.47995801994776566 0.521799198413022 -0.7052417285040271
vn -0.47995801994776566 0.521799198413022 -0.7052417285040271
vn -0.9042998789257202 0.29122978353013357 0.31213289182641313
vn -0.9042998789257202 0.29122978353013357 0.31213289182641313
vn -0.9042998789257202 0.29122978353013357 0.31213289182641313
vn 0 0.6559208133374715 0.7548297070404092
vn 0 0.6559208088874261 0.754829710907344
vn 0 0.655920906319811 0.7548296262419736
vn -0.3138719247321382 0.7633581273941908 0.5645961248593343
vn -0.3138719247321382 0.7633581273941908 0.5645961248593343
vn -0.3138719247321382 0.7633581273941908 0.5645961248593343
vn 0 0.8039874353665272 0.5946462845866897
vn 0 0.8039873932136188 0.5946463415792365
vn 0 0.8039874849392463 0.5946462175622284
vn 0 0.8039873932136188 0.5946463415792365
vn 0 0.8039873362210683 0.5946464186356047
vn 0 0.803987442786348 0.5946462745547716
vn -0.09694440374916088 0.8379922856338955 0.5370015938521963
vn -0.09694440374916088 0.8379922856338955 0.5370015938521963
vn -0.09694440374916088 0.8379922856338955 0.5370015938521963
vn 0 0.8694391589774504 0.4940400275651598
vn 0 0.8694390932245191 0.4940401432808127
vn 0 0.86943913162819 0.4940400756959083
vn 0 0.8114423810942161 0.5844324273721888
vn 0 0.8114423810942161 0.5844324273721888
vn 0 0.8114423810942161 0.5844324273721888
vn 0 0.8694391205737834 0.49404009515006586
vn 0 0.8694391205737834 0.49404009515006586
vn 0 0.8694391205737834 0.49404009515006586
vn 0 0.9377963464788831 0.3471858472502281
vn 0 0.9377963464788831 0.3471858472502281
vn 0 0.9377963464788831 0.3471858472502281
vn 0 0.8694391188269666 0.49404009822421074
vn 0 0.8694391188269666 0.49404009822421074
vn 0 0.8694391188269666 0.49404009822421074
vn 0 0.7874142451405665 0.6164242098990855
vn 0 0.7874142451405665 0.6164242098990855
vn 0 0.7874142224920649 0.6164242388300581
vn -0.1138304765225038 0.8343574369769425 0.5393424607574737
vn -0.1138304765225038 0.8343574369769425 0.5393424607574737
vn -0.1138304765225038 0.8343574369769425 0.5393424607574737
vn 0.1290116682814281 0.7808338549809608 0.611272836271018
vn 0.1290116682814281 0.7808338549809608 0.611272836271018
vn 0.1290116682814281 0.7808338549809608 0.611272836271018
vn 0.3013056269806008 0.7508211859450473 0.5877775649732642
vn 0.3013056269806008 0.7508211859450473 0.5877775649732642
vn 0.3013056269806008 0.7508211859450473 0.5877775649732642
vn -0.24844658324180843 0.7627253059411658 0.5970966445663769
vn -0.24844671768256013 0.7627252334921156 0.5970966811724548
vn -0.24844659722318402 0.7627253031174481 0.59709664235584
vn -0.606185105394424 0.5126636346676383 -0.608042445629676
vn -0.606185105394424 0.5126636346676383 -0.608042445629676
vn -0.606185105394424 0.5126636346676383 -0.608042445629676
vn 0 0.6445975073362066 -0.7645221079445309
vn 0 0.6445975073362066 -0.7645221079445309
vn 0 0.6445975073362066 -0.7645221079445309
vn 0 0.6445975073362066 -0.7645221079445309
vn 0 0.6445974431239386 -0.7645221620843183
vn 0 0.6445975367099144 -0.7645220831784457
vn -0.4284270170546601 0.34343997147447575 -0.8357626918278042
vn -0.4284270170546601 0.34343997147447575 -0.8357626918278042
vn -0.4284270170546601 0.34343997147447575 -0.8357626918278042
vn 0.30314213671003803 0.6142661692026239 -0.7285478147136301
vn 0.30314213671003803 0.6142661692026239 -0.7285478147136301
vn 0.30314213671003803 0.6142661692026239 -0.7285478147136301
vn -0.5220237181341887 0.6166014443401593 -0.5893164655284854
vn -0.5220237181341887 0.6166014443401593 -0.5893164655284854
vn -0.5220237181341887 0.6166014443401593 -0.5893164655284854
vn 0 0.6050732598298483 -0.7961697998786947
vn 0 0.6050732598298483 -0.7961697998786947
vn 0 0.6050732598298483 -0.7961697998786947
vn 0 0.7763095357236262 -0.6303518896176707
vn 0 0.7763095065562022 -0.6303519255387944
vn 0 0.7763095594071424 -0.6303518604502475
vn 0 0.7763095065562022 -0.6303519255387944
vn 0 0.7763095357236262 -0.6303518896176707
vn 0 0.7763095065562022 -0.6303519255387944
vn 0 0.6050733641089843 -0.7961697206286086
vn 0 0.6050733641089843 -0.7961697206286086
vn 0 0.6050733641089843 -0.7961697206286086
vn 0.1277349685859899 0.7494110741895157 0.6496666989175699
vn 0.1277349685859899 0.7494110741895157 0.6496666989175699
vn 0.1277349685859899 0.7494110741895157 0.6496666989175699
vn 0.393166373448945 0.89948934936937 -0.1906282066223996
vn 0.393166373448945 0.89948934936937 -0.1906282066223996
vn 0.393166373448945 0.89948934936937 -0.1906282066223996
vn 0.5751891575114889 0.7732293990659314 -0.266971402029061
vn 0.5751891575114889 0.7732293990659314 -0.266971402029061
vn 0.5751891575114889 0.7732293990659314 -0.266971402029061
vn 0.40371725684596976 0.8976703909399695 -0.17663591298047945
vn 0.40371725684596976 0.8976703909399695 -0.17663591298047945
vn 0.40371725684596976 0.8976703909399695 -0.17663591298047945
vn 0 0.999999999999998 -6.28621918963289e-8
vn 0 0.999999999999998 -6.28621918963289e-8
vn 0 0.999999999999998 -6.28621918963289e-8
vn -0.6603801025712924 0.6557034030920862 0.36599339789316754
vn -0.6603801025712924 0.6557034030920862 0.36599339789316754
vn -0.6603801025712924 0.6557034030920862 0.36599339789316754
vn 0 0.47791329461913545 0.8784070143312173
vn 0 0.4779130836067187 0.8784071291363235
vn 0 0.4779132966458692 0.878407013228536
vn -0.396871136564245 0.5769281794748871 0.7138957743886686
vn -0.39687111469600495 0.5769282506132383 0.7138957290559307
vn -0.3968711867807555 0.5769281658274414 0.7138957575012047
vn 0 0.5533656278414848 0.8329384622669309
vn 0 0.5533654763098392 0.8329385629374982
vn 0 0.5533656966673223 0.8329384165422369
vn 0 0.5533654763098392 0.8329385629374982
vn 0 0.5533653800110543 0.832938626913905
vn 0 0.5533655864885874 0.8329384897398737
vn -0.15079806579358399 0.5286896170698911 0.835312655330569
vn -0.15079795435342824 0.5286897112746618 0.8353126158242412
vn -0.1507980366689682 0.5286896194458921 0.8353126590845744
vn 0.3292527866643953 0.6455570015827876 0.6890927079727163
vn 0.3292528925714761 0.6455569743294722 0.6890926829011416
vn 0.3292528394284193 0.6455569869985279 0.6890926964245855
vn 0.5415274324231392 0.4909623999212059 0.682425059473062
vn 0.5415274324231392 0.4909623999212059 0.682425059473062
vn 0.5415274324231392 0.4909623999212059 0.682425059473062
vn 0.5759189257106342 0.6935308012278858 0.4328191524834774
vn 0.5759189257106342 0.6935308012278858 0.4328191524834774
vn 0.5759189257106342 0.6935308012278858 0.4328191524834774
vn 0.6210528363076356 0.7591199570448462 -0.19501350038002954
vn 0.6210528363076356 0.7591199570448462 -0.19501350038002954
vn 0.6210528363076356 0.7591199570448462 -0.19501350038002954
vn 0.6066337276279864 0.7493661105888257 -0.2654165646773947
vn 0.6066338564410663 0.7493659296142093 -0.2654167812194087
vn 0.6066337477991132 0.7493661214818013 -0.2654164878196606
vn 0.4546784652173583 0.6818811137857306 -0.5729796156321086
vn 0.4546784474788059 0.681881012668472 -0.5729797500439975
vn 0.454678496971491 0.6818810720183364 -0.5729796401399183
vn 0 0.4736362415729478 -0.8807205633279219
vn 0 0.47363586646478534 -0.8807207650544818
vn 0 0.47363607626220666 -0.8807206522291511
vn 0.3494492750497734 0.5637686222354833 -0.7483649809751206
vn 0.3494492817803232 0.5637685254090163 -0.7483650507749272
vn 0.3494492750497734 0.5637686222354833 -0.7483649809751206
vn 0 0.5577840807647925 -0.8299860958144873
vn 0 0.5577840255764948 -0.8299861329032433
vn 0 0.5577840807647925 -0.8299860958144873
vn -0.4534396990176979 0.5102719177201561 -0.7307633059622889
vn -0.4534397994969225 0.5102716321569681 -0.7307634430156277
vn -0.4534396891341345 0.5102718805308051 -0.7307633380633536
vn 0.3259651250522711 0.3809877204683488 -0.8652139007794482
vn 0.32596514968217155 0.38098759521354525 -0.8652139466548603
vn 0.3259651021176547 0.3809876986929944 -0.8652139190084975
vn -0.2824494505632749 0.598462514601548 -0.7497098948882134
vn -0.28244939073103925 0.5984626929332517 -0.7497097750748253
vn -0.28244943794168503 0.5984624878585382 -0.7497099209911757
vn -0.6613768254119401 0.6543887173436794 -0.3665461791116064
vn -0.6594867891706513 0.6541055629661091 -0.3704363473070299
vn -0.661407152939734 0.654393355389056 -0.36648317077706055
vn -0.6594867891706513 0.6541055629661091 -0.3704363473070299
vn -0.6594960337062575 0.6541070588508505 -0.3704172472863605
vn -0.6594961290388487 0.654107153891496 -0.3704169097257048
vn -0.889200277225819 0.2883246370613591 0.3552348105759939
vn -0.889200277225819 0.2883246370613591 0.3552348105759939
vn -0.889200277225819 0.2883246370613591 0.3552348105759939
vn -0.91862456003483 0.3659736793509936 0.1489704122405224
vn -0.91862456003483 0.3659736793509936 0.1489704122405224
vn -0.91862456003483 0.3659736793509936 0.1489704122405224
f 1/1/1 2/2/2 3/3/3
f 4/4/4 5/5/5 6/6/6
f 7/7/7 8/8/8 9/9/9
f 10/10/10 11/11/11 12/12/12
f 13/13/13 14/14/14 15/15/15
f 16/16/16 17/17/17 18/18/18
f 19/19/19 20/20/20 21/21/21
f 22/22/22 23/23/23 24/24/24
f 25/25/25 26/26/26 27/27/27
f 28/28/28 29/29/29 30/30/30
f 31/31/31 32/32/32 33/33/33
f 34/34/34 35/35/35 36/36/36
f 37/37/37 38/38/38 39/39/39
f 40/40/40 41/41/41 42/42/42
f 43/43/43 44/44/44 45/45/45
f 46/46/46 47/47/47 48/48/48
f 49/49/49 50/50/50 51/51/51
f 52/52/52 53/53/53 54/54/54
f 55/55/55 56/56/56 57/57/57
f 58/58/58 59/59/59 60/60/60
f 61/61/61 62/62/62 63/63/63
f 64/64/64 65/65/65 66/66/66
f 67/67/67 68/68/68 69/69/69
f 70/70/70 71/71/71 72/72/72
f 73/73/73 74/74/74 75/75/75
f 76/76/76 77/77/77 78/78/78
f 79/79/79 80/80/80 81/81/81
f 82/82/82 83/83/83 84/84/84
f 85/85/85 86/86/86 87/87/87
f 88/88/88 89/89/89 90/90/90
f 91/91/91 92/92/92 93/93/93
f 94/94/94 95/95/95 96/96/96
f 97/97/97 98/98/98 99/99/99
f 100/100/100 101/101/101 102/102/102
f 103/103/103 104/104/104 105/105/105
f 106/106/106 107/107/107 108/108/108
f 109/109/109 110/110/110 111/111/111
f 112/112/112 113/113/113 114/114/114
f 115/115/115 116/116/116 117/117/117
f 118/118/118 119/119/119 120/120/120
f 121/121/121 122/122/122 123/123/123
f 124/124/124 125/125/125 126/126/126
f 127/127/127 128/128/128 129/129/129
f 130/130/130 131/131/131 132/132/132
f 133/133/133 134/134/134 135/135/135
f 136/136/136 137/137/137 138/138/138
f 139/139/139 140/140/140 141/141/141
f 142/142/142 143/143/143 144/144/144
f 145/145/145 146/146/146 147/147/147
f 148/148/148 149/149/149 150/150/150
f 151/151/151 152/152/152 153/153/153
f 154/154/154 155/155/155 156/156/156
f 157/157/157 158/158/158 159/159/159
f 160/160/160 161/161/161 162/162/162
f 163/163/163 164/164/164 165/165/165
f 166/166/166 167/167/167 168/168/168
f 169/169/169 170/170/170 171/171/171
f 172/172/172 173/173/173 174/174/174
f 175/175/175 176/176/176 177/177/177
f 178/178/178 179/179/179 180/180/180
f 181/181/181 182/182/182 183/183/183
f 184/184/184 185/185/185 186/186/186
f 187/187/187 188/188/188 189/189/189
f 190/190/190 191/191/191 192/192/192
f 193/193/193 194/194/194 195/195/195
f 196/196/196 197/197/197 198/198/198
f 199/199/199 200/200/200 201/201/201
f 202/202/202 203/203/203 204/204/204
f 205/205/205 206/206/206 207/207/207
f 208/208/208 209/209/209 210/210/210
f 211/211/211 212/212/212 213/213/213
f 214/214/214 215/215/215 216/216/216
f 217/217/217 218/218/218 219/219/219
f 220/220/220 221/221/221 222/222/222
f 223/223/223 224/224/224 225/225/225
f 226/226/226 227/227/227 228/228/228
f 229/229/229 230/230/230 231/231/231
f 232/232/232 233/233/233 234/234/234
f 235/235/235 236/236/236 237/237/237
f 238/238/238 239/239/239 240/240/240
f 241/241/241 242/242/242 243/243/243
f 244/244/244 245/245/245 246/246/246
f 247/247/247 248/248/248 249/249/249
f 250/250/250 251/251/251 252/252/252
f 253/253/253 254/254/254 255/255/255
f 256/256/256 257/257/257 258/258/258
f 259/259/259 260/260/260 261/261/261
f 262/262/262 263/263/263 264/264/264
f 265/265/265 266/266/266 267/267/267
f 268/268/268 269/269/269 270/270/270
f 271/271/271 272/272/272 273/273/273
f 274/274/274 275/275/275 276/276/276
f 277/277/277 278/278/278 279/279/279
f 280/280/280 281/281/281 282/282/282
f 283/283/283 284/284/284 285/285/285
f 286/286/286 287/287/287 288/288/288
f 289/289/289 290/290/290 291/291/291
f 292/292/292 293/293/293 294/294/294
f 295/295/295 296/296/296 297/297/297
f 298/298/298 299/299/299 300/300/300
f 301/301/301 302/302/302 303/303/303
f 304/304/304 305/305/305 306/306/306
f 307/307/307 308/308/308 309/309/309
f 310/310/310 311/311/311 312/312/312
