# File generated by ImageToStl.com - Free Image and 3D model conversion tools

mtllib Hill_desert_005.mtl

# Hill_desert_005_0
o obj1
v -1351.90625 369.90005493 510.6914978
v -1348.01135254 380.11700439 695.55175781
v -1153.29785156 434.41949463 663.48779297
v -1340.35119629 337.8817749 828.20617676
v -1181.30712891 380.11703491 835.809021
v -1095.83837891 337.8817749 828.20617676
v -1040.56884766 380.11700439 695.55175781
v -972.65270996 424.27200317 487.63513184
v -1168.87744141 427.60806274 485.0760498
v 761.75689697 420.89691162 516.29364014
v 812.76873779 380.11700439 695.55175781
v 923.48040771 434.41949463 663.48779297
v 812.60430908 337.8817749 828.20617676
v 918.09576416 380.11703491 835.809021
v 1063.66162109 380.11703491 835.809021
v 1037.83203125 434.41949463 663.48779297
v 1012.76379395 467.59301758 506.62588501
v 902.47192383 467.59301758 506.62588501
v -1353.2121582 308.59805298 140.97102356
v -1353.20471191 339.24905396 325.83126831
v -1174.07067871 407.17410278 306.66433716
v -991.34863281 460.78170776 289.94519043
v -991.39318848 483.07919312 117.86740875
v -1174.1003418 386.74017334 128.25260925
v 263.99987793 689.12310791 54.44576645
v 273.52212524 666.63458252 189.63044739
v 412.27416992 699.80822754 172.91131592
v 326.4390564 640.83282471 282.04629517
v 456.87561035 666.63458252 291.76959229
v 647.58026123 668.49829102 291.7696228
v 574.62512207 707.26263428 172.91131592
v 517.49157715 714.73803711 45.02088547
v 374.18518066 714.80047607 44.57050323
v 704.62658691 729.6262207 172.91131592
v 763.72418213 674.08911133 291.76959229
v 859.18023682 679.67999268 291.7696228
v 824.58972168 751.98974609 172.91131592
v 815.06750488 778.08044434 45.17101288
v 666.53759766 744.53521729 45.17100525
v -1351.80114746 361.3522644 -238.25386047
v -1353.234375 351.13525391 -43.88922882
v -1174.18969727 379.92883301 -50.15911865
v -991.52716064 453.97039795 -54.21039581
v -996.29040527 554.3692627 -255.31005859
v -1176.0135498 386.74017334 -248.32733154
v 210.72900391 848.88928223 -234.15574646
v 260.82580566 756.5881958 -82.95981598
v 361.48883057 759.77722168 -84.97135925
v 498.44708252 722.25500488 -83.16983032
v 500.08789062 727.90820312 -238.06422424
v 361.48883057 804.75396729 -239.45672607
v 653.84130859 729.6262207 -82.56932068
v 811.89337158 751.98974609 -82.56932831
v 821.35546875 712.8536377 -241.75897217
v 660.40435791 707.26263428 -241.09280396
v -1351.66345215 319.71820068 -610.41577148
v -1347.44189453 339.24902344 -451.62710571
v -1181.24731445 407.17410278 -486.00839233
v -1010.22387695 460.78170776 -514.45336914
v -1014.07830811 415.77706909 -825.60766602
v -1225.31884766 373.30563354 -697.875
v -319.47735596 666.63464355 -644.05444336
v -293.97747803 699.80822754 -458.6802063
v -192.05253601 699.80828857 -516.8649292
v -273.01367188 696.72509766 -243.67697144
v -112.21485138 729.79278564 -459.98629761
v -61.87843704 692.87109375 -662.44580078
v -183.97703552 666.63458252 -668.19726562
v 42.13803864 819.74627686 -442.62811279
v -23.29022217 771.5803833 -274.51318359
v 217.78097534 879.71533203 -443.8291626
v 224.89881897 824.05328369 -658.40655518
v 78.84893799 771.5803833 -660.92895508
v 361.48883057 819.74627686 -442.62811279
v 505.01013184 729.79266357 -446.06570435
v 518.85040283 692.87109375 -650.4074707
v 362.96496582 771.5803833 -649.63806152
v 680.09350586 699.80822754 -461.18255615
v 849.74194336 699.80822754 -463.84735107
v 905.69085693 666.63464355 -681.4262085
v 718.35839844 666.63458252 -676.49853516
v -538.13006592 370.09790039 -1208.40734863
v -527.10406494 357.965271 -1052.12451172
v -340.34896851 390.73132324 -1094.38354492
v -505.38668823 448.47946167 -903.75927734
v -316.48934937 456.67095947 -958.07342529
v -144.41162109 468.61053467 -1008.8828125
v -161.93725586 423.49737549 -1128.25634766
v -170.44509888 363.73394775 -1239.07653809
v -355.30535889 314.58486938 -1230.60803223
v 16.47445679 434.41940308 -1139.54736328
v 27.66617584 482.5852356 -1025.81933594
v 199.74394226 487.35089111 -1008.88269043
v 194.88615417 423.49737549 -1128.25634766
v 199.27539062 363.73394775 -1239.07641602
v 14.41514969 380.11694336 -1241.89916992
v 373.29788208 390.73132324 -1094.38354492
v 371.82174683 471.66317749 -958.07342529
v 571.28082275 452.22753906 -919.56536865
v 572.04425049 469.86032104 -1067.89038086
v 581.51800537 265.43579102 -1224.08312988
v 384.13565063 314.58486938 -1230.60803223
v 811.46008301 458.93832397 -1078.73864746
v 825.50256348 445.7489624 -939.53314209
v 1121.49414062 408.66421509 -975.58392334
v 1042.33642578 303.6628418 -1132.85192871
v 978.38647461 235.94293213 -1234.32067871
v 803.94494629 249.05281067 -1227.08935547
v -627.3493042 640.83282471 282.04629517
v -540.97155762 666.63458252 291.76959229
v -522.08764648 699.80822754 172.91131592
v -483.96878052 640.83282471 282.04626465
v -472.95559692 666.63458252 189.63046265
v -456.75601196 666.63470459 55.55620956
v -509.45452881 699.80822754 45.17100906
v -605.83679199 666.63470459 55.55621338
v -608.98754883 666.63458252 189.63044739
v -471.55508423 699.80822754 -82.56932068
v -408.15716553 666.63458252 -78.51805115
v -435.75802612 699.80822754 -235.14810181
v -590.8190918 666.63470459 -238.09819031
v -596.38415527 666.63458252 -78.51805115
v -429.43185425 699.80822754 -437.40380859
v -479.11987305 666.63458252 -632.52770996
v -614.87341309 640.83282471 -600.15130615
v -599.33093262 666.63458252 -448.69018555
v -727.92285156 445.7489624 -876.30871582
v -730.54626465 347.04327393 -1015.67523193
v -716.8840332 353.71490479 -1164.38745117
v -860.44836426 235.94293213 -1132.01318359
v -919.36682129 303.6628418 -1017.93249512
v 1245.6809082 380.11703491 835.809021
v 1204.78967285 434.41949463 663.48779297
v 1394.1661377 337.8817749 828.20617676
v 1397.61193848 380.11700439 695.55175781
v 1374.6394043 422.08966064 487.72946167
v 1173.79418945 467.59301758 506.62588501
v 987.82098389 681.54364014 291.76959229
v 956.82543945 759.44421387 172.91131592
v 1097.95019531 664.0246582 282.04626465
v 1098.46118164 718.81610107 189.63044739
v 1098.46105957 744.90692139 55.55620956
v 956.82543945 789.26220703 45.17100143
v 956.82543945 759.44421387 -82.56932831
v 1098.46118164 718.81610107 -78.51805115
v 1097.27294922 679.68005371 -226.26419067
v 961.85864258 714.71722412 -233.27928162
v 976.95837402 699.80822754 -429.92858887
v 1093.70861816 666.63458252 -401.35421753
v 1103.62902832 640.83282471 -543.51495361
v 1025.05029297 666.63458252 -618.70477295
v -1754.60510254 3.016E-05 689.99993896
v -1754.60510254 4.021E-05 920
v -1549.5916748 217.20974731 791.74389648
v -1686.26293945 4.775E-05 1092.5
v -1488.91394043 217.20976257 944.89819336
v -1549.5916748 291.76998901 587.5380249
v -1481.23620605 5.027E-05 1150
v -1306.88061523 217.20976257 995.949646
v -1276.20947266 4.775E-05 1092.5
v -1130.04040527 217.20976257 944.89819336
v -1207.8671875 4.021E-05 920
v -1084.94226074 217.20974731 791.74389648
v -1113.50463867 3.267E-05 747.5
v -1012.04016113 217.20974731 638.58947754
v -830.41741943 3.603E-05 824.25164795
v -751.78833008 217.20974731 721.78973389
v -547.33001709 2.765E-05 632.5
v -486.34320068 217.20974731 536.48657227
v -448.68713379 413.29058838 443.00689697
v -673.93243408 413.29058838 487.63848877
v -452.96765137 2.011E-05 460
v -397.86151123 217.20974731 383.33218384
v -425.09664917 1.257E-05 287.5
v -383.87304688 199.10891724 234.41725159
v -362.03485107 391.93563843 136.52903748
v -373.60528564 413.29058838 309.1121521
v -341.48379517 1.005E-05 230
v -341.90765381 144.80648804 196.084198
v -257.87097168 7.54E-06 172.49998474
v -311.26049805 199.10891724 132.3143158
v -230 0 0
v -330.3789978 217.2097168 -25.07955933
v -172.49998474 -7.54E-06 -172.49998474
v -290.02706909 217.2097168 -179.07266235
v -357.05422974 417.03866577 -183.24343872
v -399.10321045 413.29058838 -47.94050598
v 0 -1.005E-05 -230
v -80.96862793 217.2097168 -232.64024353
v 150.9211731 -7.54E-06 -172.49998474
v 128.30075073 217.2097168 -183.26625061
v 119.36017609 435.77905273 -190.28443909
v -124.16945648 428.28286743 -232.09965515
v 143.68469238 0 0
v 169.28543091 217.2097168 -28.43441963
v 78.94821167 1.005E-05 230
v 136.91719055 217.2097168 178.2875824
v 185.25172424 417.03866577 129.1776123
v 193.34376526 428.28286743 -53.57329941
v 57.36938095 2.011E-05 460
v 126.1277771 217.20974731 383.3321228
v 109.95180511 2.765E-05 632.5
v 192.45310974 217.20974731 536.48657227
v 256.34432983 413.29058838 443.00683594
v 182.55436707 413.29058838 309.1121521
v 267.69909668 3.016E-05 689.99993896
v 391.42907715 217.20974731 587.5380249
v 425.44638062 3.267E-05 747.5
v 590.4050293 217.20974731 638.58947754
v 477.71411133 413.29058838 487.63848877
v 478.02877808 4.021E-05 920
v 656.73040771 217.20974731 791.74389648
v 578.62231445 4.775E-05 1092.5
v 718.03314209 217.20976257 944.89819336
v 880.40301514 5.027E-05 1150
v 901.94177246 217.20976257 995.949646
v 1244.46948242 5.027E-05 1150
v 1141.1505127 217.20976257 995.949646
v 1531.92016602 5.027E-05 1150
v 1368.35473633 217.20976257 995.949646
v 1718.77722168 4.775E-05 1092.5
v 1534.25622559 217.20976257 944.89819336
v 1781.06286621 4.021E-05 920
v 1589.55688477 217.20974731 791.74389648
v 1781.06286621 3.016E-05 689.99993896
v 1589.55688477 217.20974731 587.5380249
v 1781.06286621 2.011E-05 460
v 1589.55688477 217.20974731 383.33218384
v 1781.06286621 1.005E-05 230
v 1589.55688477 217.2097168 179.126297
v 1486.97949219 554.96429443 130.58580017
v 1486.97949219 551.23706055 309.1121521
v 1781.06286621 0 0
v 1727.22888184 217.2097168 -25.07955933
v 1775.55395508 -1.083E-05 -247.85588074
v 1722.33776855 217.2097168 -245.13876343
v 1482.70324707 545.64611816 -240.32659912
v 1486.97949219 551.23706055 -47.94051361
v 1759.02709961 -2.323E-05 -531.42352295
v 1569.9921875 217.20970154 -496.9046936
v 1709.35742188 -3.517E-05 -804.49438477
v 1525.89294434 217.20970154 -739.35101318
v 1352.41271973 413.29055786 -672.39007568
v 1390.96618652 413.29058838 -460.43218994
v 1604.42004395 -4.462E-05 -1020.85992432
v 1432.72412109 217.20967102 -931.45159912
v 1476.95874023 -5.248E-05 -1200.6640625
v 1319.55712891 206.28764343 -1091.09106445
v 1270.95996094 413.29055786 -840.33325195
v 1359.71655273 -5.962E-05 -1364.05090332
v 1215.46362305 173.52160645 -1236.15429688
v 1205.91918945 -6.47E-05 -1480.27355957
v 1078.91442871 140.75556946 -1339.34277344
v 968.79205322 -6.638E-05 -1518.58544922
v 868.3807373 129.83355713 -1438.28662109
v 702.19799805 -6.636E-05 -1518.10266113
v 631.68475342 140.75556946 -1437.85803223
v 460 -6.635E-05 -1517.94177246
v 416.6489563 173.52160645 -1372.78637695
v 230 -6.635E-05 -1517.94177246
v 212.44308472 206.28762817 -1447.53564453
v 0 -6.635E-05 -1517.94177246
v 8.23722839 217.20965576 -1447.53564453
v -230 -6.635E-05 -1517.94177246
v -195.96862793 206.28762817 -1372.78662109
v -460 -6.635E-05 -1517.94177246
v -400.17446899 173.52160645 -1437.03759766
v -683.24169922 -6.552E-05 -1498.8605957
v -598.38000488 140.75556946 -1420.09667969
v -892.96673584 -6.302E-05 -1441.61743164
v -784.5847168 129.83355713 -1305.02197266
v -1066.75415039 -5.872E-05 -1343.41467285
v -944.1050415 140.75558472 -1217.83227539
v -1182.18261719 -5.252E-05 -1201.45446777
v -1062.25720215 173.52160645 -1091.79272461
v -1304.54296875 -4.557E-05 -1042.60961914
v -1181.34106445 206.28764343 -950.76208496
v -1499.12609863 -3.907E-05 -893.75292969
v -1343.65600586 217.20967102 -818.5994873
v -1675.24511719 -3.151E-05 -720.86962891
v -1484.35473633 210.39836121 -665.10473633
v -1742.2130127 -2.142E-05 -489.94512939
v -1538.5892334 189.96438599 -460.07806396
v -1751.50695801 -1.038E-05 -237.48626709
v -1546.84118652 298.26971436 -235.93212891
v -1754.60510254 0 0
v -1549.5916748 291.45837402 -25.07956314
v -1754.60510254 1.005E-05 230
v -1549.5916748 169.53045654 179.126297
v -1754.60510254 2.011E-05 460
v -1549.5916748 271.33599854 383.3321228
v 1080.80761719 567.11383057 392.86380005
v 1205.16992188 574.56835938 354.59481812
v 937.559021 567.11383057 392.86380005
v 1246.62402344 596.9317627 239.78781128
v 1325.53295898 742.33276367 86.71180725
v 1325.53295898 727.42376709 -66.36421967
v 1242.95751953 574.56835938 -231.32417297
v 1231.95812988 567.11383057 -420.05206299
v 1198.90063477 567.11376953 -601.79370117
v 1129.05981445 567.11376953 -745.79528809
v 997.84069824 567.11376953 -827.08752441
v 780.64837646 567.11376953 -820.70092773
v 547.24511719 582.10601807 -794.32250977
v 367.39337158 627.08282471 -815.63903809
v 214.31735229 657.06732178 -849.51190186
v 61.24132919 627.08282471 -860.80291748
v -91.83467865 582.10601807 -849.51190186
v -244.91069031 567.11376953 -815.63903809
v -413.06237793 567.11376953 -780.07513428
v -611.36547852 567.11376953 -763.71105957
v -766.36102295 567.11376953 -691.44970703
v -804.59002686 567.11383057 -488.19366455
v -789.44451904 665.80987549 -248.35960388
v -784.31677246 567.11383057 -66.36421967
v -784.22753906 594.51977539 86.71180725
v -784.19775391 567.11383057 239.78781128
v -737.55419922 567.11383057 354.59481812
v -597.62341309 567.11383057 392.86380005
v -457.69265747 567.11383057 354.59481812
v -411.04907227 567.11383057 239.78781128
v -409.41629028 567.11383057 86.71181488
v -404.5178833 567.11383057 -66.36421967
v -323.08148193 582.1060791 -182.61045837
v -91.83467865 627.08288574 -225.19714355
v 137.77934265 657.06732178 -189.80656433
v 214.31735229 627.08288574 -72.12111664
v 214.31735229 582.1060791 85.27258301
v 214.31735229 567.11383057 239.78781128
v 283.01531982 567.11383057 354.59481812
v 489.10928345 567.11383057 392.86380005
v 714.0894165 567.11383057 392.86380005
v 839.44616699 567.11383057 392.86380005
vn -0.27555 0.96013 -0.04726
vn -0.25796 0.91621 0.30661
vn 0.30236 0.86462 0.40126
vn 0.01385 0.97716 0.21204
vn -0.34824 0.88775 0.30105
vn -0.3741 0.88382 0.28093
vn 0 0.95376 0.30055
vn 0 0.95376 0.30055
vn 0 0.95377 0.30055
vn 0 0.97836 0.20691
vn 0 0.97836 0.20691
vn 0 0.97836 0.20691
vn -0.36462 0.91862 -0.1523
vn -0.31657 0.93615 -0.153
vn -0.25907 0.94513 0.19905
vn -0.45827 0.88143 0.11433
vn -0.20882 0.96225 0.17457
vn -0.20898 0.96217 0.17478
vn -0.20883 0.96224 0.17459
vn -0.20674 0.90528 0.37112
vn -0.04371 0.94159 0.33392
vn -0.04486 0.94132 0.33453
vn -0.04324 0.9417 0.33367
vn 0.00025 0.9983 0.05824
vn -0.16805 0.97688 0.13217
vn -0.04531 0.94121 0.33477
vn -0.15356 0.82372 0.54581
vn -0.21535 0.95351 0.21081
vn -0.15684 0.98632 0.05069
vn -0.37875 0.90192 0.20758
vn -0.37409 0.91445 -0.1544
vn -0.62908 0.68943 0.3591
vn -0.01647 0.85097 0.52495
vn -0.16667 0.88355 0.43767
vn 0.26398 0.96437 0.01733
vn 0.48428 0.87413 0.03703
vn -0.04749 0.99823 0.03593
vn -0.19539 0.97692 0.08631
vn -0.13741 0.97114 -0.19494
vn -0.03469 0.97002 -0.24054
vn -0.39434 0.9133 -0.10185
vn -0.14804 0.9834 -0.10489
vn -0.33066 0.89318 -0.30479
vn -0.27281 0.95263 -0.13441
vn -0.09304 0.98223 -0.16298
vn -0.16248 0.98626 0.02999
vn -0.19858 0.95437 -0.22304
vn -0.19503 0.95582 -0.21993
vn -0.19564 0.95557 -0.22047
vn -0.46268 0.84483 -0.26868
vn -0.46219 0.84499 -0.26901
vn -0.46801 0.84302 -0.26511
vn -0.29466 0.95278 -0.07339
vn -0.3197 0.93893 0.12729
vn -0.3228 0.91331 -0.24833
vn -0.3238 0.91315 -0.24761
vn -0.31458 0.91456 -0.25422
vn 0.37718 0.89943 -0.2208
vn 0.28265 0.94761 0.14882
vn 0.53131 0.84693 0.02025
vn 0.4464 0.88538 -0.12974
vn 0.15255 0.9743 -0.16571
vn 0.12794 0.99171 0.01201
vn -0.00092 0.99827 -0.05876
vn -0.00383 0.9884 -0.15183
vn -0.00399 0.98841 -0.15173
vn -0.00256 0.98829 -0.15259
vn -0.15297 0.98437 0.08721
vn -0.17874 0.85134 -0.49322
vn -0.22891 0.92123 -0.31454
vn -0.24379 0.8579 -0.4523
vn -0.2491 0.86028 -0.44481
vn -0.24852 0.86003 -0.44564
vn -0.08496 0.88073 -0.46594
vn -0.08348 0.87976 -0.46803
vn -0.08367 0.87989 -0.46775
vn -0.10914 0.93503 -0.33734
vn 0.08362 0.87727 -0.47266
vn 0.08405 0.87909 -0.46918
vn 0.0836 0.87767 -0.47191
vn 0.08503 0.87839 -0.47033
vn 0.0848 0.87856 -0.47004
vn 0.24772 0.85412 -0.45729
vn 0.2435 0.85767 -0.45288
vn 0.24402 0.85724 -0.45343
vn 0.21614 0.85725 -0.46734
vn -0.38008 0.91872 0.10726
vn 0.17583 0.6028 -0.77828
vn -0.00833 0.60686 -0.79476
vn 0.03457 0.99239 0.11815
vn 0.32454 0.70306 -0.63276
vn 0.03795 0.81996 -0.57116
vn -0.30152 0.92969 0.21157
vn 0.43526 0.85237 0.28984
vn 0.52467 0.84972 0.05189
vn -0.32618 0.94528 -0.00766
vn -0.33337 0.9376 -0.09891
vn 0.49824 0.84802 0.1806
vn 0.01924 0.9998 0.00581
vn 0.01953 0.99974 0.01135
vn 0.01918 0.99981 0.0045
vn -0.20908 0.97788 -0.00679
vn -0.20907 0.97788 -0.00702
vn -0.20907 0.97787 -0.00729
vn -0.20908 0.97788 -0.00654
vn 0.01959 0.99973 0.01243
vn -0.01189 0.98628 -0.16465
vn -0.21745 0.96566 -0.14219
vn -0.18044 0.80784 -0.56111
vn -0.18442 0.80364 -0.56582
vn -0.17955 0.80862 -0.56026
vn -0.0736 0.85611 -0.51152
vn -0.08213 0.99593 0.03713
vn -0.57793 0.53513 -0.61614
vn 0 0.95376 0.30055
vn 0 0.95376 0.30055
vn 0.27524 0.91398 0.29815
vn 0.23274 0.95969 0.15759
vn 0.23225 0.95988 0.15711
vn 0.23688 0.95799 0.16171
vn 0 0.97836 0.20691
vn -0.0121 0.83486 0.55033
vn 0.17914 0.84571 0.50267
vn 0.17892 0.84587 0.50249
vn 0.17914 0.84571 0.50267
vn 0.27702 0.93571 0.21842
vn -0.07696 0.97573 0.20503
vn -0.07659 0.97096 -0.22665
vn 0.30599 0.93451 -0.18185
vn 0.25433 0.92943 -0.26734
vn 0.00152 0.9711 -0.23865
vn -0.00862 0.99705 -0.07625
vn 0.25349 0.96427 -0.07701
vn 0.36987 0.92655 -0.0686
vn 0.06978 0.98868 -0.1328
vn -0.72723 0.6864 0
vn -0.62694 0.73841 0.24839
vn -0.62694 0.73841 0.24839
vn -0.62694 0.73841 0.24839
vn -0.51561 0.80738 0.28683
vn -0.51185 0.80711 0.29426
vn -0.51508 0.80735 0.2879
vn -0.38163 0.92332 -0.04299
vn -0.20075 0.66881 0.71581
vn -0.20075 0.66881 0.71581
vn -0.20075 0.66881 0.71581
vn 0.25111 0.41826 0.87293
vn 0.24414 0.42727 0.87054
vn 0.2448 0.42642 0.87077
vn 0.32783 0.52161 0.78769
vn -0.24094 0.81147 0.5324
vn 0.88834 -0.29492 0.35195
vn 0.86502 -0.16681 0.47319
vn 0.95228 -0.08657 0.29268
vn 0.9544 -0.09233 0.2839
vn 0.95294 -0.08833 0.29001
vn 0.89364 0.15426 0.42144
vn -0.22928 0.48192 0.84568
vn 0.54901 0.20412 0.81051
vn 0.13112 0.73817 0.66175
vn 0.02154 0.58628 0.80982
vn 0.87608 -0.05311 0.47924
vn 0.97451 -0.15979 0.15745
vn 0.99258 -0.09323 0.07808
vn 0.87035 0.06553 0.48805
vn 0.5562 0.19106 0.80879
vn 0.53995 0.30325 0.78517
vn 0.79073 0.20353 0.57734
vn 0.89184 0.42878 0.1441
vn 0.84069 0.46336 0.28023
vn 0.89303 0.34648 0.28713
vn 0.95337 0.25458 -0.1621
vn 0.31361 0.12834 0.94084
vn -0.35601 0.00924 0.93444
vn -0.16801 -0.03691 0.98509
vn 0.20047 0.08761 0.97577
vn -0.99288 0.11157 -0.04165
vn -0.94526 0.18893 -0.26606
vn -0.99337 0.10878 -0.03729
vn -0.87976 -0.02074 0.47496
vn -0.9582 0.27159 -0.0899
vn -0.85822 0.44161 0.26161
vn -0.80324 0.39857 0.44267
vn -0.80467 0.39477 0.44346
vn -0.80319 0.39868 0.44264
vn -0.97247 0.23283 -0.00973
vn -0.28867 0.53802 0.79196
vn -0.27645 0.59023 0.75842
vn -0.10058 0.48644 0.8679
vn -0.1745 0.46949 0.86552
vn -0.69034 0.69221 0.21043
vn -0.64313 0.66763 0.37504
vn -0.62879 0.74115 0.23519
vn -0.61108 0.71632 0.33685
vn -0.15224 0.58176 0.79899
vn 0 0.5785 0.81568
vn 0 0.5785 0.81568
vn 0 0.5785 0.81568
vn 0 0.70103 0.71314
vn 0 0.70103 0.71314
vn 0 0.70103 0.71314
vn -0.34921 0.7783 0.52183
vn 0 0.5785 0.81568
vn 0.21868 0.66869 0.71066
vn 0.21868 0.66869 0.71066
vn 0.21868 0.66869 0.71066
vn 0.24862 0.76774 0.59056
vn 0 0.70103 0.71314
vn 0 0.70103 0.71314
vn 0.65525 0.71741 0.23659
vn 0.65525 0.71741 0.23659
vn 0.65525 0.71741 0.23659
vn 0.75009 0.66133 0
vn 0.75009 0.66133 0
vn 0.75009 0.66133 0
vn 0.61806 0.78103 0.08942
vn 0.48432 0.82994 0.27682
vn 0.75009 0.66133 0
vn 0.75009 0.66133 0
vn 0.75009 0.66133 0
vn 0.75009 0.66133 0
vn 0.95623 0.29258 0.00409
vn 0.95586 0.29383 0.00133
vn 0.95601 0.29329 0.00442
vn 0.31677 0.66282 0.67848
vn 0.97063 0.24056 0
vn 0.97099 0.23816 -0.02158
vn 0.97099 0.23816 -0.02158
vn 0.97099 0.23816 -0.02158
vn 0.81246 0.58197 -0.03497
vn 0.95707 0.2898 -0.00605
vn 0.95702 0.28997 -0.00476
vn 0.75016 0.65981 -0.04372
vn 0.73688 0.6626 -0.13403
vn 0.73688 0.6626 -0.13404
vn 0.73688 0.6626 -0.13403
vn 0.71989 0.68163 -0.13094
vn 0.71989 0.68163 -0.13094
vn 0.71989 0.68163 -0.13094
vn 0.65996 0.48987 -0.56963
vn 0.67183 0.66518 -0.32584
vn 0.67183 0.66518 -0.32584
vn 0.67183 0.66518 -0.32584
vn 0.5975 0.68088 -0.42356
vn 0.48934 0.66557 -0.56353
vn 0.65393 0.68687 -0.31716
vn 0.65393 0.68687 -0.31716
vn 0.65393 0.68687 -0.31716
vn 0.54513 0.7415 -0.39117
vn 0.3601 0.80203 -0.47652
vn 0.19398 0.75513 -0.62622
vn 0.33949 0.69439 -0.63449
vn 0.12858 0.59167 -0.79586
vn -0.00157 0.49467 -0.86908
vn 0.05813 0.87685 -0.47724
vn 0.02953 0.75453 -0.6556
vn -0.00051 0.64155 -0.76708
vn 0 0.32301 -0.9464
vn 0.22095 0.71713 -0.66098
vn 0.2298 0.8632 -0.44952
vn 0 0.30834 -0.95127
vn 0 0.57547 -0.81783
vn -0.07878 0.78255 -0.61758
vn 0.07983 0.79784 -0.59756
vn 0 0.42257 -0.90633
vn -0.07274 0.52007 -0.85102
vn 0.17108 0.79575 -0.58096
vn -0.20689 0.65258 -0.72893
vn -0.16572 0.77711 -0.60715
vn -0.31411 0.76964 -0.55587
vn -0.58583 0.55067 -0.59462
vn -0.23179 0.69197 -0.6837
vn -0.56676 0.68294 -0.46084
vn -0.63534 0.59735 -0.48941
vn -0.35133 0.7232 -0.5946
vn -0.26393 0.76344 -0.5895
vn -0.26752 0.76422 -0.58687
vn -0.26476 0.76362 -0.58889
vn -0.49019 0.58142 -0.64936
vn -0.4955 0.57876 -0.6477
vn -0.49533 0.57884 -0.64776
vn -0.54044 0.63625 -0.55055
vn -0.57155 0.72724 -0.38007
vn -0.46815 0.69773 -0.54222
vn -0.46155 0.69664 -0.54924
vn -0.46711 0.69756 -0.54334
vn -0.65471 0.73164 -0.18987
vn -0.8241 0.56563 -0.03034
vn -0.61021 0.78665 -0.09396
vn -0.61097 0.7871 -0.08473
vn -0.61034 0.78673 -0.09246
vn -0.61389 0.7853 -0.08027
vn -0.81831 0.57468 -0.01068
vn -0.63726 0.77064 0
vn -0.26488 0.93972 0.21626
vn -0.30687 0.95055 0.0477
vn -0.79786 0.60284 0
vn -0.81821 0.57492 0
vn -0.36207 0.92 -0.15
vn -0.58982 0.79666 -0.13207
vn 0 0.75265 0.65843
vn 0 0.75265 0.65843
vn 0 0.75265 0.65843
vn 0.2307 0.77272 0.59133
vn 0.17433 0.72771 0.66336
vn -0.00079 0.66228 0.74925
vn -0.00119 0.66772 0.74441
vn -0.00806 0.66553 0.74633
vn -0.0127 0.81408 0.58062
vn 0.75591 0.65453 0.01366
vn 0.59631 0.78798 0.15334
vn 0.34769 0.80567 0.47959
vn 0.73794 0.67472 -0.01409
vn 0.11854 0.99245 -0.03148
vn -0.02294 0.96645 -0.25582
vn 0.03731 0.9809 -0.19088
vn 0.47876 0.64986 -0.59032
vn 0.6738 0.72868 -0.12256
vn 0.6738 0.72868 -0.12256
vn 0.6738 0.72868 -0.12256
vn 0.5711 0.81378 -0.1077
vn 0.57118 0.81371 -0.10783
vn 0.56847 0.81616 -0.10354
vn 0.58183 0.81011 -0.07207
vn 0.58193 0.81003 -0.0722
vn 0.57956 0.812 -0.06905
vn 0.60578 0.7394 -0.29381
vn 0.60578 0.7394 -0.2938
vn 0.60578 0.7394 -0.29381
vn 0.41213 0.77325 -0.4819
vn 0.24471 0.85044 -0.46569
vn 0.49992 0.83305 -0.23688
vn 0.49994 0.83312 -0.23658
vn 0.49989 0.8329 -0.23744
vn 0.00066 0.69974 -0.7144
vn -0.03909 0.68995 -0.7228
vn -0.0392 0.68984 -0.7229
vn -0.03723 0.69189 -0.72105
vn 0.03628 0.82974 -0.55697
vn -0.01512 0.82104 -0.57067
vn -0.01501 0.82114 -0.57053
vn -0.01595 0.82029 -0.57172
vn 0.20356 0.66464 -0.7189
vn 0.26962 0.64678 -0.71343
vn 0.31312 0.72046 -0.61878
vn 0.38455 0.76664 -0.51418
vn 0.04459 0.74707 -0.66325
vn -0.12119 0.82701 -0.54897
vn -0.41618 0.7539 -0.50836
vn -0.25335 0.73537 -0.62853
vn -0.21331 0.82108 -0.52946
vn -0.20448 0.7782 -0.59379
vn -0.09441 0.84281 -0.52987
vn -0.16208 0.86025 -0.48342
vn -0.09321 0.72381 -0.68367
vn -0.18443 0.80357 -0.56591
vn -0.26248 0.87759 -0.40117
vn -0.04711 0.81822 -0.57298
vn -0.04125 0.81968 -0.57134
vn -0.04169 0.81957 -0.57146
vn -0.44341 0.88785 -0.12292
vn -0.44764 0.84847 -0.28235
vn -0.43897 0.89833 0.01774
vn -0.37614 0.91902 -0.11796
vn -0.41747 0.80901 0.41379
vn -0.48106 0.86319 -0.15326
vn -0.48557 0.86201 -0.14544
vn -0.48512 0.86213 -0.14623
vn -0.4694 0.88236 -0.03309
vn -0.00415 0.99999 -0.00014
vn -0.43119 0.89477 0.11605
vn -0.42193 0.88359 0.20309
vn -0.45408 0.87742 0.15475
vn -0.45343 0.87737 0.15692
vn -0.45358 0.87763 0.15502
vn -0.3761 0.92654 -0.00884
vn 0.01902 0.51761 0.85541
vn 0.16849 0.49859 0.85031
vn 0.37517 0.54678 0.74851
vn -0.30304 0.85904 0.41256
vn 0.80049 0.39715 0.44888
vn 0.96257 0.26923 0.03122
vn 0.96258 0.2692 0.03111
vn 0.9626 0.26915 0.03092
vn 0.82172 0.56118 0.09928
vn 0.81176 0.53022 0.24477
vn 0.98059 0.01107 -0.19576
vn 0.93828 -0.19421 0.28622
vn 0.76 0.1061 0.64121
vn 0.82241 0.48453 0.29811
vn 0.20798 -0.06771 0.97579
vn -0.16957 0.01199 0.98544
vn -0.28935 0.42926 0.85558
vn -0.03648 0.48226 0.87527
vn -0.86815 0.13612 0.47728
vn -0.98578 0.16466 -0.03352
vn -0.91862 0.34589 0.19105
vn -0.76394 0.40641 0.50122
vn -0.98022 0.19764 -0.01058
vn -0.80479 0.39446 0.44352
vn -0.59803 0.61487 0.5141
vn -0.88283 0.44929 0.13693
vn -0.88286 0.44928 0.13679
vn -0.88392 0.4485 0.13242
vn -0.16808 0.52609 0.83365
vn -0.09496 0.62388 0.77573
vn -0.00614 0.71087 0.70329
vn -0.00695 0.7115 0.70265
vn -0.00057 0.70653 0.70768
vn -0.1948 0.74388 0.63929
vn -0.18028 0.68865 0.70232
vn 0 0.75265 0.65843
vn 0 0.75265 0.65843
vn -0.03933 0.67147 0.73999
vn -0.03344 0.69461 0.71861
vn -0.30196 0.95327 -0.01003
vn -0.21929 0.9402 0.26064
vn 0.44128 0.83283 0.33417
vn 0.44965 0.8902 -0.07325
vn -0.29154 0.92721 0.23513
vn -0.35978 0.89306 0.27018
vn 0 0.95376 0.30055
vn 0 0.97836 0.20691
vn -0.4039 0.90887 -0.10403
vn -0.36186 0.92731 -0.09567
vn 0.01838 0.99328 -0.1143
vn -0.289 0.95112 -0.10889
vn -0.20863 0.96233 0.17433
vn -0.18226 0.92722 0.32718
vn -0.0094 0.96223 0.27209
vn -0.04548 0.99057 0.12921
vn -0.19111 0.96677 0.16982
vn -0.1831 0.96869 0.16766
vn -0.19334 0.96622 0.17042
vn -0.14888 0.86543 0.4784
vn -0.05239 0.89449 0.444
vn -0.18069 0.96926 0.167
vn -0.14087 0.9894 0.0353
vn -0.15995 0.98641 -0.03758
vn -0.46765 0.88328 -0.03349
vn -0.37475 0.92645 0.03529
vn 0.27933 0.92192 0.26841
vn -0.0233 0.94371 0.32994
vn -0.00062 0.94466 0.32805
vn 0.25106 0.92938 0.27058
vn 0.1241 0.98324 -0.13357
vn -0.04666 0.9927 -0.11122
vn -0.21937 0.97133 -0.09156
vn -0.13864 0.97982 -0.14397
vn -0.42281 0.90445 -0.05663
vn -0.36126 0.92833 0.08776
vn -0.67839 0.73058 0.07775
vn -0.31106 0.94644 -0.08659
vn -0.03847 0.97565 -0.21593
vn -0.15832 0.94764 -0.27734
vn -0.19911 0.95415 -0.22351
vn -0.46855 0.84283 -0.26476
vn -0.50703 0.86052 0.04922
vn -0.33207 0.93309 0.1381
vn -0.31402 0.91464 -0.25461
vn 0.35899 0.90962 -0.20909
vn 0.38374 0.92094 0.06796
vn 0.4834 0.87303 0.06442
vn 0.51809 0.83388 -0.19033
vn 0.11229 0.9849 -0.13179
vn 0.16723 0.98575 -0.01843
vn -0.03484 0.99871 -0.03694
vn -0.0024 0.98827 -0.15269
vn 0.19693 0.84643 -0.49475
vn -0.24367 0.88911 -0.38745
vn -0.18108 0.89737 -0.40241
vn -0.24349 0.85776 -0.45273
vn -0.08518 0.88087 -0.46563
vn -0.08054 0.92065 -0.38199
vn 0.013 0.92028 -0.39104
vn 0.24799 0.85389 -0.45758
vn 0.2468 0.83443 -0.49276
vn 0.1792 0.84679 -0.50083
vn -0.26648 0.83214 -0.48635
vn 0.0314 0.57616 -0.81673
vn 0.04943 0.99478 0.08927
vn 0.13352 0.9878 0.08012
vn 0.18943 0.56221 -0.80501
vn -0.31653 0.92807 0.19622
vn 0.45913 0.8341 0.30574
vn 0.54295 0.8372 0.0656
vn -0.36242 0.93132 -0.03584
vn -0.25735 0.96615 -0.01814
vn 0.45267 0.8815 0.1343
vn 0.38768 0.79737 0.4625
vn -0.2582 0.96419 -0.06058
vn -0.19213 0.98134 0.00777
vn 0 1 0
vn -0.02709 0.98464 -0.17248
vn -0.18262 0.97591 -0.11941
vn -0.17917 0.809 -0.55983
vn -0.14553 0.80866 -0.56999
vn -0.03912 0.99602 0.08008
vn -0.22411 0.97429 0.02312
vn 0.22511 0.94333 0.24385
vn 0.24157 0.95601 0.16638
vn 0 0.97836 0.20691
vn -0.04775 0.84712 0.52926
vn 0.18231 0.84348 0.50528
vn 0.25074 0.95023 0.18491
vn -0.05481 0.97236 0.22697
vn -0.05034 0.97877 -0.19866
vn 0.27483 0.93632 -0.21856
vn 0.27365 0.92922 -0.24834
vn -0.04923 0.95706 -0.28568
vn 0.01512 0.99828 -0.05671
vn 0.28444 0.95735 -0.05074
vn 0.30395 0.94088 -0.14956
vn 0.04325 0.98581 -0.16222
vn -0.75892 0.61169 0.22334
vn -0.62694 0.73841 0.24839
vn -0.51552 0.83218 0.20424
vn -0.51163 0.80709 0.29469
vn -0.20075 0.66881 0.71581
vn 0.2521 0.41698 0.87326
vn 0.21128 0.64785 0.73188
vn -0.17678 0.75591 0.63035
vn 0.87361 -0.41308 0.25725
vn 0.87446 -0.2491 0.41625
vn 0.89401 0.14018 0.42555
vn 0.95502 -0.09408 0.28122
vn -0.25882 0.52684 0.8096
vn 0.5634 0.17676 0.80706
vn 0.55107 0.27051 0.7894
vn -0.18945 0.78289 0.59261
vn 0.86567 -0.02199 0.50012
vn 0.97173 -0.20549 0.11626
vn 0.99302 -0.06132 0.10073
vn 0.86297 0.08196 0.49856
vn 0.70379 0.04333 0.70909
vn 0.84974 0.12258 0.51276
vn 0.80573 0.19997 0.55751
vn 0.96637 0.24103 -0.08967
vn 0.87334 0.43002 0.22885
vn 0.91868 0.31317 0.24073
vn 0.94366 0.32169 -0.07763
vn 0.24496 0.16147 0.95599
vn -0.22901 -0.07357 0.97064
vn -0.22958 0.02185 0.97305
vn 0.24792 0.04826 0.96758
vn -0.96298 -0.08765 0.25491
vn -0.98342 0.09575 -0.15398
vn -0.9686 0.19701 -0.15166
vn -0.95728 0.13929 0.2534
vn -0.96773 0.24679 -0.05092
vn -0.96492 0.25758 -0.05077
vn -0.96788 0.24618 -0.05093
vn -0.84278 0.39561 0.36498
vn -0.82454 0.4389 0.35708
vn -0.9647 0.2584 -0.05076
vn -0.22026 0.46314 0.85848
vn -0.21325 0.51354 0.83114
vn -0.19495 0.62021 0.75983
vn -0.21284 0.51629 0.82954
vn -0.68338 0.66738 0.29595
vn -0.662 0.7011 0.26498
vn -0.62858 0.73592 0.2516
vn -0.61311 0.74404 0.26552
vn -0.20618 0.63705 0.74274
vn 0 0.5785 0.81568
vn -0.19164 0.69763 0.69035
vn 0.21868 0.66869 0.71066
vn 0.18233 0.78465 0.59252
vn 0 0.70103 0.71314
vn 0.65525 0.71741 0.2366
vn 0.75009 0.66133 0
vn 0.69 0.72381 0
vn 0.57105 0.79459 0.20619
vn 0.95594 0.29356 0
vn 0.62805 0.6529 0.42342
vn 0.97099 0.23816 -0.02158
vn 0.80758 0.58949 -0.01795
vn 0.70008 0.53584 0.47198
vn 0.83626 0.21121 -0.50603
vn 0.73688 0.6626 -0.13403
vn 0.71989 0.68163 -0.13094
vn 0.6431 0.65954 -0.38914
vn 0.67183 0.66518 -0.32584
vn 0.59167 0.6589 -0.46451
vn 0.5182 0.74594 -0.41838
vn 0.65393 0.68687 -0.31716
vn 0.51896 0.67473 -0.5248
vn 0.30348 0.71582 -0.62889
vn 0.21073 0.81616 -0.53802
vn 0.35584 0.82374 -0.4414
vn 0.23004 0.78436 -0.57607
vn 0.02334 0.53885 -0.84208
vn 0.03911 0.86712 -0.49655
vn 0.16418 0.87962 -0.44645
vn -0.20809 0.40367 -0.89093
vn 0.35088 0.65086 -0.67326
vn 0.32631 0.76409 -0.5565
vn -0.11006 0.69287 -0.71261
vn 0.01734 0.32428 -0.9458
vn -0.34193 0.30147 -0.89006
vn -0.2926 0.6461 -0.70494
vn 0.04185 0.78254 -0.62119
vn 0.1697 0.54824 -0.81892
vn -0.15083 0.45998 -0.87502
vn -0.17429 0.69221 -0.70033
vn 0.048 0.8198 -0.57064
vn -0.43651 0.62521 -0.64698
vn -0.24949 0.793 -0.55579
vn -0.26817 0.76436 -0.58638
vn -0.45648 0.56815 -0.68471
vn -0.34836 0.77456 -0.52792
vn -0.47414 0.68064 -0.55849
vn -0.46034 0.69644 -0.55051
vn -0.38593 0.73794 -0.55362
vn -0.48971 0.58166 -0.64951
vn -0.59821 0.60856 -0.52134
vn -0.47733 0.78092 -0.40288
vn -0.40063 0.73097 -0.55243
vn -0.71879 0.68446 -0.12192
vn -0.60626 0.70708 -0.36397
vn -0.28304 0.85946 -0.4257
vn -0.6111 0.78717 -0.0832
vn -0.82455 0.56575 0.00752
vn -0.75683 0.56119 0.33508
vn -0.4532 0.76536 0.45698
vn -0.2883 0.95716 0.02716
vn -0.64799 0.68164 -0.33983
vn -0.80443 0.59109 -0.05915
vn -0.39655 0.91345 -0.0914
vn -0.40283 0.81912 -0.40837
vn 0.13332 0.79737 0.58858
vn 0.16045 0.73058 0.66371
vn 0 0.66209 0.74943
vn 0.4746 0.81588 0.33029
vn -0.05385 0.73771 0.67296
vn -0.08262 0.74349 0.66362
vn 0.52545 0.77927 0.34152
vn 0.76328 0.64302 -0.06263
vn 0.56483 0.4449 -0.695
vn 0.38724 0.57154 -0.72345
vn -0.03252 0.99476 -0.09689
vn 0.11794 0.99195 -0.04605
vn 0.6738 0.72868 -0.12256
vn 0.56836 0.81626 -0.10338
vn 0.57709 0.81403 -0.06579
vn 0.60578 0.7394 -0.29381
vn 0.37085 0.71001 -0.59862
vn 0.26334 0.866 -0.42508
vn 0.49965 0.83164 -0.24233
vn -0.0217 0.67459 -0.73787
vn -0.03701 0.69212 -0.72084
vn -0.0184 0.79057 -0.6121
vn -0.01684 0.81949 -0.57284
vn 0.25359 0.69536 -0.67243
vn 0.28334 0.65233 -0.70299
vn 0.28166 0.71476 -0.64015
vn 0.25782 0.73217 -0.63045
vn -0.08103 0.68598 -0.7231
vn -0.26535 0.75148 -0.60405
vn -0.28176 0.84471 -0.45505
vn -0.11619 0.80974 -0.57516
vn -0.19721 0.82813 -0.52469
vn -0.12051 0.81292 -0.56977
vn -0.11312 0.83735 -0.53483
vn -0.19223 0.8484 -0.49321
vn -0.05524 0.74086 -0.66938
vn -0.26439 0.78006 -0.5671
vn -0.18967 0.8936 -0.40683
vn -0.04729 0.81817 -0.57303
vn -0.4829 0.87095 -0.09082
vn -0.40081 0.85586 -0.32689
vn 0.01586 0.92429 -0.38136
vn -0.42248 0.90288 -0.07946
vn -0.43773 0.78514 0.43812
vn -0.48046 0.86334 -0.15429
vn -0.394 0.90476 -0.16175
vn -0.39607 0.80245 0.44633
vn -0.45315 0.87747 0.15718
vn -0.44934 0.87936 0.15752
vn -0.41725 0.89284 0.16952
vn -0.45858 0.8689 0.18631
vn -0.15834 0.79983 0.57896
vn 0.23934 0.42048 0.87516
vn 0.18254 0.72193 0.66746
vn -0.17482 0.74887 0.63924
vn 0.8943 0.26119 0.36333
vn 0.97049 0.2409 0.01035
vn 0.90183 0.43199 0.00962
vn 0.73548 0.6081 0.29881
vn 0.96261 0.26912 0.0308
vn 0.80911 0.09788 0.57945
vn 0.82112 -0.05606 0.568
vn 0.99867 0.04042 0.03196
vn 0.18897 -0.04265 0.98106
vn -0.15108 -0.00975 0.98847
vn -0.18241 0.2868 0.94046
vn 0.12399 0.26732 0.9556
vn -0.8284 0.06775 0.55602
vn -0.99371 0.10771 0.03078
vn -0.88498 0.4477 0.12794
vn -0.75525 0.31914 0.5725
vn -0.98391 0.17784 0.01726
vn -0.79435 0.37824 0.47532
vn -0.60351 0.71089 0.36113
vn -0.84669 0.52959 0.05139
vn -0.15677 0.51245 0.84429
vn 0 0.52456 0.85138
vn 0 0.70609 0.70812
vn -0.13305 0.68476 0.71652
vn 0 0.64505 0.76414
vn 0 0.66818 0.744
vn 0 0.68685 0.7268
usemtl mat0
f 1//1 2//1 3//1
f 2//2 4//2 5//2
f 6//3 7//3 3//3
f 7//4 8//4 9//4
f 10//5 11//5 12//5
f 11//6 13//6 14//6
f 15//7 16//8 12//9
f 16//10 17//11 18//12
f 19//13 20//13 21//13
f 20//14 1//14 9//14
f 8//15 22//15 21//15
f 22//16 23//16 24//16
f 25//17 26//18 27//19
f 26//20 28//20 29//20
f 30//21 31//22 27//23
f 31//24 32//24 33//24
f 32//25 31//25 34//25
f 31//22 30//21 35//26
f 36//27 37//27 34//27
f 37//28 38//28 39//28
f 40//29 41//29 42//29
f 41//30 19//30 24//30
f 23//31 43//31 42//31
f 43//32 44//32 45//32
f 46//33 47//33 48//33
f 47//34 25//34 33//34
f 32//35 49//35 48//35
f 49//36 50//36 51//36
f 50//37 49//37 52//37
f 49//38 32//38 39//38
f 38//39 53//39 52//39
f 53//40 54//40 55//40
f 56//41 57//41 58//41
f 57//42 40//42 45//42
f 44//43 59//43 58//43
f 59//44 60//44 61//44
f 62//45 63//45 64//45
f 63//46 65//46 66//46
f 67//47 68//48 64//49
f 67//50 66//51 69//52
f 66//53 65//53 70//53
f 46//54 71//54 69//54
f 71//55 72//56 73//57
f 72//58 71//58 74//58
f 71//59 46//59 51//59
f 50//60 75//60 74//60
f 75//61 76//61 77//61
f 76//62 75//62 78//62
f 75//63 50//63 55//63
f 54//64 79//64 78//64
f 79//65 80//66 81//67
f 82//68 83//68 84//68
f 83//69 85//69 86//69
f 87//70 88//70 84//70
f 88//71 89//72 90//73
f 89//74 88//75 91//76
f 88//77 87//77 92//77
f 93//78 94//79 91//80
f 94//79 95//81 96//82
f 95//83 94//84 97//85
f 94//86 93//86 98//86
f 99//87 100//87 97//87
f 100//88 101//88 102//88
f 101//89 100//89 103//89
f 100//90 99//90 104//90
f 105//91 106//91 103//91
f 106//92 107//92 108//92
f 109//93 110//93 111//93
f 110//94 112//94 113//94
f 114//95 115//95 111//95
f 115//96 116//96 117//96
f 116//97 115//97 118//97
f 115//98 114//98 119//98
f 65//99 120//100 118//101
f 120//102 121//103 122//104
f 121//103 120//102 123//105
f 120//100 65//99 63//106
f 62//107 124//107 123//107
f 124//108 125//108 126//108
f 60//109 127//110 128//111
f 127//112 85//112 83//112
f 82//113 129//113 128//113
f 129//114 130//114 131//114
f 15//7 132//115 133//116
f 132//117 134//117 135//117
f 136//118 137//119 133//120
f 137//121 17//11 16//10
f 36//122 138//122 139//122
f 138//123 140//124 141//125
f 142//126 143//126 139//126
f 143//127 38//127 37//127
f 38//128 143//128 144//128
f 143//129 142//129 145//129
f 146//130 147//130 144//130
f 147//131 54//131 53//131
f 54//132 147//132 148//132
f 147//133 146//133 149//133
f 150//134 151//134 148//134
f 151//135 80//135 79//135
f 152//136 153//136 154//136
f 153//137 155//138 156//139
f 4//140 2//141 154//142
f 2//143 1//143 157//143
f 155//144 158//145 159//146
f 158//147 160//148 161//149
f 6//150 5//150 159//150
f 5//151 4//151 156//151
f 160//152 162//152 163//152
f 162//153 164//153 165//153
f 8//154 7//155 163//156
f 7//157 6//157 161//157
f 164//158 166//158 167//158
f 166//159 168//159 169//159
f 170//160 171//160 167//160
f 171//161 8//161 165//161
f 168//162 172//162 173//162
f 172//163 174//163 175//163
f 176//164 177//164 173//164
f 177//165 170//165 169//165
f 174//166 178//166 179//166
f 178//167 180//167 181//167
f 176//168 175//168 179//168
f 180//169 182//169 183//169
f 182//170 184//170 185//170
f 186//171 187//171 183//171
f 187//172 176//172 181//172
f 184//173 188//173 189//173
f 188//174 190//174 191//174
f 192//175 193//175 189//175
f 193//176 186//176 185//176
f 190//177 194//177 195//177
f 194//178 196//178 197//178
f 198//179 199//179 195//179
f 199//180 192//180 191//180
f 196//181 200//181 201//181
f 200//182 202//182 203//182
f 204//183 205//184 201//185
f 205//186 198//186 197//186
f 202//187 206//187 207//187
f 206//188 208//188 209//188
f 10//189 210//189 207//189
f 210//190 204//190 203//190
f 208//191 211//191 212//191
f 211//192 213//192 214//192
f 13//193 11//193 212//193
f 11//194 10//194 209//194
f 213//195 215//195 216//195
f 215//196 217//197 218//198
f 15//199 14//200 216//201
f 14//202 13//202 214//202
f 217//197 219//203 220//197
f 219//204 221//205 222//206
f 134//207 132//207 220//207
f 132//208 15//199 218//209
f 221//210 223//211 224//212
f 223//213 225//214 226//215
f 136//216 135//216 224//216
f 135//217 134//217 222//217
f 225//214 227//218 228//219
f 227//218 229//220 230//221
f 231//222 232//223 228//224
f 232//225 136//225 226//225
f 229//226 233//226 234//226
f 233//227 235//228 236//229
f 237//230 238//230 234//230
f 238//231 231//222 230//232
f 235//233 239//233 240//233
f 239//234 241//235 242//236
f 243//237 244//238 240//239
f 244//240 237//240 236//240
f 241//241 245//242 246//243
f 245//244 247//244 248//244
f 105//245 249//245 246//245
f 249//246 243//247 242//248
f 247//249 250//249 251//249
f 250//250 252//250 253//250
f 107//251 106//251 251//251
f 106//252 105//252 248//252
f 252//253 254//253 255//253
f 254//254 256//254 257//254
f 101//255 108//255 255//255
f 108//256 107//256 253//256
f 256//257 258//257 259//257
f 258//258 260//258 261//258
f 95//259 102//259 259//259
f 102//260 101//260 257//260
f 260//261 262//261 263//261
f 262//262 264//262 265//262
f 89//263 96//263 263//263
f 96//264 95//264 261//264
f 264//265 266//265 267//265
f 266//266 268//266 269//266
f 82//267 90//267 267//267
f 90//268 89//268 265//268
f 268//269 270//269 271//269
f 270//270 272//270 273//270
f 130//271 129//271 271//271
f 129//272 82//272 269//272
f 272//273 274//273 275//273
f 274//274 276//274 277//274
f 60//275 131//275 275//275
f 131//276 130//277 273//278
f 276//279 278//280 279//281
f 278//282 280//282 281//282
f 56//283 61//283 279//283
f 61//284 60//285 277//286
f 280//287 282//287 283//287
f 282//288 284//288 285//288
f 40//289 57//290 283//291
f 57//292 56//292 281//292
f 284//293 286//293 287//293
f 286//294 288//294 289//294
f 19//295 41//295 287//295
f 41//296 40//296 285//296
f 288//297 290//297 291//297
f 290//298 152//298 157//298
f 1//299 20//299 291//299
f 20//300 19//300 289//300
f 17//301 137//302 292//303
f 137//304 136//304 293//304
f 140//305 138//305 292//305
f 138//306 36//307 294//308
f 136//309 232//309 295//309
f 232//310 231//310 296//310
f 142//311 141//311 295//311
f 141//312 140//312 293//312
f 231//313 238//313 297//313
f 238//314 237//314 298//314
f 146//315 145//315 297//315
f 145//316 142//316 296//316
f 237//317 244//317 299//317
f 244//318 243//319 300//320
f 150//321 149//322 299//323
f 149//324 146//325 298//326
f 243//327 249//328 301//329
f 249//330 105//330 302//330
f 80//331 151//331 301//331
f 151//332 150//333 300//334
f 105//335 104//335 303//335
f 104//336 99//337 304//338
f 76//339 81//339 303//339
f 81//340 80//341 302//342
f 99//343 98//343 305//343
f 98//344 93//344 306//344
f 72//345 77//345 305//345
f 77//346 76//346 304//346
f 93//347 92//347 307//347
f 92//348 87//348 308//348
f 67//349 73//349 307//349
f 73//350 72//350 306//350
f 87//351 86//351 309//351
f 86//352 85//352 310//352
f 62//353 68//353 309//353
f 68//354 67//354 308//354
f 85//355 127//355 311//355
f 127//110 60//109 312//356
f 125//357 124//357 311//357
f 124//358 62//359 310//360
f 60//361 59//361 313//361
f 59//362 44//362 314//362
f 121//363 126//363 313//363
f 126//364 125//364 312//364
f 44//365 43//365 315//365
f 43//366 23//367 316//368
f 116//369 122//369 315//369
f 122//370 121//370 314//370
f 23//371 22//371 317//371
f 22//372 8//372 318//372
f 109//373 117//374 317//375
f 117//376 116//376 316//376
f 8//377 171//377 319//377
f 171//378 170//378 320//378
f 112//379 110//379 319//379
f 110//380 109//380 318//380
f 170//381 177//381 321//381
f 177//382 176//383 322//384
f 114//385 113//385 321//385
f 113//386 112//386 320//386
f 176//387 187//387 323//387
f 187//388 186//388 324//388
f 65//389 119//389 323//389
f 119//390 114//390 322//390
f 186//391 193//391 325//391
f 193//392 192//392 326//392
f 46//393 70//393 325//393
f 70//394 65//394 324//394
f 192//395 199//395 327//395
f 199//396 198//396 328//396
f 25//397 47//397 327//397
f 47//398 46//398 326//398
f 198//399 205//399 329//399
f 205//184 204//183 330//400
f 28//401 26//401 329//401
f 26//402 25//403 328//404
f 204//405 210//405 331//405
f 210//406 10//406 332//406
f 30//407 29//408 331//409
f 29//410 28//410 330//410
f 10//411 18//411 333//411
f 18//412 17//301 294//413
f 36//414 35//414 333//414
f 35//415 30//415 332//415
f 3//416 9//416 1//416
f 5//417 3//417 2//417
f 3//418 5//418 6//418
f 9//419 3//419 7//419
f 12//420 18//420 10//420
f 14//421 12//421 11//421
f 12//9 14//422 15//7
f 18//12 12//423 16//10
f 21//424 24//424 19//424
f 9//425 21//425 20//425
f 21//426 9//426 8//426
f 24//427 21//427 22//427
f 27//19 33//428 25//17
f 29//429 27//429 26//429
f 27//430 29//430 30//430
f 33//431 27//431 31//431
f 34//432 39//433 32//434
f 35//435 34//435 31//435
f 34//436 35//436 36//436
f 39//433 34//432 37//437
f 42//438 45//438 40//438
f 24//439 42//439 41//439
f 42//440 24//440 23//440
f 45//441 42//441 43//441
f 48//442 51//442 46//442
f 33//443 48//443 47//443
f 48//444 33//444 32//444
f 51//445 48//445 49//445
f 52//446 55//446 50//446
f 39//447 52//447 49//447
f 52//448 39//448 38//448
f 55//449 52//449 53//449
f 58//450 61//450 56//450
f 45//451 58//451 57//451
f 58//452 45//452 44//452
f 61//453 58//453 59//453
f 64//454 68//454 62//454
f 66//455 64//455 63//455
f 64//49 66//456 67//47
f 69//52 73//457 67//50
f 70//458 69//458 66//458
f 69//459 70//459 46//459
f 73//57 69//460 71//55
f 74//461 77//461 72//461
f 51//462 74//462 71//462
f 74//463 51//463 50//463
f 77//464 74//464 75//464
f 78//465 81//465 76//465
f 55//466 78//466 75//466
f 78//467 55//467 54//467
f 81//67 78//468 79//65
f 84//469 90//469 82//469
f 86//470 84//470 83//470
f 84//471 86//471 87//471
f 90//73 84//472 88//71
f 91//76 96//473 89//74
f 92//474 91//474 88//474
f 91//475 92//475 93//475
f 96//82 91//80 94//79
f 97//85 102//476 95//83
f 98//477 97//477 94//477
f 97//478 98//478 99//478
f 102//479 97//479 100//479
f 103//480 108//480 101//480
f 104//481 103//481 100//481
f 103//482 104//482 105//482
f 108//483 103//483 106//483
f 111//484 117//484 109//484
f 113//485 111//485 110//485
f 111//486 113//486 114//486
f 117//487 111//487 115//487
f 118//488 122//488 116//488
f 119//489 118//489 115//489
f 118//490 119//490 65//490
f 122//491 118//491 120//491
f 123//492 126//492 121//492
f 63//493 123//493 120//493
f 123//494 63//494 62//494
f 126//495 123//495 124//495
f 128//111 131//496 60//109
f 83//497 128//497 127//497
f 128//498 83//498 82//498
f 131//499 128//499 129//499
f 133//116 16//8 15//7
f 135//500 133//500 132//500
f 133//120 135//501 136//118
f 16//10 133//502 137//121
f 139//503 37//503 36//503
f 141//125 139//504 138//123
f 139//505 141//505 142//505
f 37//506 139//506 143//506
f 144//507 53//507 38//507
f 145//508 144//508 143//508
f 144//509 145//509 146//509
f 53//510 144//510 147//510
f 148//511 79//511 54//511
f 149//512 148//512 147//512
f 148//513 149//513 150//513
f 79//514 148//514 151//514
f 154//515 157//515 152//515
f 156//139 154//516 153//137
f 154//517 156//517 4//517
f 157//518 154//142 2//141
f 159//146 156//519 155//144
f 161//149 159//520 158//147
f 159//521 161//521 6//521
f 156//522 159//522 5//522
f 163//523 161//523 160//523
f 165//524 163//524 162//524
f 163//525 165//525 8//525
f 161//526 163//156 7//155
f 167//527 165//527 164//527
f 169//528 167//528 166//528
f 167//529 169//529 170//529
f 165//530 167//530 171//530
f 173//531 169//531 168//531
f 175//532 173//532 172//532
f 173//533 175//533 176//533
f 169//534 173//534 177//534
f 179//535 175//535 174//535
f 181//536 179//536 178//536
f 179//537 181//537 176//537
f 183//538 181//538 180//538
f 185//539 183//539 182//539
f 183//540 185//540 186//540
f 181//541 183//541 187//541
f 189//542 185//542 184//542
f 191//543 189//543 188//543
f 189//544 191//544 192//544
f 185//545 189//545 193//545
f 195//546 191//546 190//546
f 197//547 195//547 194//547
f 195//548 197//548 198//548
f 191//549 195//549 199//549
f 201//550 197//551 196//552
f 203//553 201//553 200//553
f 201//554 203//554 204//554
f 197//551 201//550 205//555
f 207//556 203//556 202//556
f 209//557 207//557 206//557
f 207//558 209//558 10//558
f 203//559 207//559 210//559
f 212//560 209//560 208//560
f 214//561 212//561 211//561
f 212//562 214//562 13//562
f 209//563 212//563 11//563
f 216//564 214//564 213//564
f 218//198 216//565 215//196
f 216//201 218//209 15//199
f 214//566 216//566 14//566
f 220//197 218//198 217//197
f 222//206 220//567 219//204
f 220//568 222//568 134//568
f 218//209 220//569 132//208
f 224//212 222//570 221//210
f 226//215 224//571 223//213
f 224//572 226//572 136//572
f 222//573 224//573 135//573
f 228//219 226//215 225//214
f 230//221 228//219 227//218
f 228//224 230//232 231//222
f 226//574 228//224 232//223
f 234//575 230//575 229//575
f 236//229 234//576 233//227
f 234//577 236//577 237//577
f 230//578 234//578 238//578
f 240//579 236//579 235//579
f 242//236 240//580 239//234
f 240//239 242//581 243//237
f 236//582 240//582 244//582
f 246//243 242//583 241//241
f 248//584 246//584 245//584
f 246//585 248//585 105//585
f 242//248 246//586 249//246
f 251//587 248//587 247//587
f 253//588 251//588 250//588
f 251//589 253//589 107//589
f 248//590 251//590 106//590
f 255//591 253//591 252//591
f 257//592 255//592 254//592
f 255//593 257//593 101//593
f 253//594 255//594 108//594
f 259//595 257//595 256//595
f 261//596 259//596 258//596
f 259//597 261//597 95//597
f 257//598 259//598 102//598
f 263//599 261//599 260//599
f 265//600 263//600 262//600
f 263//601 265//601 89//601
f 261//602 263//602 96//602
f 267//603 265//603 264//603
f 269//604 267//604 266//604
f 267//605 269//605 82//605
f 265//606 267//606 90//606
f 271//607 269//607 268//607
f 273//608 271//608 270//608
f 271//609 273//278 130//277
f 269//610 271//610 129//610
f 275//611 273//611 272//611
f 277//612 275//612 274//612
f 275//613 277//286 60//285
f 273//614 275//614 131//614
f 279//281 277//615 276//279
f 281//616 279//616 278//616
f 279//617 281//617 56//617
f 277//618 279//618 61//618
f 283//619 281//619 280//619
f 285//620 283//620 282//620
f 283//621 285//621 40//621
f 281//622 283//291 57//290
f 287//623 285//623 284//623
f 289//624 287//624 286//624
f 287//625 289//625 19//625
f 285//626 287//626 41//626
f 291//627 289//627 288//627
f 157//628 291//628 290//628
f 291//629 157//629 1//629
f 289//630 291//630 20//630
f 292//303 294//413 17//301
f 293//631 292//631 137//631
f 292//632 293//632 140//632
f 294//308 292//633 138//306
f 295//634 293//634 136//634
f 296//635 295//635 232//635
f 295//636 296//636 142//636
f 293//637 295//637 141//637
f 297//638 296//638 231//638
f 298//639 297//639 238//639
f 297//640 298//640 146//640
f 296//641 297//641 145//641
f 299//642 298//642 237//642
f 300//320 299//643 244//318
f 299//323 300//644 150//321
f 298//326 299//645 149//324
f 301//329 300//646 243//327
f 302//647 301//647 249//647
f 301//648 302//648 80//648
f 300//334 301//649 151//332
f 303//650 302//650 105//650
f 304//338 303//651 104//336
f 303//652 304//652 76//652
f 302//342 303//653 81//340
f 305//654 304//654 99//654
f 306//655 305//655 98//655
f 305//656 306//656 72//656
f 304//657 305//657 77//657
f 307//658 306//658 93//658
f 308//659 307//659 92//659
f 307//660 308//660 67//660
f 306//661 307//661 73//661
f 309//662 308//662 87//662
f 310//663 309//663 86//663
f 309//664 310//664 62//664
f 308//665 309//665 68//665
f 311//666 310//666 85//666
f 312//667 311//667 127//667
f 311//668 312//668 125//668
f 310//360 311//669 124//358
f 313//670 312//670 60//670
f 314//671 313//671 59//671
f 313//672 314//672 121//672
f 312//673 313//673 126//673
f 315//674 314//674 44//674
f 316//368 315//675 43//366
f 315//676 316//676 116//676
f 314//677 315//677 122//677
f 317//375 316//678 23//679
f 318//680 317//680 22//680
f 317//681 318//681 109//681
f 316//678 317//375 117//374
f 319//682 318//682 8//682
f 320//683 319//683 171//683
f 319//684 320//684 112//684
f 318//685 319//685 110//685
f 321//686 320//686 170//686
f 322//687 321//687 177//687
f 321//688 322//688 114//688
f 320//689 321//689 113//689
f 323//690 322//384 176//383
f 324//691 323//691 187//691
f 323//692 324//692 65//692
f 322//693 323//693 119//693
f 325//694 324//694 186//694
f 326//695 325//695 193//695
f 325//696 326//696 46//696
f 324//697 325//697 70//697
f 327//698 326//698 192//698
f 328//699 327//699 199//699
f 327//700 328//404 25//403
f 326//701 327//701 47//701
f 329//702 328//702 198//702
f 330//703 329//703 205//703
f 329//704 330//704 28//704
f 328//705 329//705 26//705
f 331//706 330//706 204//706
f 332//707 331//707 210//707
f 331//409 332//708 30//407
f 330//709 331//709 29//709
f 333//710 332//710 10//710
f 294//413 333//301 18//412
f 333//711 294//308 36//307
f 332//712 333//712 35//712
# Vertices: 333, normals: 712, texture coordinates: 0, faces: 604

