# File generated by ImageToStl.com - Free Image and 3D model conversion tools

mtllib Mountain_desert_006.mtl

# Mountain_desert_006_0
o obj1
v 1245.00952148 1837.94055176 -862.49987793
v 1201.36047363 1866.07971191 -1006.24987793
v 1056.13464355 1887.96289062 -1006.24987793
v 1124.91027832 1785.30212402 -1086.11120605
v 1018.72131348 1810.90527344 -1114.06237793
v 931.9317627 1716.64050293 -1086.11108398
v 910.90869141 1755.73059082 -1006.24987793
v 917.14428711 1741.3848877 -862.5
v 1081.07666016 1863.68615723 -862.49987793
v 826.56262207 1304.49536133 -862.5
v 826.56262207 1306.15039062 -1006.24987793
v 718.75012207 1146.00842285 -1006.24987793
v 862.50018311 1260.0201416 -1127
v 718.75018311 1102.4263916 -1114.06237793
v 638.88909912 1019.72692871 -1086.11096191
v 610.93762207 1023.99389648 -1006.24981689
v 610.93762207 1023.99389648 -862.49987793
v 718.75012207 1146.00842285 -862.5
v 539.06262207 802.84442139 -862.49987793
v 539.06262207 812.44641113 -1006.24987793
v 431.25015259 746.14337158 -1006.24987793
v 575.00018311 777.73632812 -1139.39135742
v 431.25018311 725.28265381 -1125.1262207
v 347.93362427 657.84741211 -1091.02832031
v 315.6630249 661.26983643 -1006.24987793
v 309.83203125 603.65838623 -862.49987793
v 431.25009155 707.73571777 -862.49987793
v 169.92901611 360.07037354 -862.5
v 204.91488647 369.67227173 -1006.24987793
v 112.65163422 323.2064209 -1006.25
v 280.03652954 333.23327637 -1137.62133789
v 135.97554016 282.80560303 -1114.0625
v -1.94348919 280.43289185 -1114.0625
v -7.77447748 313.71563721 -1006.25
v -13.60547829 367.8208313 -862.5
v 89.32771301 323.2064209 -862.5
v -143.74984741 285.24334717 -1006.25
v -143.74983215 273.31484985 -1114.0625
v -289.67318726 251.94671631 -1114.0625
v -287.49984741 247.26438904 -1006.25
v -295.48562622 178.89624023 -862.5
v -143.74986267 256.77105713 -862.5
v -431.24984741 209.25361633 -1006.25
v -439.94320679 206.82382202 -1114.06262207
v -538.15722656 158.50994873 -1086.11120605
v -556.44927979 159.33023071 -1006.25
v -540.77429199 137.41937256 -926.38891602
v -445.83157349 159.36997986 -898.4375
v -680.35241699 13.69939423 -862.50012207
v -715.2588501 21.40332985 -1006.25012207
v -788.29748535 -4.398E-05 -1006.25012207
v -679.32116699 -5.027E-05 -1150.00012207
v -788.29742432 -5.027E-05 -1150.00012207
v -879.88671875 -5.027E-05 -1150.00012207
v -879.88671875 -4.398E-05 -1006.25012207
v -877.71337891 -3.77E-05 -862.50012207
v -779.60412598 -3.77E-05 -862.50012207
v -1006.24981689 -4.398E-05 -1006.25012207
v -1006.24981689 -5.027E-05 -1150.00012207
v -1149.99975586 -5.027E-05 -1150.00012207
v -1149.99975586 -4.398E-05 -1006.25018311
v -1149.99975586 -3.77E-05 -862.50018311
v -1006.24981689 -3.77E-05 -862.50012207
v 1124.91027832 1649.94067383 -638.88885498
v 1201.36047363 1753.52368164 -718.74987793
v 1056.13464355 1790.85583496 -718.74987793
v 910.90869141 1698.34899902 -718.74993896
v 931.93170166 1625.41870117 -638.88885498
v 1018.72119141 1665.2442627 -610.93737793
v 862.50012207 1244.16564941 -574.99993896
v 826.56262207 1299.52954102 -718.74987793
v 718.75012207 1146.00842285 -718.74987793
v 610.93762207 1023.99389648 -718.74987793
v 638.88903809 1019.72692871 -638.88885498
v 718.75012207 1102.42651367 -610.93737793
v 575.00006104 801.32922363 -574.99993896
v 539.06262207 799.64379883 -718.74993896
v 431.25009155 694.9331665 -718.74993896
v 307.8883667 584.45452881 -718.74993896
v 237.57460022 584.45452881 -574.99993896
v 360.93634033 694.9331665 -574.99993896
v 158.26705933 354.8117981 -575
v 158.26705933 356.86975098 -718.75
v 81.55306244 323.20645142 -718.75
v -15.54917526 365.44818115 -718.75
v -10.89359093 278.81762695 -575
v 81.55303192 314.97451782 -575
v -143.74992371 247.28030396 -718.75
v -263.33880615 168.91639709 -718.75006104
v -241.92993164 162.80227661 -638.88897705
v -149.63815308 216.37026978 -610.9375
v -355.78094482 15.22683239 -575.00006104
v -402.78939819 21.41924286 -718.75006104
v -513.12939453 -3.142E-05 -718.75006104
v -429.52798462 38.07514191 -798.61126709
v -524.62811279 21.41128731 -826.5625
v -638.93701172 -3.142E-05 -718.75012207
v -598.34448242 -2.513E-05 -575.00006104
v -481.16082764 -2.513E-05 -575.00006104
v -753.52368164 -3.142E-05 -718.75012207
v -871.19329834 -3.142E-05 -718.75012207
v -864.67321777 132.24557495 -575.00012207
v -727.44342041 132.24557495 -575.00012207
v -1006.24981689 -3.142E-05 -718.75012207
v -1149.99975586 -3.142E-05 -718.75018311
v -1149.99975586 -2.513E-05 -575.00018311
v -1006.24987793 132.24557495 -575.00012207
v 1111.0949707 1010.29412842 -351.38876343
v 1123.43151855 1095.35192871 -431.24984741
v 1006.25 1137.9230957 -431.24990845
v 1142.46679688 1251.47290039 -574.99987793
v 1006.25 1290.88720703 -539.06237793
v 898.4375 1095.35192871 -431.24990845
v 930.55285645 1010.29412842 -351.38882446
v 1015.61901855 1011.86590576 -323.43737793
v 871.49420166 816.58459473 -287.49993896
v 826.5625 839.92480469 -431.24990845
v 718.75006104 797.35357666 -431.24990845
v 798.61120605 888.3269043 -511.11102295
v 718.75006104 840.9354248 -539.06237793
v 575.00006104 771.74847412 -431.24993896
v 575.00006104 774.94909668 -287.49993896
v 718.75006104 797.35357666 -287.49990845
v 431.25006104 694.93322754 -431.25
v 307.88830566 584.45458984 -431.25
v 307.88818359 603.65844727 -287.49993896
v 431.25 707.73577881 -287.49993896
v 158.26699829 345.66452026 -287.49996948
v 158.26699829 348.63781738 -431.24993896
v 81.55302429 290.27877808 -431.25
v 20.38828468 233.41412354 -431.25
v 20.38827896 196.37051392 -287.5
v 81.55300903 265.58303833 -287.5
v -37.40951157 25.99494171 -287.5
v -41.82565308 32.16887283 -431.25
v -167.30278015 -1.885E-05 -431.25
v -79.59072876 63.94689178 -511.11108398
v -179.07919312 30.91001892 -539.0625
v -322.82922363 -1.885E-05 -431.25006104
v -296.33227539 -1.257E-05 -287.50003052
v -149.63816833 -1.257E-05 -287.50003052
v -454.80279541 -1.885E-05 -431.25006104
v -580.88812256 132.24557495 -431.25009155
v -576.47192383 132.24559021 -289.96932983
v -437.13818359 -1.257E-05 -287.50006104
v -718.74987793 -1.885E-05 -431.25009155
v -862.49987793 -1.885E-05 -431.25009155
v -862.49987793 -1.332E-05 -304.78479004
v -718.74987793 -1.3E-05 -297.3770752
v -1006.24987793 132.24557495 -431.25015259
v -1149.99975586 -1.885E-05 -431.25018311
v -1150 -1.343E-05 -307.25411987
v -1006.24987793 -1.343E-05 -307.25408936
v 1130.45800781 709.23364258 0.00012825
v 1179.64526367 738.08520508 -143.74987793
v 1043.72583008 797.35357666 -143.74990845
v 1234.93054199 778.65283203 -287.49984741
v 1062.46386719 823.2276001 -251.56240845
v 871.86889648 797.35357666 -143.74992371
v 863.9989624 740.95684814 7.185E-05
v 1015.61889648 764.38037109 9.705E-05
v 718.75 797.35357666 -143.74993896
v 575 784.55102539 -143.74995422
v 573.05633545 734.88452148 41.64237976
v 718.75 738.08520508 -35.93743896
v 431.25 746.14343262 -143.75
v 307.88827515 661.26989746 -143.75
v 327.20114136 657.84747314 -63.88888931
v 423.47537231 725.28271484 -35.93748093
v 199.18022156 349.87002563 9.23E-06
v 158.26696777 353.20849609 -143.74996948
v 81.55299377 257.35113525 -143.74998474
v 20.3882637 184.02262878 -143.75001526
v -8.70758629 191.2832489 -1.254E-05
v 89.32759857 265.58306885 -1.94E-06
v -63.88887787 41.23224258 -63.88890076
v -35.93747711 23.93696785 -143.75
v -143.74996948 -6.28E-06 -143.75001526
v -287.49993896 -6.28E-06 -143.75004578
v -287.5 11.98728085 -4.346E-05
v -143.75 20.96162987 -35.93751907
v -431.24993896 -6.28E-06 -143.75006104
v -575 -6.72E-06 -153.62705994
v -575 -6.5E-07 -14.81553936
v -431.25 -0 -6.512E-05
v -718.75 -8.01E-06 -183.25798035
v -862.49987793 -9.31E-06 -212.88891602
v -862.5 14.4757452 -113.02761841
v -718.75 -2.59E-06 -59.26191711
v -1006.24987793 -9.74E-06 -222.76589966
v -1150 -9.74E-06 -222.76589966
v -1150 -5.18E-06 -118.52378845
v -1006.25 22.51560974 -154.46125793
v 1086.11108398 538.11236572 223.61120605
v 1114.0625 622.67883301 143.75010681
v 1006.25 665.46051025 143.75009155
v 898.4375 622.67883301 143.75007629
v 926.38873291 538.11236572 223.6111908
v 1006.24987793 540.24560547 251.56259155
v 864.03234863 341.35595703 287.50009155
v 826.5625 365.98822021 143.75007629
v 718.75 323.20648193 143.75009155
v 798.61114502 421.24508667 63.88896561
v 718.75 382.47485352 35.93757629
v 563.3380127 382.47491455 113.51740265
v 567.2253418 323.20648193 143.75007629
v 572.28057861 289.44631958 289.21762085
v 718.74987793 314.97351074 287.50009155
v 400.15142822 323.20648193 143.75004578
v 384.60223389 382.47485352 35.93753815
v 240.85221863 314.97454834 143.75001526
v 275.8380127 280.74768066 270.34814453
v 423.47531128 282.80566406 262.29721069
v 112.65144348 290.27877808 143.74998474
v -7.77466822 251.40045166 143.74998474
v -1.94372439 250.84509277 270.34814453
v 135.97531128 274.5737915 273.03179932
v -143.75001526 200.62072754 143.74996948
v -143.75 154.96334839 35.93746948
v -223.61114502 124.82994843 63.8888588
v -251.5625 140.08665466 143.74996948
v -223.61116028 143.12310791 228.38208008
v -143.75004578 196.1229248 262.29714966
v -277.01647949 13.30440044 297.80526733
v -323.43753052 17.9862957 143.74995422
v -431.25 6.28E-06 143.74993896
v -575 5.85E-06 133.87294006
v -573.25274658 16.30110168 285.0944519
v -420.32965088 1.257E-05 287.49993896
v -718.75 4.56E-06 104.24201202
v -826.5625 22.92658615 79.33091736
v -798.61114502 41.30632782 183.51998901
v -718.75006104 23.33755875 236.52827454
v -862.50012207 212.68955994 224.51660156
v -898.4375 169.0177002 97.77283478
v -1006.25 217.53918457 102.49263
v -926.38885498 145.16757202 17.11593056
v -1006.25 166.96289062 5.86910295
v -1086.11108398 164.12675476 17.11590576
v -1114.0625 211.67585754 97.77279663
v -1137.49804688 303.29833984 227.33424377
v -1006.25 288.79754639 189.67652893
v 1214.6315918 280.93844604 575.00018311
v 1181.10852051 282.80569458 431.25018311
v 1044.56188965 323.20648193 431.25015259
v 1137.72729492 316.81674194 287.50015259
v 1015.82794189 349.50164795 323.43762207
v 872.07794189 314.97351074 431.25009155
v 876.86700439 251.32475281 575.00012207
v 1063.71789551 315.73764038 575.00018311
v 718.74987793 290.27462769 431.25009155
v 601.71630859 233.40785217 431.25009155
v 594.80041504 194.49230957 575.00006104
v 718.74987793 211.83607483 575.00012207
v 442.24032593 25.99313354 577.68371582
v 483.73550415 32.16785431 441.98474121
v 394.36535645 2.073E-05 474.1887207
v 486.52130127 68.1645813 380.01473999
v 422.02877808 40.4008255 387.84555054
v 285.19467163 40.4008255 436.15148926
v 278.27877808 2.214E-05 506.39266968
v 271.36291504 2.596E-05 593.78570557
v 366.70187378 2.56E-05 585.73474121
v 143.74995422 2.26E-05 517.12731934
v 143.74996948 40.40082932 452.253479
v 2.73004436 37.59901047 436.15145874
v 10.92030716 2.214E-05 506.39260864
v 19.11055183 2.596E-05 593.78564453
v 143.74990845 126.76027679 596.46936035
v -100.06859589 2.073E-05 474.18865967
v -132.8296814 29.19356918 387.84545898
v -221.97787476 1.932E-05 441.98464966
v -163.44473267 25.85653877 576.7175293
v -67.30752563 2.56E-05 585.73468018
v -387.56860352 1.885E-05 431.24993896
v -528.14221191 31.86919785 431.24990845
v -481.99023438 68.03184509 511.11102295
v -365.72790527 40.40083313 539.06237793
v -573.78668213 315.36541748 574.42700195
v -610.93756104 223.08428955 426.0927124
v -718.75006104 254.95346069 410.62127686
v -638.88897705 171.75427246 337.63638306
v -718.75006104 180.42610168 292.49447632
v -826.5625 310.45230103 400.30697632
v -798.61108398 391.0819397 497.35855103
v -718.75 353.0803833 533.9052124
v -862.5 777.24713135 574.42681885
v -898.4375 643.44537354 426.09268188
v -1006.25 698.94421387 431.24981689
v -926.38891602 554.42559814 335.34423828
v -1006.25 581.93945312 313.12301636
v -1090.97131348 573.38476562 335.3442688
v -1124.99816895 651.97698975 426.09259033
v -1151.02734375 784.76464844 574.17462158
v -1006.25 832.01959229 539.06231689
v 1130.82397461 269.73516846 862.50018311
v 1181.10852051 275.33682251 718.75018311
v 1044.56188965 293.33099365 718.75018311
v 872.07781982 261.92730713 718.75012207
v 862.5569458 203.28268433 862.50012207
v 1015.82781982 150.15609741 862.50018311
v 718.74987793 227.46725464 718.75012207
v 592.49505615 176.54116821 718.75006104
v 610.20074463 154.62480164 798.61114502
v 709.52868652 180.36166382 826.56262207
v 470.24755859 15.44060898 862.5
v 428.40856934 23.93489838 718.75006104
v 357.48065186 3.142E-05 718.75006104
v 269.05755615 3.142E-05 718.75006104
v 271.362854 3.77E-05 862.5
v 366.70178223 3.77E-05 862.5
v 143.74990845 126.76029205 718.75
v 21.84062195 3.142E-05 718.75
v 19.11050797 126.76029205 862.5
v 143.74986267 126.76029205 862.5
v -56.38718033 3.142E-05 718.75
v -120.51821899 40.40084076 718.75
v -136.89877319 40.40084839 862.5
v -67.30757904 3.77E-05 862.5
v -304.32699585 282.80569458 862.49987793
v -301.59689331 282.80569458 718.74987793
v -431.25009155 323.20648193 718.74987793
v -317.41448975 251.38285828 638.88885498
v -420.32971191 282.80569458 610.93737793
v -539.06262207 357.81240845 718.74987793
v -539.06262207 360.89526367 862.49987793
v -431.25009155 323.20651245 862.49987793
v -610.93762207 608.6071167 862.49987793
v -610.93762207 590.11022949 718.74981689
v -718.75006104 698.70361328 718.74981689
v -638.88885498 576.89587402 638.88873291
v -718.75 651.76647949 610.93731689
v -826.56262207 831.95953369 718.74981689
v -826.56262207 835.0423584 862.49987793
v -718.75012207 711.03485107 862.49987793
v -914.21356201 1225.22973633 862.49981689
v -908.95489502 1219.65942383 718.74981689
v -1048.31945801 1301.20898438 718.74975586
v -931.06335449 1169.43579102 638.88873291
v -1016.76739502 1219.65942383 610.93725586
v -1118.83178711 1185.94030762 638.88867188
v -1187.68395996 1256.79467773 718.74975586
v -1224.49450684 1290.21655273 862.49969482
v -1069.35400391 1323.49023438 862.49969482
v 1086.11096191 228.1463623 1086.11120605
v 1114.06225586 267.86798096 1006.25018311
v 1006.24981689 142.6872406 1006.25
v 898.43737793 193.179245 1006.25012207
v 926.38867188 181.67338562 1086.11120605
v 1006.24981689 230.52360535 1114.06262207
v 862.49981689 5.027E-05 1150.00012207
v 817.34112549 25.46310997 1006.25012207
v 681.86523438 4.398E-05 1006.25012207
v 774.02124023 44.92811584 926.38891602
v 663.42297363 24.69900513 898.43762207
v 519.67297363 4.398E-05 1006.25
v 574.99981689 5.027E-05 1150.00012207
v 718.74981689 5.027E-05 1150.00012207
v 394.36520386 126.76030731 1006.25
v 278.27868652 126.76030731 1006.25
v 287.49981689 5.027E-05 1150
v 431.24981689 5.027E-05 1150.00012207
v 143.74984741 4.398E-05 1006.25
v 10.92021275 4.398E-05 1006.25
v -0.00017365 5.027E-05 1150
v 143.74983215 5.027E-05 1150
v -100.06868744 4.398E-05 1006.25
v -186.04046631 40.4008522 1006.25
v -287.50015259 5.027E-05 1150
v -143.75016785 5.027E-05 1150
v -346.53552246 251.38287354 1086.11108398
v -312.51727295 282.80569458 1006.24987793
v -431.25015259 323.20651245 1006.24987793
v -539.06262207 370.14364624 1006.24987793
v -575.00018311 333.30877686 1134.84387207
v -431.25018311 282.80569458 1114.06225586
v -638.88909912 659.10430908 1089.74243164
v -610.93762207 664.09771729 1006.24981689
v -718.75012207 748.02862549 1006.24981689
v -826.56262207 844.29071045 1006.24981689
v -862.50018311 796.56903076 1136.15124512
v -718.75018311 725.75396729 1122.23327637
v -931.06335449 1189.24121094 1086.11083984
v -908.95489502 1227.08630371 1006.24969482
v -1048.31945801 1330.91711426 1006.24969482
v -1187.68395996 1301.35717773 1006.24969482
v -1118.83178711 1235.45397949 1086.11083984
v -1016.76751709 1264.22180176 1114.06225586
v 1150.00012207 -3.77E-05 -862.49981689
v 1150.00012207 -4.398E-05 -1006.24981689
v 1187.47595215 161.60319519 -1006.24981689
v 1114.06262207 -4.87E-05 -1114.06225586
v 1123.43151855 161.60319519 -1125.1262207
v 1128.11608887 342.07397461 -1130.65820312
v 1206.21398926 342.07400513 -1006.24981689
v 1248.37426758 342.07397461 -862.49981689
v 1215.58288574 161.60319519 -862.49981689
v 1006.25018311 -5.027E-05 -1149.99975586
v 1006.25018311 161.60319519 -1194.25524902
v 862.50018311 -5.027E-05 -1149.99975586
v 862.50018311 161.60317993 -1227.44677734
v 862.50018311 342.07397461 -1266.17016602
v 1006.25018311 342.07400513 -1216.38293457
v 718.75018311 -5.027E-05 -1149.99975586
v 718.75018311 161.60317993 -1238.51062012
v 575.00018311 -5.027E-05 -1149.99975586
v 575.00018311 161.60317993 -1227.44677734
v 575.00018311 342.07397461 -1266.17016602
v 718.75018311 342.07400513 -1282.76599121
v 431.25018311 -5.027E-05 -1149.99975586
v 431.25018311 161.60319519 -1194.25524902
v 287.50015259 -5.027E-05 -1150
v 287.50015259 161.60319519 -1161.06384277
v 431.25018311 342.07400513 -1216.38293457
v 143.75016785 -5.027E-05 -1150
v 143.75016785 161.60319519 -1150
v 0.00017365 -5.027E-05 -1150
v 0.00017365 161.60319519 -1150
v -143.74983215 -5.027E-05 -1150
v -143.74983215 161.60319519 -1150
v -304.88671875 -5.027E-05 -1150
v -296.19326782 152.10447693 -1150
v -500.79745483 -5.027E-05 -1150.00012207
v -466.02359009 123.60831451 -1150.00012207
v -599.91638184 95.11215973 -1114.06262207
v -644.54748535 85.61345673 -1006.25012207
v -605.80474854 85.62139893 -898.4375
v -489.5765686 85.64525604 -862.5
v -373.34835815 85.66910553 -826.5625
v -334.6055603 85.67706299 -718.75006104
v -292.77990723 95.16783142 -610.93756104
v -167.30278015 123.64014435 -575
v -41.82565689 143.88052368 -539.0625
v 4.986E-05 128.67553711 -431.25
v 3.96E-05 103.97980499 -287.5
v 2.171E-05 95.74788666 -143.75
v -35.93749237 92.77255249 -35.93750763
v -143.75 83.8465271 -2.537E-05
v -251.5625 74.92050171 35.93746185
v -287.50003052 71.94516754 143.74996948
v -251.56254578 83.15242767 262.29714966
v -143.75004578 116.7742157 330.43859863
v -5.857E-05 150.39599609 362.64260864
v 143.74995422 161.60324097 373.37734985
v 287.49993896 161.60324097 362.64266968
v 431.24993896 161.60324097 330.4387207
v 529.84130859 153.37026978 334.17227173
v 538.11535645 128.67137146 431.25009155
v 510.45184326 103.97245789 575.00006104
v 501.23062134 95.73950195 718.75006104
v 546.38928223 96.50360107 826.5625
v 681.86523438 98.79590607 862.50012207
v 817.34112549 101.08820343 898.43762207
v 862.49987793 101.85231018 1006.25012207
v 898.43731689 109.32117462 1114.06262207
v 1006.24981689 5.027E-05 1150.00012207
v 1006.24981689 131.72779846 1150.00012207
v 1114.06225586 4.87E-05 1114.06262207
v 1114.06225586 154.13441467 1114.06262207
v 1149.99975586 4.398E-05 1006.25018311
v 1149.99975586 161.60328674 1006.25018311
v 1169.15588379 3.77E-05 862.50018311
v 1169.15588379 161.60327148 862.50018311
v 1226.62402344 3.142E-05 718.75018311
v 1226.62402344 161.60327148 718.75018311
v 1264.93591309 2.513E-05 575.00018311
v 1264.93615723 161.60325623 575.00018311
v 1226.62402344 1.885E-05 431.25018311
v 1226.62402344 161.60325623 431.25018311
v 1169.15600586 1.257E-05 287.50015259
v 1169.15600586 161.60324097 287.50015259
v 1150 6.28E-06 143.75016785
v 1225.80200195 161.60324097 143.75015259
v 1150 0 0.00017365
v 1235.17089844 161.60324097 0.00016418
v 1166.39550781 337.95236206 0.00015563
v 1150 325.58740234 143.75015259
v 1150 -6.28E-06 -143.74983215
v 1187.47583008 161.60322571 -143.74981689
v 1150 -1.257E-05 -287.49981689
v 1215.58276367 161.60322571 -287.49981689
v 1262.4276123 342.07400513 -287.49984741
v 1315.64379883 342.07406616 -143.74981689
v 1150.00012207 -1.885E-05 -431.24981689
v 1224.95178223 161.60321045 -431.24981689
v 1150.00012207 -2.513E-05 -574.99981689
v 1304.18530273 161.60321045 -574.99981689
v 1264.76989746 342.07400513 -574.99981689
v 1271.79675293 342.07403564 -431.24981689
v 1150.00012207 -3.142E-05 -718.74981689
v 1304.18530273 161.60319519 -718.74981689
v 1262.42785645 342.07403564 -718.74981689
v -1006.25 90.06246185 -79.01590729
v -1114.0625 99.00505829 -38.35860062
v -898.4375 90.47343445 -38.3585701
v -1150 2.83E-06 64.73407745
v -1150 125.83285522 83.61334229
v -1150 1.17E-05 267.74588013
v -1160.93554688 152.66065979 246.6799469
v -1150.00012207 1.885E-05 431.24981689
v -1193.74230957 161.60325623 410.62121582
v -1150.00012207 2.513E-05 574.99981689
v -1226.5489502 161.60325623 569.84265137
v -1267.45275879 338.99871826 567.26409912
v -1215.61328125 329.77288818 400.30688477
v -1150.00012207 3.142E-05 718.74981689
v -1309.72631836 161.60327148 718.74981689
v -1150.00012207 3.77E-05 862.49981689
v -1298.79064941 161.60327148 870.67071533
v -1280.5994873 342.07409668 874.75616455
v -1291.74414062 342.07409668 718.74981689
v -1150.00012207 4.398E-05 1006.24981689
v -1193.74230957 161.60328674 1038.93334961
v -1114.06262207 4.87E-05 1114.06225586
v -1124.99816895 161.60328674 1171.25830078
v -1133.09521484 342.07409668 1199.85656738
v -1226.13061523 342.07409668 1055.27490234
v -1006.25018311 5.027E-05 1149.99975586
v -1006.25018311 161.603302 1263.58007812
v -862.50018311 5.027E-05 1149.99975586
v -862.50018311 161.603302 1255.40917969
v -862.50018311 342.07409668 1235.79406738
v -1006.25018311 342.07409668 1248.05029297
v -718.75018311 5.027E-05 1149.99975586
v -718.75018311 161.60328674 1182.68322754
v -575.00018311 5.027E-05 1149.99975586
v -575.00018311 161.60328674 1158.17077637
v -718.75018311 342.07409668 1199.02490234
v -431.25018311 5.027E-05 1149.99975586
v -431.25018311 161.60328674 1149.99975586
v -312.51733398 161.60328674 1114.0625
v -243.81869507 161.60328674 1006.24987793
v -211.05757141 161.60327148 862.49987793
v -200.13719177 161.60327148 718.75
v -246.99504089 161.60325623 610.93737793
v -387.56860352 161.60325623 574.99987793
v -528.14221191 153.07162476 539.06237793
v -575.00006104 127.47673798 431.24990845
v -610.93756104 101.88182831 318.28024292
v -718.75006104 93.35020447 266.87127686
v -826.5625 92.93923187 210.74249268
v -862.5 91.70633698 83.61338806
v 256.40164185 509.06976318 -1006.24987793
v 233.07771301 470.66217041 -862.49987793
v 315.66305542 547.47741699 -1125.12634277
v 225.30307007 457.85961914 -718.74987793
v 154.98934937 457.85961914 -575
v 225.30300903 457.85964966 -431.24993896
v 225.30297852 470.66220093 -287.49996948
v 225.30297852 509.06982422 -143.75003052
v 269.0151062 547.47747803 -35.93749619
v 400.15148926 560.2800293 2.83E-05
v 567.2253418 560.2800293 77.57988739
v 718.75 560.2800293 6.878E-05
v 826.5625 543.793396 35.93757629
v 862.5 494.33349609 143.75007629
v 898.43737793 444.87362671 251.56257629
v 1006.24987793 428.38696289 287.50009155
v 1114.0625 444.87362671 251.56262207
v 1150 494.33349609 143.75013733
v 1168.73791504 543.793396 0.00014508
v 1325.01281738 560.2800293 -143.74986267
v 1271.79663086 560.2800293 -287.49984741
v 1262.42785645 560.2800293 -431.24984741
v 1340.64245605 560.27996826 -574.99987793
v 1292.23083496 793.17938232 -574.99987793
v 1224.95178223 780.65643311 -431.24984741
v 1224.95178223 560.27996826 -718.74987793
v 1321.90441895 560.27996826 -862.49981689
v 1291.42407227 797.35369873 -862.49981689
v 1181.20922852 797.35357666 -718.74987793
v 1187.47595215 560.27996826 -1006.24981689
v 1123.43151855 560.27996826 -1125.12634277
v 1119.52258301 797.35369873 -1116.82836914
v 1171.84020996 797.35357666 -1006.24981689
v 1006.25018311 560.27996826 -1194.25524902
v 862.50018311 560.27996826 -1227.44677734
v 862.50018311 793.43200684 -1169.36169434
v 1006.25018311 797.35357666 -1161.0637207
v 718.75018311 560.27996826 -1238.51062012
v 575.00018311 560.27996826 -1227.44677734
v 718.75018311 781.66705322 -1172.12756348
v 431.25018311 560.27996826 -1194.25524902
v -1006.25 427.74411011 246.24261475
v -1124.99804688 465.64019775 287.33724976
v -898.4375 422.98202515 287.33731079
v -1193.74230957 511.0753479 410.62121582
v -1310.10876465 547.97894287 569.84259033
v -1352.59631348 560.28009033 718.74975586
v -1289.6529541 560.28009033 870.67071533
v -1326.91503906 810.35101318 864.54248047
v -1245.49255371 804.78070068 718.74975586
v -1235.81164551 560.28009033 1038.93322754
v -1135.51550293 560.28009033 1171.25830078
v -1135.20178223 810.35107422 1128.3614502
v -1281.90283203 812.20770264 1014.42071533
v -1006.25018311 560.28009033 1290.77380371
v -862.50018311 560.28009033 1207.19580078
v -1006.25018311 804.78076172 1241.74865723
v -718.75018311 560.28009033 1182.68322754
v -610.93768311 547.94885254 1122.23327637
v -575.00012207 510.95510864 1006.24987793
v -575.00012207 473.96136475 862.49987793
v -575.00012207 461.63006592 718.74987793
v -610.9375 473.96136475 610.93737793
v -718.74987793 510.95510864 574.99987793
v -826.5625 527.1159668 533.9052124
v -862.5 476.94882202 410.62127686
v 575.00012207 908.93487549 -1006.24987793
v 575.00012207 908.93487549 -862.49987793
v 610.93768311 924.62139893 -1114.06225586
v 575.00012207 908.93487549 -718.74993896
v 610.93762207 924.62145996 -610.93737793
v 718.75006104 971.68103027 -574.99987793
v 826.5625 1002.04345703 -539.06237793
v 862.5 967.63830566 -431.24990845
v 907.80651855 917.54675293 -323.43743896
v 1043.72583008 900.84954834 -287.49993896
v 1170.27636719 917.54675293 -323.43734741
v 1187.47595215 967.63830566 -431.24984741
v 1171.84020996 1017.7300415 -574.99987793
v 1306.20617676 1034.42724609 -718.74987793
v 1224.82666016 1034.42724609 -862.49981689
v 1280.94702148 1295.91113281 -862.49987793
v 1343.61938477 1282.66918945 -718.74987793
v 1199.88464355 1034.42724609 -1006.24981689
v 1126.53381348 1034.42712402 -1114.06225586
v 1135.88708496 1297.56628418 -1114.06237793
v 1237.29797363 1300.32495117 -1006.24987793
v 1006.25018311 1034.42712402 -1149.99975586
v 862.50018311 1018.74053955 -1149.99975586
v 1006.25018311 1289.29003906 -1149.99987793
v 718.75018311 971.6809082 -1149.99975586
v -1006.25 1034.42724609 574.99981689
v -1135.09716797 1041.85424805 610.93725586
v -898.43762207 1034.42724609 610.93731689
v -1234.13867188 1064.13549805 718.74975586
v -1276.20788574 1086.41674805 862.49981689
v -1234.13867188 1093.84375 1006.24969482
v -1135.09716797 1086.41687012 1114.06225586
v -1006.25018311 1064.13549805 1149.99975586
v -898.43768311 1041.85424805 1114.06225586
v -862.50012207 1034.42724609 1006.24981689
v -862.50012207 1034.42724609 862.49987793
v -862.50012207 1034.42724609 718.74981689
v 862.50012207 1535.59216309 -1006.24987793
v 862.50012207 1528.97119141 -862.5
v 898.43768311 1546.6270752 -1114.06237793
v 862.50012207 1509.10839844 -718.74987793
v 898.43762207 1489.24560547 -610.93737793
v 1006.25 1482.62463379 -574.99987793
v 1139.00488281 1500.28051758 -610.93737793
v 1249.76904297 1553.24816895 -718.74987793
v 1299.65344238 1606.21569824 -862.49987793
v 1249.76904297 1623.87158203 -1006.24987793
v 1139.00488281 1612.83666992 -1114.06237793
v 1006.25018311 1579.73181152 -1149.99987793
vn 0.15059 0.97826 0.14255
vn 0.14739 0.97814 0.14672
vn 0.14757 0.97815 0.14646
vn 0.33025 0.4869 -0.80862
vn -0.59261 0.65084 -0.47457
vn -0.59464 0.79706 0.10534
vn -0.82708 0.56209 0.0006
vn -0.82951 0.55845 0.00643
vn -0.82929 0.55879 0.00589
vn -0.68466 0.58931 -0.4289
vn -0.71823 0.63463 -0.28529
vn -0.74937 0.66215 0
vn -0.74937 0.66215 0
vn -0.52301 0.85043 0.05681
vn -0.3525 0.87792 -0.32402
vn -0.57312 0.78051 -0.24966
vn -0.62705 0.73152 0.26774
vn -0.44924 0.89202 -0.04975
vn -0.36004 0.82541 -0.43483
vn -0.075 0.95166 -0.29784
vn 0.37774 0.87151 -0.3127
vn -0.19179 0.91594 -0.35252
vn -0.04787 0.95368 -0.297
vn -0.25515 0.96575 0.04709
vn -0.42427 0.82667 0.3696
vn -0.2335 0.88307 0.40702
vn -0.28727 0.95668 0.04734
vn -0.36875 0.92477 -0.09396
vn -0.29918 0.90359 0.30663
vn -0.27922 0.95284 0.11887
vn 0 0.9891 -0.14727
vn 0 1 -0
vn 0 1 -0
vn 0 1 -0
vn 0 1 -0
vn 0 1 -0
vn 0 1 -0
vn -0 1 -0
vn -0 1 -0
vn -0 1 -0
vn 0 1 -0
vn 0.13845 0.53859 0.83111
vn 0.13143 0.83688 0.53137
vn -0.52367 0.82211 0.22341
vn -0.47874 0.58189 0.65742
vn -0.75291 0.52874 0.39187
vn -0.82667 0.56235 0.01943
vn -0.74937 0.66215 0
vn -0.74937 0.66215 0
vn -0.73553 0.61222 0.29015
vn -0.68733 0.70769 0.16354
vn -0.66145 0.7498 0.01669
vn -0.66442 0.7419 0.09013
vn -0.63422 0.70818 -0.31022
vn -0.63422 0.70818 -0.31022
vn -0.63422 0.70818 -0.31022
vn -0.40179 0.91564 0.01311
vn -0.41589 0.90932 -0.01349
vn 0.39877 0.91682 0.02057
vn 0.39883 0.9168 0.02052
vn 0.39831 0.91701 0.02094
vn -0.31603 0.80804 0.4972
vn -0.61454 0.66672 0.4217
vn -0.64909 0.7607 0.00378
vn -0.53936 0.8231 0.17776
vn -0.53678 0.81819 0.20597
vn -0.53721 0.81775 0.20662
vn -0.53698 0.81799 0.20627
vn -0.18953 0.97635 0.10404
vn -0.24393 0.92981 0.27559
vn -0 0.99549 0.09487
vn -0 1 -0
vn -0 1 -0
vn -0.13552 0.98186 0.13262
vn 0 1 -0
vn 0 0.73594 -0.67704
vn 0 0.73594 -0.67704
vn 0 0.73594 -0.67704
vn 0 0.73594 -0.67704
vn -0 1 -0
vn 0 1 -0
vn -0.67704 0.73594 0
vn -0.67704 0.73594 -0
vn -0.67704 0.73594 0
vn 0.23409 0.6466 0.72602
vn 0.23504 0.64698 0.72538
vn 0.22538 0.6431 0.73186
vn 0.36225 0.60707 0.70728
vn -0.25269 0.63996 0.72567
vn -0.25801 0.60775 0.75105
vn -0.35494 0.8989 0.2569
vn -0.5584 0.60827 0.5641
vn -0.17187 0.9649 0.19856
vn -0.15396 0.98783 -0.02199
vn -0.47121 0.8818 -0.01963
vn -0.43772 0.88066 0.18122
vn -0.63422 0.70818 0.31022
vn -0.63422 0.70818 0.31022
vn -0.6415 0.76037 -0.10158
vn -0.60537 0.79577 0.01646
vn -0.46053 0.88683 0.03809
vn -0.46029 0.88638 0.04965
vn -0.46051 0.88679 0.03924
vn -0.63659 0.68473 0.3548
vn -0.73865 0.65276 0.16821
vn -0.24804 0.9675 0.04917
vn -0.39591 0.77346 0.49499
vn -0 0.99444 0.10534
vn 0 1 -0
vn -0 1 -0
vn 0 1 -0
vn -0 1 -0
vn -0.11951 0.98407 0.13163
vn 0.58623 0.5595 -0.58592
vn 0.57843 0.56412 -0.58922
vn 0.5866 0.55928 -0.58575
vn 0.68846 0.72496 -0.02152
vn 0.68842 0.72481 -0.02703
vn 0.68845 0.72493 -0.0227
vn -0.69209 0.72148 0.02163
vn 0.57808 0.56433 -0.58937
vn 0 0.73594 0.67704
vn 0 0.73594 0.67704
vn 0 0.73594 0.67704
vn 0 1 -0
vn -0 1 -0
vn 0 1 -0
vn 0.67704 0.73594 -0
vn 0.67704 0.73594 -0
vn 0.67704 0.73594 -0
vn 0 0.73594 0.67704
vn -0.67704 0.73594 -0
vn -0.67704 0.73594 -0
vn 0 1 -0
vn 0 1 -0
vn 0 1 -0
vn 0.38061 0.87284 0.30542
vn 0.30354 0.88009 0.36511
vn -0 0.99117 0.1326
vn -0.14275 0.92402 0.3547
vn 0 0.93092 0.36522
vn -0.12383 0.9835 0.1319
vn -0.08852 0.99386 -0.06639
vn 0.11639 0.95907 0.25815
vn -0.25006 0.9359 0.24811
vn -0.42278 0.90422 -0.0604
vn -0.53823 0.78231 -0.31353
vn -0.59872 0.78087 0.17825
vn -0.75976 0.60803 0.23036
vn -0.72165 0.69131 -0.03628
vn -0.76676 0.63957 0.05494
vn -0.59619 0.78665 -0.16041
vn -0.20832 0.93828 -0.27611
vn -0.22562 0.97408 0.01626
vn -0.22557 0.97387 0.02618
vn -0.22562 0.97405 0.01773
vn -0 1 -0
vn -0 1 -0
vn -0.08271 0.99313 -0.08282
vn 0 0.99654 -0.0831
vn -0 1 -0
vn -0.0478 0.71673 0.69571
vn -0 1 -0
vn 0 1 -0
vn 0 1 -0
vn 0 1 -0
vn -0.57353 0.58491 0.57353
vn -0 1 -0
vn 0.15155 0.97823 -0.1418
vn 0.00986 0.98961 -0.14345
vn 0 1 -0
vn 0 1 -0
vn -0.15474 0.98795 0
vn 0.24646 0.62111 0.74396
vn 0.37248 0.77566 0.50952
vn -0.28059 0.70712 0.64904
vn -0.27623 0.61004 0.74266
vn -0.35737 0.90058 0.24747
vn -0.50917 0.61404 0.60307
vn -0 0.45439 0.8908
vn -0.16456 0.95956 0.22841
vn 0 0.97411 0.22607
vn -0.3642 0.40412 0.83907
vn -0.04998 0.96715 0.24926
vn 0.00076 0.96539 0.26079
vn -0.18027 0.93584 0.30283
vn -0.57108 0.7443 0.34623
vn -0.28565 0.88479 -0.36817
vn -0.16977 0.98541 0.01214
vn -0.34978 0.93661 0.02022
vn -0.32554 0.87082 -0.36837
vn -0.33078 0.8714 -0.36228
vn -0.32535 0.8708 -0.36859
vn -0.46381 0.82606 -0.32015
vn -0.5936 0.78707 0.16781
vn -0.16404 0.98326 0.07931
vn -0.08294 0.99461 -0.06224
vn 0 1 -0
vn 0 1 -0
vn 0.10705 0.98839 -0.10778
vn 0.02214 0.99397 -0.1074
vn 0 1 -0
vn 0.22597 0.97043 -0.08485
vn 0.37134 0.89221 -0.25702
vn 0.36284 0.84452 -0.39388
vn 0.29256 0.88468 -0.36298
vn -0.02414 0.85752 -0.51389
vn -0.07868 0.80717 -0.58505
vn 0.28331 0.95753 -0.05363
vn 0.29362 0.9463 0.13529
vn -0.04687 0.98202 0.18285
vn -0.29946 0.86868 0.39461
vn -0.14544 0.90285 0.40461
vn -0.17551 0.96651 0.18721
vn -0.39922 0.82161 0.4069
vn -0.13407 0.95815 0.25294
vn -0.35935 0.93076 -0.06753
vn -0.3006 0.83052 0.46891
vn 0.13981 0.85232 0.50399
vn -0 1 -0
vn -0 1 -0
vn -0 1 -0
vn -0 1 -0
vn 0.05715 0.86298 0.50199
vn -0.03839 0.87912 0.47506
vn -0.71216 0.69883 0.06674
vn 0 1 -0
vn 0 1 -0
vn 0 1 -0
vn -0.22368 0.84821 0.48011
vn -0.02696 0.99441 0.10205
vn 0.27387 0.91551 -0.29468
vn 0.01256 0.98098 -0.19371
vn -0.10089 0.98643 0.12954
vn 0.21789 0.96112 -0.16963
vn 0.31505 0.78285 -0.53656
vn 0.30793 0.77133 -0.55698
vn 0.3916 0.73673 -0.55126
vn 0.43292 0.7473 -0.5041
vn 0.54991 0.55772 -0.62173
vn 0.31098 0.66703 -0.67702
vn 0.31498 0.67399 -0.66822
vn 0.31311 0.67073 -0.67237
vn 0.39867 0.59031 -0.70186
vn -0.24241 0.68689 -0.68514
vn -0.24186 0.68677 -0.68546
vn -0.24771 0.68809 -0.68203
vn -0.3733 0.65711 -0.65486
vn 0.13019 0.98792 0.08404
vn 0.22378 0.97047 0.09
vn -0.17857 0.98081 -0.07829
vn 0.30332 0.8751 0.3771
vn -0.20474 0.91097 0.35808
vn -0.24154 0.96714 -0.07938
vn -0.37184 0.92186 0.10916
vn -0.32034 0.89301 0.31609
vn -0.31625 0.93715 0.14742
vn -0.32605 0.94517 -0.01882
vn -0.32707 0.94482 -0.01828
vn -0.32083 0.94689 -0.02155
vn 0 1 -0
vn -0 1 -0
vn 0 1 -0
vn 0.71112 0.70297 -0.0114
vn 0.71117 0.70302 -0.00204
vn 0.71114 0.70299 -0.00955
vn 0.70481 0.70928 0.013
vn -0.72067 0.69309 0.01574
vn 0 0.75004 -0.66139
vn 0 0.75004 -0.66139
vn 0 0.75004 -0.66139
vn 0 0.75004 -0.66139
vn 0 1 -0
vn 0 1 -0
vn 0.51738 0.82127 -0.24047
vn 0.50125 0.86341 0.05712
vn 0.29759 0.95468 0.00555
vn 0.29749 0.95471 0.00565
vn 0.29904 0.95424 0.00345
vn 0.36558 0.8392 -0.40261
vn 0.28814 0.89769 -0.33335
vn 0.32993 0.94379 -0.02024
vn 0.70676 0.70167 -0.09029
vn 0.70308 0.61979 -0.34863
vn 0.71367 0.5774 -0.3966
vn 0.75459 0.65604 -0.01407
vn 0.50499 0.863 -0.01497
vn 0.54863 0.63088 -0.54863
vn -0.20353 0.63865 -0.7421
vn -0.20189 0.9413 -0.27055
vn -0.75638 0.65144 0.05928
vn -0.71876 0.69122 -0.07483
vn 0.42375 0.9048 -0.04217
vn -0.57269 0.75899 0.30979
vn -0.17993 0.95734 0.2261
vn -0.25464 0.89866 0.35716
vn -0 0.99428 0.1068
vn 0 1 -0
vn 0 1 -0
vn 0 1 -0
vn 0.68594 0.67808 -0.26401
vn -0.1457 0.9771 0.15505
vn 0 0.75004 -0.66139
vn 0 0.75004 -0.66139
vn 0 0.75004 -0.66139
vn -0 0.75004 0.66139
vn -0 0.75004 0.66139
vn -0 0.75004 0.66139
vn -0.56557 0.60023 0.56557
vn 0.5883 0.59226 -0.55057
vn 0 0.75004 0.66139
vn 0 0.75004 0.66139
vn 0 1 -0
vn 0 1 -0
vn -0.75358 0.51375 0.41009
vn 0.42088 0.89563 0.14388
vn 0 0.9627 0.27057
vn 0.287 0.84345 0.45412
vn 0.30327 0.95275 0.01728
vn 0.39848 0.91529 -0.05889
vn 0.35513 0.86771 0.3478
vn 0.59555 0.76501 0.24513
vn 0.66329 0.69816 -0.2695
vn 0.66525 0.74508 -0.04794
vn 0.4342 0.80003 0.41403
vn 0.52451 0.70401 0.47882
vn 0.53482 0.84441 -0.03047
vn -0.20858 0.97778 -0.02121
vn -0.20744 0.97799 -0.02268
vn -0.20861 0.97777 -0.02118
vn -0.36068 0.54253 0.75866
vn 0.97415 -0.22591 0
vn 0.94591 -0.07643 -0.3153
vn 0.84369 -0.0876 -0.52963
vn 0.94532 -0.17176 -0.27725
vn 0.30607 -0.25145 -0.9182
vn 0 -0.43217 -0.90179
vn 0.3251 -0.11509 -0.93865
vn 0.57489 -0.03997 -0.81726
vn 0 -0.48037 -0.87706
vn -0.11143 -0.23668 -0.96518
vn 0.11217 -0.20847 -0.97158
vn 0 -0.26413 -0.96449
vn 0 -0.0683 -0.99766
vn -0.45424 -0.10842 -0.88426
vn -0.32075 -0.19871 -0.92609
vn 0 0 -1
vn -0.0047 0.28419 -0.95876
vn -0.00489 0.28398 -0.95882
vn -0.00015 0.28931 -0.95724
vn -0.20224 0.1239 -0.97147
vn 0 0 -1
vn 0 0 -1
vn 0 -0 -1
vn -0.0448 0.30594 -0.951
vn -0.01452 0.28923 -0.95715
vn 0 0 -1
vn 0 0 -1
vn 0 0.35345 -0.93545
vn -0.44744 0.46906 -0.76143
vn -0.10294 0.34282 -0.93374
vn -0.64764 0.71322 -0.2681
vn -0.63127 0.75102 0.19354
vn -0.60824 0.72691 0.31882
vn -0.67053 0.72419 -0.16102
vn -0.21224 0.56278 0.7989
vn -0.30805 0.72524 0.61574
vn -0.26126 0.54378 0.79753
vn -0.34155 0.74087 0.57832
vn -0.64082 0.67997 0.35637
vn -0.69932 0.66685 0.25741
vn -0.73634 0.63043 0.24566
vn -0.71066 0.67281 0.20564
vn -0.21661 0.37658 0.90071
vn -0.37838 0.45971 0.80343
vn -0.3933 0.39642 0.82956
vn -0.53658 0.63371 0.55723
vn -0.78951 0.34217 0.5095
vn -0.90066 0.43205 0.04623
vn -0.98039 0.19084 0.04918
vn -0.91341 0.28641 0.28923
vn -0.89416 0.44748 0.01556
vn -0.7127 0.59123 -0.37749
vn -0.95382 0.2203 -0.20419
vn -0.9761 0.21657 0.01785
vn -0.97634 0.21545 0.01851
vn -0.97454 0.2238 0.0136
vn -0.39489 0.45585 -0.79766
vn -0.23161 0.57876 -0.78191
vn -0.4346 0.40619 -0.80382
vn -0.33507 0.40326 -0.85153
vn -0.81091 0.54008 -0.22527
vn -0.85216 0.448 0.27039
vn -0.85278 0.44975 0.26551
vn -0.71091 0.60188 -0.3638
vn -0.51268 0.42505 0.74598
vn -0.31625 0.51258 0.79828
vn -0.28249 0.62496 0.72775
vn -0.61358 0.58557 0.52975
vn -0.10522 0.5418 0.8339
vn -0.10594 0.54238 0.83343
vn -0.10524 0.54182 0.83388
vn 0.09697 0.51478 0.85182
vn -0.01493 0.66345 0.74807
vn -0.12942 0.66954 0.73142
vn 0.30678 0.38825 0.86899
vn -0.11958 0.51686 0.84767
vn -0.17721 0.47365 0.8627
vn 0.03443 0.61414 0.78845
vn -0.83113 0.49625 0.2509
vn -0.74121 0.64157 -0.19746
vn -0.85056 0.5165 0.0989
vn -0.86531 0.37845 0.32865
vn -0.70092 0.71085 -0.05835
vn -0.65509 0.71868 0.23314
vn -0.62519 0.70615 0.3324
vn -0.72964 0.6799 0.0732
vn -0.18338 0.46557 0.86581
vn -0.29745 0.59933 0.74319
vn -0.26778 0.46308 0.8449
vn -0.356 0.69257 0.62738
vn -0.74109 0.43811 0.50878
vn -0.85537 0.39237 0.33822
vn -0.87031 0.34247 0.35395
vn -0.86813 0.34161 0.36008
vn -0.86989 0.34231 0.35512
vn -0.85175 0.46306 0.24515
vn 0 0 1
vn 0.31623 0 0.94868
vn 0.31623 0 0.94868
vn 0.31623 0 0.94868
vn 0.32113 0.32374 0.88998
vn -0.53545 0.4763 0.69745
vn 0.94868 0 0.31623
vn 0.94868 0 0.31623
vn 0.94868 0 0.31623
vn 0.99124 0 0.13209
vn 0.99124 0 0.13209
vn 0.99124 0 0.13209
vn 0.94113 0.31828 0.11387
vn 0.73869 0.46372 0.48919
vn 0.92855 0 0.37121
vn 0.92855 0 0.37121
vn 0.92855 0 0.37121
vn 0.96627 -0 0.25753
vn 0.96627 -0 0.25753
vn 0.96627 -0 0.25753
vn 0.9046 0.36201 0.22506
vn 0.89162 0.31607 0.32421
vn 0.96627 -0 -0.25753
vn 0.96627 0 -0.25753
vn 0.96627 -0 -0.25753
vn 0.92855 0 -0.37121
vn 0.92855 0 -0.37121
vn 0.92855 0 -0.37121
vn 0.9181 0.34478 -0.19549
vn 0.90183 0.38016 -0.20537
vn 0.89883 -0.42161 -0.11978
vn 0.88466 -0.46625 0
vn 0.89899 0.41556 0.13828
vn 0.97564 0.19756 0.09535
vn 0.97415 -0.22591 0
vn 0.9266 -0.37604 0
vn 0.78053 -0.55432 -0.28895
vn 0.66616 0.2598 0.69909
vn 0.90718 -0.42075 0
vn 0.72352 -0.69031 0
vn 0.72352 -0.69031 0
vn 0.72352 -0.69031 0
vn 0.96684 -0.25096 -0.04726
vn 0.966 -0.25075 0.06296
vn 0.966 -0.25075 0.06296
vn 0.966 -0.25075 0.06296
vn 0.72352 -0.69031 0
vn 0.72352 -0.69031 0
vn 0.9266 -0.37604 0
vn 0.96987 0.22441 -0.09482
vn 0.97685 0.21335 -0.01592
vn 0.22778 0.72544 -0.6495
vn -0.27762 0.6634 -0.69485
vn -0.12 0.73575 -0.66654
vn 0.28855 0.7505 -0.59455
vn -1 0 -0
vn -0.99744 -0.07145 -0
vn -0.80341 0.40789 -0.43377
vn -0.46786 0.68085 -0.56352
vn -0.96526 -0.26127 0
vn -0.90374 -0.42809 0
vn -0.94768 -0.14082 -0.28647
vn -0.90294 0.08642 -0.421
vn -0.71123 -0.70296 0
vn -0.73567 -0.67734 0
vn -0.99257 0.09869 0.07115
vn -0.99257 0.0989 0.07091
vn -0.99257 0.09864 0.0712
vn -0.96295 -0.22421 -0.14986
vn -0.96526 -0.26127 0
vn -0.9343 -0.17345 0.31143
vn -0.82462 -0.19604 0.53063
vn -0.83086 -0.19626 0.52073
vn -0.82566 -0.19608 0.52899
vn -0.95352 0.0896 0.28771
vn -0.26311 -0.55476 0.78932
vn 0 -0.54633 0.83757
vn 0.08464 0.08543 0.99274
vn -0.35049 -0.1619 0.92247
vn 0 -0.19823 0.98016
vn 0 -0.0505 0.99872
vn 0.40209 -0.08257 0.91187
vn 0.24644 0.10472 0.96348
vn -0 0.21708 0.97615
vn 0.38862 0.26193 0.88338
vn 0.18718 0.13224 0.97338
vn 0.71935 0.34292 0.6041
vn 0.81889 0.50105 0.27994
vn 0.8689 0.4925 0.04951
vn 0.7526 0.43764 0.492
vn 0.7518 0.43825 0.49268
vn 0.75293 0.43739 0.49171
vn 0.83203 0.54657 0.09481
vn 0.77976 0.55363 -0.29236
vn 0.71086 0.59507 -0.37494
vn 0.79242 0.60979 0.01505
vn 0.1955 0.31101 -0.93008
vn 0.3078 0.44369 -0.84166
vn 0.28563 0.34258 -0.89501
vn 0.36892 0.5276 -0.76521
vn 0.72934 0.35745 -0.58335
vn 0.82233 0.48037 -0.30498
vn 0.84841 0.2952 -0.43939
vn 0.84849 0.29524 -0.4392
vn 0.84853 0.29526 -0.43911
vn 0.84724 0.32914 -0.41696
vn 0.30952 0.37813 -0.87248
vn 0.5312 0.60193 -0.59625
vn 0.45926 0.25076 -0.85217
vn 0.48247 0.40776 -0.77521
vn 0.83622 0.4559 -0.30476
vn 0.81171 0.55687 -0.17611
vn 0.79711 0.44524 -0.40789
vn 0.88307 0.30594 -0.35581
vn -0.79279 0.29282 -0.53456
vn -0.85493 0.48817 -0.17546
vn -0.92651 0.36075 0.107
vn -0.86702 0.35995 -0.34456
vn -0.83188 0.5522 -0.05519
vn -0.99949 -0.03179 -0.00046
vn -0.77502 0.50559 -0.37909
vn -0.77502 0.50559 -0.37909
vn -0.77522 0.50523 -0.37919
vn -0.8648 0.49909 0.05498
vn -0.85206 0.52296 0.02246
vn -0.88122 0.4726 0.00978
vn -0.83532 0.54493 -0.0728
vn -0.77502 0.50559 0.37909
vn -0.77502 0.50559 0.37909
vn -0.77502 0.50559 0.37909
vn -0.91844 0.39502 -0.02073
vn -0.8937 0.36363 0.26281
vn -0.85602 0.46448 0.22692
vn -0.83116 0.51612 -0.20685
vn -0.22172 0.21177 0.95184
vn -0.39086 0.19055 0.90051
vn -0.45835 0.25052 0.85274
vn -0.52902 0.45956 0.7134
vn 0.4395 0.17795 0.88044
vn -0.43971 0.29387 0.8487
vn -0.23927 0.19236 0.95171
vn 0.46082 0.16413 0.87219
vn -0.8531 0.23887 0.46386
vn -0.87165 0.39189 0.29436
vn -0.81749 0.2289 0.52851
vn -0.87987 0.24601 0.40657
vn -0.87967 0.24169 0.4096
vn -0.87988 0.24623 0.40642
vn -0.23276 0.38035 0.89507
vn -0.23237 0.37972 0.89544
vn -0.23699 0.38727 0.89099
vn 0.34469 0.31215 0.8853
vn 0.32309 0.28947 0.90101
vn -0.31693 0.35827 0.87818
vn 0.99638 0 0.08507
vn 0.9936 -0.01131 0.11235
vn 0.92916 0.26017 0.26263
vn 0.65827 0.39031 0.6437
vn 0.69383 -0.02979 0.71952
vn 0.93704 -0.04023 -0.34689
vn 0.93704 -0.04023 -0.34689
vn 0.93704 -0.04023 -0.34689
vn 0.69894 0.57143 0.43007
vn 0.91114 0.21082 0.35408
vn 0.99697 0.04281 0.06498
vn 0.94353 -0.32807 -0.04612
vn 0.89015 0.15137 0.4298
vn 0.98383 0.16712 -0.06441
vn 0.9839 0.1661 -0.06598
vn 0.98389 0.16624 -0.06577
vn 0.98544 0.16925 -0.01605
vn 0.9436 -0.31797 -0.09225
vn 0.78522 0.14488 0.60203
vn 0.78316 0.16279 -0.60013
vn 0.95634 0.08212 -0.28048
vn 0.84652 0.03165 -0.53141
vn 0.90233 0.05951 -0.42692
vn 0.76504 0.09836 -0.63643
vn 0.57338 0.08266 -0.81511
vn 0.32277 0.16538 -0.93192
vn 0.05331 0.13846 -0.98893
vn 0.36349 0.03898 -0.93078
vn 0.36343 0.04308 -0.93063
vn 0.3635 0.03857 -0.9308
vn 0.11243 0.19751 -0.97383
vn -0.11295 0.17361 -0.97832
vn -0.22043 0.28015 -0.93431
vn -0.00111 0.24174 -0.97034
vn -0.32578 0.09539 -0.94062
vn -0.46403 0.12828 -0.87648
vn -0.56805 0.31802 -0.75907
vn -0.22316 0.36586 -0.90352
vn 0.39045 0.34713 -0.85267
vn -0.22179 0.35303 -0.90894
vn -0.27035 0.3831 -0.88326
vn 0.36853 0.38706 -0.84521
vn -0.89563 0.1322 -0.4247
vn -0.9408 -0.18856 -0.28169
vn -0.74969 0.42176 -0.50998
vn -0.60487 0.4756 -0.6387
vn -0.95273 -0.26569 -0.14738
vn -0.99666 -0.04002 0.0712
vn -0.81037 0.35498 -0.46614
vn -0.70188 0.48116 -0.52522
vn -0.95716 -0.02084 0.28881
vn -0.83935 0.06148 0.5401
vn -0.6133 -0.03543 0.78906
vn -0.9486 -0.13433 0.28655
vn -0.34937 -0.18004 0.91953
vn 0.08424 0.12949 0.988
vn 0.59043 0.15813 0.79145
vn 0.59044 0.15786 0.79149
vn 0.59039 0.15868 0.79136
vn -0.65166 0.12904 0.74745
vn 0.24716 0.07237 0.96627
vn 0.41084 0.12187 0.90353
vn 0.55576 0.28526 0.78087
vn 0.22837 0.28033 0.93234
vn 0.91691 0.23401 0.32328
vn 0.95284 0.30285 -0.01948
vn 0.95271 0.30282 -0.02532
vn 0.95282 0.30285 -0.02019
vn 0.96979 0.22758 -0.08785
vn 0.8933 0.3176 0.31805
vn 0.94496 0.32711 -0.00701
vn 0.91032 0.28281 -0.3022
vn 0.89974 0.25167 -0.35655
vn 0.96565 0.25774 -0.03316
vn 0.31855 0.23878 -0.91734
vn 0.51581 0.31954 -0.79488
vn 0.41937 0.22449 -0.87962
vn 0.58845 0.35681 -0.72554
vn 0.8759 0.21579 -0.43154
vn 0.91046 0.25327 -0.32698
vn 0.84534 0.22738 -0.48342
vn 0.89964 0.19273 -0.39181
vn -0.88616 0.33005 -0.32524
vn -0.94692 0.32076 0.02143
vn -0.95452 0.29814 0
vn -0.95452 0.29814 0
vn -0.95452 0.29814 0
vn -0.87688 0.35346 -0.32579
vn -0.94976 0.31292 0.0065
vn -0.94994 0.31236 0.00695
vn -0.94735 0.32021 0.00051
vn -0.91584 0.33255 0.22506
vn -0.90093 0.2814 0.33036
vn -0.95452 0.29814 0
vn -0.29965 0.25286 0.91993
vn -0.47592 0.31849 0.81979
vn -0.44892 0.23683 0.86162
vn -0.63272 0.38365 0.67266
vn -0.86062 0.24217 0.44799
vn -0.8437 0.42169 0.33218
vn -0.79764 0.22445 0.55982
vn -0.88543 0.1941 0.4223
vn -0.18398 0.37604 0.90815
vn 0.27859 0.36005 0.89037
vn 0.26782 0.35744 0.89471
vn -0.29905 0.34184 0.89091
vn 0.97842 0.1961 -0.06518
vn 0.8026 0.43031 0.41313
vn 0.76475 0.3835 0.51777
vn 0.53258 0.537 0.65421
vn 0.72579 -0.38267 -0.57166
vn 0.77457 0.21759 0.59388
vn 0.90347 -0.13617 -0.40644
vn 0.57251 0.07194 0.81674
vn 0.76561 -0.09057 -0.6369
vn 0.90372 -0.02174 -0.42757
vn 0.72589 -0.10214 -0.68018
vn 0.93564 -0.20081 -0.29027
vn 0.36342 0.04343 -0.93061
vn 0.05509 0.08549 -0.99481
vn -0.15799 -0 -0.98744
vn 0.26766 -0.00896 -0.96347
vn 0.26279 -0.00181 -0.96485
vn 0.26769 -0.00952 -0.96346
vn 0.00964 0.11567 -0.99324
vn -0.22236 0.21826 -0.95022
vn -0.52196 0.22607 -0.82246
vn -0.1901 0.09316 -0.97734
vn 0.29508 0.16703 -0.94076
vn -0.27977 0.15287 -0.94782
vn -0.3106 0.16402 -0.93628
vn 0.44332 0.2832 -0.85045
vn -0.83426 0.03652 -0.55016
vn -0.86008 0.15438 -0.48624
vn -0.93026 0.22431 -0.29036
vn -0.63685 0.2155 -0.74026
vn -0.94464 0.16838 0.28161
vn -0.61256 0.04112 0.78935
vn -0.68262 0.15281 0.71462
vn -0.94479 0.23974 0.22336
vn -0.63155 0.25858 0.73095
vn 0.59044 0.15779 0.7915
vn 0.44444 0.18094 0.87735
vn -0.31245 0.20794 0.9269
vn 0.93028 0.17583 0.32196
vn 0.98408 0.17737 -0.01141
vn 0.98432 0.17641 -0.00156
vn 0.9841 0.17738 -0.00947
vn 0.97142 0.23423 -0.03856
vn 0.88859 0.26738 0.3727
vn 0.9846 0.17476 -0.00375
vn 0.98456 0.17504 -0.00335
vn 0.93819 0.17361 -0.29943
vn 0.89381 0.22416 -0.38841
vn 0.96487 0.26151 0.02516
vn -0.93157 0.14591 -0.333
vn -0.98787 0.15515 0.00647
vn -0.98742 0.15808 0.00182
vn -0.98749 0.15767 0.00248
vn -0.97468 0.21433 0.06367
vn -0.90488 0.23646 -0.35395
vn -0.9856 0.16901 0.00584
vn -0.93525 0.18169 0.30379
vn -0.87294 0.2233 0.43372
vn -0.9682 0.24787 0.03399
vn -0.96795 0.24901 0.03256
vn -0.96798 0.2489 0.0327
vn -0.29987 0.18077 0.9367
vn -0.29226 0.17618 0.93997
vn -0.29345 0.1769 0.93946
vn 0.29043 0.14075 0.94649
vn 0.27348 0.16771 0.94714
vn -0.40793 0.2788 0.8694
vn 0.55092 0.19109 0.81239
vn 0.91341 -0.05506 -0.4033
vn 0.89641 0.21163 0.38944
vn 0.89194 0.21559 0.39744
vn 0.8924 0.21519 0.39662
vn 0.56263 0.20268 0.80148
vn 0.9559 -0.03685 -0.29138
vn 0.72848 -0.0072 -0.68503
vn 0.64762 0.12944 -0.75089
vn 0.94411 0.22263 -0.24309
vn 0.26615 -0.00049 -0.96393
vn -0.17069 0.06578 -0.98313
vn -0.45637 0.16067 -0.87517
vn 0.29007 0.17616 -0.94065
vn 0.15365 0.97836 0.13857
vn 0.11872 0.78786 -0.60431
vn -0.7497 0.63319 -0.1924
vn -0.65441 0.71872 0.23493
vn -0.82683 0.56246 0
vn -0.80917 0.54475 -0.22021
vn -0.73726 0.62637 -0.2532
vn -0.74937 0.66215 0
vn -0.64865 0.73529 0.19646
vn -0.5181 0.84245 -0.14784
vn -0.65548 0.74385 -0.13053
vn -0.5786 0.78797 0.21053
vn -0.41498 0.90734 -0.06733
vn -0.41292 0.8199 -0.39657
vn -0.01609 0.93514 -0.35391
vn -0.07856 0.99683 -0.01275
vn -0.64185 0.75222 0.14899
vn -0.20376 0.97308 -0.10766
vn -0.14403 0.98357 -0.10882
vn -0.25088 0.94957 0.18808
vn -0.20917 0.89796 0.38719
vn -0.25564 0.96677 -0.00118
vn -0.43791 0.8989 0.01505
vn -0.34627 0.86839 0.35496
vn -0.13673 0.99057 0.00827
vn -0.28122 0.95964 -0
vn 0 1 -0
vn 0.2848 0.57407 0.76768
vn 0.21963 0.85437 0.47097
vn -0.57238 0.76722 0.28939
vn -0.42029 0.65982 0.62289
vn -0.70986 0.653 0.26397
vn -0.81836 0.5747 0
vn -0.72389 0.63963 0.25856
vn -0.4349 0.87499 -0.21273
vn -0.69529 0.71589 0.06376
vn -0.64933 0.75751 0.06747
vn -0.63422 0.70818 -0.31022
vn -0.46027 0.88633 0.05076
vn -0.40174 0.9155 -0.02173
vn 0.39759 0.91731 0.0215
vn 0.39836 0.91573 0.05244
vn -0.44763 0.86577 0.22377
vn -0.67695 0.73443 0.04849
vn -0.45582 0.88814 0.05864
vn -0.5364 0.81859 0.20539
vn -0.12052 0.99235 0.0268
vn -0.1863 0.95969 0.21046
vn -0.09526 0.97439 0.20367
vn -0 1 -0
vn 0.56629 0.55282 -0.61132
vn 0 0.73594 -0.67704
vn 0 0.73594 -0.67704
vn 0 0.73594 -0.67704
vn 0.22493 0.64291 0.73217
vn 0.20486 0.56389 0.80004
vn -0.36463 0.53644 0.7611
vn -0.24468 0.61965 0.74577
vn -0.12492 0.99217 0
vn -0.34377 0.87061 0.35193
vn -0.32962 0.8753 0.35383
vn -0.17536 0.9845 0
vn -0.42219 0.90293 -0.08042
vn -0.45925 0.85943 0.22464
vn -0.63422 0.70818 0.31022
vn -0.66567 0.7433 -0.0662
vn -0.71708 0.68693 0.11801
vn -0.59987 0.78854 0.13547
vn -0.35967 0.91961 0.15799
vn -0.67557 0.72665 0.12484
vn -0.22556 0.97383 0.02772
vn -0.23755 0.92658 0.2916
vn -0.14247 0.94724 0.28714
vn 0 1 -0
vn 0.72092 0.68734 -0.08859
vn -0.68081 0.73246 0
vn -0.56558 0.5896 0.57662
vn 0 0.73594 0.67704
vn -0.01253 0.68393 0.72944
vn 0.67704 0.73594 0
vn -0.53258 0.57891 0.61743
vn 0.4156 0.86545 0.27978
vn 0.38395 0.8805 0.27804
vn -0.07529 0.97252 0.22031
vn 0 0.97469 0.22357
vn -0.13526 0.86826 0.47731
vn -0 1 0
vn -0.154 0.98807 -0
vn -0.07781 0.87366 0.48028
vn -0.15418 0.97207 0.17697
vn -0.24994 0.93545 -0.24994
vn -0.6318 0.74886 -0.20008
vn -0.56287 0.81812 0.11771
vn -0.60869 0.79331 -0.01251
vn -0.78026 0.62443 0.03576
vn -0.74879 0.66172 0.03789
vn -0.76792 0.64053 0.00485
vn -0.30128 0.93601 -0.18199
vn -0.21674 0.97619 0.00888
vn 0 0.98162 -0.19085
vn -0.0831 0.99654 -0
vn -0 1 -0
vn 0.68841 0.72478 -0.0282
vn 0 1 -0
vn 0.1419 0.94012 -0.3099
vn 0 0.94973 -0.31306
vn 0.272 0.62788 0.72923
vn 0.30732 0.77446 0.55296
vn -0.12683 0.82098 0.55668
vn -0.25065 0.63165 0.73361
vn -0.17839 0.98235 0.05626
vn -0.32844 0.8277 0.45502
vn 0.23381 0.85202 0.46839
vn 0 0.99836 0.05718
vn -0.10305 0.93514 0.33897
vn -0 0.87631 0.48174
vn -0.24256 0.83495 0.49399
vn -0.0487 0.94245 0.33077
vn -0.04129 0.99094 0.12783
vn -0.18738 0.97273 -0.13671
vn -0.60356 0.79637 -0.03888
vn -0.30283 0.93802 0.16858
vn -0.36154 0.93169 0.03535
vn -0.32519 0.87078 -0.36877
vn -0.43561 0.82887 -0.35102
vn -0.48931 0.87148 0.03306
vn -0.09294 0.99565 0.00706
vn -0.16456 0.98637 -0
vn 0 1 -0
vn 0.10503 0.97935 -0.17277
vn -0 1 -0
vn 0.10019 0.99497 -0
vn 0.24214 0.95549 -0.16856
vn 0.4908 0.67461 -0.55138
vn 0.35394 0.82862 -0.43373
vn -0.09632 0.88185 -0.46159
vn -0.0144 0.7742 -0.63278
vn 0.22465 0.97422 0.02068
vn 0.28023 0.94712 0.15631
vn -0.11389 0.95779 0.26395
vn -0.0476 0.99717 0.05815
vn -0.21414 0.85746 0.46788
vn -0.15816 0.97315 0.16721
vn -0.166 0.97188 0.16699
vn -0.1568 0.97337 0.16724
vn -0.16739 0.97165 0.16695
vn -0.39234 0.80744 0.44059
vn -0.33211 0.93964 -0.08236
vn -0.19699 0.91072 0.36302
vn 0.16254 0.87269 0.46042
vn -0 1 -0
vn 0.45375 0.4728 -0.75536
vn 0.04214 0.8481 0.52816
vn -0.077 0.84633 0.52706
vn 0.06834 0.52932 -0.84566
vn -0.10251 0.92988 0.3533
vn -0.35274 0.83764 0.41706
vn 0.13521 0.9185 -0.37158
vn 0 1 -0
vn 0.10634 0.99403 -0.02424
vn 0.20455 0.90227 -0.37955
vn 0.35329 0.73196 -0.5826
vn 0.31044 0.80396 -0.50723
vn 0.40438 0.77351 -0.48801
vn 0.41966 0.71018 -0.56526
vn 0.39581 0.57809 -0.71355
vn 0.31515 0.67427 -0.66786
vn -0.24829 0.68822 -0.68169
vn -0.21041 0.6154 -0.75961
vn -0.63255 0.6083 0.47943
vn 0.12876 0.97709 0.16946
vn -0.32416 0.94034 0.10337
vn -0.13025 0.71538 0.68649
vn -0.22272 0.90018 0.37426
vn -0.21805 0.97022 -0.1055
vn -0.13778 0.98466 -0.10707
vn -0.35046 0.86886 0.34965
vn -0.14748 0.98902 0.00946
vn -0.31966 0.94727 -0.02216
vn 0.70473 0.70947 0
vn 0.71117 0.70302 0
vn -0.71305 0.70112 0
vn -0.72076 0.69318 -0
vn -0.82463 0.56219 -0.06265
vn 0 1 -0
vn 0.26154 0.96495 -0.02147
vn 0.53258 0.84541 0.04046
vn 0.30524 0.95228 -0
vn 0.28271 0.90727 -0.31135
vn 0.26798 0.91077 -0.31415
vn 0.30562 0.95215 -0
vn 0.68744 0.72358 -0.06207
vn 0.67786 0.67408 -0.29347
vn 0.67002 0.68063 -0.29632
vn 0.67846 0.67358 -0.29325
vn 0.66968 0.68092 -0.29645
vn 0.77629 0.62807 -0.05388
vn 0.53433 0.84364 -0.05258
vn 0.45081 0.77042 -0.45081
vn -0.39383 0.67396 -0.62504
vn -0.29819 0.93568 -0.18866
vn -0.19422 0.76051 -0.6196
vn -0.75761 0.6525 -0.01658
vn 0.32668 0.94248 0.07074
vn 0.34129 0.72873 -0.5937
vn 0 1 -0
vn 0 1 -0
vn -0.17892 0.95192 0.24868
vn -0.09046 0.96727 0.23707
vn 0 0.75004 0.66139
vn 0 0.75004 0.66139
vn 0.56708 0.56058 -0.60346
vn 0 0.75004 -0.66139
vn 0 1 -0
vn -0.57714 0.61251 0.54012
vn 0 0.75004 0.66139
vn 0 1 -0
vn 0.49882 0.85922 0.11368
vn 0.4218 0.89758 0.12817
vn 0.42024 0.84971 0.31842
vn 0.32332 0.94629 0
vn 0.3287 0.94444 0
vn 0.32213 0.9467 0
vn 0.32999 0.94398 0
vn 0.37751 0.86712 0.32494
vn 0.66628 0.73232 0.14064
vn 0.66025 0.73757 0.14165
vn 0.66745 0.73129 0.14045
vn 0.602 0.7733 -0.19901
vn 0.74413 0.64695 -0.16649
vn 0.65929 0.7384 0.14181
vn 0.68221 0.69413 0.22975
vn 0.59255 0.79533 -0.1278
vn -0.20966 0.97757 -0.01983
vn -0.1727 0.81424 0.55425
vn 0.91176 -0.37002 -0.17827
vn 0.86257 -0.20003 -0.46471
vn 0.87975 -0.03736 -0.47396
vn 0.97636 -0.10137 -0.1909
vn 0.50613 -0.08808 -0.85795
vn 0.21737 -0.25781 -0.94143
vn 0.22022 -0.20464 -0.95374
vn 0.5053 -0.10502 -0.85653
vn 0.06924 -0.43114 -0.89963
vn -0.06735 -0.47928 -0.87507
vn -0.07504 -0.2092 -0.97499
vn 0.07454 -0.2375 -0.96852
vn -0.20385 -0.4231 -0.88285
vn -0.21737 -0.25781 -0.94143
vn -0.22329 0.12238 -0.96704
vn -0.22339 -0.11862 -0.96748
vn -0.07656 -0.0681 -0.99474
vn 0 0.28948 -0.95718
vn -0.07369 0.27915 -0.95741
vn -0.02117 0.33982 -0.94025
vn 0 0.30624 -0.95195
vn -0.27371 0.077 -0.95872
vn -0.32363 0.62749 -0.70818
vn -0.06943 0.41377 -0.90773
vn -0.70206 0.67351 -0.23129
vn -0.65347 0.71963 0.23477
vn -0.55645 0.80647 0.1999
vn -0.6295 0.75231 -0.19431
vn -0.23262 0.61684 0.75193
vn -0.24259 0.57112 0.7842
vn -0.25171 0.52391 0.81373
vn -0.24879 0.53967 0.80428
vn -0.5712 0.79475 0.2052
vn -0.67227 0.71334 0.19801
vn -0.73107 0.64345 0.22697
vn -0.73282 0.62742 0.2633
vn -0.34316 0.59658 0.72549
vn -0.31073 0.37752 0.87231
vn -0.30766 0.3101 0.89955
vn -0.33469 0.39527 0.85542
vn -0.78139 0.49983 0.37363
vn -0.9154 0.39673 0.06816
vn -0.97584 0.21534 0.03699
vn -0.90892 0.17693 0.37757
vn -0.90135 0.43238 0.02476
vn -0.85985 0.43031 -0.27474
vn -0.89113 0.35115 -0.28735
vn -0.97427 0.22502 0.01289
vn -0.30108 0.5756 -0.76028
vn -0.31379 0.47111 -0.82437
vn -0.29914 0.58828 -0.75129
vn -0.31752 0.42768 -0.84633
vn -0.77624 0.58185 -0.24269
vn -0.81615 0.54357 0.19603
vn -0.8372 0.50665 0.2059
vn -0.85133 0.44899 -0.27139
vn -0.56497 0.53003 0.63236
vn -0.56406 0.5364 0.62779
vn -0.56523 0.52813 0.63371
vn -0.29874 0.49683 0.81481
vn -0.30746 0.64058 0.70365
vn -0.56382 0.53807 0.62657
vn -0.1045 0.54122 0.83436
vn 0.06247 0.54438 0.83651
vn 0.05872 0.61492 0.7864
vn -0.10694 0.65616 0.747
vn 0.18847 0.50666 0.84129
vn 0.00151 0.42796 0.9038
vn -0.00951 0.31635 0.9486
vn 0.19052 0.49035 0.85044
vn -0.82361 0.5289 0.20476
vn -0.87206 0.48195 -0.08501
vn -0.7314 0.68154 -0.02365
vn -0.83735 0.50848 0.20074
vn -0.75281 0.65815 -0.0106
vn -0.6745 0.68406 0.27768
vn -0.5929 0.76777 0.2429
vn -0.66289 0.74872 0.00036
vn -0.22107 0.56124 0.79758
vn -0.23364 0.47077 0.85075
vn -0.23985 0.41479 0.87774
vn -0.23521 0.45758 0.85749
vn -0.68631 0.67011 0.28272
vn -0.8348 0.4935 0.24407
vn -0.8636 0.43325 0.25785
vn -0.86777 0.34147 0.36106
vn -0.36342 0.39659 0.843
vn 0.31623 0 0.94868
vn 0.20936 0.41368 0.88602
vn -0.35872 0.31909 0.87721
vn 0.94868 0 0.31623
vn 0.99124 0 0.13209
vn 0.93518 0.33151 0.12462
vn 0.89743 0.3035 0.32017
vn 0.92855 0 0.37121
vn 0.96627 0 0.25753
vn 0.89488 0.37723 0.2385
vn 0.8704 0.34833 0.34796
vn 0.96627 -0 -0.25753
vn 0.92855 0 -0.37121
vn 0.91256 0.18478 -0.36482
vn 0.90832 0.3411 -0.24209
vn 0.93037 0 0.36662
vn 0.90378 -0.42393 0.0589
vn 0.92994 0.36267 0.06061
vn 0.85468 0.39508 0.3368
vn 0.84884 -0.44737 -0.28164
vn 0.95695 -0.22192 0.18711
vn 0.95104 -0.24686 0.18595
vn 0.78702 -0.55893 -0.26113
vn 0.92492 -0.37536 0.06028
vn 0.8114 -0.37633 0.44723
vn 0.86018 0.18787 0.47412
vn 0.966 -0.25075 0.06296
vn 0.66079 -0.63046 -0.40729
vn 0.84128 -0.15286 -0.51854
vn 0.97426 0.22543 0
vn 0.23658 0.73557 -0.63479
vn -0.18642 0.73197 -0.65534
vn -0.20689 0.68438 -0.69915
vn 0.24287 0.71891 -0.65129
vn -0.75739 0.55433 -0.34508
vn -0.99759 0.01029 -0.06859
vn -0.98583 0.1419 -0.08945
vn -0.84634 0.41033 -0.33961
vn -0.977 -0.09624 -0.19026
vn -0.94045 -0.27929 -0.19377
vn -0.95476 -0.22301 -0.19672
vn -0.9726 -0.13797 -0.18711
vn -0.80229 -0.39433 -0.44815
vn -0.71029 -0.70204 0.05113
vn -0.99258 0.09843 0.07145
vn -0.86975 0.08666 -0.48583
vn -0.65987 -0.62838 0.41196
vn -0.84183 -0.31631 0.43734
vn -0.8818 -0.11216 0.4581
vn -0.83176 -0.19629 0.51928
vn -0.58442 -0.3056 0.75171
vn 0.04645 -0.5744 0.81726
vn 0.05642 0.10788 0.99256
vn -0.61237 0.06778 0.78766
vn 0.39016 -0.50303 0.77119
vn 0.16485 -0.19552 0.96675
vn 0.16661 0.13274 0.97705
vn 0.44997 -0.08054 0.88941
vn 0.05668 -0.05042 0.99712
vn 0.28969 0 0.95712
vn 0.26825 0.37757 0.88627
vn 0.05442 0.28385 0.95732
vn 0.81815 0.24259 0.52133
vn 0.88416 0.42149 0.2015
vn 0.77989 0.60015 0.17774
vn 0.76088 0.43127 0.48484
vn 0.85121 0.52082 0.06466
vn 0.78557 0.51605 -0.34143
vn 0.70105 0.64474 -0.30469
vn 0.7655 0.64081 0.05815
vn 0.23023 0.36873 -0.90057
vn 0.21732 0.31327 -0.92446
vn 0.22344 0.26711 -0.93741
vn 0.23347 0.33389 -0.91324
vn 0.72048 0.53574 -0.44032
vn 0.83789 0.41066 -0.35959
vn 0.82718 0.43084 -0.36075
vn 0.84861 0.2953 -0.43893
vn 0.34975 0.46858 -0.81124
vn 0.42992 0.35903 -0.82841
vn 0.44829 0.23377 -0.86278
vn 0.39897 0.25885 -0.87967
vn 0.79928 0.55465 -0.23132
vn 0.85035 0.4602 -0.2552
vn 0.75349 0.61657 -0.22824
vn 0.86047 0.44532 -0.24756
vn -0.90264 0.17308 -0.39406
vn -0.9364 0.34586 -0.05953
vn -0.86609 0.49984 -0.00698
vn -0.88027 0.34275 -0.32809
vn -0.8684 0.49586 -0.00281
vn -0.77197 0.51135 -0.3776
vn -0.77155 0.51214 -0.37739
vn -0.83754 0.54637 0.00336
vn -0.89793 -0.02856 0.43921
vn -0.85091 0.52324 -0.0466
vn -0.84902 0.52627 -0.04687
vn -0.85135 0.52253 -0.04654
vn -0.8486 0.52695 -0.04693
vn -0.77502 0.50559 0.37909
vn -0.8739 0.46964 -0.12548
vn -0.87231 0.47238 -0.12621
vn -0.87432 0.4689 -0.12528
vn -0.89493 0.38491 0.22572
vn -0.85322 0.49295 0.17033
vn -0.87189 0.4731 -0.1264
vn -0.27885 0.26635 0.92266
vn -0.41131 0.215 0.88578
vn -0.41292 0.19682 0.88925
vn -0.27835 0.2418 0.92955
vn 0.44918 0.16902 0.87731
vn 0.44865 0.17559 0.87629
vn 0.44929 0.16754 0.87753
vn -0.28421 0.18994 0.93976
vn -0.2774 0.22301 0.93451
vn 0.44853 0.17707 0.87605
vn -0.85919 0.29183 0.42027
vn -0.87989 0.24637 0.40632
vn -0.81303 0.37679 0.44386
vn -0.87989 0.24637 0.40632
vn -0.23749 0.38808 0.8905
vn 0.22667 0.42644 0.87565
vn 0.24871 0.34579 0.90475
vn -0.26119 0.29526 0.91902
vn 0.86634 0.27677 0.41575
vn 0.99161 0 0.12926
vn 0.9545 0.22085 0.20041
vn 0.87989 0.24637 0.40632
vn 0.67742 -0.00771 0.73556
vn 0.93704 -0.04023 -0.34689
vn 0.92626 0.15637 -0.3429
vn 0.57139 0.46715 0.67475
vn 0.99697 -0.04281 -0.06498
vn 0.87777 0.03769 0.4776
vn 0.86411 0.17962 0.47016
vn 0.98382 0.1673 -0.06412
vn 0.75194 -0.26146 -0.60517
vn 0.82078 0.14097 0.55358
vn 0.82439 0.10599 0.55601
vn 0.77111 0.14228 -0.6206
vn 0.70923 -0.23899 -0.66324
vn 0.87786 0.07538 -0.47294
vn 0.87994 0.0311 -0.47406
vn 0.72955 0.04812 -0.68224
vn 0.50783 0.03273 -0.86083
vn 0.22389 0.09833 -0.96964
vn 0.21863 0.23589 -0.94687
vn 0.50445 0.11972 -0.8551
vn 0.07557 0.17423 -0.9818
vn -0.07522 0.19821 -0.97727
vn -0.07116 0.37438 -0.92454
vn 0.07352 0.28644 -0.95527
vn -0.22169 0.17038 -0.96012
vn -0.51838 0.08627 -0.85079
vn -0.5046 0.38611 -0.77221
vn -0.20829 0.37794 -0.9021
vn 0.34954 0.32252 -0.87966
vn -0.1963 0.36972 -0.90817
vn -0.16317 0.44407 -0.88101
vn 0.34475 0.37353 -0.86118
vn -0.79869 0.26176 -0.54183
vn -0.78609 0.12922 -0.60446
vn -0.66428 0.45711 -0.59143
vn -0.72204 0.4132 -0.5549
vn -0.94807 -0.19037 -0.25479
vn -0.89463 -0.24949 0.37066
vn -0.91634 -0.12724 0.37965
vn -0.87866 0.3849 -0.2825
vn -0.95188 -0.03379 0.30459
vn -0.79691 0.00988 0.60402
vn -0.79262 0.10405 0.60077
vn -0.94262 -0.14311 0.30163
vn -0.67622 0.08835 0.73138
vn 0.49558 -0.16689 0.85238
vn 0.48647 0.25157 0.8367
vn -0.67163 0.14566 0.72642
vn 0.16671 0.12813 0.97765
vn 0.49367 0.06495 0.86722
vn 0.48771 0.35568 0.79727
vn 0.15815 0.33882 0.92746
vn 0.95495 0.17401 0.24039
vn 0.96673 0.24773 -0.06375
vn 0.96433 0.25634 -0.06597
vn 0.96699 0.24679 -0.06351
vn 0.96406 0.25731 -0.06622
vn 0.94903 0.22271 0.22302
vn 0.9527 0.30281 -0.02598
vn 0.91037 0.31585 -0.26733
vn 0.90955 0.31869 -0.26673
vn 0.91056 0.3152 -0.26747
vn 0.90937 0.31933 -0.2666
vn 0.96278 0.2693 -0.0231
vn 0.39123 0.29252 -0.87257
vn 0.37668 0.23335 -0.89647
vn 0.37504 0.20051 -0.90507
vn 0.37764 0.22898 -0.8972
vn 0.88427 0.28175 -0.37241
vn 0.90714 0.2181 -0.3599
vn 0.85944 0.32645 -0.39343
vn 0.90566 0.22866 -0.35705
vn -0.92401 0.27235 -0.26838
vn -0.93711 0.34903 0
vn -0.9204 0.28748 -0.26498
vn -0.94713 0.32084 0
vn -0.91684 0.30148 0.26175
vn -0.90578 0.34039 0.2524
vn -0.95452 0.29814 0
vn -0.43425 0.36643 0.8229
vn -0.36823 0.24641 0.89649
vn -0.358 0.18886 0.91442
vn -0.40051 0.24285 0.88352
vn -0.86838 0.30882 0.38801
vn -0.85041 0.2393 0.46855
vn -0.79736 0.34482 0.49529
vn -0.8915 0.25086 0.37722
vn -0.19046 0.38929 0.90121
vn 0.18858 0.44972 0.87303
vn 0.20156 0.39829 0.89484
vn -0.21869 0.24997 0.94323
vn 0.81264 0.4681 0.34713
vn 0.97979 0.19637 -0.03814
vn 0.99014 0.12443 -0.06434
vn 0.84348 0.42298 0.33109
vn 0.66206 0.35495 0.66007
vn 0.79095 -0.41702 -0.44777
vn 0.85543 -0.1836 -0.48428
vn 0.73245 -0.11039 0.67181
vn 0.94958 0.26675 -0.16476
vn 0.82286 -0.09734 -0.55984
vn 0.82643 -0.02938 -0.56227
vn 0.97594 -0.13732 -0.16934
vn 0.28627 0.00246 -0.95815
vn 0.28627 0.00033 -0.95815
vn 0.28627 0.00271 -0.95815
vn -0.00509 0.04662 -0.9989
vn -0.01035 0.09489 -0.99543
vn 0.28627 0 -0.95815
vn -0.02802 0.08558 -0.99594
vn -0.35651 0.10807 -0.92802
vn -0.43492 0.3692 -0.8213
vn -0.08644 0.26404 -0.96063
vn 0.31129 0.17607 -0.93386
vn -0.25575 0.169 -0.95186
vn -0.25124 0.21159 -0.94451
vn 0.30997 0.19801 -0.9299
vn -0.71412 0.14226 -0.68542
vn -0.95713 0.0419 -0.2866
vn -0.92269 0.23413 -0.30632
vn -0.7078 0.17067 -0.68549
vn -0.94718 0.17596 0.26811
vn -0.72402 0.14237 0.67493
vn -0.71398 0.20356 0.66992
vn -0.94108 0.21067 0.26453
vn -0.26029 0.05004 0.96423
vn 0.35781 0.31143 0.88033
vn 0.3522 0.24906 0.90218
vn -0.23955 0.15942 0.95771
vn 0.93907 0.16475 0.30167
vn 0.9826 0.18572 0
vn 0.96518 0.26159 0
vn 0.9291 0.22403 0.29427
vn 0.93551 0.16605 -0.31184
vn 0.90998 0.2827 -0.30333
vn 0.96996 0.24326 0
vn -0.94436 0.13201 -0.30127
vn -0.98793 0.15474 0.00713
vn -0.9684 0.24913 0.01147
vn -0.93455 0.20551 -0.29048
vn -0.98719 0.15804 0.02184
vn -0.92745 0.15903 0.33845
vn -0.8903 0.2909 0.35036
vn -0.96824 0.24768 0.03422
vn -0.30094 0.18141 0.93623
vn 0.23482 0.17907 0.9554
vn 0.23122 0.19962 0.9522
vn -0.2983 0.20387 0.93245
vn 0.66376 0.11596 0.7389
vn 0.86202 0.29899 0.40931
vn 0.89662 0.21144 0.38906
vn 0.64929 0.15694 0.74417
vn 0.94103 -0.05673 -0.33353
vn 0.69862 -0.02693 -0.71499
vn 0.67838 0.17123 -0.71448
vn 0.93497 0.18687 -0.3015
vn 0.2619 -0.00259 -0.96509
vn -0.31623 0 -0.94868
vn -0.36883 0.22109 -0.90282
vn 0.22668 0.13766 -0.96419
usemtl mat0
f 1//1 2//2 3//3
f 2//4 4//4 5//4
f 6//5 7//5 3//5
f 7//6 8//6 9//6
f 10//7 11//8 12//9
f 11//10 13//10 14//10
f 15//11 16//11 12//11
f 16//12 17//12 18//13
f 19//14 20//14 21//14
f 20//15 22//15 23//15
f 24//16 25//16 21//16
f 25//17 26//17 27//17
f 28//18 29//18 30//18
f 29//19 31//19 32//19
f 33//20 34//20 30//20
f 34//21 35//21 36//21
f 35//22 34//22 37//22
f 34//23 33//23 38//23
f 39//24 40//24 37//24
f 40//25 41//25 42//25
f 41//26 40//26 43//26
f 40//27 39//27 44//27
f 45//28 46//28 43//28
f 46//29 47//29 48//29
f 49//30 50//30 51//30
f 50//31 52//31 53//31
f 54//32 55//33 51//34
f 55//33 56//35 57//35
f 56//35 55//33 58//36
f 55//33 54//32 59//37
f 60//38 61//39 58//36
f 61//39 62//40 63//41
f 64//42 65//42 66//42
f 65//43 1//43 9//43
f 8//44 67//44 66//44
f 67//45 68//45 69//45
f 70//46 71//46 72//46
f 71//47 10//47 18//47
f 17//12 73//48 72//49
f 73//50 74//50 75//50
f 76//51 77//51 78//51
f 77//52 19//52 27//52
f 26//53 79//53 78//53
f 79//54 80//55 81//56
f 82//57 83//57 84//57
f 83//58 28//58 36//58
f 35//59 85//60 84//61
f 85//62 86//62 87//62
f 86//63 85//63 88//63
f 85//64 35//64 42//64
f 41//65 89//65 88//65
f 89//66 90//67 91//68
f 92//69 93//69 94//69
f 93//70 95//70 96//70
f 49//71 97//71 94//71
f 97//72 98//33 99//73
f 98//33 97//72 100//37
f 97//74 49//74 57//74
f 56//35 101//75 100//37
f 101//76 102//77 103//78
f 102//77 101//76 104//79
f 101//75 56//35 63//41
f 62//40 105//80 104//81
f 105//82 106//83 107//84
f 108//85 109//86 110//87
f 109//88 111//88 112//88
f 70//89 113//89 110//89
f 113//90 114//90 115//90
f 116//91 117//91 118//91
f 117//92 119//92 120//92
f 76//93 121//93 118//93
f 121//94 122//94 123//94
f 122//95 121//95 124//95
f 121//96 76//96 81//96
f 80//97 125//98 124//97
f 125//99 126//99 127//99
f 128//100 129//100 130//100
f 129//101 82//102 87//103
f 86//104 131//104 130//104
f 131//105 132//105 133//105
f 134//106 135//106 136//106
f 135//107 137//107 138//107
f 92//108 139//108 136//108
f 139//109 140//110 141//111
f 140//110 139//109 142//112
f 139//113 92//113 99//113
f 98//114 143//115 142//116
f 143//117 144//118 145//119
f 144//120 143//120 146//120
f 143//115 98//114 103//121
f 102//122 147//123 146//124
f 147//125 148//126 149//127
f 148//128 147//129 150//130
f 147//123 102//122 107//131
f 106//83 151//132 150//133
f 151//134 152//135 153//136
f 154//137 155//137 156//137
f 155//138 157//138 158//138
f 116//139 159//139 156//139
f 159//140 160//140 161//140
f 160//141 159//141 162//141
f 159//142 116//142 123//142
f 122//143 163//143 162//143
f 163//144 164//144 165//144
f 164//145 163//145 166//145
f 163//146 122//146 127//146
f 126//147 167//147 166//147
f 167//148 168//148 169//148
f 170//149 171//149 172//149
f 171//150 128//150 133//150
f 132//151 173//151 172//151
f 173//152 174//152 175//152
f 176//153 177//153 178//153
f 177//154 134//155 141//156
f 140//110 179//157 178//158
f 179//159 180//159 181//159
f 180//160 179//160 182//160
f 179//157 140//110 145//161
f 144//162 183//162 182//162
f 183//163 184//164 185//165
f 184//164 183//163 186//166
f 183//167 144//167 149//167
f 148//126 187//168 186//166
f 187//169 188//169 189//169
f 188//170 187//170 190//170
f 187//168 148//126 153//136
f 152//135 191//171 190//172
f 191//173 192//173 193//173
f 194//174 195//174 196//174
f 195//175 154//175 161//175
f 160//176 197//176 196//176
f 197//177 198//177 199//177
f 200//178 201//178 202//178
f 201//179 203//179 204//179
f 205//180 206//180 202//180
f 206//181 207//181 208//181
f 207//182 206//182 209//182
f 206//183 205//183 210//183
f 170//184 211//184 209//184
f 211//185 212//185 213//185
f 212//186 211//186 214//186
f 211//187 170//187 175//187
f 174//188 215//188 214//188
f 215//189 216//189 217//189
f 216//190 215//190 218//190
f 215//191 174//192 219//193
f 220//194 221//194 218//194
f 221//195 222//195 223//195
f 224//196 225//196 226//196
f 225//197 180//197 185//197
f 184//164 227//198 226//199
f 227//200 228//200 229//200
f 228//201 227//201 230//201
f 227//198 184//164 189//202
f 188//203 231//203 230//203
f 231//204 232//204 233//204
f 234//205 235//205 236//205
f 235//206 237//206 238//206
f 239//207 240//207 236//207
f 240//208 241//208 242//208
f 243//209 244//209 245//209
f 244//210 246//210 247//210
f 200//211 248//211 245//211
f 248//212 249//212 250//212
f 249//213 248//213 251//213
f 248//214 200//214 208//214
f 207//215 252//215 251//215
f 252//216 253//216 254//216
f 255//217 256//217 257//217
f 256//218 258//218 259//218
f 260//219 261//219 257//219
f 261//220 262//221 263//222
f 262//221 261//220 264//223
f 261//224 260//224 265//224
f 266//225 267//225 264//225
f 267//226 268//226 269//226
f 268//227 267//228 270//229
f 267//230 266//230 271//230
f 224//231 272//231 270//231
f 272//232 273//232 274//232
f 273//233 272//233 275//233
f 272//234 224//234 229//234
f 228//235 276//235 275//235
f 276//236 277//236 278//236
f 279//237 280//237 281//237
f 280//238 282//238 283//238
f 234//239 284//239 281//239
f 284//240 285//240 286//240
f 287//241 288//242 289//243
f 288//244 290//244 291//244
f 292//245 293//246 289//247
f 293//248 294//248 295//248
f 296//249 297//249 298//249
f 297//250 243//250 250//250
f 249//251 299//251 298//251
f 299//252 300//252 301//252
f 300//253 299//253 302//253
f 299//254 249//254 254//254
f 253//255 303//255 302//255
f 303//256 304//256 305//256
f 306//257 307//257 308//257
f 307//258 255//259 263//260
f 262//221 309//261 308//262
f 309//261 310//263 311//171
f 310//264 309//265 312//266
f 309//267 262//267 269//267
f 268//268 313//268 312//268
f 313//269 314//270 315//271
f 314//270 313//269 316//272
f 313//273 268//227 274//274
f 273//275 317//275 316//275
f 317//276 318//276 319//276
f 320//277 321//278 322//279
f 321//280 323//280 324//280
f 279//281 325//281 322//281
f 325//282 326//282 327//282
f 328//283 329//283 330//283
f 329//284 331//284 332//284
f 287//285 333//285 330//285
f 333//286 334//286 335//286
f 336//287 337//287 338//287
f 337//288 339//288 340//288
f 341//289 342//289 338//289
f 342//290 343//290 344//290
f 345//291 346//291 347//291
f 346//292 296//292 301//292
f 300//293 348//293 347//293
f 348//294 349//294 350//294
f 351//295 352//295 353//295
f 352//296 354//296 355//296
f 306//297 356//297 353//297
f 356//298 357//299 358//300
f 357//301 356//301 359//301
f 356//302 306//302 311//302
f 310//303 360//304 359//305
f 360//306 361//307 362//308
f 361//309 360//309 363//309
f 360//310 310//310 315//310
f 314//311 364//311 363//312
f 364//37 365//313 366//314
f 365//313 364//37 367//75
f 364//315 314//315 319//315
f 318//316 368//316 367//316
f 368//317 369//317 370//317
f 371//318 372//318 373//318
f 372//319 320//319 327//319
f 326//320 374//320 373//320
f 374//321 375//321 376//321
f 377//322 378//322 379//322
f 378//323 328//323 335//323
f 334//324 380//324 379//324
f 380//325 381//325 382//325
f 383//326 384//326 385//326
f 384//327 336//327 344//327
f 343//328 386//329 385//330
f 386//331 387//331 388//331
f 389//332 390//332 391//332
f 390//333 392//333 393//333
f 394//334 395//334 391//334
f 395//335 396//335 397//335
f 392//336 398//336 399//336
f 398//337 400//337 401//337
f 402//338 403//338 399//338
f 403//339 394//339 393//339
f 400//340 404//340 405//340
f 404//337 406//337 407//337
f 408//341 409//341 405//341
f 409//342 402//342 401//342
f 406//343 410//343 411//343
f 410//344 412//344 413//344
f 31//345 414//345 411//345
f 414//346 408//346 407//346
f 412//347 415//347 416//347
f 415//347 417//347 418//347
f 33//348 32//349 416//350
f 32//351 31//351 413//351
f 417//347 419//352 420//347
f 419//352 421//353 422//354
f 39//355 38//355 420//355
f 38//356 33//356 418//356
f 421//353 423//357 424//358
f 423//359 52//359 425//359
f 45//360 44//360 424//360
f 44//361 39//361 422//361
f 52//362 50//362 426//362
f 50//363 49//363 427//363
f 47//364 46//364 426//364
f 46//365 45//365 425//365
f 49//366 96//366 428//366
f 96//367 95//367 429//367
f 41//368 48//368 428//368
f 48//369 47//369 427//369
f 95//370 93//370 430//370
f 93//371 92//371 431//371
f 90//372 89//372 430//372
f 89//373 41//373 429//373
f 92//374 138//374 432//374
f 138//375 137//375 433//375
f 86//376 91//376 432//376
f 91//377 90//377 431//377
f 137//378 135//378 434//378
f 135//379 134//379 435//379
f 132//380 131//380 434//380
f 131//381 86//381 433//381
f 134//382 177//382 436//382
f 177//383 176//383 437//383
f 174//384 173//384 436//384
f 173//385 132//386 435//387
f 176//388 181//388 438//388
f 181//389 180//389 439//389
f 220//390 219//390 438//390
f 219//391 174//391 437//391
f 180//392 225//392 440//392
f 225//393 224//393 441//393
f 222//394 221//394 440//394
f 221//395 220//395 439//395
f 224//396 271//396 442//396
f 271//397 266//397 443//397
f 216//398 223//398 442//398
f 223//399 222//399 441//399
f 266//400 265//401 444//402
f 265//403 260//403 445//403
f 212//404 217//404 444//404
f 217//405 216//405 443//405
f 260//406 259//406 446//406
f 259//407 258//407 447//407
f 207//408 213//408 446//408
f 213//409 212//409 445//409
f 258//410 256//410 448//410
f 256//411 255//411 449//411
f 253//412 252//412 448//412
f 252//413 207//413 447//413
f 255//414 307//414 450//414
f 307//415 306//415 451//415
f 304//416 303//416 450//416
f 303//417 253//417 449//417
f 306//418 355//418 452//418
f 355//419 354//419 453//419
f 300//420 305//420 452//420
f 305//421 304//421 451//421
f 354//422 352//422 454//422
f 352//423 351//423 455//423
f 349//424 348//425 454//426
f 348//427 300//427 453//427
f 351//428 456//428 457//428
f 456//429 458//430 459//431
f 345//432 350//432 457//432
f 350//433 349//433 455//433
f 458//434 460//435 461//436
f 460//437 462//438 463//439
f 296//440 346//440 461//440
f 346//441 345//441 459//441
f 462//442 464//443 465//444
f 464//445 466//446 467//447
f 243//448 297//448 465//448
f 297//449 296//449 463//449
f 466//450 468//451 469//452
f 468//453 470//454 471//455
f 246//456 244//456 469//456
f 244//457 243//457 467//457
f 470//458 472//458 473//458
f 472//459 474//459 475//459
f 476//460 477//460 473//460
f 477//461 246//461 471//461
f 474//462 478//462 479//462
f 478//463 480//463 481//463
f 482//464 483//464 479//464
f 483//465 476//465 475//465
f 480//466 484//466 485//466
f 484//467 486//468 487//469
f 488//470 489//470 485//470
f 489//471 482//472 481//473
f 486//468 490//474 491//475
f 490//476 389//476 397//476
f 396//477 492//477 491//477
f 492//478 488//478 487//478
f 188//479 193//479 493//479
f 193//480 192//480 494//480
f 239//481 238//481 493//481
f 238//482 237//482 495//482
f 192//483 496//483 497//483
f 496//484 498//484 499//484
f 241//485 240//485 497//485
f 240//486 239//486 494//486
f 498//487 500//487 501//487
f 500//488 502//488 503//488
f 504//489 505//489 501//489
f 505//490 241//490 499//490
f 502//491 506//491 507//491
f 506//492 508//492 509//492
f 510//493 511//494 507//495
f 511//496 504//496 503//496
f 508//497 512//497 513//497
f 512//498 514//498 515//498
f 516//499 517//500 513//501
f 517//502 510//502 509//502
f 514//503 518//503 519//503
f 518//504 520//504 521//504
f 522//505 523//505 519//505
f 523//506 516//506 515//506
f 520//507 524//507 525//507
f 524//508 526//508 527//508
f 375//509 528//509 525//509
f 528//510 522//510 521//510
f 526//428 529//428 530//428
f 529//511 369//511 531//511
f 371//512 376//512 530//512
f 376//513 375//513 527//513
f 369//514 368//514 532//514
f 368//515 318//515 533//515
f 320//516 372//516 532//516
f 372//517 371//518 531//519
f 318//520 317//520 534//520
f 317//521 273//521 535//521
f 323//522 321//522 534//522
f 321//523 320//523 533//523
f 273//524 278//524 536//524
f 278//525 277//525 537//525
f 279//526 324//526 536//526
f 324//527 323//527 535//527
f 277//528 276//528 538//528
f 276//529 228//529 539//529
f 282//530 280//531 538//532
f 280//533 279//533 537//533
f 228//534 233//534 540//534
f 233//535 232//535 541//535
f 234//536 283//536 540//536
f 283//537 282//537 539//537
f 232//538 231//538 542//538
f 231//539 188//539 495//539
f 237//540 235//540 542//540
f 235//541 234//541 541//541
f 31//542 29//542 543//542
f 29//543 28//543 544//543
f 26//544 25//544 543//544
f 25//545 24//545 545//545
f 28//546 83//546 546//546
f 83//547 82//547 547//547
f 80//548 79//549 546//550
f 79//551 26//551 544//551
f 82//552 129//552 548//552
f 129//553 128//553 549//553
f 126//554 125//554 548//554
f 125//555 80//556 547//557
f 128//558 171//558 550//558
f 171//559 170//559 551//559
f 168//560 167//560 550//560
f 167//561 126//561 549//561
f 170//562 210//562 552//562
f 210//563 205//563 553//563
f 164//564 169//564 552//564
f 169//565 168//565 551//565
f 205//566 204//566 554//566
f 204//567 203//567 555//567
f 160//568 165//568 554//568
f 165//569 164//569 553//569
f 203//570 201//570 556//570
f 201//571 200//571 557//571
f 198//572 197//572 556//572
f 197//573 160//574 555//575
f 200//576 247//577 558//578
f 247//579 246//579 559//579
f 194//580 199//580 558//580
f 199//581 198//581 557//581
f 246//582 477//582 560//582
f 477//583 476//583 561//583
f 154//584 195//584 560//584
f 195//585 194//585 559//585
f 476//586 483//586 562//586
f 483//587 482//588 563//589
f 157//590 155//590 562//590
f 155//591 154//591 561//591
f 482//592 489//592 564//592
f 489//593 488//593 565//593
f 566//594 567//594 564//594
f 567//595 157//596 563//597
f 488//598 492//598 568//598
f 492//599 396//599 569//599
f 570//600 571//600 568//600
f 571//601 566//601 565//601
f 396//602 395//602 572//602
f 395//603 394//603 573//603
f 574//604 575//604 572//604
f 575//605 570//605 569//605
f 394//606 403//606 576//606
f 403//607 402//607 577//607
f 578//608 579//608 576//608
f 579//609 574//610 573//611
f 402//612 409//612 580//612
f 409//613 408//613 581//613
f 22//614 582//614 580//614
f 582//615 578//615 577//615
f 408//616 414//616 583//616
f 414//617 31//617 545//617
f 24//618 23//618 583//618
f 23//619 22//619 581//619
f 234//620 242//620 584//620
f 242//621 241//621 585//621
f 292//622 291//622 584//622
f 291//623 290//623 586//623
f 241//624 505//624 587//624
f 505//625 504//625 588//625
f 294//626 293//626 587//626
f 293//627 292//627 585//627
f 504//628 511//628 589//628
f 511//629 510//629 590//629
f 591//630 592//630 589//630
f 592//631 294//631 588//631
f 510//632 517//632 593//632
f 517//633 516//633 594//633
f 595//634 596//634 593//634
f 596//635 591//635 590//635
f 516//636 523//636 597//636
f 523//637 522//637 598//637
f 381//638 599//639 597//640
f 599//641 595//641 594//641
f 522//642 528//642 600//642
f 528//643 375//643 601//643
f 377//644 382//644 600//644
f 382//645 381//645 598//645
f 375//646 374//646 602//646
f 374//647 326//648 603//649
f 328//650 378//650 602//650
f 378//651 377//651 601//651
f 326//652 325//652 604//652
f 325//653 279//653 605//653
f 331//654 329//654 604//654
f 329//655 328//655 603//655
f 279//656 286//656 606//656
f 286//657 285//657 607//657
f 287//658 332//658 606//658
f 332//659 331//659 605//659
f 285//660 284//660 608//660
f 284//661 234//661 586//661
f 290//662 288//662 608//662
f 288//663 287//663 607//663
f 22//664 20//664 609//664
f 20//665 19//665 610//665
f 17//666 16//667 609//668
f 16//669 15//669 611//669
f 19//670 77//671 612//672
f 77//673 76//673 613//673
f 74//674 73//674 612//674
f 73//667 17//666 610//675
f 76//676 120//676 614//676
f 120//677 119//677 615//677
f 70//678 75//678 614//678
f 75//679 74//679 613//679
f 119//680 117//680 616//680
f 117//681 116//681 617//681
f 114//682 113//682 616//682
f 113//683 70//683 615//683
f 116//684 158//684 618//684
f 158//685 157//685 619//685
f 108//686 115//686 618//686
f 115//687 114//687 617//687
f 157//688 567//688 620//688
f 567//689 566//689 621//689
f 111//690 109//690 620//690
f 109//691 108//691 619//691
f 566//692 571//692 622//692
f 571//693 570//693 623//693
f 624//694 625//694 622//694
f 625//695 111//695 621//695
f 570//696 575//696 626//696
f 575//697 574//697 627//697
f 628//698 629//698 626//698
f 629//699 624//699 623//699
f 574//610 579//609 630//700
f 579//701 578//701 631//701
f 13//702 632//702 630//702
f 632//703 628//704 627//705
f 578//706 582//706 633//706
f 582//707 22//707 611//707
f 15//708 14//708 633//708
f 14//709 13//709 631//709
f 287//710 295//710 634//710
f 295//711 294//711 635//711
f 341//712 340//712 634//712
f 340//713 339//713 636//713
f 294//714 592//714 637//714
f 592//715 591//715 638//715
f 343//716 342//716 637//716
f 342//717 341//717 635//717
f 591//718 596//718 639//718
f 596//719 595//719 640//719
f 387//720 386//720 639//720
f 386//721 343//721 638//721
f 595//722 599//722 641//722
f 599//639 381//638 642//723
f 383//724 388//724 641//724
f 388//725 387//725 640//725
f 381//726 380//726 643//726
f 380//727 334//728 644//729
f 336//730 384//730 643//730
f 384//731 383//731 642//731
f 334//728 333//732 645//733
f 333//734 287//734 636//734
f 339//735 337//735 645//735
f 337//736 336//736 644//736
f 13//737 11//737 646//737
f 11//738 10//739 647//740
f 8//741 7//741 646//741
f 7//742 6//742 648//742
f 10//743 71//743 649//743
f 71//744 70//744 650//744
f 68//745 67//745 649//745
f 67//746 8//747 647//748
f 70//749 112//750 651//751
f 112//752 111//752 652//752
f 64//753 69//753 651//753
f 69//754 68//754 650//754
f 111//755 625//755 653//755
f 625//756 624//756 654//756
f 1//757 65//758 653//759
f 65//760 64//760 652//760
f 624//761 629//761 655//761
f 629//762 628//762 656//762
f 4//763 2//763 655//763
f 2//764 1//764 654//764
f 628//704 632//703 657//765
f 632//766 13//766 648//766
f 6//767 5//767 657//767
f 5//768 4//768 656//768
f 3//3 9//769 1//1
f 5//770 3//770 2//770
f 3//771 5//771 6//771
f 9//772 3//772 7//772
f 12//9 18//773 10//7
f 14//774 12//774 11//774
f 12//775 14//775 15//775
f 18//13 12//776 16//12
f 21//777 27//777 19//777
f 23//778 21//778 20//778
f 21//779 23//779 24//779
f 27//780 21//780 25//780
f 30//781 36//781 28//781
f 32//782 30//782 29//782
f 30//783 32//783 33//783
f 36//784 30//784 34//784
f 37//785 42//785 35//785
f 38//786 37//786 34//786
f 37//787 38//787 39//787
f 42//788 37//788 40//788
f 43//789 48//789 41//789
f 44//790 43//790 40//790
f 43//791 44//791 45//791
f 48//792 43//792 46//792
f 51//793 57//793 49//793
f 53//794 51//794 50//794
f 51//34 53//795 54//32
f 57//35 51//34 55//33
f 58//36 63//41 56//35
f 59//37 58//36 55//33
f 58//36 59//37 60//38
f 63//41 58//36 61//39
f 66//796 69//796 64//796
f 9//797 66//797 65//797
f 66//798 9//798 8//798
f 69//799 66//799 67//799
f 72//800 75//800 70//800
f 18//801 72//801 71//801
f 72//49 18//13 17//12
f 75//802 72//802 73//802
f 78//803 81//803 76//803
f 27//804 78//804 77//804
f 78//805 27//805 26//805
f 81//56 78//806 79//54
f 84//807 87//103 82//102
f 36//808 84//808 83//808
f 84//61 36//809 35//59
f 87//810 84//810 85//810
f 88//811 91//811 86//811
f 42//812 88//812 85//812
f 88//813 42//813 41//813
f 91//68 88//814 89//66
f 94//815 99//815 92//815
f 96//816 94//816 93//816
f 94//817 96//817 49//817
f 99//73 94//818 97//72
f 100//819 103//819 98//819
f 57//35 100//37 97//72
f 100//37 57//35 56//35
f 103//78 100//820 101//76
f 104//79 107//821 102//77
f 63//41 104//81 101//75
f 104//81 63//41 62//40
f 107//821 104//79 105//822
f 110//87 115//823 108//85
f 112//824 110//824 109//824
f 110//825 112//825 70//825
f 115//826 110//826 113//826
f 118//827 123//827 116//827
f 120//828 118//828 117//828
f 118//829 120//829 76//829
f 123//830 118//830 121//830
f 124//831 127//831 122//831
f 81//832 124//832 121//832
f 124//97 81//833 80//97
f 127//834 124//834 125//834
f 130//835 133//835 128//835
f 87//836 130//836 129//836
f 130//837 87//837 86//837
f 133//838 130//838 131//838
f 136//839 141//156 134//155
f 138//840 136//840 135//840
f 136//841 138//841 92//841
f 141//111 136//842 139//109
f 142//112 145//161 140//110
f 99//73 142//112 139//109
f 142//112 99//73 98//33
f 145//843 142//843 143//843
f 146//844 149//844 144//844
f 103//845 146//845 143//845
f 146//124 103//846 102//122
f 149//127 146//171 147//125
f 150//847 153//847 148//847
f 107//848 150//130 147//129
f 150//133 107//84 106//83
f 153//849 150//849 151//849
f 156//850 161//850 154//850
f 158//851 156//851 155//851
f 156//852 158//852 116//852
f 161//853 156//853 159//853
f 162//854 165//854 160//854
f 123//855 162//855 159//855
f 162//856 123//856 122//856
f 165//857 162//857 163//857
f 166//858 169//858 164//858
f 127//859 166//859 163//859
f 166//860 127//860 126//860
f 169//861 166//861 167//861
f 172//862 175//862 170//862
f 133//863 172//863 171//863
f 172//864 133//864 132//864
f 175//865 172//865 173//865
f 178//866 181//866 176//866
f 141//867 178//867 177//867
f 178//158 141//111 140//110
f 181//868 178//868 179//868
f 182//869 185//869 180//869
f 145//161 182//870 179//157
f 182//871 145//119 144//118
f 185//165 182//872 183//163
f 186//166 189//202 184//164
f 149//127 186//166 183//163
f 186//166 149//127 148//126
f 189//202 186//166 187//168
f 190//873 193//873 188//873
f 153//136 190//172 187//168
f 190//172 153//136 152//135
f 193//874 190//874 191//874
f 196//875 199//875 194//875
f 161//876 196//876 195//876
f 196//877 161//877 160//877
f 199//878 196//878 197//878
f 202//879 208//879 200//879
f 204//880 202//880 201//880
f 202//881 204//881 205//881
f 208//882 202//882 206//882
f 209//883 213//883 207//883
f 210//884 209//884 206//884
f 209//885 210//885 170//885
f 213//886 209//886 211//886
f 214//887 217//887 212//887
f 175//888 214//888 211//888
f 214//889 175//889 174//889
f 217//890 214//890 215//890
f 218//891 223//891 216//891
f 219//193 218//892 215//191
f 218//893 219//893 220//893
f 223//894 218//894 221//894
f 226//895 229//895 224//895
f 185//896 226//896 225//896
f 226//199 185//165 184//164
f 229//897 226//199 227//198
f 230//898 233//898 228//898
f 189//202 230//899 227//198
f 230//900 189//900 188//900
f 233//901 230//901 231//901
f 236//902 242//902 234//902
f 238//903 236//903 235//903
f 236//904 238//904 239//904
f 242//905 236//905 240//905
f 245//906 250//906 243//906
f 247//907 245//907 244//907
f 245//908 247//908 200//908
f 250//909 245//909 248//909
f 251//910 254//910 249//910
f 208//911 251//912 248//913
f 251//912 208//911 207//914
f 254//915 251//915 252//915
f 257//916 263//916 255//916
f 259//917 257//917 256//917
f 257//918 259//918 260//918
f 263//222 257//919 261//220
f 264//920 269//920 262//920
f 265//921 264//921 261//921
f 264//922 265//922 266//922
f 269//923 264//923 267//923
f 270//229 274//274 268//227
f 271//924 270//924 267//924
f 270//925 271//925 224//925
f 274//274 270//229 272//33
f 275//926 278//926 273//926
f 229//927 275//927 272//927
f 275//928 229//928 228//928
f 278//929 275//929 276//929
f 281//930 286//930 279//930
f 283//931 281//931 280//931
f 281//932 283//932 234//932
f 286//933 281//933 284//933
f 289//934 295//934 287//934
f 291//935 289//243 288//242
f 289//247 291//936 292//245
f 295//937 289//937 293//937
f 298//938 301//938 296//938
f 250//939 298//939 297//939
f 298//940 250//940 249//940
f 301//941 298//941 299//941
f 302//942 305//942 300//942
f 254//943 302//943 299//943
f 302//944 254//944 253//944
f 305//945 302//945 303//945
f 308//946 311//946 306//946
f 263//260 308//947 307//258
f 308//262 263//222 262//221
f 311//171 308//262 309//261
f 312//948 315//948 310//948
f 269//949 312//266 309//265
f 312//950 269//950 268//950
f 315//951 312//951 313//951
f 316//952 319//952 314//952
f 274//274 316//953 313//273
f 316//954 274//954 273//954
f 319//955 316//955 317//955
f 322//279 327//956 320//277
f 324//957 322//957 321//957
f 322//958 324//958 279//958
f 327//956 322//279 325//959
f 330//960 335//960 328//960
f 332//961 330//962 329//963
f 330//962 332//961 287//964
f 335//965 330//965 333//965
f 338//966 344//966 336//966
f 340//967 338//967 337//967
f 338//968 340//968 341//968
f 344//969 338//969 342//969
f 347//970 350//970 345//970
f 301//971 347//971 346//971
f 347//972 301//972 300//972
f 350//973 347//973 348//973
f 353//974 358//300 351//975
f 355//976 353//976 352//976
f 353//977 355//977 306//977
f 358//300 353//974 356//298
f 359//978 362//308 357//979
f 311//980 359//980 356//980
f 359//305 311//981 310//303
f 362//308 359//978 360//306
f 363//982 366//314 361//299
f 315//983 363//983 360//983
f 363//312 315//984 314//311
f 366//314 363//982 364//37
f 367//75 370//171 365//313
f 319//985 367//75 364//37
f 367//986 319//986 318//986
f 370//987 367//987 368//987
f 373//988 376//988 371//988
f 327//989 373//990 372//991
f 373//990 327//989 326//992
f 376//993 373//993 374//993
f 379//994 382//995 377//996
f 335//997 379//997 378//997
f 379//998 335//998 334//998
f 382//995 379//994 380//999
f 385//1000 388//1000 383//1000
f 344//1001 385//1001 384//1001
f 385//330 344//1002 343//328
f 388//1003 385//1003 386//1003
f 391//1004 397//1004 389//1004
f 393//1005 391//1005 390//1005
f 391//1006 393//1006 394//1006
f 397//1007 391//1007 395//1007
f 399//1008 393//1008 392//1008
f 401//1009 399//1009 398//1009
f 399//1010 401//1010 402//1010
f 393//1011 399//1011 403//1011
f 405//1012 401//1012 400//1012
f 407//1013 405//1013 404//1013
f 405//1014 407//1014 408//1014
f 401//1015 405//1015 409//1015
f 411//1016 407//1016 406//1016
f 413//1017 411//1017 410//1017
f 411//1018 413//1018 31//1018
f 407//1019 411//1019 414//1019
f 416//1020 413//1020 412//1020
f 418//347 416//347 415//347
f 416//350 418//1021 33//348
f 413//1022 416//1022 32//1022
f 420//347 418//347 417//347
f 422//354 420//347 419//352
f 420//1023 422//1023 39//1023
f 418//1024 420//1024 38//1024
f 424//358 422//354 421//353
f 425//1025 424//1025 423//1025
f 424//1026 425//1026 45//1026
f 422//1027 424//1027 44//1027
f 426//1028 425//1028 52//1028
f 427//1029 426//1029 50//1029
f 426//1030 427//1030 47//1030
f 425//1031 426//1031 46//1031
f 428//1032 427//1032 49//1032
f 429//1033 428//1033 96//1033
f 428//1034 429//1034 41//1034
f 427//1035 428//1035 48//1035
f 430//1036 429//1036 95//1036
f 431//1037 430//1037 93//1037
f 430//1038 431//1038 90//1038
f 429//1039 430//1039 89//1039
f 432//1040 431//1040 92//1040
f 433//1041 432//1041 138//1041
f 432//1042 433//1042 86//1042
f 431//1043 432//1043 91//1043
f 434//1044 433//1044 137//1044
f 435//1045 434//1045 135//1045
f 434//1046 435//1046 132//1046
f 433//1047 434//1047 131//1047
f 436//1048 435//1048 134//1048
f 437//1049 436//1049 177//1049
f 436//1050 437//1050 174//1050
f 435//387 436//1051 173//385
f 438//1052 437//1052 176//1052
f 439//1053 438//1053 181//1053
f 438//1054 439//1054 220//1054
f 437//1055 438//1055 219//1055
f 440//1056 439//1056 180//1056
f 441//1057 440//1057 225//1057
f 440//1058 441//1058 222//1058
f 439//1059 440//1059 221//1059
f 442//1060 441//1061 224//1062
f 443//1063 442//1063 271//1063
f 442//1064 443//1064 216//1064
f 441//1061 442//1060 223//1065
f 444//402 443//1066 266//400
f 445//1067 444//1067 265//1067
f 444//1068 445//1068 212//1068
f 443//1069 444//1069 217//1069
f 446//1070 445//1070 260//1070
f 447//1071 446//1071 259//1071
f 446//1072 447//1072 207//1072
f 445//1073 446//1073 213//1073
f 448//1074 447//1074 258//1074
f 449//1075 448//1075 256//1075
f 448//1076 449//1076 253//1076
f 447//1077 448//1077 252//1077
f 450//1078 449//1078 255//1078
f 451//1079 450//1079 307//1079
f 450//1080 451//1080 304//1080
f 449//1081 450//1081 303//1081
f 452//1082 451//1082 306//1082
f 453//1083 452//1083 355//1083
f 452//1084 453//1084 300//1084
f 451//1085 452//1085 305//1085
f 454//1086 453//1086 354//1086
f 455//1087 454//1087 352//1087
f 454//1088 455//1088 349//1088
f 453//1089 454//426 348//425
f 457//1090 455//1090 351//1090
f 459//431 457//1091 456//429
f 457//1092 459//1092 345//1092
f 455//1093 457//1093 350//1093
f 461//436 459//1094 458//434
f 463//439 461//1095 460//437
f 461//1096 463//1096 296//1096
f 459//1097 461//1097 346//1097
f 465//444 463//1098 462//442
f 467//447 465//1099 464//445
f 465//1100 467//1100 243//1100
f 463//1101 465//1101 297//1101
f 469//452 467//1102 466//450
f 471//455 469//1103 468//453
f 469//1104 471//1104 246//1104
f 467//1105 469//1105 244//1105
f 473//1106 471//1106 470//1106
f 475//1107 473//1107 472//1107
f 473//1108 475//1108 476//1108
f 471//1109 473//1109 477//1109
f 479//1110 475//1110 474//1110
f 481//1111 479//1111 478//1111
f 479//1112 481//1112 482//1112
f 475//1113 479//1113 483//1113
f 485//1114 481//1114 480//1114
f 487//1115 485//1115 484//1115
f 485//1116 487//1116 488//1116
f 481//473 485//1117 489//471
f 491//475 487//469 486//468
f 397//1118 491//1118 490//1118
f 491//1119 397//1119 396//1119
f 487//1120 491//1120 492//1120
f 493//1121 495//1121 188//1121
f 494//1122 493//1122 193//1122
f 493//1123 494//1123 239//1123
f 495//1124 493//1124 238//1124
f 497//1125 494//1125 192//1125
f 499//1126 497//1126 496//1126
f 497//1127 499//1127 241//1127
f 494//1128 497//1128 240//1128
f 501//1129 499//1129 498//1129
f 503//1130 501//1130 500//1130
f 501//1131 503//1131 504//1131
f 499//1132 501//1132 505//1132
f 507//1133 503//1133 502//1133
f 509//1134 507//1134 506//1134
f 507//495 509//1135 510//493
f 503//1136 507//1136 511//1136
f 513//1137 509//1137 508//1137
f 515//1138 513//1138 512//1138
f 513//1139 515//1139 516//1139
f 509//1140 513//501 517//500
f 519//1141 515//1141 514//1141
f 521//1142 519//1142 518//1142
f 519//1143 521//1143 522//1143
f 515//1144 519//1144 523//1144
f 525//1145 521//1145 520//1145
f 527//1146 525//1146 524//1146
f 525//1147 527//1147 375//1147
f 521//1148 525//1148 528//1148
f 530//1149 527//1149 526//1149
f 531//1150 530//1150 529//1150
f 530//1151 531//1151 371//1151
f 527//1152 530//1152 376//1152
f 532//1153 531//1153 369//1153
f 533//1154 532//1154 368//1154
f 532//1155 533//1155 320//1155
f 531//519 532//1156 372//517
f 534//1157 533//1157 318//1157
f 535//1158 534//1158 317//1158
f 534//1159 535//1159 323//1159
f 533//1160 534//1160 321//1160
f 536//1161 535//1161 273//1161
f 537//1162 536//1162 278//1162
f 536//1163 537//1163 279//1163
f 535//1164 536//1164 324//1164
f 538//1165 537//1165 277//1165
f 539//1166 538//1166 276//1166
f 538//1167 539//1167 282//1167
f 537//1168 538//532 280//531
f 540//1169 539//1169 228//1169
f 541//1170 540//1170 233//1170
f 540//1171 541//1171 234//1171
f 539//1172 540//1172 283//1172
f 542//1173 541//1173 232//1173
f 495//1174 542//1174 231//1174
f 542//1175 495//1175 237//1175
f 541//1176 542//1176 235//1176
f 543//1177 545//1177 31//1177
f 544//1178 543//1178 29//1178
f 543//1179 544//1179 26//1179
f 545//1180 543//1180 25//1180
f 546//1181 544//1181 28//1181
f 547//1182 546//550 83//1183
f 546//550 547//1182 80//548
f 544//1184 546//1184 79//1184
f 548//1185 547//1185 82//1185
f 549//1186 548//1187 129//1188
f 548//1187 549//1186 126//1189
f 547//557 548//1190 125//555
f 550//1191 549//1192 128//1193
f 551//1194 550//1194 171//1194
f 550//1195 551//1195 168//1195
f 549//1192 550//1191 167//1196
f 552//1197 551//1197 170//1197
f 553//1198 552//1198 210//1198
f 552//1199 553//1199 164//1199
f 551//1200 552//1200 169//1200
f 554//1201 553//1202 205//1203
f 555//1204 554//1204 204//1204
f 554//1205 555//1205 160//1205
f 553//1202 554//1201 165//1206
f 556//1207 555//1207 203//1207
f 557//1208 556//1208 201//1208
f 556//1209 557//1209 198//1209
f 555//575 556//1210 197//573
f 558//578 557//1211 200//576
f 559//1212 558//1212 247//1212
f 558//1213 559//1213 194//1213
f 557//1214 558//1214 199//1214
f 560//1215 559//1215 246//1215
f 561//1216 560//1216 477//1216
f 560//1217 561//1217 154//1217
f 559//1218 560//1218 195//1218
f 562//1219 561//1219 476//1219
f 563//589 562//1220 483//587
f 562//1221 563//1221 157//1221
f 561//1222 562//1222 155//1222
f 564//1223 563//1223 482//1223
f 565//1224 564//1224 489//1224
f 564//1225 565//1225 566//1225
f 563//597 564//1226 567//595
f 568//1227 565//1227 488//1227
f 569//1228 568//1228 492//1228
f 568//1229 569//1229 570//1229
f 565//1230 568//1230 571//1230
f 572//1231 569//1231 396//1231
f 573//1232 572//1232 395//1232
f 572//1233 573//1233 574//1233
f 569//1234 572//1234 575//1234
f 576//1235 573//1235 394//1235
f 577//1236 576//1236 403//1236
f 576//1237 577//1237 578//1237
f 573//1238 576//1238 579//1238
f 580//1239 577//1239 402//1239
f 581//1240 580//1240 409//1240
f 580//1241 581//1241 22//1241
f 577//1242 580//1242 582//1242
f 583//1243 581//1243 408//1243
f 545//1244 583//1244 414//1244
f 583//1245 545//1245 24//1245
f 581//1246 583//1246 23//1246
f 584//1247 586//1247 234//1247
f 585//1248 584//1248 242//1248
f 584//1249 585//1249 292//1249
f 586//1250 584//1250 291//1250
f 587//1251 585//1251 241//1251
f 588//1252 587//1252 505//1252
f 587//1253 588//1253 294//1253
f 585//1254 587//1254 293//1254
f 589//1255 588//1255 504//1255
f 590//1256 589//1256 511//1256
f 589//1257 590//1257 591//1257
f 588//1258 589//1258 592//1258
f 593//1259 590//1259 510//1259
f 594//1260 593//1260 517//1260
f 593//1261 594//1261 595//1261
f 590//1262 593//1262 596//1262
f 597//1263 594//1263 516//1263
f 598//1264 597//1264 523//1264
f 597//1265 598//1265 381//1265
f 594//1266 597//1266 599//1266
f 600//1267 598//1267 522//1267
f 601//1268 600//1268 528//1268
f 600//1269 601//1269 377//1269
f 598//1270 600//1270 382//1270
f 602//1271 601//1271 375//1271
f 603//1272 602//1273 374//1274
f 602//1273 603//1272 328//1275
f 601//1276 602//1276 378//1276
f 604//1277 603//649 326//648
f 605//1278 604//1279 325//1280
f 604//1279 605//1278 331//1281
f 603//1282 604//1282 329//1282
f 606//1283 605//1283 279//1283
f 607//1284 606//1284 286//1284
f 606//1285 607//1285 287//1285
f 605//1286 606//1286 332//1286
f 608//1287 607//1287 285//1287
f 586//1288 608//1288 284//1288
f 608//1289 586//1289 290//1289
f 607//1290 608//1290 288//1290
f 609//1291 611//1291 22//1291
f 610//1292 609//1292 20//1292
f 609//668 610//675 17//666
f 611//1293 609//1293 16//1293
f 612//672 610//1294 19//670
f 613//1295 612//1295 77//1295
f 612//1296 613//1296 74//1296
f 610//675 612//1297 73//667
f 614//1298 613//1298 76//1298
f 615//1299 614//1299 120//1299
f 614//1300 615//1300 70//1300
f 613//1301 614//1301 75//1301
f 616//1302 615//1302 119//1302
f 617//1303 616//1303 117//1303
f 616//1304 617//1304 114//1304
f 615//1305 616//1305 113//1305
f 618//1306 617//1306 116//1306
f 619//1307 618//1307 158//1307
f 618//1308 619//1308 108//1308
f 617//1309 618//1309 115//1309
f 620//1310 619//1310 157//1310
f 621//1311 620//1311 567//1311
f 620//1312 621//1312 111//1312
f 619//1313 620//1313 109//1313
f 622//1314 621//1314 566//1314
f 623//1315 622//1315 571//1315
f 622//1316 623//1316 624//1316
f 621//1317 622//1317 625//1317
f 626//1318 623//1318 570//1318
f 627//1319 626//1319 575//1319
f 626//1320 627//1320 628//1320
f 623//1321 626//1321 629//1321
f 630//1322 627//1323 574//1324
f 631//1325 630//1325 579//1325
f 630//1326 631//1326 13//1326
f 627//1323 630//1322 632//1327
f 633//1328 631//1328 578//1328
f 611//1329 633//1329 582//1329
f 633//1330 611//1330 15//1330
f 631//1331 633//1331 14//1331
f 634//1332 636//1332 287//1332
f 635//1333 634//1333 295//1333
f 634//1334 635//1334 341//1334
f 636//1335 634//1335 340//1335
f 637//1336 635//1336 294//1336
f 638//1337 637//1337 592//1337
f 637//1338 638//1338 343//1338
f 635//1339 637//1339 342//1339
f 639//1340 638//1340 591//1340
f 640//1341 639//1341 596//1341
f 639//1342 640//1342 387//1342
f 638//1343 639//1343 386//1343
f 641//1344 640//1344 595//1344
f 642//1345 641//1345 599//1345
f 641//1346 642//1346 383//1346
f 640//1347 641//1347 388//1347
f 643//1348 642//1348 381//1348
f 644//1349 643//1349 380//1349
f 643//1350 644//1350 336//1350
f 642//1351 643//1351 384//1351
f 645//733 644//729 334//728
f 636//1352 645//1352 333//1352
f 645//1353 636//1353 339//1353
f 644//1354 645//1354 337//1354
f 646//1355 648//1355 13//1355
f 647//740 646//1356 11//738
f 646//1357 647//1357 8//1357
f 648//1358 646//1358 7//1358
f 649//1359 647//1359 10//1359
f 650//1360 649//1360 71//1360
f 649//1361 650//1361 68//1361
f 647//748 649//1362 67//746
f 651//751 650//1363 70//749
f 652//1364 651//1364 112//1364
f 651//1365 652//1365 64//1365
f 650//1366 651//1366 69//1366
f 653//1367 652//1367 111//1367
f 654//1368 653//1368 625//1368
f 653//759 654//1369 1//757
f 652//1370 653//1370 65//1370
f 655//1371 654//1371 624//1371
f 656//1372 655//1372 629//1372
f 655//1373 656//1373 4//1373
f 654//1374 655//1374 2//1374
f 657//765 656//1375 628//704
f 648//1376 657//1376 632//1376
f 657//1377 648//1377 6//1377
f 656//1378 657//1378 5//1378
# Vertices: 657, normals: 1378, texture coordinates: 0, faces: 1248

