# File generated by ImageToStl.com - Free Image and 3D model conversion tools

mtllib Mountain_desert_001.mtl

# Mountain_desert_001_0
o obj1
v -1150 3.77E-05 862.5
v -1150 4.398E-05 1006.25
v -1037.95532227 4.398E-05 1006.25
v -1150 5.027E-05 1150
v -1006.25 5.027E-05 1150
v -862.5 5.027E-05 1150
v -910.05792236 4.398E-05 1006.25
v -952.54278564 25.65609169 862.5
v -1061.73413086 3.77E-05 862.5
v -750.45526123 4.398E-05 1006.25
v -718.75 5.027E-05 1150
v -557.25598145 5.027E-05 1150
v -618.86383057 34.99520874 1006.25
v -660.02575684 71.19102478 926.38885498
v -766.30786133 41.72822189 898.4375
v -576.26818848 298.52856445 862.5
v -539.0625 244.96621704 1006.25
v -431.25 279.96136475 1006.25
v -507.16796875 196.80059814 1086.11108398
v -422.37796021 211.3011322 1114.0625
v -323.78701782 196.80058289 1086.11108398
v -305.69342041 244.96621704 1006.25
v -307.91146851 280.31451416 864.35253906
v -431.25 320.35946655 862.5
v -158.40625 40.04496765 875.46777344
v -145.09819031 34.99520874 1006.25
v -72.77380371 4.398E-05 1006.25
v -181.03569031 5.027E-05 1150
v -72.77380371 5.027E-05 1150
v 17.74404716 5.027E-05 1150
v 17.74404716 4.398E-05 1006.25
v 15.52604294 3.827E-05 875.46777344
v -81.64582825 3.835E-05 877.3203125
v 143.75 4.398E-05 1006.25
v 143.75 5.027E-05 1150
v 287.5 5.027E-05 1150
v 235.49304199 4.663E-05 1066.67797852
v 235.49304199 112.03738403 927.10626221
v 143.75 112.03738403 869.91015625
v 431.25 4.398E-05 1006.25
v 431.25 5.027E-05 1150
v 575 5.027E-05 1150
v 575 4.398E-05 1006.25
v 522.99304199 112.03738403 939.20831299
v 379.24304199 112.03738403 932.23101807
v 718.75 4.398E-05 1006.25
v 718.75 5.027E-05 1150
v 862.5 5.027E-05 1150
v 862.5 4.398E-05 1006.25
v 810.49298096 112.03738403 939.20831299
v 666.74304199 112.03738403 941.53411865
v 1006.25 4.398E-05 1006.25
v 1006.25 5.027E-05 1150
v 1150 5.027E-05 1150
v 1150 4.398E-05 1006.25
v 1150 3.77E-05 862.5
v 954.24298096 112.03738403 932.23101807
v -1150 2.513E-05 575
v -1150 3.142E-05 718.75
v -1069.66052246 3.142E-05 718.75
v -993.55328369 35.16583633 718.75
v -981.66369629 32.10519028 575
v -1061.73413086 2.513E-05 575
v -840.43347168 234.35922241 575
v -842.41516113 252.72305298 718.75
v -718.75 307.57595825 718.75
v -823.27081299 242.14239502 798.61108398
v -726.67633057 285.53494263 826.5625
v -575 327.26312256 718.75
v -575 230.55674744 575
v -718.75 295.33343506 575
v -431.25 333.82550049 718.75
v -314.56549072 292.09732056 726.16015625
v -286.08047485 298.61846924 583.29937744
v -431.25 240.17973328 575
v -199.95239258 70.24784088 708.05053711
v -198.33033752 41.72821808 770.62121582
v -108.26189423 3.401E-05 778.03137207
v 8.87202358 3.368E-05 770.62121582
v 2.2180059 26.2316761 688.7442627
v -134.87796021 32.87305069 699.85949707
v 143.75 3.271E-05 748.39068604
v 287.5 3.215E-05 735.46325684
v 287.5 24.0178833 636.00732422
v 143.75 24.0178833 655.39855957
v 431.25 3.304E-05 755.96228027
v 575 3.426E-05 783.87145996
v 575 24.01788712 708.61975098
v 431.25 24.01788521 666.75592041
v 718.75 3.467E-05 793.17456055
v 862.5 3.426E-05 783.87145996
v 862.5 22.74183655 708.61975098
v 718.75 24.01788712 722.57434082
v 1006.25 3.304E-05 755.96228027
v 1150 3.142E-05 718.75
v 1150 2.513E-05 575
v 1006.25 18.91368675 666.75592041
v -1150 1.257E-05 287.5
v -1150 1.885E-05 431.25
v -1037.95532227 1.885E-05 431.25
v -945.99542236 36.04802322 431.25
v -925.5123291 41.63145447 287.5
v -1024.29992676 1.257E-05 287.5
v -831.07489014 291.5168457 287.49996948
v -834.48876953 131.58790588 431.25
v -718.75 184.67643738 431.25
v -575 108.0712204 431.25
v -575 240.08302307 287.5
v -718.75 333.43850708 287.49996948
v -431.25 333.82550049 431.25
v -287.5 324.9703064 431.25
v -287.5 368.81851196 287.49996948
v -431.25 333.82550049 287.49996948
v -143.75 298.40484619 431.25
v -143.75 238.96632385 553.8828125
v 0 199.11808777 553.90649414
v 0 163.09617615 438.75485229
v 0 375.21936035 334.69476318
v -143.75 381.86071777 323.43746948
v 143.75 154.24101257 461.26937866
v 143.75 185.83534241 553.97753906
v 287.5 77.09220123 556.37432861
v 287.5 154.24104309 483.78396606
v 287.5 373.00561523 402.23846436
v 143.75 373.00558472 368.46658325
v 431.25 154.24101257 491.28881836
v 431.25 185.83534241 563.37524414
v 575 185.83534241 568.47631836
v 575 154.24101257 483.78396606
v 575 373.00561523 402.23846436
v 431.25 373.00558472 413.49572754
v 718.75 262.98419189 461.26937866
v 718.75 185.83534241 565.17346191
v 862.5 68.60808563 557.21911621
v 862.5 145.82572937 438.75485229
v 868.56115723 354.37564087 294.70462036
v 718.75 373.00558472 368.46658325
v 1006.25 229.32310486 431.25
v 1006.25 151.89906311 548.36560059
v 1086.11108398 134.13635254 515.24578857
v 1114.0625 179.61956787 431.25
v 1115.64086914 234.17828369 287.5
v 1012.56378174 287.83352661 287.49996948
v -1150 0 0
v -1150 6.28E-06 143.75
v -1046.74438477 6.28E-06 143.75
v -959.17901611 43.49259567 143.75
v -1004.73516846 41.63144302 -1.82E-06
v -1077.11523438 0 0
v -844.27880859 204.7855072 -8.95E-06
v -836.68603516 302.68371582 143.74998474
v -718.75 340.88308716 143.74998474
v -575 241.94412231 143.74998474
v -575 153.35166931 -6.7E-06
v -718.75 246.70718384 -1.078E-05
v -431.25 333.82546997 143.74998474
v -323.4375 390.71585083 143.74998474
v -323.4375 390.71591187 -1.708E-05
v -431.25 333.82546997 -1.459E-05
v -264.26184082 778.17871094 -3.402E-05
v -251.5625 732.0581665 143.74996948
v -143.75 841.77606201 143.74996948
v -223.6111145 687.81005859 223.61109924
v -143.75 784.88574219 251.56246948
v 0 732.0581665 253.43869019
v 0 788.9486084 143.74996948
v 0.05316352 843.43493652 35.93746567
v -143.53735352 889.05047607 35.93746185
v 143.75 724.04577637 143.74996948
v 143.75 671.11682129 259.06732178
v 287.5 786.2833252 272.90539551
v 251.5625 845.83892822 143.74996948
v 223.6111145 890.08703613 63.88884735
v 143.75 780.93615723 35.93746567
v 287.5 1204.99658203 -5.267E-05
v 323.4375 1170.52355957 143.74995422
v 431.25 1177.44030762 143.74995422
v 351.3888855 1098.51245117 223.61106873
v 431.25 1087.23425293 251.56245422
v 577.10900879 1012.27398682 251.56245422
v 583.43603516 1031.5579834 143.74995422
v 583.09851074 1249.56298828 -5.462E-05
v 431.25 1227.41394043 -5.365E-05
v 752.49401855 1014.90008545 143.74995422
v 727.18603516 987.28735352 251.56245422
v 821.10717773 987.46014404 223.61106873
v 877.1784668 1070.57641602 143.74995422
v 935.33294678 1213.15307617 -5.303E-05
v 769.36602783 1245.75012207 35.93744659
v 964.73272705 384.92150879 -1.683E-05
v 936.32049561 384.09375 143.74998474
v 1031.50537109 307.33691406 143.74998474
v 1120.37634277 252.36448669 143.74998474
v 1125.11169434 257.33108521 -1.125E-05
v 1050.44677734 310.64801025 -1.358E-05
v -1150 -1.257E-05 -287.5
v -1150 -6.28E-06 -143.75
v -1087.23876953 -6.28E-06 -143.75
v -1019.9206543 36.04800034 -143.75
v -977.50408936 20.54729271 -287.5
v -1077.11523438 -1.257E-05 -287.5
v -830.10681152 218.24536133 -223.6111145
v -846.80969238 258.01623535 -143.75001526
v -718.75 311.10473633 -143.75001526
v -575 328.14529419 -143.75001526
v -577.53088379 282.47424316 -251.56253052
v -728.87359619 253.60522461 -251.5625
v -431.25 333.82546997 -143.75001526
v -323.4375 390.71585083 -143.75001526
v -310.5 337.00445557 -287.50003052
v -431.25 292.09729004 -251.56253052
v -249.32963562 1086.21325684 -287.50006104
v -249.01063538 1071.78930664 -143.75004578
v -142.04876709 1167.14367676 -143.75004578
v -221.62635803 1053.18395996 -63.8889389
v -142.26141357 1119.86938477 -35.93754578
v 0.3721447 1170.35351562 -35.93754959
v 0.4253082 1155.55273438 -143.75004578
v 0.3721447 1157.95654297 -287.50006104
v -142.26141357 1176.75976562 -287.50006104
v 143.75 1244.07177734 -143.75006104
v 143.75 1187.18139648 -35.93754959
v 287.5 1244.07177734 -143.75006104
v 287.5 1269.45715332 -287.50006104
v 143.75 1244.07177734 -287.50006104
v 431.25 1244.07177734 -143.75006104
v 539.0625 1290.01391602 -143.75006104
v 511.11108398 1335.96972656 -223.61116028
v 431.25 1291.11901855 -251.56254578
v 575 1631.71936035 -287.50006104
v 610.9375 1485.43041992 -143.75006104
v 718.75 1531.37268066 -143.75007629
v 642.63818359 1495.87329102 -63.88895416
v 727.18603516 1510.92590332 -35.93756485
v 824.85656738 1495.87329102 -63.88895416
v 843.43450928 1485.43041992 -143.75006104
v 843.43450928 1610.9901123 -287.50006104
v 718.75 1663.40710449 -287.50006104
v 964.73266602 370.11248779 -287.50003052
v 974.20336914 387.40478516 -143.75001526
v 1056.76062012 320.58120728 -143.75001526
v 1126.69018555 272.230896 -143.75001526
v 1125.11181641 267.35513306 -287.5
v 1050.44677734 307.91375732 -287.50003052
v -1150 -2.513E-05 -575
v -1150 -1.885E-05 -431.25
v -1046.74438477 -1.885E-05 -431.25
v -923.24151611 -1.885E-05 -431.25
v -877.68536377 112.95407867 -575
v -1016.37353516 -2.513E-05 -575
v -759.24432373 -1.885E-05 -431.25
v -779.49157715 35.16579056 -323.4375
v -590.18536377 40.08757401 -323.4375
v -585.12359619 -1.885E-05 -431.25
v -577.53088379 112.95407867 -576.68878174
v -728.87359619 112.95407867 -575
v -431.25 -1.885E-05 -431.25
v -431.25 41.72816849 -323.4375
v -351.3888855 71.16267395 -351.3888855
v -323.4375 34.93147278 -431.25
v -323.4375 29.83394623 -585.13275146
v -431.25 -2.543E-05 -581.75512695
v -223.04403687 1117.29064941 -511.1111145
v -250.28657532 1129.48535156 -431.25006104
v -142.89938354 1205.60778809 -431.25006104
v 0.2126541 1165.16870117 -431.25006104
v 0.05316352 1184.77734375 -539.06256104
v -143.53735352 1177.56542969 -539.06256104
v 143.75 1244.07177734 -431.25006104
v 251.5625 1281.27587891 -431.25006104
v 287.5 1231.93603516 -552.00006104
v 143.75 1187.18139648 -539.06256104
v 351.3888855 1487.66503906 -511.1111145
v 323.4375 1517.24072266 -431.25006104
v 431.25 1592.66674805 -431.25006104
v 351.3888855 1503.09997559 -351.38894653
v 431.25 1566.45654297 -323.43756104
v 575 1630.8885498 -431.25006104
v 577.10900879 1552.14929199 -539.06256104
v 431.25 1531.72802734 -539.06256104
v 718.75 1643.62927246 -431.25009155
v 843.43450928 1593.68469238 -431.25006104
v 824.85656738 1533.23010254 -511.1111145
v 727.18603516 1558.95629883 -539.06256104
v 867.50933838 204.96054077 -575.00012207
v 936.32049561 311.61367798 -431.25
v 1031.50537109 243.42298889 -431.25
v 1120.37634277 212.99511719 -431.25
v 1088.91723633 154.17247009 -511.11108398
v 1012.56378174 156.49357605 -539.0625
v -1150 -3.77E-05 -862.5
v -1150 -3.142E-05 -718.75
v -1006.25 -3.142E-05 -718.75
v -862.5 -3.142E-05 -718.75
v -862.5 112.95407104 -862.5
v -1006.25 -3.77E-05 -862.5
v -718.75 -3.142E-05 -718.75
v -575 112.95407104 -725.50512695
v -575 112.95407104 -872.63269043
v -718.75 112.95407104 -862.5
v -431.25 -3.26E-05 -745.77056885
v -323.4375 28.13476562 -759.28094482
v -287.5 19.09370041 -939.23846436
v -431.25 112.95407104 -903.03094482
v -223.6111145 196.20619202 -819.62719727
v -251.5625 210.53695679 -725.50512695
v -143.75 216.61352539 -718.75
v -264.5 266.31881714 -576.08081055
v -143.75 343.13900757 -610.9375
v 0 378.82165527 -610.9375
v 0 257.39367676 -718.75
v 0 280.20303345 -838.38397217
v -143.75 244.520401 -840.07281494
v 143.75 131.67590332 -718.75
v 143.75 390.71585083 -610.9375
v 287.5 390.71588135 -610.9375
v 287.5 270.98706055 -718.75
v 284.64654541 292.097229 -828.25128174
v 143.75 152.78608704 -833.31756592
v 431.25 270.98706055 -718.75
v 431.25 390.71585083 -610.9375
v 575 373.76538086 -610.9375
v 575 259.68673706 -718.75
v 562.2166748 305.31137085 -862.5
v 419.83627319 292.097229 -826.5625
v 718.75 288.62420654 -718.75
v 718.75 322.91400146 -610.9375
v 833.76348877 224.2953949 -718.75
v 839.16424561 275.14675903 -862.5
v 718.75 322.52508545 -862.5
v 974.04852295 38.90306473 -862.5
v 941.64379883 30.42784309 -718.75
v 1035.05419922 -3.142E-05 -718.75
v 945.59173584 39.02690506 -638.88885498
v 1013.45098877 19.1275425 -610.9375
v 1150 -2.513E-05 -575
v 1150 -3.142E-05 -718.75
v 1150 -3.77E-05 -862.5
v 1056.65734863 -3.77E-05 -862.5
v -1150 -5.027E-05 -1150
v -1150 -4.398E-05 -1006.25
v -1006.25 -4.398E-05 -1006.25
v -862.5 112.95405579 -1006.25
v -862.5 -5.027E-05 -1150
v -1006.25 -5.027E-05 -1150
v -718.75 -4.398E-05 -1006.25
v -575 -4.428E-05 -1013.00506592
v -575 -5.027E-05 -1150
v -718.75 -5.027E-05 -1150
v -431.25 112.95405579 -1033.27062988
v -287.5 -4.605E-05 -1053.53613281
v -287.5 -5.027E-05 -1150
v -431.25 -5.027E-05 -1150
v -143.75 -4.635E-05 -1060.2911377
v -143.75 34.93144989 -979.49932861
v 0 40.02896881 -969.36657715
v 0 -4.605E-05 -1053.53613281
v 0 -5.027E-05 -1150
v -143.75 -5.027E-05 -1150
v 143.75 -4.517E-05 -1033.27062988
v 143.75 41.72814178 -938.96844482
v 267.52600098 41.7281456 -908.57019043
v 264.6725769 -4.428E-05 -1013.00506592
v 264.6725769 -5.027E-05 -1150
v 143.75 -5.027E-05 -1150
v 339.94030762 -4.398E-05 -1006.25
v 351.35400391 41.7281456 -898.4375
v 404.5831604 74.18339539 -926.38885498
v 402.09793091 41.72813797 -1006.25
v 452.43753052 -5.027E-05 -1150
v 339.94030762 -5.027E-05 -1150
v 606.58007812 259.64196777 -1086.11108398
v 588.11010742 292.097229 -1006.25
v 718.75 333.82540894 -1006.25
v 840.96459961 292.097229 -1006.25
v 815.94165039 259.64196777 -1086.11108398
v 714.53735352 292.097229 -1114.0625
v 926.08520508 -5.027E-05 -1150
v 984.85009766 41.72813797 -1006.25
v 1063.85839844 -4.398E-05 -1006.25
v 1150 -4.398E-05 -1006.25
v 1150 -5.027E-05 -1150
v 1063.85839844 -5.027E-05 -1150
v -750.45526123 166.9127655 862.5
v -618.86383057 160.17974854 898.4375
v -882.04669189 160.35038757 826.5625
v -575 139.98071289 1006.25
v -530.19049072 119.78166199 1114.0625
v -360.27380371 5.027E-05 1150
v -395.76190186 113.04864502 1150
v -261.33331299 119.78166199 1114.0625
v -216.52378845 139.98071289 1006.25
v -225.39582825 160.17974854 869.91015625
v -252.01190186 166.9127655 748.39068604
v -242.69046021 158.05758667 662.80871582
v -143.75 131.49209595 634.28137207
v 0 104.92661285 626.87121582
v 143.75 96.07144928 604.64068604
v 287.5 96.07144928 591.71325684
v 431.25 96.07144928 612.21228027
v 575 96.07144928 640.12145996
v 718.75 96.07144928 649.42456055
v 862.5 90.96724701 640.12145996
v 1006.25 75.65464783 612.21228027
v 1114.0625 70.99034882 548.36560059
v 1150 1.885E-05 431.25
v 1150 97.8310318 431.25
v 1150 1.257E-05 287.5
v 1150 129.77592468 287.5
v 1150 6.28E-06 143.75
v 1150 140.42420959 143.74998474
v 1150 0 0
v 1150 143.73527527 -6.28E-06
v 1150 -6.28E-06 -143.75
v 1150 153.66845703 -143.75001526
v 1150 -1.257E-05 -287.5
v 1150 152.30134583 -287.5
v 891.30419922 121.71147156 -718.75
v 912.9072876 155.61238098 -862.5
v 905.63848877 87.81056213 -610.9375
v 920.10839844 166.91268921 -1006.25
v 865.55615234 166.91268921 -1114.0625
v 685.04870605 -5.027E-05 -1150
v 701.89935303 166.91268921 -1150
v 538.24255371 166.91268921 -1114.0625
v 483.69030762 166.91268921 -1006.25
v 459.16647339 166.91270447 -898.4375
v 385.59515381 166.91270447 -862.5
v 276.08630371 166.91270447 -869.25506592
v 143.75 27.6015377 -889.52062988
v 0 160.11599731 -909.78613281
v -143.75 139.72592163 -916.54119873
v -251.5625 119.33585358 -873.84863281
v -287.5 112.53916168 -745.77056885
v -287.5 119.33586884 -581.75512695
v -287.5 139.72593689 -431.25
v -323.4375 160.11602783 -323.4375
v -287.5 308.20748901 -431.25
v -431.25 166.91271973 -287.5
v -585.12359619 160.3503418 -287.5
v -759.24432373 140.66320801 -287.5
v -897.42767334 128.4206543 -251.5625
v -943.48876953 144.1920166 -143.75001526
v -933.36517334 166.52577209 -7.28E-06
v -902.99432373 173.97036743 143.74998474
v -880.54992676 166.52578735 287.5
v -894.20526123 144.19204712 431.25
v -917.98419189 128.42068481 575
v -925.91046143 140.66325378 718.75
v -143.75 561.38708496 287.49996948
v 0 561.38708496 295.00482178
v -251.5625 561.38708496 251.56246948
v 143.75 561.38708496 317.51937866
v 287.5 561.38708496 340.03393555
v 431.25 561.38708496 281.58346558
v 575 561.38708496 340.03393555
v 575 759.79736328 300.63345337
v 431.25 772.29077148 236.55436707
v 718.75 561.38708496 317.51937866
v 832.87628174 561.38708496 259.06732178
v 830.24987793 759.79736328 253.43869019
v 718.75 755.63293457 295.00482178
v 887.75531006 561.38708496 143.74996948
v 906.69677734 561.38708496 -2.454E-05
v 888.31225586 784.78405762 -3.43E-05
v 877.24981689 772.29077148 143.74996948
v 913.01062012 561.38708496 -143.75003052
v 906.69677734 550.08673096 -287.50003052
v 890.42120361 786.12347412 -287.50003052
v 891.99963379 788.9486084 -143.75003052
v 887.75531006 516.18579102 -431.25
v 832.87628174 493.58520508 -539.0625
v 842.9039917 771.99804688 -539.06256104
v 885.68585205 777.64831543 -431.25006104
v 718.75 516.18572998 -575
v 575 550.08666992 -575.00006104
v 577.10900879 786.12341309 -575.00006104
v 727.18603516 777.64825439 -575.00006104
v 431.25 561.38702393 -575.00006104
v 287.5 561.38702393 -575.00006104
v 287.5 788.94848633 -575.00006104
v 431.25 788.94854736 -575.00006104
v 143.75 561.38702393 -575.00006104
v 0 554.590271 -575.00006104
v 0 787.24932861 -575.00006104
v 143.75 788.9486084 -494.15994263
v -143.75 534.20025635 -575
v -251.5625 520.60687256 -539.0625
v -251.50933838 776.34954834 -539.06256104
v -143.75 782.1519165 -494.15994263
v -287.5 534.20031738 -431.25
v -287.5 554.59033203 -287.50003052
v -287.12783813 770.42138672 -287.50003052
v -287.28735352 772.53582764 -431.25006104
v -287.5 561.38708496 -143.75003052
v -287.5 561.38708496 -2.454E-05
v -287.07470703 769.71661377 -143.75003052
v -287.5 561.38708496 143.74996948
v -142.89938354 978.04614258 -4.275E-05
v 0.2126541 1006.894104 -4.401E-05
v -250.07391357 949.19805908 -35.93754196
v 143.75 1016.51019287 -4.443E-05
v 251.5625 1016.51019287 35.93745422
v 287.5 1016.51019287 143.74995422
v 323.4375 999.85235596 251.56245422
v 431.25 949.87878418 221.5446167
v 575 899.90527344 287.49993896
v 718.75 883.24749756 287.49993896
v 834.99853516 899.90527344 251.56245422
v 896.24395752 949.87878418 143.74996948
v 921.55200195 999.85235596 -4.37E-05
v 929.98797607 1016.51019287 -143.75004578
v 929.98797607 1016.51019287 -287.50006104
v 963.73205566 1239.5982666 -287.50006104
v 963.73205566 1233.12353516 -143.75006104
v 929.98797607 1016.51019287 -431.25006104
v 885.61450195 1016.51019287 -539.06256104
v 915.14050293 1231.91674805 -539.06256104
v 963.73205566 1237.12609863 -431.25006104
v 752.49401855 1016.51019287 -497.78152466
v 583.43603516 1016.51019287 -497.78152466
v 587.6539917 1229.45605469 -575.00006104
v 769.36602783 1230.18041992 -575.00006104
v 431.25 1016.51019287 -497.78152466
v 287.5 1016.51019287 -575.00006104
v 431.25 1227.28295898 -575.00006104
v 143.75 1016.51019287 -494.15994263
v 0 1016.51019287 -575.00006104
v -143.75 1016.51019287 -494.15994263
v -251.34985352 1006.894104 -539.06256104
v -286.64938354 978.04614258 -431.25006104
v -286.01141357 949.19805908 -287.50006104
v -285.79876709 939.58215332 -143.75003052
v 752.49401855 1384.04772949 -6.05E-05
v 885.61450195 1394.99572754 -35.93756104
v 619.37353516 1394.99572754 -35.93756104
v 929.98797607 1427.84057617 -143.75006104
v 929.98797607 1453.73950195 -287.50006104
v 929.98797607 1443.85046387 -431.25006104
v 885.61450195 1423.0135498 -539.06256104
v 752.49401855 1416.06787109 -575.00006104
v 583.43603516 1413.17028809 -575.00006104
v 431.25 1404.47790527 -575.00006104
v 323.4375 1395.78527832 -539.06256104
v 287.5 1392.88793945 -431.25006104
v 323.4375 1402.7310791 -323.43756104
v 431.25 1432.26062012 -287.50006104
v 539.0625 1450.84191895 -251.56257629
v 575 1427.84057617 -143.75006104
v 1006.25 76.51025391 -575
v 1114.0625 87.81056213 -539.0625
v 1150 121.71147919 -431.25
v 1150 -1.885E-05 -431.25
vn 0 1 -0
vn 0 1 -0
vn 0 1 -0
vn 0 1 -0
vn 0 1 -0
vn -0.22235 0.94632 0.23461
vn 0 0.98444 0.1757
vn 0 1 -0
vn -0.24292 0.91345 0.32649
vn -0.35318 0.77018 0.53111
vn -0.28318 0.87242 0.39836
vn -0.3193 0.74969 0.57967
vn 0.22595 0.81068 0.54013
vn 0.29771 0.92743 0.22638
vn 0.43554 0.90012 -0.00956
vn 0.43555 0.90016 -0.00096
vn 0.43554 0.90013 -0.00854
vn 0 0.97162 0.23654
vn 0 1 -0
vn 0 1 -0
vn 0 1 -0
vn 0 1 -0
vn -0 1 -0
vn 0 1 -0
vn 0 1 -0
vn 0 1 -0
vn 0 1 -0
vn -0.36356 0.72647 0.58315
vn 0.18973 0.76567 0.61462
vn -0 1 -0
vn 0 1 -0
vn -0 1 -0
vn -0.04202 0.49859 0.86582
vn 0 0.51348 0.8581
vn 0.01384 0.51815 0.85518
vn 0 0.51348 0.8581
vn 0.49673 0.86791 0
vn 0 1 -0
vn 0 1 -0
vn 0 1 -0
vn -0.41283 0.89347 0.17688
vn -0.37169 0.92699 -0.05048
vn -0.36649 0.92825 -0.06357
vn -0.37167 0.92695 -0.05118
vn -0.40246 0.90734 -0.12146
vn -0.4524 0.86352 0.22286
vn -0.12968 0.97322 0.1898
vn -0.13313 0.9721 0.19314
vn -0.13119 0.97274 0.19125
vn 0.35021 0.77717 -0.52284
vn -0.03785 0.82912 -0.55778
vn -0.14607 0.97033 0.19267
vn 0.33242 0.94094 0.06422
vn -0.37168 0.92782 -0.03176
vn 0.36325 0.8513 0.3786
vn 0.45955 0.87344 -0.16097
vn 0 1 -0
vn -0 1 -0
vn 0.07035 0.95161 0.29916
vn 0.04962 0.95231 0.30107
vn -0.65638 0.75328 0.04166
vn -0.04618 0.85687 -0.51347
vn 0.03165 0.97157 0.23463
vn -0.03346 0.97151 0.23461
vn 0.01786 0.86526 -0.501
vn 0.10823 0.82313 -0.55745
vn -0.0882 0.94894 0.30287
vn -0.01967 0.95247 0.304
vn 0.00943 0.81251 -0.58287
vn -0.03723 0.80454 -0.59274
vn -0.02983 0.80593 -0.59126
vn -0.03837 0.80431 -0.59296
vn 0.03656 0.9566 0.28909
vn 0.05608 0.95574 0.28883
vn -0.02869 0.80614 -0.59103
vn -0 1 -0
vn 0.13045 0.99146 -0
vn 0 1 -0
vn 0 1 -0
vn 0 1 -0
vn -0.36419 0.92906 -0.06488
vn -0.37039 0.92681 -0.06195
vn -0.38827 0.92134 -0.01954
vn -0.29461 0.64229 0.70758
vn -0.37429 0.74696 -0.5495
vn 0.37588 0.70534 -0.601
vn 0.43151 0.66444 0.61018
vn -0.75649 0.4817 0.44237
vn -0.05089 0.76017 -0.64772
vn 0.06059 0.9836 0.1699
vn -0.22677 0.93157 0.28416
vn 0.17406 0.94189 0.28731
vn 0.40862 0.89993 0.15215
vn 0.67463 0.70449 -0.22038
vn -0.0499 0.43988 0.89667
vn -0.11276 0.43761 0.89206
vn 0.08799 0.95069 -0.2974
vn -0.11333 0.68085 0.7236
vn -0.21499 0.34111 0.91511
vn -0.04886 0.34886 0.9359
vn -0.4845 0.59946 0.6371
vn -0.01733 0.93679 -0.34947
vn -0.00895 0.93689 -0.34951
vn -0.01824 0.93677 -0.34946
vn 0.07318 0.34834 0.93451
vn -0.11666 0.34689 0.93062
vn -0.00803 0.9369 -0.34951
vn 0.60925 0.66432 0.43302
vn 0.43111 0.50429 0.74822
vn -0.27913 0.55122 0.78629
vn -0.41454 0.75933 0.50157
vn -0.41171 0.76345 0.49763
vn -0.41188 0.7632 0.49787
vn 0.35406 0.768 0.53369
vn 0.43692 0.83937 0.32337
vn 0 1 -0
vn -0.44189 0.88967 0.11501
vn -0.4933 0.85765 0.14523
vn -0.26128 0.80445 -0.53347
vn -0.26052 0.80433 -0.53402
vn -0.26841 0.80554 -0.52827
vn -0.34836 0.9334 0.08611
vn 0.56693 0.8237 0.01066
vn 0.48384 0.74503 -0.45916
vn -0.47796 0.74778 -0.46085
vn -0.5462 0.83758 0.01084
vn -0.54624 0.83763 0.00171
vn -0.54621 0.8376 0.00913
vn -0.45261 0.85773 0.24381
vn -0.46669 0.88442 0
vn -0.46669 0.88442 0
vn -0.46669 0.88442 0
vn -0.68543 0.67353 0.27665
vn -0.73117 0.4552 0.50812
vn 0.30427 0.84269 0.44417
vn 0.31014 0.84393 0.43771
vn 0.30976 0.84385 0.43813
vn 0.27276 0.8586 0.43406
vn 0.37373 0.82775 0.41851
vn 0.33731 0.83568 0.43343
vn -0.66596 0.58951 0.45714
vn -0.75512 0.42457 0.49953
vn -0.06203 0.96693 0.24739
vn -0.14112 0.71016 0.68975
vn 0.68224 0.71172 0.16734
vn -0.08003 0.54863 0.83222
vn 0.05417 0.54974 0.83358
vn 0.16146 0.96978 0.18294
vn -0.33967 0.76066 0.55319
vn 0.28047 0.62237 0.73075
vn 0.6226 0.77208 0.1275
vn 0.40743 0.84391 0.34902
vn 0.4063 0.84045 0.35855
vn 0.40729 0.84349 0.35019
vn 0.522 0.84389 0.12396
vn 0.58048 0.8129 0.04721
vn 0 1 -0
vn 0 1 -0
vn -0.47201 0.88146 0.01563
vn -0.19932 0.96628 -0.16301
vn -0.33695 0.81278 -0.47524
vn -0.29834 0.89334 0.33606
vn -0.07508 0.63339 0.77018
vn -0.17326 0.90832 -0.38071
vn -0.03637 0.92049 -0.38908
vn -0.62348 0.49661 0.60386
vn -0.46669 0.88442 -0
vn -0.46669 0.88442 -0
vn -0.41637 0.83877 -0.35087
vn -0.66351 0.74428 0.07615
vn -0.66994 0.63867 0.37852
vn 0.08034 0.98751 -0.13553
vn 0.13068 0.99129 0.01653
vn -0.52542 0.85072 0.01442
vn -0.1155 0.98407 -0.13515
vn 0 0.96498 0.26231
vn -0.17133 0.9702 0.17133
vn 0 0.98476 0.1739
vn -0.14881 0.95424 0.25939
vn -0.36658 0.86026 0.35437
vn -0.54666 0.62868 0.5531
vn -0.2725 0.63948 0.7189
vn -0.15298 0.98587 -0.06819
vn 0.34544 0.93749 -0.04223
vn 0.30185 0.71802 0.62716
vn 0.6235 0.7703 -0.13374
vn 0.65384 0.75455 0.05611
vn 0.56635 0.81911 0.09112
vn 0.47704 0.87818 -0.03503
vn 0 1 -0
vn 0 0.98994 -0.1415
vn -0.58448 0.71764 0.37867
vn 0 0.7863 0.61785
vn 0 0.7863 0.61785
vn -0.10477 0.97819 -0.17937
vn -0.00089 0.93729 -0.34855
vn -0.00868 0.93713 -0.34886
vn 0 0.9373 -0.34851
vn 0.00547 0.78779 0.61592
vn 0.00103 0.78976 0.61341
vn 0.00523 0.78882 0.6146
vn 0 0.78979 0.61338
vn -0.00967 0.93711 -0.3489
vn -0.27127 0.83725 -0.47479
vn -0.26749 0.96303 -0.0319
vn -0.55049 0.77659 -0.30637
vn -0.62873 0.74345 0.22798
vn 0.27161 0.96121 0.04792
vn -0.04935 0.98265 0.17879
vn -0.47566 0.86531 0.15808
vn -0.5144 0.85645 0.04354
vn -0.32214 0.93353 0.15729
vn -0.30304 0.8472 -0.43637
vn -0.51189 0.73168 -0.45013
vn -0.65439 0.67137 0.34791
vn -0.25696 0.96641 -0.00559
vn -0.1122 0.80141 -0.58749
vn -0.07133 0.80484 -0.5892
vn -0.21526 0.97654 -0.00564
vn 0.36954 0.92255 -0.11106
vn 0.36069 0.70135 -0.61483
vn 0.43678 0.60969 -0.66143
vn 0.53608 0.73981 -0.40657
vn 0.53649 0.73933 -0.4069
vn 0.53312 0.74328 -0.40413
vn 0.30395 0.88775 -0.34572
vn 0.2544 0.72842 -0.63615
vn 0.25516 0.72778 -0.63657
vn 0.25276 0.7298 -0.63522
vn 0 1 -0
vn 0 0.7863 -0.61785
vn 0 0.7863 -0.61785
vn 0 0.7863 -0.61785
vn -0.52562 0.66892 0.52562
vn 0 0.7863 0.61785
vn 0 0.7863 0.61785
vn 8E-05 0.7863 -0.61785
vn -0.61812 0.78601 -0.01051
vn 0 1 0
vn 0.61785 0.7863 0
vn 0.61291 0.79011 0.00793
vn 0.61785 0.7863 0
vn 0.61121 0.79147 0.0016
vn 0.61482 0.78863 0.0083
vn -0.2536 0.96726 -0.00944
vn 0.55765 0.82713 0.06981
vn -0.0453 0.9855 -0.1635
vn -0.57268 0.75053 -0.32977
vn -0.1851 0.65247 -0.73487
vn -0.23891 0.95386 0.18186
vn 0.65401 0.74385 0.13766
vn 0.65164 0.74511 0.14206
vn 0.65195 0.74495 0.14149
vn -0.05485 0.66294 -0.74666
vn -0.5441 0.56144 -0.62349
vn -0.69758 0.69995 0.15312
vn -0.00219 0.98137 0.19212
vn 0 0.98192 0.1893
vn -0.00015 0.98188 0.18949
vn 0 0.66916 -0.74312
vn 0 0.66916 -0.74312
vn 0.05392 0.68587 -0.72573
vn -0.01183 0.95277 0.30345
vn -0.18748 0.93131 0.31226
vn 0.23611 0.66744 -0.70624
vn 0.48815 0.87276 0.00279
vn 0.34634 0.88024 0.32439
vn 0.3073 0.94338 0.12489
vn 0.32357 0.93893 -0.11709
vn 0 1 -0
vn 0 1 -0
vn 0 1 -0
vn 0 1 -0
vn -0.61785 0.7863 -0
vn -0.61785 0.7863 -0
vn -0.61785 0.7863 -0
vn 0.52562 0.66892 -0.52562
vn 0.52562 0.66892 -0.52562
vn 0.52562 0.66892 -0.52562
vn 0 1 -0
vn -0.02945 0.77875 -0.62664
vn -0 1 -0
vn -0 1 -0
vn -0.61785 0.7863 -0
vn -0.61785 0.7863 -0
vn -0.61785 0.7863 -0
vn -0.13142 0.77233 -0.62148
vn 0.60092 0.78838 -0.1317
vn -0 1 -0
vn -0 1 -0
vn 0 1 -0
vn 0 1 -0
vn -0.153 0.97472 -0.16283
vn 0.02018 0.90289 -0.42939
vn -0 1 -0
vn -0 1 -0
vn 0 1 -0
vn -0 1 -0
vn 0.07989 0.90019 -0.42811
vn 0.06231 0.92622 -0.37179
vn 0 1 -0
vn 0 1 -0
vn 0 1 -0
vn 0 1 -0
vn 0.04493 0.92726 -0.37172
vn -0.53085 0.79074 -0.30484
vn 0 0.96036 -0.27878
vn -0.27669 0.86624 -0.41603
vn -0.10864 0.98793 -0.11038
vn 0.32098 0.94009 0.11487
vn 0.38218 0.80813 -0.44817
vn 0.42626 0.80709 -0.40854
vn 0.42552 0.90358 0.04973
vn 0 1 -0
vn 0 1 -0
vn 0 1 -0
vn -0.2055 0.294 0.93345
vn -0.33804 0.42078 0.84183
vn -0.24625 0.32589 0.91277
vn -0.45276 0.56193 0.69228
vn -0.77353 0.32319 0.54517
vn -0.83964 0.32114 0.43803
vn -0.82083 0.28098 0.49728
vn -0.86273 0.35831 0.3568
vn 0 0 1
vn 0 0.28737 0.95782
vn 0.30395 0.3988 0.8652
vn -0.34804 0.41 0.84307
vn 0.78192 0.53197 0.32498
vn 0.87262 0.48334 -0.07013
vn 0.75382 0.64026 0.14771
vn 0.56374 0.64456 0.51647
vn 0.88672 0.3212 -0.3325
vn 0.83095 0.51406 0.21277
vn 0.86348 0.46582 0.19343
vn 0.82407 0.56642 0.00862
vn 0.39963 0.53224 0.74634
vn 0.09324 0.61701 0.78141
vn 0.16368 0.59093 0.78994
vn 0.38176 0.54153 0.749
vn 0.19764 0.56454 0.80139
vn 0.11417 0.52027 0.84633
vn 0.33647 0.46286 0.82009
vn 0.05611 0.61143 0.78931
vn -0.16812 0.59497 0.78597
vn -0.20652 0.67415 0.70914
vn -0.03116 0.47768 0.87798
vn -0.54108 0.74088 -0.3979
vn -0.06796 0.71078 0.70013
vn 0.07413 0.707 0.70331
vn 0.07459 0.70654 0.70373
vn 0.07092 0.71026 0.70036
vn 0.51351 0.58724 0.62566
vn 0.01796 0.62371 0.78145
vn 0.22267 0.67561 0.70283
vn 0.5081 0.51596 0.68966
vn 0.41847 0.5831 0.69633
vn -0.49877 0.83683 -0.2257
vn 1 0 -0
vn 1 0 -0
vn 1 0 -0
vn 1 0 0
vn 0.90363 0.39705 0.16062
vn 0.64789 0.55848 0.51801
vn 1 0 0
vn 1 0 0
vn 1 0 0
vn 1 0 0
vn 0.96592 0.25562 0.04065
vn 0.94751 0.31183 0.07066
vn 0.94759 0.31185 0.06946
vn 0.94752 0.31183 0.07041
vn 1 0 0
vn 1 0 0
vn 1 0 0
vn 1 0 0
vn 0.98107 0.19288 -0.01732
vn 0.9763 0.2139 0.03289
vn 0.87173 0.48072 -0.09486
vn 0.86382 0.45254 0.22141
vn 0.85426 0.47917 0.2016
vn 0.92082 0.35151 -0.16889
vn 0.8843 0.46034 0.07811
vn 0.8857 0.45806 0.07556
vn 0.883 0.46242 0.08045
vn 0.80799 0.3884 -0.44305
vn 0.76141 0.48138 -0.4342
vn 0.84884 0.52367 0.07238
vn 0 0 -1
vn 0 0.21048 -0.9776
vn -0.32087 0.29113 -0.90127
vn 0.36722 0.44301 -0.81786
vn -0.76344 0.49759 -0.41179
vn -0.81888 0.54024 -0.19383
vn -0.81869 0.54043 -0.19415
vn -0.81942 0.53974 -0.19297
vn -0.75341 0.62844 -0.19348
vn -0.67253 0.61824 -0.40679
vn -0.59818 0.36798 -0.71188
vn 0.11483 0.29049 -0.94996
vn 0.01202 0.27287 -0.96198
vn -0.25859 0.4186 -0.87058
vn -0.06731 0.95935 0.27407
vn 0.18113 0.4371 -0.88099
vn 0.36753 0.38091 -0.84843
vn -0.27991 0.31606 -0.90651
vn 0.04212 0.51453 -0.85644
vn -0.27711 0.59268 -0.75627
vn -0.49087 0.51355 -0.70379
vn -0.11598 0.50762 -0.85374
vn -0.88995 0.41067 -0.19835
vn -0.92793 0.37273 -0.00364
vn -0.9008 0.37545 -0.21815
vn -0.89753 0.37658 -0.22942
vn -0.90015 0.37569 -0.22044
vn -0.79859 0.51273 -0.31522
vn -0.94587 0.32437 -0.01075
vn -0.79688 0.39424 -0.45777
vn -0.98744 0 -0.15799
vn -0.9669 0.15901 -0.19954
vn -0.40129 0.25274 -0.88039
vn -0.00349 0.28579 -0.95829
vn -0.00296 0.28643 -0.9581
vn -0.0063 0.27714 -0.96081
vn -0.01783 0.27626 -0.96092
vn -0.01815 0.27589 -0.96102
vn -0.01569 0.28149 -0.95943
vn -0.3501 0.21102 -0.91263
vn -0.00842 0.32389 -0.94606
vn -0.19178 0.43539 -0.87958
vn -0.36511 0.37001 -0.85428
vn -0.05436 0.28499 -0.95699
vn -0.7815 0.55233 -0.29016
vn -0.86597 0.49485 0.07226
vn -0.73887 0.62758 0.2454
vn -0.64494 0.62168 -0.44448
vn -0.88307 0.38026 0.27493
vn -0.91799 0.33048 0.21927
vn -0.88678 0.45684 0.0701
vn -0.33764 0.78619 -0.51759
vn -0.89633 0.42925 -0.11105
vn -0.89719 0.42966 -0.10217
vn -0.89643 0.4293 -0.11011
vn -0.81923 0.54164 -0.18842
vn 0.1699 0.80497 -0.56847
vn -0.86702 0.34319 0.36123
vn -0.83906 0.53799 -0.08085
vn -0.82242 0.50189 0.26783
vn -0.77389 0.57662 0.26191
vn -0.80373 0.58867 -0.0865
vn -0.8039 0.58848 -0.08626
vn -0.80116 0.59158 -0.09038
vn -0.2543 0.18983 0.94831
vn -0.06681 0.20804 0.97584
vn 0.04541 0.15859 0.9863
vn -0.6167 0.29749 0.72882
vn -0.21744 0.25482 0.94222
vn -0.21773 0.30603 0.92679
vn -0.41912 0.42686 0.80133
vn 0.06215 0.23617 0.96972
vn -0.06402 0.57242 0.81746
vn 0.07416 0.31269 0.94696
vn -0.3855 0.19266 0.90237
vn 0.2608 0.27612 0.92506
vn 0.22117 0.2546 0.94141
vn 0.44445 0.23305 0.86496
vn 0.45277 0.22651 0.86238
vn 0.4523 0.22688 0.86253
vn 0.34371 0.10812 0.93283
vn 0.04401 0.19459 0.9799
vn 0.86781 0.23772 0.43634
vn 0.93332 0.30695 0.18624
vn 0.99549 0.04959 0.08092
vn 0.91796 0.02339 0.39599
vn 0.94119 0.33103 0.06773
vn 0.94705 0.30539 -0.09913
vn 0.99568 0.09193 -0.01274
vn 0.99624 0.08199 0.02793
vn 0.93538 0.22206 -0.27524
vn 0.83612 0.16545 -0.52299
vn 0.92934 0.00736 -0.36916
vn 0.99695 0.06874 -0.03689
vn 0.99653 0.06871 -0.04698
vn 0.99687 0.06874 -0.03907
vn 0.35723 0.17075 -0.91828
vn 0.07047 0.19922 -0.97742
vn 0 -0 -1
vn -0 -0 -1
vn 0 -0 -1
vn 0.29807 -0.00985 -0.95449
vn 0.2961 -0.01066 -0.9551
vn 0.2966 -0.01046 -0.95494
vn 0.01616 0.20003 -0.97966
vn 0.02429 0.20599 -0.97825
vn 0.02373 0.20558 -0.97835
vn 0 0.20605 -0.97854
vn 0 0.20605 -0.97854
vn 0 0.20605 -0.97854
vn 0 0 -1
vn 0 -0 -1
vn -0.00821 0.20604 -0.97851
vn 5E-05 0.20605 -0.97854
vn -0.01657 0.20029 -0.9796
vn -0.02672 0.20024 -0.97938
vn -0.01825 0.20028 -0.97957
vn 0.4655 0.29627 -0.83399
vn -0.49017 0 -0.87163
vn -0.49017 0 -0.87163
vn -0.49017 0 -0.87163
vn -0.04584 0.18466 -0.98173
vn -0.36233 0.15229 -0.91952
vn 0.35479 0.28981 -0.88889
vn -0.49017 0 -0.87163
vn -0.98762 0 -0.15684
vn -0.9787 0.10345 -0.17732
vn -0.99999 0.00402 0.00083
vn -0.99998 0.00507 0.00398
vn -1 0.00134 0.00063
vn -0.94875 0.00065 -0.31603
vn -0.95006 0.00136 -0.31205
vn -0.949 0.00034 -0.31526
vn -0.96548 0.2033 -0.16285
vn -0.97854 0.20605 0
vn -0.97854 0.20605 0
vn -0.97854 0.20605 0
vn -0.98766 0.00202 0.15662
vn -1 0.00185 7E-05
vn -1 0.00142 -7E-05
vn -0.97854 0.20605 0
vn -0.97854 0.20605 0
vn -0.93668 0.2249 0.26843
vn -0.89012 0.18743 0.41539
vn -0.98698 0.1058 0.12114
vn -0.52876 0.32107 0.78571
vn 0.06804 0.21417 0.97442
vn -0.08674 0.24507 0.96562
vn -0.56129 0.35457 0.74782
vn 0.06545 0.15048 0.98644
vn -0.65173 0.29827 0.69734
vn -0.26082 0.19892 0.94467
vn -0.0252 0.21468 0.97636
vn -0.89012 0.18743 0.41539
vn -0.92109 0.19324 0.33801
vn -0.92003 0.18911 0.3432
vn -0.92014 0.18953 0.34267
vn -0.85483 0.19947 0.47905
vn -0.92911 0.23205 0.28793
vn 0.25179 0.08151 0.96434
vn -0.39923 0.08528 0.91287
vn -0.39944 0.08556 0.91276
vn -0.39928 0.08534 0.91285
vn -0.10907 -0.21223 0.97111
vn -0.2694 0.33239 0.90385
vn 0.04076 0.05866 0.99745
vn 0.34928 0.00071 0.93702
vn 0.2721 0.29439 0.91613
vn 0.05051 0.30337 0.95153
vn 0.91873 -0.09826 0.38247
vn 0.98632 -0.15244 0.06265
vn 0.86389 0.13646 0.48484
vn 0.57587 0.33014 0.74792
vn 0.98614 -0.16462 0.02053
vn 0.98625 -0.16525 -0.00096
vn 0.98557 -0.16926 -0.00141
vn 0.98584 -0.16759 -0.00564
vn 0.98842 -0.15164 -0.00535
vn 0.98806 -0.15392 -0.00693
vn 0.98815 -0.15339 -0.0061
vn 0.9807 -0.06336 0.18495
vn 0.983 -0.18232 -0.02163
vn 0.92027 -0.16075 -0.35675
vn 0.90539 -0.13848 -0.40137
vn 0.98853 -0.15102 0.00028
vn 0.98866 -0.15017 0.0019
vn 0.29776 0.26494 -0.91714
vn 0.01792 0.3173 -0.94816
vn 0.00054 -0.34053 -0.94023
vn 0.00135 -0.33997 -0.94043
vn 0.00058 -0.3405 -0.94024
vn 0.2396 -0.03284 -0.97032
vn 0.00079 0.31824 -0.94801
vn 0.00622 0.32133 -0.94695
vn 0.00539 0.32085 -0.94711
vn -0.15931 -0.33961 -0.92698
vn 0.00053 -0.34366 -0.93909
vn 0.00363 -0.34222 -0.93961
vn -0.49017 0 -0.87163
vn 0.49017 0 -0.87163
vn 0.49017 0 -0.87163
vn 0.49017 0 -0.87163
vn 0.00426 -0.25443 -0.96708
vn -0.12163 0.10537 -0.98697
vn 0.38479 -0.00019 -0.923
vn 0.38465 -0.00027 -0.92306
vn 0.38498 -8E-05 -0.92292
vn -0.13397 -0.26598 -0.95463
vn -0.01049 0.20886 -0.97789
vn -0.94936 0.00255 -0.31419
vn -0.99998 0.0052 0.0028
vn -0.96951 0.23279 0.07653
vn -0.88264 0.31471 -0.34915
vn -0.99997 0.00741 0.00053
vn -0.98234 0.11286 0.14925
vn -0.8967 0.24952 0.36561
vn -0.96442 0.26333 0.02367
vn -0.9656 0.25851 0.02808
vn -0.96326 0.26787 0.0195
vn -0.18003 0.22676 0.95717
vn 0.25201 0.25348 0.93394
vn 0.30571 0.31543 0.89836
vn -0.34846 0.32406 0.87952
vn 0.96263 0.16682 0.21335
vn 0.98779 0.15565 0.00701
vn 0.44802 0.67334 0.58813
vn 0.83447 0.53693 0.12391
vn 0.98767 0.15621 -0.00989
vn 0.98693 0.1611 -0.00277
vn 0.98703 0.1605 -0.00364
vn 0.90028 0.1391 -0.41248
vn 0.74901 0.43267 -0.50177
vn 0.87459 0.48139 -0.05795
vn 0.23906 0.0217 -0.97076
vn 0 0 -1
vn 0 -0 -1
vn 0 0 -1
vn -0.01071 0.24239 -0.97012
vn -0.01098 0.24207 -0.9702
vn -0.00771 0.24603 -0.96923
vn 0.34873 0.40642 -0.84452
vn 0 0 -1
vn -0.1535 0.1112 -0.98187
vn -0.43768 0.24437 -0.86529
vn -0.03482 0.24871 -0.96795
vn -0.88118 0.28373 -0.37819
vn -0.91428 0.31516 0.25448
vn -0.89642 0.25906 0.35962
vn -0.82031 0.37967 -0.42772
vn -0.26914 0.23764 0.93332
vn -0.46611 0.31462 0.8269
vn -0.34428 0.24812 0.90549
vn -0.33783 0.24347 0.90917
vn -0.33817 0.24372 0.90898
vn -0.55085 0.36273 0.75166
vn -0.87104 0.22712 0.43556
vn -0.87375 0.22782 0.42973
vn -0.87146 0.22723 0.43466
vn -0.88187 0.30815 0.35686
vn -0.81955 0.51142 0.25844
vn -0.83972 0.2614 0.47595
vn 0.3367 0.36367 -0.86855
vn 0.31638 0.46754 -0.82541
vn 0.28435 0.53424 -0.79607
vn 0.43934 0.68964 -0.57565
vn 0.77304 0.48413 -0.40991
vn 0.62306 0.49215 -0.60793
vn 0.97641 0.21121 -0.04495
vn 1 0 -0
vn -0.15146 0.91413 0.37608
vn 0 1 -0
vn -0.23764 0.8936 0.3808
vn -0.14343 0.95275 0.26775
vn -0.26108 0.80434 0.53373
vn 0.2636 0.82333 0.50264
vn 0.25916 0.92982 0.26131
vn 0.4629 0.88584 -0.03185
vn 0.43556 0.90016 0
vn -0.54355 0.64851 0.53291
vn -0.3858 0.71279 0.58574
vn -0.02996 0.54126 0.84032
vn 0 0.55123 0.83436
vn -0.01405 0.49523 0.86865
vn 0 0.50018 0.86592
vn 0.04005 0.56366 0.82504
vn 0 0.55123 0.83436
vn -0.22872 0.97341 0.01261
vn -0.41933 0.90754 -0.02312
vn -0.4467 0.89146 -0.07592
vn -0.40055 0.90304 0.15517
vn -0.12936 0.97333 0.18948
vn -0.13521 0.98724 -0.08408
vn -0.056 0.83657 -0.54498
vn -0.04541 0.99461 0.09317
vn 0.30638 0.94776 0.08878
vn 0.31706 0.79466 -0.51768
vn 0.50685 0.84265 0.18178
vn 0.42534 0.89782 -0.11402
vn 0.02407 0.92445 0.38055
vn 0.07386 0.96558 0.24939
vn -0.11103 0.73066 -0.67365
vn 0.38926 0.67722 -0.62438
vn 0.02248 0.96798 0.25001
vn -0.05483 0.96416 0.25959
vn -0.0512 0.96435 0.25964
vn -0.05552 0.96412 0.25958
vn 0.07405 0.85138 -0.51929
vn 0.02576 0.8471 -0.53082
vn -0.05041 0.96439 0.25965
vn -0.03125 0.94625 0.32191
vn 0.03842 0.80385 -0.59358
vn -0.00979 0.79632 -0.60479
vn 0.02084 0.94651 0.322
vn 0.08613 0.97462 0.20664
vn -0.1079 0.8243 -0.55577
vn 0.32422 0.83876 -0.43746
vn 0.05361 0.97685 0.20711
vn -0.36474 0.93046 -0.03465
vn -0.25104 0.67264 0.69609
vn -0.34161 0.74474 -0.57329
vn 0.33628 0.74626 -0.57446
vn 0.34726 0.65164 0.67436
vn -0.54624 0.83763 0
vn -0.79618 0.50697 0.33027
vn -0.34577 0.78621 0.51217
vn 0.06148 0.99811 0
vn -0.2193 0.77152 0.59722
vn 0.16405 0.88768 0.43025
vn 0.24197 0.87313 0.4232
vn 0.58021 0.64405 0.49855
vn -0.20576 0.38217 0.90089
vn 0.10819 0.94099 -0.32068
vn 0.58506 0.76764 -0.26161
vn -0.14271 0.38653 0.91117
vn -0.07358 0.33414 0.93965
vn 0.02032 0.9157 -0.40134
vn 0.01492 0.91579 -0.40138
vn 0.02095 0.91569 -0.40133
vn 0.01424 0.9158 -0.40138
vn 0.04913 0.33464 0.94106
vn 0.17675 0.63461 0.75235
vn -0.45714 0.71408 0.5302
vn 0.56666 0.66154 0.49119
vn 0.54215 0.54178 0.6423
vn 0.40616 0.84001 0.35975
vn -0.41471 0.75907 0.50182
vn 0.38271 0.77068 0.50949
vn 0.39031 0.84664 0.36175
vn -0.38764 0.91982 0.06052
vn -0.44289 0.89168 0.09357
vn -0.26905 0.80563 -0.5278
vn -0.30777 0.95019 0.04921
vn 0.54414 0.83787 0.04339
vn 0.49894 0.72492 -0.47492
vn -0.7822 0.62303 0
vn -0.53856 0.84259 0
vn -0.23652 0.97163 -0
vn -0.46669 0.88442 0
vn -0.69283 0.66091 0.28843
vn -0.66899 0.65737 0.34688
vn 0.30385 0.84261 0.44462
vn 0.3189 0.86778 0.38114
vn 0.35902 0.82546 0.43558
vn 0.37962 0.84081 0.38592
vn -0.60924 0.7207 0.33079
vn -0.70679 0.62566 0.33015
vn -0.14573 0.93447 0.32486
vn -0.04914 0.76603 0.64093
vn 0.3667 0.71353 0.597
vn 0.67118 0.70019 0.24341
vn -0.16284 0.42725 0.88935
vn 0.09448 0.95884 0.26776
vn 0.07688 0.96138 0.26427
vn -0.19058 0.4268 0.88404
vn 0.65138 0.75171 0.10314
vn 0.61688 0.76499 0.18508
vn 0.45433 0.87281 0.17829
vn 0.52399 0.84711 0.08856
vn -0.49828 0.86631 0.03509
vn -0.47181 0.88108 -0.03323
vn -0.39889 0.82415 -0.40209
vn -0.35385 0.85356 0.38238
vn 0.50986 0.78508 0.3517
vn -0.1045 0.88156 -0.46035
vn -0.06123 0.93083 -0.36027
vn -0.03948 0.99922 0
vn -0.44154 0.83675 -0.32386
vn -0.64486 0.76253 0.05196
vn -0.63268 0.70969 0.30994
vn -0.30843 0.8714 0.38149
vn 0.08091 0.99451 0.06641
vn -0.51489 0.85726 0
vn -0.47938 0.77618 0.40957
vn -0.2207 0.86261 0.45518
vn 0 1 0
vn -0.23163 0.89161 0.38908
vn 0 0.99335 0.11511
vn -0.1434 0.98309 0.11392
vn -0.3638 0.85373 0.37255
vn -0.16025 0.72696 0.66772
vn -0.38402 0.90119 0.20096
vn 0.19689 0.96596 0.16779
vn 0.2619 0.71077 0.65285
vn 0.58456 0.80557 -0.09666
vn 0.62708 0.77472 0.08108
vn 0.5792 0.81111 0.08149
vn 0.56603 0.81866 -0.097
vn -0.20184 0.97849 -0.04264
vn 0 0.95071 -0.3101
vn -0.02467 0.94904 -0.31419
vn 0.61117 0.7915 0
vn 0 0.93258 -0.36095
vn -0.4254 0.84399 -0.32666
vn -0.30823 0.95131 0
vn -0.63476 0.74873 -0.19099
vn -0.57047 0.80477 0.16403
vn 0.1282 0.97247 0.19459
vn 0.26368 0.93317 -0.24428
vn -0.01479 0.88432 -0.46664
vn -0.48172 0.87633 0
vn -0.1739 0.98476 0
vn -0.29191 0.8459 -0.44636
vn -0.54649 0.72906 -0.41209
vn -0.5622 0.8036 0.19536
vn -0.44737 0.86904 0.21127
vn -0.22551 0.84813 -0.47939
vn -0.03559 0.7846 -0.61899
vn -0.08747 0.98687 -0.13578
vn 0.38446 0.91452 -0.12582
vn 0.30463 0.7605 -0.57344
vn 0.38251 0.68528 -0.61974
vn 0.53278 0.74368 -0.40384
vn 0.43412 0.79918 -0.41574
vn 0.25051 0.73167 -0.63396
vn -0.63088 0.77461 -0.04443
vn 0 0.7863 0.61785
vn -0.0059 0.78608 -0.61809
vn -0.0069 0.78604 -0.61813
vn -0.50739 0.67757 0.53241
vn 0.12244 0.80609 0.57899
vn -0.2667 0.96378 -0
vn -0.13753 0.80449 0.57783
vn -0.4698 0.86031 0.19789
vn 0.01113 0.64854 -0.7611
vn -0.15895 0.64033 -0.75147
vn -0.26647 0.93931 0.21606
vn 0.65435 0.74367 0.13703
vn 0.31854 0.36423 -0.87514
vn -0 0.38425 -0.92323
vn -0.68992 0.7119 0.13117
vn -0.0024 0.98131 0.1924
vn 0.07866 0.66709 -0.74082
vn 0.07704 0.97995 0.18372
vn -0.10642 0.96777 0.22823
vn -0.1884 0.9359 -0.29766
vn 0.63814 0.73371 -0.23336
vn 0.47813 0.85484 0.2016
vn 0.42518 0.90285 0.0639
vn 0.30798 0.94547 -0.10603
vn 0.17301 0.97516 -0.13834
vn -0.61785 0.7863 0
vn -0 1 -0
vn 0.52562 0.66892 -0.52562
vn -0.04351 0.78555 -0.61726
vn 0 0.71863 -0.69539
vn -0.61785 0.7863 0
vn 0.54672 0.83732 -0
vn 0.42287 0.65122 -0.63016
vn -0.01727 0.91774 -0.3968
vn -0.00599 0.91786 -0.39685
vn -0.01865 0.91772 -0.39679
vn -0.00457 0.91787 -0.39685
vn 0.05695 0.91299 -0.40399
vn 0.09889 0.90999 -0.40267
vn 0.03265 0.93092 -0.36376
vn -0.59305 0.77003 -0.23525
vn -0.55738 0.83026 0
vn -0.34864 0.87858 -0.32642
vn -0.30342 0.94993 0.07467
vn 0.36516 0.92808 0.07296
vn 0.30216 0.88496 -0.35433
vn 0.46689 0.88401 0.02339
vn -0.26163 0.37429 0.88964
vn -0.23756 0.29571 0.92527
vn -0.23546 0.31162 0.92057
vn -0.26407 0.32775 0.90711
vn -0.77419 0.48562 0.40596
vn -0.83962 0.3508 0.41469
vn -0.81952 0.39548 0.41471
vn -0.86419 0.29582 0.40702
vn -0.22877 0.32681 0.91698
vn 0.25372 0.07965 0.96399
vn 0.20474 0.47634 0.85509
vn -0.23518 0.27705 0.93163
vn 0.70007 0.59044 0.40159
vn 0.69844 0.59256 0.40131
vn 0.70039 0.59002 0.40164
vn 0.82588 0.56306 0.02968
vn 0.82379 0.56609 0.03026
vn 0.82644 0.56226 0.02952
vn 0.82325 0.56686 0.03041
vn 0.69813 0.59296 0.40126
vn 0.86488 0.47473 -0.16313
vn 0.91375 0.40212 0.05792
vn 0.94169 0.32943 0.06848
vn 0.89303 0.41559 -0.17257
vn 0.36485 0.56033 0.74358
vn 0.36473 0.55785 0.7455
vn 0.36486 0.56059 0.74338
vn 0.14507 0.55688 0.81783
vn 0.15213 0.60527 0.78135
vn 0.36473 0.55775 0.74558
vn 0.15749 0.6131 0.77415
vn 0.07332 0.57435 0.81532
vn -0.04251 0.88019 -0.47272
vn 0.16276 0.48497 0.85925
vn -0.1206 0.51988 0.84569
vn -0.15298 0.59645 0.78793
vn -0.15003 0.61675 0.77273
vn -0.12429 0.4742 0.8716
vn -0.0469 0.68745 0.72472
vn -0.04709 0.68427 0.7277
vn -0.04685 0.68824 0.72397
vn 0.07054 0.71065 0.7
vn 0.01743 0.96535 -0.26036
vn -0.04714 0.6836 0.72833
vn 0.20784 0.69304 0.69028
vn 0.41559 0.63033 0.65572
vn 0.43933 0.56203 0.7008
vn 0.21229 0.62739 0.74921
vn 0.77239 0.52508 0.35735
vn 0.9476 0.31186 0.0693
vn 0.85776 0.37689 0.34958
vn 0.97682 0.21402 0.00493
vn 0.96655 0.25579 0.01895
vn 0.97739 0.21143 -0.00201
vn 0.98113 0.19289 0.01333
vn 0.79393 0.6022 0.0838
vn 0.85042 0.46898 0.2384
vn 0.82533 0.50916 0.24411
vn 0.87154 0.48886 0.03784
vn 0.88293 0.46254 0.08059
vn 0.81018 0.419 -0.40994
vn 0.76055 0.52293 -0.38483
vn 0.84225 0.53249 0.08405
vn 0.2061 0.27682 -0.93856
vn -0.21443 0.02165 -0.9765
vn -0.19541 0.41224 -0.88987
vn 0.20764 0.25049 -0.94559
vn -0.77988 0.48587 -0.39461
vn -0.82295 0.53638 -0.18719
vn -0.76751 0.61681 -0.17458
vn -0.71579 0.59706 -0.36218
vn -0.38794 0.46774 -0.79418
vn 0.05944 0.26039 -0.96367
vn 0.05859 0.30712 -0.94987
vn -0.41056 0.35358 -0.84049
vn -0.17883 0.30591 -0.93511
vn 0.64661 0.73348 0.20955
vn 0.50962 0.43973 -0.73955
vn -0.27982 0.39322 -0.87583
vn -0.02094 0.44435 -0.89561
vn -0.40031 0.47192 -0.78552
vn -0.38725 0.6213 -0.68119
vn -0.0456 0.58884 -0.80696
vn -0.86455 0.45253 -0.21857
vn -0.91901 0.3939 -0.01632
vn -0.98792 0.15484 -0.00642
vn -0.89686 0.3768 -0.23166
vn -0.92613 0.37378 -0.05064
vn -0.88521 0.30357 -0.35248
vn -0.93177 0.13649 -0.33641
vn -1 0 0
vn -0.27353 0.36552 -0.88971
vn -0.28998 0.26408 -0.91988
vn -0.0325 0.28742 -0.95725
vn -0.26462 0.35608 -0.8962
vn -0.26144 0.45999 -0.84856
vn -0.03523 0.31162 -0.94955
vn -0.67696 0.62955 -0.38131
vn -0.81621 0.57686 -0.03214
vn -0.39203 0.91283 -0.11421
vn -0.70263 0.59679 -0.38749
vn -0.85763 0.49009 0.15582
vn -0.90638 0.39029 0.16173
vn -0.91752 0.36318 0.16206
vn -0.87724 0.45192 0.16193
vn -0.94025 0.33849 -0.03673
vn -0.89727 0.4297 -0.10128
vn -0.80501 0.58929 -0.06851
vn 0.20354 0.96434 0.16916
vn -0.83058 0.54915 -0.09257
vn -0.81784 0.52438 0.23699
vn -0.76272 0.61571 0.19788
vn -0.79828 0.5948 -0.09467
vn -0.30777 0.22975 0.92331
vn -0.05113 0.19603 0.97926
vn -0.05066 0.23632 0.97035
vn -0.31261 0.1508 0.93783
vn -0.15141 0.2061 0.96674
vn -0.14949 0.25813 0.95447
vn -0.14842 0.28285 0.94761
vn -0.13693 0.46572 0.87427
vn 0.36019 0.29251 0.88583
vn -0.316 0.5442 0.77717
vn -0.37045 0.18092 0.91106
vn 0.36951 0.19402 0.90875
vn 0.14711 0.31014 0.93924
vn 0.4432 0.23403 0.86534
vn 0.45564 0.03127 0.88962
vn 0.15373 0.11377 0.98154
vn 0.88006 0.22381 0.41882
vn 0.95677 0.26209 0.12607
vn 0.98815 0.08132 0.13021
vn 0.90205 0.04493 0.42928
vn 0.94912 0.31215 0.04169
vn 0.94121 0.33104 -0.06736
vn 0.99642 0.06871 -0.04916
vn 0.99481 0.09185 0.04369
vn 0.93365 0.30107 -0.19403
vn 0.85479 0.20293 -0.47765
vn 0.89344 -0.03218 -0.44803
vn 0.99116 0.00784 -0.13245
vn 0.32453 0.15512 -0.93307
vn 0.04307 0.18264 -0.98224
vn 0.2986 -0.00963 -0.95433
vn 0.0157 0.19969 -0.97973
vn 0 0.20605 -0.97854
vn -0.00974 0.20604 -0.9785
vn 0 0.33475 -0.94231
vn -0.0284 0.20023 -0.97934
vn -0.3311 0.17443 -0.92733
vn -0.31624 7E-05 -0.94868
vn -0.04393 0.30967 -0.94983
vn -0.9407 0.09526 -0.32558
vn -0.94865 0.00085 -0.31632
vn -0.99445 0.10512 -0.00497
vn -0.97854 0.20605 0
vn -0.9943 0.10658 0
vn -1 0.00204 -0.0001
vn -0.9303 0.19589 0.3101
vn -0.91363 0.26933 0.30454
vn -0.97854 0.20605 0
vn -0.36316 0.22187 0.90492
vn -0.36427 0.22867 0.90278
vn -0.36291 0.22036 0.90539
vn -0.07536 0.37384 0.92443
vn -0.04325 0.21457 0.97575
vn -0.36453 0.23027 0.90227
vn -0.0143 0.21351 0.97684
vn -0.01388 0.20719 0.9782
vn -0.01438 0.21472 0.97657
vn -0.31297 0.14323 0.9389
vn -0.30741 0.23445 0.92224
vn -0.0138 0.20603 0.97845
vn -0.91363 0.26933 0.30454
vn -0.92128 0.19399 0.33707
vn -0.87318 0.34494 0.34435
vn -0.92626 0.21613 0.30875
vn 0.28813 0.0471 0.95643
vn -0.39341 0.07743 0.9161
vn -0.31196 0.29472 0.90323
vn 0.17051 -0.21038 0.96264
vn 0.01081 0.09332 0.99558
vn 0.28752 0.05623 0.95612
vn 0.2355 0.32928 0.91439
vn 0.03749 0.32355 0.94547
vn 0.87383 -0.02311 0.48568
vn 0.98498 -0.10535 0.13679
vn 0.9864 -0.06373 0.15151
vn 0.83443 0.13181 0.53512
vn 0.98743 -0.15283 0.04024
vn 0.98733 -0.1535 0.04015
vn 0.98746 -0.15262 0.04026
vn 0.98635 -0.16466 0
vn 0.98729 -0.1538 0.04012
vn 0.98557 -0.16926 0
vn 0.91143 -0.16904 -0.37513
vn 0.9174 -0.12575 -0.37758
vn 0.9885 -0.1512 0
vn -0.29579 0.05167 -0.95385
vn 0 0.3076 -0.95151
vn -0.28195 -0.30632 -0.90922
vn 0 0.31779 -0.94816
vn 0.45339 0.28641 -0.84404
vn 0.47114 0.09364 -0.87707
vn 0 -0.344 -0.93897
vn -0.49017 0 -0.87163
vn 0.49017 0 -0.87163
vn 0.48191 0.18287 -0.85693
vn -0.47777 -0.22352 -0.84957
vn -0.49017 0 -0.87163
vn 0.38512 0 -0.92287
vn 0.37099 0.13741 -0.91842
vn -0.47638 -0.23555 -0.8471
vn -0.95041 0.00066 -0.311
vn -0.99998 0.0031 0.00506
vn -0.96446 0.25821 0.0561
vn -0.94201 0.22619 -0.24791
vn -0.94941 0.00713 0.31396
vn -0.90711 0.32125 0.27193
vn -0.96322 0.26803 0.01935
vn -0.22764 0.28673 0.93057
vn 0.23005 0.27095 0.9347
vn 0.21227 0.37759 0.90132
vn -0.23725 0.22064 0.94606
vn 0.83925 0.3168 0.44193
vn 0.98485 0.17067 0.03075
vn 0.87277 0.48039 0.08655
vn 0.49908 0.75008 0.43392
vn 0.98775 0.15565 -0.01071
vn 0.90424 0.1476 -0.40069
vn 0.75119 0.51789 -0.40927
vn 0.8654 0.49991 -0.03439
vn 0.25848 0.03994 -0.96519
vn 0 0 -1
vn -0.00429 0.25016 -0.96819
vn 0.23703 0.27624 -0.9314
vn -0.31623 0 -0.94868
vn -0.32083 0.36365 -0.87454
vn -0.01552 0.27175 -0.96224
vn -0.92575 0.22693 -0.30248
vn -0.91438 0.29442 0.27791
vn -0.90488 0.32767 0.27171
vn -0.91689 0.26498 -0.29851
vn -0.37924 0.33486 0.86258
vn -0.34333 0.23175 0.91017
vn -0.34457 0.24833 0.90532
vn -0.36564 0.24077 0.89908
vn -0.88312 0.3022 0.35885
vn -0.87401 0.22789 0.42915
vn -0.83958 0.31605 0.44184
vn -0.78885 0.49226 0.36797
vn 0.34883 0.37677 -0.85811
vn 0.2566 0.3792 -0.88903
vn 0.23957 0.45011 -0.86024
vn 0.33745 0.5297 -0.77817
vn 1 0 -0
vn 1 0 -0
vn 0.87879 0.28519 -0.38261
vn 0.94091 0.30535 -0.14647
usemtl mat0
f 1//1 2//2 3//3
f 2//2 4//1 5//4
f 6//4 7//5 3//3
f 7//6 8//6 9//6
f 8//7 7//7 10//7
f 7//5 6//4 11//8
f 12//9 13//9 10//9
f 13//10 14//10 15//10
f 16//11 17//11 18//11
f 17//12 19//12 20//12
f 21//13 22//13 18//13
f 22//14 23//14 24//14
f 25//15 26//16 27//17
f 26//18 28//18 29//18
f 30//19 31//20 27//21
f 31//20 32//22 33//23
f 32//22 31//20 34//24
f 31//20 30//19 35//25
f 36//26 37//27 34//24
f 37//28 38//28 39//28
f 38//29 37//29 40//29
f 37//27 36//26 41//30
f 42//8 43//31 40//32
f 43//33 44//33 45//33
f 44//34 43//34 46//34
f 43//31 42//8 47//31
f 48//25 49//31 46//31
f 49//35 50//35 51//35
f 50//36 49//36 52//36
f 49//31 48//25 53//31
f 54//1 55//1 52//1
f 55//37 56//37 57//37
f 58//3 59//38 60//39
f 59//38 1//1 9//40
f 8//41 61//41 60//41
f 61//42 62//43 63//44
f 64//45 65//45 66//45
f 65//46 67//46 68//46
f 16//47 69//48 66//49
f 69//50 70//50 71//50
f 70//51 69//51 72//51
f 69//52 16//52 24//52
f 23//53 73//53 72//53
f 73//54 74//54 75//54
f 76//55 77//55 78//55
f 77//56 25//56 33//56
f 32//22 79//57 78//58
f 79//59 80//59 81//59
f 80//60 79//60 82//60
f 79//61 32//61 39//61
f 38//62 83//62 82//62
f 83//63 84//63 85//63
f 84//64 83//64 86//64
f 83//65 38//65 45//65
f 44//66 87//66 86//66
f 87//67 88//67 89//67
f 88//68 87//68 90//68
f 87//69 44//69 51//69
f 50//70 91//71 90//72
f 91//73 92//73 93//73
f 92//74 91//74 94//74
f 91//71 50//70 57//75
f 56//76 95//76 94//76
f 95//77 96//77 97//77
f 98//78 99//79 100//39
f 99//79 58//3 63//80
f 62//43 101//81 100//82
f 101//83 102//83 103//83
f 104//84 105//84 106//84
f 105//85 64//85 71//85
f 70//86 107//86 106//86
f 107//87 108//87 109//87
f 108//88 107//88 110//88
f 107//89 70//89 75//89
f 74//90 111//90 110//90
f 111//91 112//91 113//91
f 112//92 111//92 114//92
f 111//93 74//93 115//93
f 116//94 117//94 114//94
f 117//95 118//95 119//95
f 118//96 117//96 120//96
f 117//97 116//97 121//97
f 122//98 123//98 120//98
f 123//99 124//99 125//99
f 124//100 123//100 126//100
f 123//101 122//101 127//101
f 128//102 129//103 126//104
f 129//105 130//105 131//105
f 130//106 129//106 132//106
f 129//103 128//102 133//107
f 134//108 135//108 132//108
f 135//109 136//109 137//109
f 136//110 135//110 138//110
f 135//111 134//112 139//113
f 140//114 141//114 138//114
f 141//115 142//115 143//115
f 144//8 145//3 146//116
f 145//3 98//78 103//25
f 102//117 147//117 146//117
f 147//118 148//118 149//118
f 150//119 151//120 152//121
f 151//122 104//122 109//122
f 108//123 153//123 152//123
f 153//124 154//124 155//124
f 154//125 153//125 156//125
f 153//126 108//127 113//128
f 112//129 157//129 156//129
f 157//130 158//131 159//132
f 160//133 161//133 162//133
f 161//134 163//134 164//134
f 165//135 166//136 162//137
f 166//138 167//138 168//138
f 167//139 166//139 169//139
f 166//140 165//140 170//140
f 171//141 172//141 169//141
f 172//142 173//142 174//142
f 175//143 176//143 177//143
f 176//144 178//144 179//144
f 180//145 181//145 177//145
f 181//146 182//146 183//146
f 182//147 181//147 184//147
f 181//148 180//148 185//148
f 186//149 187//149 184//149
f 187//150 188//150 189//150
f 190//151 191//151 192//151
f 191//152 136//153 143//154
f 142//155 193//155 192//155
f 193//156 194//156 195//156
f 196//31 197//157 198//158
f 197//157 144//8 149//2
f 148//159 199//159 198//159
f 199//160 200//160 201//160
f 202//161 203//161 204//161
f 203//162 150//162 155//162
f 154//163 205//163 204//163
f 205//164 206//164 207//164
f 206//165 205//165 208//165
f 205//166 154//166 159//166
f 158//131 209//167 208//168
f 209//169 210//169 211//169
f 212//170 213//170 214//170
f 213//171 215//171 216//171
f 217//172 218//172 214//172
f 218//173 219//173 220//173
f 219//174 218//174 221//174
f 218//175 217//175 222//175
f 175//176 223//176 221//176
f 223//177 224//177 225//177
f 224//178 223//178 226//178
f 223//179 175//179 183//179
f 182//180 227//180 226//180
f 227//181 228//181 229//181
f 230//182 231//182 232//182
f 231//183 233//183 234//183
f 235//184 236//184 232//184
f 236//185 237//185 238//185
f 239//186 240//186 241//186
f 240//187 190//187 195//187
f 194//188 242//188 241//188
f 242//189 243//189 244//189
f 245//79 246//190 247//8
f 246//190 196//31 201//21
f 200//191 248//191 247//191
f 248//192 249//192 250//192
f 249//193 248//194 251//193
f 248//195 200//195 252//195
f 253//196 254//197 251//198
f 254//199 255//200 256//201
f 255//200 254//199 257//202
f 254//197 253//196 258//203
f 259//204 260//204 257//204
f 260//205 261//205 262//205
f 263//206 264//206 265//206
f 264//207 212//207 220//207
f 219//208 266//208 265//208
f 266//209 267//209 268//209
f 267//210 266//210 269//210
f 266//211 219//211 225//211
f 224//212 270//212 269//212
f 270//213 271//213 272//213
f 273//214 274//214 275//214
f 274//215 276//215 277//215
f 230//216 278//216 275//216
f 278//217 279//217 280//217
f 279//218 278//218 281//218
f 278//219 230//219 238//219
f 237//220 282//220 281//220
f 282//221 283//221 284//221
f 285//222 286//222 287//222
f 286//223 239//224 244//225
f 243//226 288//226 287//226
f 288//227 289//228 290//229
f 291//1 292//1 293//1
f 292//1 245//79 250//230
f 249//231 294//232 293//233
f 294//234 295//234 296//234
f 295//193 294//235 297//236
f 294//232 249//231 256//237
f 255//238 298//238 297//238
f 298//239 299//239 300//239
f 299//240 298//241 301//242
f 298//241 255//243 262//244
f 261//245 302//245 301//245
f 302//246 303//246 304//246
f 305//247 306//247 307//247
f 306//248 308//248 309//248
f 310//249 311//249 307//249
f 311//250 312//250 313//250
f 312//251 311//252 314//253
f 311//254 310//254 315//254
f 316//255 317//255 314//255
f 317//256 318//256 319//256
f 318//257 317//258 320//259
f 317//260 316//261 321//261
f 322//262 323//262 320//262
f 323//263 324//263 325//263
f 324//264 323//264 326//264
f 323//265 322//265 327//265
f 285//266 328//266 326//266
f 328//267 329//267 330//267
f 331//268 332//268 333//268
f 332//269 334//269 335//269
f 336//270 337//40 333//271
f 337//40 338//272 339//273
f 340//1 341//31 342//19
f 341//31 291//1 296//2
f 295//274 343//275 342//276
f 343//233 344//233 345//233
f 344//277 343//278 346//279
f 343//280 295//280 300//280
f 299//281 347//281 346//281
f 347//282 348//39 349//283
f 348//284 347//285 350//286
f 347//287 299//287 304//287
f 303//288 351//288 350//288
f 351//289 352//290 353//291
f 352//290 351//289 354//292
f 351//293 303//293 355//293
f 356//294 357//294 354//294
f 357//295 358//296 359//297
f 358//296 357//295 360//298
f 357//299 356//299 361//299
f 362//300 363//300 360//300
f 363//301 364//302 365//303
f 364//302 363//301 366//304
f 363//305 362//305 367//305
f 368//306 369//306 366//306
f 369//307 370//307 371//307
f 372//308 373//308 374//308
f 373//309 324//309 330//309
f 329//310 375//310 374//310
f 375//311 376//311 377//311
f 378//312 379//312 380//312
f 379//313 331//313 339//313
f 338//272 381//3 380//314
f 381//3 382//315 383//316
f 8//317 15//317 384//317
f 15//318 14//318 385//318
f 16//319 68//319 384//319
f 68//320 67//320 386//320
f 14//321 13//321 387//321
f 13//322 12//322 388//322
f 19//323 17//323 387//323
f 17//324 16//324 385//324
f 12//325 389//325 390//325
f 389//326 28//326 391//326
f 21//327 20//327 390//327
f 20//328 19//328 388//328
f 28//329 26//329 392//329
f 26//330 25//330 393//330
f 23//331 22//331 392//331
f 22//332 21//332 391//332
f 25//333 77//333 394//333
f 77//334 76//334 395//334
f 74//335 73//335 394//335
f 73//336 23//336 393//336
f 76//337 81//337 396//337
f 81//338 80//338 397//338
f 116//339 115//339 396//339
f 115//340 74//340 395//340
f 80//341 85//341 398//341
f 85//342 84//342 399//342
f 122//343 121//343 398//343
f 121//344 116//344 397//344
f 84//345 89//345 400//345
f 89//346 88//346 401//346
f 128//347 127//347 400//347
f 127//348 122//348 399//348
f 88//349 93//349 402//349
f 93//350 92//351 403//352
f 134//353 133//353 402//353
f 133//354 128//354 401//354
f 92//355 97//355 404//355
f 97//356 96//356 405//356
f 140//357 139//357 404//357
f 139//358 134//358 403//358
f 96//359 406//360 407//361
f 406//360 408//362 409//362
f 142//363 141//363 407//363
f 141//364 140//364 405//364
f 408//362 410//365 411//366
f 410//365 412//367 413//368
f 194//369 193//369 411//369
f 193//370 142//371 409//372
f 412//367 414//373 415//374
f 414//373 416//375 417//376
f 243//377 242//377 415//377
f 242//378 194//378 413//378
f 334//379 332//379 418//379
f 332//380 331//380 419//380
f 329//381 328//381 418//381
f 328//382 285//382 420//382
f 331//383 379//384 421//385
f 379//386 378//386 422//386
f 376//387 375//387 421//387
f 375//388 329//388 419//388
f 378//389 423//389 424//389
f 423//390 370//390 425//390
f 372//391 377//391 424//391
f 377//392 376//392 422//392
f 370//393 369//393 426//393
f 369//394 368//395 427//396
f 324//397 373//397 426//397
f 373//398 372//398 425//398
f 368//399 367//399 428//399
f 367//400 362//400 429//400
f 318//401 325//401 428//401
f 325//402 324//402 427//402
f 362//403 361//403 430//403
f 361//404 356//404 431//404
f 312//405 319//405 430//405
f 319//406 318//406 429//406
f 356//407 355//407 432//407
f 355//408 303//408 433//408
f 305//409 313//409 432//409
f 313//410 312//410 431//410
f 303//411 302//411 434//411
f 302//412 261//412 435//412
f 308//413 306//414 434//415
f 306//416 305//416 433//416
f 261//417 260//417 436//417
f 260//418 259//418 437//418
f 210//419 438//419 436//419
f 438//420 308//420 435//420
f 259//421 258//421 439//421
f 258//422 253//423 440//424
f 206//425 211//426 439//427
f 211//428 210//428 437//428
f 253//429 252//429 441//429
f 252//430 200//430 442//430
f 202//431 207//431 441//431
f 207//432 206//432 440//432
f 200//433 199//433 443//433
f 199//434 148//434 444//434
f 150//435 203//435 443//435
f 203//436 202//436 442//436
f 148//437 147//437 445//437
f 147//438 102//438 446//438
f 104//439 151//439 445//439
f 151//440 150//440 444//440
f 102//441 101//442 447//443
f 101//444 62//444 448//444
f 64//445 105//445 447//445
f 105//446 104//446 446//446
f 62//447 61//447 449//447
f 61//448 8//448 386//448
f 67//449 65//449 449//449
f 65//450 64//451 448//452
f 112//453 119//453 450//453
f 119//454 118//454 451//454
f 165//455 164//455 450//455
f 164//456 163//456 452//456
f 118//457 125//457 453//457
f 125//458 124//458 454//458
f 171//459 170//459 453//459
f 170//460 165//460 451//460
f 124//461 131//461 455//461
f 131//462 130//462 456//462
f 457//463 458//463 455//463
f 458//464 171//464 454//464
f 130//465 137//465 459//465
f 137//466 136//467 460//468
f 461//469 462//469 459//469
f 462//470 457//470 456//470
f 136//471 191//471 463//471
f 191//472 190//472 464//472
f 465//473 466//473 463//473
f 466//474 461//474 460//474
f 190//475 240//475 467//475
f 240//476 239//476 468//476
f 469//477 470//477 467//477
f 470//478 465//478 464//478
f 239//479 286//479 471//479
f 286//480 285//480 472//480
f 473//481 474//481 471//481
f 474//482 469//483 468//484
f 285//485 327//485 475//485
f 327//486 322//486 476//486
f 477//487 478//488 475//489
f 478//490 473//491 472//492
f 322//493 321//494 479//495
f 321//496 316//497 480//498
f 481//389 482//499 479//389
f 482//499 477//487 476//500
f 316//497 315//501 483//502
f 315//503 310//504 484//505
f 485//506 486//506 483//506
f 486//507 481//508 480//509
f 310//510 309//510 487//510
f 309//511 308//511 488//511
f 489//512 490//512 487//512
f 490//509 485//507 484//513
f 308//514 438//514 491//514
f 438//515 210//515 492//515
f 493//516 494//517 491//518
f 494//519 489//520 488//521
f 210//522 209//522 495//522
f 209//523 158//524 496//525
f 160//526 497//526 495//526
f 497//527 493//516 492//528
f 158//524 157//529 498//530
f 157//531 112//531 452//531
f 163//532 161//532 498//532
f 161//533 160//533 496//533
f 160//534 168//534 499//534
f 168//535 167//535 500//535
f 217//536 216//536 499//536
f 216//537 215//537 501//537
f 167//538 174//538 502//538
f 174//539 173//539 503//539
f 175//540 222//540 502//540
f 222//541 217//541 500//541
f 173//542 172//542 504//542
f 172//543 171//544 505//545
f 178//546 176//546 504//546
f 176//547 175//547 503//547
f 171//548 458//548 506//548
f 458//549 457//550 507//551
f 180//552 179//552 506//552
f 179//553 178//553 505//553
f 457//554 462//554 508//554
f 462//555 461//555 509//555
f 186//556 185//556 508//556
f 185//557 180//557 507//557
f 461//558 466//558 510//558
f 466//559 465//559 511//559
f 188//560 187//560 510//560
f 187//561 186//561 509//561
f 465//562 470//562 512//562
f 470//563 469//564 513//565
f 514//566 515//567 512//568
f 515//569 188//569 511//569
f 469//570 474//570 516//570
f 474//571 473//571 517//571
f 518//572 519//572 516//572
f 519//573 514//566 513//574
f 473//575 478//575 520//575
f 478//576 477//576 521//576
f 522//577 523//578 520//579
f 523//580 518//580 517//580
f 477//581 482//582 524//583
f 482//499 481//389 525//389
f 271//584 526//584 524//584
f 526//585 522//577 521//586
f 481//508 486//507 527//587
f 486//588 485//589 528//590
f 267//591 272//591 527//591
f 272//592 271//592 525//592
f 485//507 490//509 529//587
f 490//593 489//594 530//595
f 263//596 268//596 529//596
f 268//597 267//597 528//597
f 489//520 494//519 531//598
f 494//517 493//516 532//599
f 212//600 264//600 531//600
f 264//601 263//601 530//601
f 493//516 497//527 533//602
f 497//603 160//603 501//603
f 215//604 213//604 533//604
f 213//605 212//606 532//607
f 182//608 189//608 534//608
f 189//609 188//609 535//609
f 235//610 234//610 534//610
f 234//611 233//611 536//611
f 188//612 515//612 537//612
f 515//613 514//613 538//613
f 237//614 236//614 537//614
f 236//615 235//615 535//615
f 514//616 519//617 539//618
f 519//619 518//619 540//619
f 283//620 282//620 539//620
f 282//621 237//621 538//621
f 518//622 523//622 541//622
f 523//623 522//624 542//625
f 279//626 284//627 541//628
f 284//629 283//629 540//629
f 522//624 526//389 543//630
f 526//631 271//631 544//631
f 273//632 280//632 543//632
f 280//633 279//633 542//633
f 271//634 270//634 545//634
f 270//635 224//635 546//635
f 276//636 274//636 545//636
f 274//637 273//637 544//637
f 224//638 229//638 547//638
f 229//639 228//639 548//639
f 230//640 277//641 547//642
f 277//643 276//643 546//643
f 228//644 227//645 549//646
f 227//647 182//647 536//647
f 233//648 231//648 549//648
f 231//649 230//649 548//649
f 285//650 290//650 550//650
f 290//651 289//651 551//651
f 336//652 335//652 550//652
f 335//653 334//653 420//653
f 336//654 551//654 552//654
f 551//655 289//655 288//655
f 243//656 417//656 552//656
f 417//376 416//375 553//657
f 3//3 9//40 1//1
f 5//4 3//3 2//2
f 3//3 5//4 6//4
f 9//40 3//3 7//5
f 10//658 15//658 8//658
f 11//8 10//1 7//5
f 10//1 11//8 12//659
f 15//660 10//660 13//660
f 18//661 24//661 16//661
f 20//662 18//662 17//662
f 18//663 20//663 21//663
f 24//664 18//664 22//664
f 27//665 33//665 25//665
f 29//666 27//17 26//16
f 27//21 29//5 30//19
f 33//23 27//21 31//20
f 34//667 39//667 32//667
f 35//25 34//24 31//20
f 34//24 35//25 36//26
f 39//668 34//668 37//668
f 40//669 45//669 38//669
f 41//30 40//32 37//27
f 40//32 41//30 42//8
f 45//670 40//670 43//670
f 46//671 51//671 44//671
f 47//31 46//31 43//31
f 46//31 47//31 48//25
f 51//672 46//672 49//672
f 52//673 57//673 50//673
f 53//31 52//1 49//31
f 52//1 53//31 54//1
f 57//674 52//674 55//674
f 60//39 63//80 58//3
f 9//40 60//39 59//38
f 60//675 9//675 8//675
f 63//676 60//676 61//676
f 66//677 71//677 64//677
f 68//678 66//678 65//678
f 66//49 68//679 16//47
f 71//680 66//680 69//680
f 72//681 75//681 70//681
f 24//682 72//682 69//682
f 72//683 24//683 23//683
f 75//684 72//684 73//684
f 78//685 81//685 76//685
f 33//686 78//686 77//686
f 78//58 33//23 32//22
f 81//687 78//687 79//687
f 82//688 85//688 80//688
f 39//689 82//689 79//689
f 82//690 39//690 38//690
f 85//691 82//691 83//691
f 86//692 89//693 84//694
f 45//695 86//695 83//695
f 86//696 45//696 44//696
f 89//693 86//692 87//697
f 90//698 93//698 88//698
f 51//699 90//699 87//699
f 90//700 51//700 50//700
f 93//701 90//701 91//701
f 94//702 97//702 92//702
f 57//703 94//703 91//703
f 94//704 57//704 56//704
f 97//705 94//705 95//705
f 100//39 103//25 98//78
f 63//80 100//39 99//79
f 100//82 63//44 62//43
f 103//706 100//706 101//706
f 106//707 109//707 104//707
f 71//708 106//708 105//708
f 106//709 71//709 70//709
f 109//710 106//710 107//710
f 110//711 113//128 108//127
f 75//712 110//712 107//712
f 110//713 75//713 74//713
f 113//714 110//714 111//714
f 114//715 119//715 112//715
f 115//716 114//716 111//716
f 114//717 115//717 116//717
f 119//718 114//718 117//718
f 120//719 125//719 118//719
f 121//720 120//720 117//720
f 120//721 121//721 122//721
f 125//722 120//722 123//722
f 126//723 131//723 124//723
f 127//724 126//725 123//726
f 126//725 127//724 128//727
f 131//728 126//728 129//728
f 132//729 137//729 130//729
f 133//730 132//730 129//730
f 132//731 133//731 134//731
f 137//732 132//732 135//732
f 138//733 143//154 136//153
f 139//113 138//734 135//111
f 138//735 139//735 140//735
f 143//736 138//736 141//736
f 146//116 149//2 144//8
f 103//25 146//116 145//3
f 146//737 103//737 102//737
f 149//738 146//738 147//738
f 152//121 155//739 150//119
f 109//740 152//740 151//740
f 152//741 109//741 108//741
f 155//742 152//742 153//742
f 156//743 159//743 154//743
f 113//744 156//744 153//744
f 156//745 113//745 112//745
f 159//132 156//746 157//130
f 162//747 168//747 160//747
f 164//748 162//748 161//748
f 162//137 164//749 165//135
f 168//750 162//750 166//750
f 169//751 174//751 167//751
f 170//752 169//752 166//752
f 169//753 170//753 171//753
f 174//754 169//754 172//754
f 177//755 183//755 175//755
f 179//756 177//756 176//756
f 177//757 179//757 180//757
f 183//758 177//758 181//758
f 184//759 189//759 182//759
f 185//760 184//760 181//760
f 184//761 185//761 186//761
f 189//762 184//762 187//762
f 192//763 195//763 190//763
f 143//764 192//764 191//764
f 192//765 143//765 142//765
f 195//766 192//766 193//766
f 198//158 201//21 196//31
f 149//2 198//158 197//157
f 198//767 149//767 148//767
f 201//768 198//768 199//768
f 204//769 207//769 202//769
f 155//770 204//770 203//770
f 204//771 155//771 154//771
f 207//772 204//772 205//772
f 208//773 211//773 206//773
f 159//774 208//774 205//774
f 208//168 159//132 158//131
f 211//775 208//775 209//775
f 214//776 220//776 212//776
f 216//777 214//777 213//777
f 214//778 216//778 217//778
f 220//779 214//779 218//779
f 221//780 225//780 219//780
f 222//781 221//781 218//781
f 221//782 222//782 175//782
f 225//783 221//783 223//783
f 226//784 229//784 224//784
f 183//785 226//785 223//785
f 226//786 183//786 182//786
f 229//787 226//787 227//787
f 232//788 238//788 230//788
f 234//789 232//789 231//789
f 232//790 234//790 235//790
f 238//791 232//791 236//791
f 241//792 244//792 239//792
f 195//793 241//793 240//793
f 241//794 195//794 194//794
f 244//795 241//795 242//795
f 247//8 250//230 245//79
f 201//21 247//8 246//190
f 247//796 201//796 200//796
f 250//230 247//8 248//5
f 251//193 256//201 249//193
f 252//797 251//797 248//797
f 251//798 252//798 253//798
f 256//201 251//193 254//199
f 257//799 262//244 255//243
f 258//800 257//800 254//800
f 257//801 258//801 259//801
f 262//802 257//802 260//802
f 265//803 268//803 263//803
f 220//804 265//804 264//804
f 265//805 220//805 219//805
f 268//806 265//806 266//806
f 269//807 272//807 267//807
f 225//808 269//808 266//808
f 269//809 225//809 224//809
f 272//810 269//810 270//810
f 275//811 280//811 273//811
f 277//812 275//812 274//812
f 275//813 277//813 230//813
f 280//814 275//814 278//814
f 281//815 284//815 279//815
f 238//816 281//816 278//816
f 281//817 238//817 237//817
f 284//818 281//818 282//818
f 287//819 290//819 285//819
f 244//225 287//820 286//223
f 287//821 244//821 243//821
f 290//229 287//822 288//227
f 293//1 296//2 291//1
f 250//230 293//1 292//1
f 293//823 250//823 249//823
f 296//2 293//1 294//1
f 297//236 300//824 295//193
f 256//237 297//825 294//232
f 297//825 256//237 255//826
f 300//827 297//827 298//827
f 301//828 304//828 299//828
f 262//244 301//242 298//241
f 301//829 262//829 261//829
f 304//830 301//830 302//830
f 307//831 313//831 305//831
f 309//832 307//832 306//832
f 307//833 309//833 310//833
f 313//834 307//834 311//834
f 314//253 319//835 312//251
f 315//836 314//836 311//836
f 314//837 315//837 316//837
f 319//838 314//838 317//838
f 320//259 325//839 318//257
f 321//261 320//260 317//260
f 320//840 321//840 322//840
f 325//841 320//841 323//841
f 326//842 330//842 324//842
f 327//843 326//843 323//843
f 326//844 327//844 285//844
f 330//845 326//845 328//845
f 333//846 339//846 331//846
f 335//847 333//847 332//847
f 333//848 335//848 336//848
f 339//273 333//271 337//40
f 342//19 345//1 340//1
f 296//2 342//19 341//31
f 342//276 296//849 295//274
f 345//275 342//276 343//275
f 346//850 349//283 344//1
f 300//851 346//279 343//278
f 346//852 300//852 299//852
f 349//283 346//850 347//282
f 350//853 353//853 348//853
f 304//854 350//286 347//285
f 350//855 304//855 303//855
f 353//856 350//856 351//856
f 354//292 359//297 352//290
f 355//857 354//858 351//859
f 354//858 355//857 356//860
f 359//297 354//292 357//295
f 360//298 365//303 358//296
f 361//861 360//861 357//861
f 360//862 361//862 362//862
f 365//303 360//298 363//301
f 366//304 371//2 364//302
f 367//863 366//863 363//863
f 366//864 367//864 368//864
f 371//865 366//865 369//865
f 374//866 377//866 372//866
f 330//867 374//867 373//867
f 374//868 330//868 329//868
f 377//869 374//869 375//869
f 380//314 383//316 378//272
f 339//870 380//870 379//870
f 380//314 339//273 338//272
f 383//316 380//314 381//3
f 384//871 386//871 8//871
f 385//872 384//872 15//872
f 384//873 385//873 16//873
f 386//874 384//874 68//874
f 387//875 385//875 14//875
f 388//876 387//876 13//876
f 387//877 388//877 19//877
f 385//878 387//878 17//878
f 390//879 388//879 12//879
f 391//880 390//880 389//880
f 390//881 391//881 21//881
f 388//882 390//882 20//882
f 392//883 391//884 28//885
f 393//886 392//887 26//888
f 392//887 393//886 23//889
f 391//884 392//883 22//890
f 394//891 393//891 25//891
f 395//892 394//892 77//892
f 394//893 395//893 74//893
f 393//894 394//894 73//894
f 396//895 395//896 76//897
f 397//898 396//898 81//898
f 396//899 397//899 116//899
f 395//896 396//895 115//900
f 398//901 397//901 80//901
f 399//902 398//902 85//902
f 398//903 399//903 122//903
f 397//904 398//904 121//904
f 400//905 399//905 84//905
f 401//906 400//906 89//906
f 400//907 401//907 128//907
f 399//908 400//908 127//908
f 402//909 401//910 88//911
f 403//352 402//912 93//350
f 402//913 403//913 134//913
f 401//910 402//909 133//914
f 404//915 403//915 92//915
f 405//916 404//916 97//916
f 404//917 405//917 140//917
f 403//918 404//918 139//918
f 407//919 405//919 96//919
f 409//362 407//361 406//360
f 407//920 409//372 142//371
f 405//921 407//921 141//921
f 411//366 409//362 408//362
f 413//368 411//366 410//365
f 411//922 413//922 194//922
f 409//923 411//923 193//923
f 415//374 413//368 412//367
f 417//376 415//374 414//373
f 415//924 417//924 243//924
f 413//925 415//925 242//925
f 418//926 420//926 334//926
f 419//927 418//927 332//927
f 418//928 419//928 329//928
f 420//929 418//929 328//929
f 421//385 419//930 331//383
f 422//931 421//931 379//931
f 421//932 422//932 376//932
f 419//933 421//933 375//933
f 424//934 422//934 378//934
f 425//935 424//935 423//935
f 424//936 425//936 372//936
f 422//937 424//937 377//937
f 426//938 425//938 370//938
f 427//396 426//939 369//394
f 426//940 427//940 324//940
f 425//941 426//941 373//941
f 428//942 427//942 368//942
f 429//943 428//943 367//943
f 428//944 429//944 318//944
f 427//945 428//945 325//945
f 430//946 429//946 362//946
f 431//947 430//947 361//947
f 430//948 431//948 312//948
f 429//949 430//949 319//949
f 432//950 431//950 356//950
f 433//951 432//951 355//951
f 432//952 433//952 305//952
f 431//953 432//953 313//953
f 434//954 433//954 303//954
f 435//955 434//955 302//955
f 434//956 435//956 308//956
f 433//957 434//415 306//414
f 436//958 435//958 261//958
f 437//959 436//959 260//959
f 436//960 437//960 210//960
f 435//961 436//961 438//961
f 439//962 437//962 259//962
f 440//424 439//427 258//422
f 439//427 440//424 206//425
f 437//963 439//963 211//963
f 441//964 440//964 253//964
f 442//965 441//965 252//965
f 441//966 442//966 202//966
f 440//967 441//967 207//967
f 443//968 442//968 200//968
f 444//969 443//969 199//969
f 443//970 444//970 150//970
f 442//971 443//971 203//971
f 445//972 444//972 148//972
f 446//973 445//973 147//973
f 445//974 446//974 104//974
f 444//975 445//975 151//975
f 447//976 446//976 102//976
f 448//977 447//443 101//442
f 447//978 448//978 64//978
f 446//979 447//979 105//979
f 449//980 448//980 62//980
f 386//981 449//981 61//981
f 449//982 386//982 67//982
f 448//452 449//983 65//450
f 450//984 452//984 112//984
f 451//985 450//985 119//985
f 450//986 451//986 165//986
f 452//987 450//987 164//987
f 453//988 451//988 118//988
f 454//989 453//989 125//989
f 453//990 454//990 171//990
f 451//991 453//991 170//991
f 455//992 454//992 124//992
f 456//993 455//993 131//993
f 455//994 456//994 457//994
f 454//995 455//995 458//995
f 459//996 456//996 130//996
f 460//468 459//997 137//466
f 459//998 460//998 461//998
f 456//999 459//999 462//999
f 463//1000 460//1000 136//1000
f 464//1001 463//1001 191//1001
f 463//1002 464//1002 465//1002
f 460//1003 463//1003 466//1003
f 467//1004 464//1004 190//1004
f 468//1005 467//1005 240//1005
f 467//1006 468//484 469//483
f 464//1007 467//1007 470//1007
f 471//1008 468//1008 239//1008
f 472//1009 471//1009 286//1009
f 471//1010 472//1010 473//1010
f 468//1011 471//1011 474//1011
f 475//1012 472//1012 285//1012
f 476//1013 475//1013 327//1013
f 475//489 476//500 477//487
f 472//492 475//1014 478//490
f 479//495 476//1015 322//493
f 480//498 479//1016 321//496
f 479//389 480//389 481//389
f 476//500 479//389 482//499
f 483//502 480//498 316//497
f 484//1017 483//502 315//501
f 483//389 484//389 485//389
f 480//1018 483//1018 486//1018
f 487//1019 484//505 310//504
f 488//1020 487//1020 309//1020
f 487//1021 488//1021 489//1021
f 484//1022 487//1022 490//1022
f 491//1023 488//1023 308//1023
f 492//528 491//518 438//961
f 491//518 492//528 493//516
f 488//521 491//1024 494//519
f 495//1025 492//1025 210//1025
f 496//525 495//1026 209//523
f 495//1027 496//1027 160//1027
f 492//528 495//1028 497//527
f 498//530 496//525 158//524
f 452//1029 498//1029 157//1029
f 498//1030 452//1030 163//1030
f 496//525 498//530 161//1031
f 499//1032 501//1033 160//1034
f 500//1035 499//1035 168//1035
f 499//1036 500//1036 217//1036
f 501//1033 499//1032 216//1037
f 502//1038 500//1039 167//1040
f 503//1041 502//1041 174//1041
f 502//1042 503//1042 175//1042
f 500//1039 502//1038 222//1043
f 504//1044 503//1044 173//1044
f 505//545 504//1045 172//543
f 504//1046 505//1046 178//1046
f 503//1047 504//1047 176//1047
f 506//1048 505//1048 171//1048
f 507//551 506//1049 458//549
f 506//1050 507//1050 180//1050
f 505//1051 506//1051 179//1051
f 508//1052 507//1052 457//1052
f 509//1053 508//1053 462//1053
f 508//1054 509//1054 186//1054
f 507//1055 508//1055 185//1055
f 510//1056 509//1056 461//1056
f 511//1057 510//1057 466//1057
f 510//1058 511//1058 188//1058
f 509//1059 510//1059 187//1059
f 512//1060 511//1061 465//1062
f 513//565 512//1063 470//563
f 512//568 513//574 514//566
f 511//1061 512//1060 515//1064
f 516//1065 513//565 469//564
f 517//1066 516//1066 474//1066
f 516//1067 517//1067 518//1067
f 513//574 516//1068 519//573
f 520//1069 517//1069 473//1069
f 521//1070 520//1070 478//1070
f 520//579 521//586 522//577
f 517//1071 520//1071 523//1071
f 524//583 521//1072 477//581
f 525//1073 524//1073 482//1073
f 524//1074 525//1074 271//1074
f 521//586 524//1075 526//585
f 527//587 525//1076 481//508
f 528//590 527//1077 486//588
f 527//1078 528//1078 267//1078
f 525//1079 527//1079 272//1079
f 529//587 528//1080 485//507
f 530//595 529//1081 490//593
f 529//1082 530//1082 263//1082
f 528//1083 529//1083 268//1083
f 531//598 530//1084 489//520
f 532//599 531//1085 494//517
f 531//1086 532//1086 212//1086
f 530//1087 531//1087 264//1087
f 533//602 532//599 493//516
f 501//1088 533//1088 497//1088
f 533//1089 501//1089 215//1089
f 532//607 533//1090 213//605
f 534//1091 536//1091 182//1091
f 535//1092 534//1092 189//1092
f 534//1093 535//1093 235//1093
f 536//1094 534//1094 234//1094
f 537//1095 535//1095 188//1095
f 538//1096 537//1096 515//1096
f 537//1097 538//1097 237//1097
f 535//1098 537//1098 236//1098
f 539//618 538//1099 514//616
f 540//1100 539//1100 519//1100
f 539//1101 540//1101 283//1101
f 538//1102 539//1102 282//1102
f 541//1103 540//1103 518//1103
f 542//625 541//1104 523//623
f 541//628 542//1105 279//626
f 540//1106 541//1106 284//1106
f 543//630 542//625 522//624
f 544//1107 543//1107 526//1107
f 543//1108 544//1108 273//1108
f 542//1109 543//1109 280//1109
f 545//1110 544//1110 271//1110
f 546//1111 545//1111 270//1111
f 545//1112 546//1112 276//1112
f 544//1113 545//1113 274//1113
f 547//1114 546//1114 224//1114
f 548//1115 547//1115 229//1115
f 547//642 548//1116 230//640
f 546//1117 547//1117 277//1117
f 549//1118 548//1118 228//1118
f 536//1119 549//646 227//645
f 549//1120 536//1120 233//1120
f 548//1121 549//1121 231//1121
f 550//1122 420//1122 285//1122
f 551//1123 550//1123 290//1123
f 550//1124 551//1124 336//1124
f 420//1125 550//1125 335//1125
f 552//1126 553//657 336//1127
f 288//1128 552//1128 551//1128
f 552//1129 288//1129 243//1129
f 553//657 552//1126 417//376
# Vertices: 553, normals: 1129, texture coordinates: 0, faces: 1040

