# Made in Blockbench 5.0.4
mtllib rallyKart.mtl

o techo
v 0.50625 1.1875 -0.04128749999999998
v 0.50625 1.1875 -0.589285625
v 0.50625 1.125 0.0625
v 0.50625 1.125 -0.589285625
v -0.49375 1.1875 -0.04128749999999998
v -0.49375 1.1875 -0.589285625
v -0.49375 1.125 0.0625
v -0.49375 1.125 -0.589285625
vt 0.25 1
vt 0 1
vt 0 0.875
vt 0.25 0.875
vt 0.25 0.875
vt 0.25 1
vt 0 1
vt 0 0.875
vt 0 0.75
vt 0.25 0.75
vt 0.25 1
vt 0 1
vt 0.25 0.75
vt 0.25 1
vt 0 1
vt 0 0.75
vt 0.25 0.875
vt 0.25 1
vt 0 1
vt 0 0.875
vt 0.25 1
vt 0 1
vt 0 0.875
vt 0.25 0.875
vn 1 0 0
vn -1 0 0
vn 0 1 0
vn 0 -1 0
vn 0 0.8566633782284744 0.5158758149033329
vn 0 0 -1
usemtl none
f 2/1/1 1/2/1 3/3/1 4/4/1
f 7/5/2 5/6/2 6/7/2 8/8/2
f 5/9/3 1/10/3 2/11/3 6/12/3
f 4/13/4 3/14/4 7/15/4 8/16/4
f 3/17/5 1/18/5 5/19/5 7/20/5
f 6/21/6 2/22/6 4/23/6 8/24/6
o Cuerpo
v 0.5125 0.5625 0.642856875
v 0.5125 0.5625 -0.723214375
v 0.5125 0.1875 1.25
v 0.5125 0.1875 -0.875
v -0.4875 0.5625 0.642856875
v -0.4875 0.5625 -0.723214375
v -0.4875 0.1875 1.25
v -0.4875 0.1875 -0.875
vt 0.25 1
vt 0 1
vt 0 0.875
vt 0.25 0.875
vt 0.25 0.75
vt 0.25 1
vt 0 1
vt 0 0.75
vt 0.25 0.875
vt 0.25 1
vt 0 1
vt 0 0.875
vt 0.25 1
vt 0 1
vt 0 0.875
vt 0.25 0.875
vt 0.25 0.875
vt 0.25 1
vt 0 1
vt 0 0.875
vt 0 0.75
vt 0.25 0.75
vt 0.25 1
vt 0 1
vn 1 0 0
vn 0 -1 0
vn 0 0.8507981010099989 0.5254927129064495
vn 0 0.37519256809961776 -0.926946889979579
vn -1 0 0
vn 0 1 0
usemtl none
f 10/25/7 9/26/7 11/27/7 12/28/7
f 12/29/8 11/30/8 15/31/8 16/32/8
f 11/33/9 9/34/9 13/35/9 15/36/9
f 14/37/10 10/38/10 12/39/10 16/40/10
f 15/41/11 13/42/11 14/43/11 16/44/11
f 13/45/12 9/46/12 10/47/12 14/48/12
o tubo_d_1
v -0.35 0.5345500003727874 0.4307840152243392
v -0.35 1.1569611104069573 -0.09148091764597405
v -0.334375 0.5546371131754918 0.45472290407180727
v -0.334375 1.1770482232096615 -0.06754202879850596
v -0.31875 0.5345500003727874 0.4307840152243392
v -0.31875 1.1569611104069573 -0.09148091764597405
v -0.334375 0.5144628875700831 0.40684512637687115
v -0.334375 1.1368739976042528 -0.11541980649344213
v -0.365625 0.5144628875700831 0.40684512637687115
v -0.365625 1.1368739976042528 -0.11541980649344213
v -0.38125 0.5345500003727874 0.4307840152243392
v -0.38125 1.1569611104069573 -0.09148091764597405
v -0.365625 0.5546371131754918 0.45472290407180727
v -0.365625 1.1770482232096615 -0.06754202879850596
vt 0.07216875 0.9375
vt 0.036084375 1
vt 0 0.9375
vt 0 0.875
vt 0.07216875 0.875
vt 0.07216875 1
vt 0 1
vt 0.036084375 0.9375
vt 0.07216875 1
vt 0 1
vt 0.036084375 0.9375
vt 0.07216875 1
vt 0 1
vt 0 0.875
vt 0.07216875 0.875
vt 0.07216875 1
vt 0 1
vt 0.07216875 0.9375
vt 0.036084375 1
vt 0 0.9375
vt 0 0.9375
vt 0.07216875 0.9375
vt 0.036084375 1
vt 0 0.875
vt 0.07216875 0.875
vt 0.07216875 1
vt 0 1
vt 0.07216875 1
vt 0 1
vt 0.036084375 0.9375
vt 0 1
vt 0.036084375 0.9375
vt 0.07216875 1
vt 0 0.875
vt 0.07216875 0.875
vt 0.07216875 1
vt 0 1
vt 0.036084375 1
vt 0 0.9375
vt 0.07216875 0.9375
vt 0.036084375 1
vt 0 0.9375
vt 0.07216875 0.9375
vt 0 0.875
vt 0.07216875 0.875
vt 0.07216875 1
vt 0 1
vt 0 1
vt 0.036084375 0.9375
vt 0.07216875 1
vt 0.07216875 1
vt 0 1
vt 0.036084375 0.9375
vt 0 0.875
vt 0.07216875 0.875
vt 0.07216875 1
vt 0 1
vt 0 0.9375
vt 0.07216875 0.9375
vt 0.036084375 1
vn 0 -0.7660444431189781 0.6427876096865394
vn 0.8944271909999159 0.28746335807074086 0.3425854897200012
vn 0 0.7660444431189781 -0.6427876096865394
vn 0 -0.7660444431189781 0.6427876096865394
vn 0.8944271909999159 -0.28746335807074086 -0.3425854897200012
vn 0 0.7660444431189781 -0.6427876096865394
vn 0 -0.7660444431189781 0.6427876096865394
vn 0 -0.6427876096865394 -0.7660444431189781
vn 0 0.7660444431189781 -0.6427876096865394
vn 0 -0.7660444431189781 0.6427876096865394
vn -0.8944271909999159 -0.28746335807074086 -0.3425854897200012
vn 0 0.7660444431189781 -0.6427876096865394
vn 0 -0.7660444431189781 0.6427876096865394
vn -0.8944271909999159 0.28746335807074086 0.3425854897200012
vn 0 0.7660444431189781 -0.6427876096865394
vn 0 -0.7660444431189781 0.6427876096865394
vn 0 0.6427876096865394 0.7660444431189781
vn 0 0.7660444431189781 -0.6427876096865394
usemtl none
f 21/49/13 19/50/13 17/51/13
f 19/52/14 21/53/14 22/54/14 20/55/14
f 20/56/15 22/57/15 18/58/15
f 23/59/16 21/60/16 17/61/16
f 21/62/17 23/63/17 24/64/17 22/65/17
f 22/66/18 24/67/18 18/68/18
f 25/69/19 23/70/19 17/71/19
f 23/72/20 25/73/20 26/74/20 24/75/20
f 24/76/21 26/77/21 18/78/21
f 27/79/22 25/80/22 17/81/22
f 25/82/23 27/83/23 28/84/23 26/85/23
f 26/86/24 28/87/24 18/88/24
f 29/89/25 27/90/25 17/91/25
f 27/92/26 29/93/26 30/94/26 28/95/26
f 28/96/27 30/97/27 18/98/27
f 19/99/28 29/100/28 17/101/28
f 29/102/29 19/103/29 20/104/29 30/105/29
f 30/106/30 20/107/30 18/108/30
o tubo_d_2
v 0.3375 0.5345500003727874 0.4307840152243392
v 0.3375 1.1569611104069573 -0.09148091764597405
v 0.353125 0.5546371131754918 0.45472290407180727
v 0.353125 1.1770482232096615 -0.06754202879850596
v 0.36875 0.5345500003727874 0.4307840152243392
v 0.36875 1.1569611104069573 -0.09148091764597405
v 0.353125 0.5144628875700831 0.40684512637687115
v 0.353125 1.1368739976042528 -0.11541980649344213
v 0.321875 0.5144628875700831 0.40684512637687115
v 0.321875 1.1368739976042528 -0.11541980649344213
v 0.30625 0.5345500003727874 0.4307840152243392
v 0.30625 1.1569611104069573 -0.09148091764597405
v 0.321875 0.5546371131754918 0.45472290407180727
v 0.321875 1.1770482232096615 -0.06754202879850596
vt 0.07216875 0.9375
vt 0.036084375 1
vt 0 0.9375
vt 0 0.875
vt 0.07216875 0.875
vt 0.07216875 1
vt 0 1
vt 0.036084375 0.9375
vt 0.07216875 1
vt 0 1
vt 0.036084375 0.9375
vt 0.07216875 1
vt 0 1
vt 0 0.875
vt 0.07216875 0.875
vt 0.07216875 1
vt 0 1
vt 0.07216875 0.9375
vt 0.036084375 1
vt 0 0.9375
vt 0 0.9375
vt 0.07216875 0.9375
vt 0.036084375 1
vt 0 0.875
vt 0.07216875 0.875
vt 0.07216875 1
vt 0 1
vt 0.07216875 1
vt 0 1
vt 0.036084375 0.9375
vt 0 1
vt 0.036084375 0.9375
vt 0.07216875 1
vt 0 0.875
vt 0.07216875 0.875
vt 0.07216875 1
vt 0 1
vt 0.036084375 1
vt 0 0.9375
vt 0.07216875 0.9375
vt 0.036084375 1
vt 0 0.9375
vt 0.07216875 0.9375
vt 0 0.875
vt 0.07216875 0.875
vt 0.07216875 1
vt 0 1
vt 0 1
vt 0.036084375 0.9375
vt 0.07216875 1
vt 0.07216875 1
vt 0 1
vt 0.036084375 0.9375
vt 0 0.875
vt 0.07216875 0.875
vt 0.07216875 1
vt 0 1
vt 0 0.9375
vt 0.07216875 0.9375
vt 0.036084375 1
vn 0 -0.7660444431189781 0.6427876096865394
vn 0.8944271909999159 0.28746335807074086 0.3425854897200012
vn 0 0.7660444431189781 -0.6427876096865394
vn 0 -0.7660444431189781 0.6427876096865394
vn 0.8944271909999159 -0.28746335807074086 -0.3425854897200012
vn 0 0.7660444431189781 -0.6427876096865394
vn 0 -0.7660444431189781 0.6427876096865394
vn 0 -0.6427876096865394 -0.7660444431189781
vn 0 0.7660444431189781 -0.6427876096865394
vn 0 -0.7660444431189781 0.6427876096865394
vn -0.8944271909999159 -0.28746335807074086 -0.3425854897200012
vn 0 0.7660444431189781 -0.6427876096865394
vn 0 -0.7660444431189781 0.6427876096865394
vn -0.8944271909999159 0.28746335807074086 0.3425854897200012
vn 0 0.7660444431189781 -0.6427876096865394
vn 0 -0.7660444431189781 0.6427876096865394
vn 0 0.6427876096865394 0.7660444431189781
vn 0 0.7660444431189781 -0.6427876096865394
usemtl none
f 35/109/31 33/110/31 31/111/31
f 33/112/32 35/113/32 36/114/32 34/115/32
f 34/116/33 36/117/33 32/118/33
f 37/119/34 35/120/34 31/121/34
f 35/122/35 37/123/35 38/124/35 36/125/35
f 36/126/36 38/127/36 32/128/36
f 39/129/37 37/130/37 31/131/37
f 37/132/38 39/133/38 40/134/38 38/135/38
f 38/136/39 40/137/39 32/138/39
f 41/139/40 39/140/40 31/141/40
f 39/142/41 41/143/41 42/144/41 40/145/41
f 40/146/42 42/147/42 32/148/42
f 43/149/43 41/150/43 31/151/43
f 41/152/44 43/153/44 44/154/44 42/155/44
f 42/156/45 44/157/45 32/158/45
f 33/159/46 43/160/46 31/161/46
f 43/162/47 33/163/47 34/164/47 44/165/47
f 44/166/48 34/167/48 32/168/48
o tubo_a_1
v -0.35 0.53125 -0.5625
v -0.35 1.15625 -0.5625
v -0.334375 0.53125 -0.53125
v -0.334375 1.15625 -0.53125
v -0.31875 0.53125 -0.5625
v -0.31875 1.15625 -0.5625
v -0.334375 0.53125 -0.59375
v -0.334375 1.15625 -0.59375
v -0.365625 0.53125 -0.59375
v -0.365625 1.15625 -0.59375
v -0.38125 0.53125 -0.5625
v -0.38125 1.15625 -0.5625
v -0.365625 0.53125 -0.53125
v -0.365625 1.15625 -0.53125
vt 0.07216875 0.9375
vt 0.036084375 1
vt 0 0.9375
vt 0 0.875
vt 0.07216875 0.875
vt 0.07216875 1
vt 0 1
vt 0.036084375 0.9375
vt 0.07216875 1
vt 0 1
vt 0.036084375 0.9375
vt 0.07216875 1
vt 0 1
vt 0 0.875
vt 0.07216875 0.875
vt 0.07216875 1
vt 0 1
vt 0.07216875 0.9375
vt 0.036084375 1
vt 0 0.9375
vt 0 0.9375
vt 0.07216875 0.9375
vt 0.036084375 1
vt 0 0.875
vt 0.07216875 0.875
vt 0.07216875 1
vt 0 1
vt 0.07216875 1
vt 0 1
vt 0.036084375 0.9375
vt 0 1
vt 0.036084375 0.9375
vt 0.07216875 1
vt 0 0.875
vt 0.07216875 0.875
vt 0.07216875 1
vt 0 1
vt 0.036084375 1
vt 0 0.9375
vt 0.07216875 0.9375
vt 0.036084375 1
vt 0 0.9375
vt 0.07216875 0.9375
vt 0 0.875
vt 0.07216875 0.875
vt 0.07216875 1
vt 0 1
vt 0 1
vt 0.036084375 0.9375
vt 0.07216875 1
vt 0.07216875 1
vt 0 1
vt 0.036084375 0.9375
vt 0 0.875
vt 0.07216875 0.875
vt 0.07216875 1
vt 0 1
vt 0 0.9375
vt 0.07216875 0.9375
vt 0.036084375 1
vn 0 -1 0
vn 0.8944271909999161 0 0.44721359549995804
vn 0 1 0
vn 0 -1 0
vn 0.8944271909999161 0 -0.44721359549995804
vn 0 1 0
vn 0 -1 0
vn 0 0 -1
vn 0 1 0
vn 0 -1 0
vn -0.8944271909999161 0 -0.44721359549995804
vn 0 1 0
vn 0 -1 0
vn -0.8944271909999161 0 0.44721359549995804
vn 0 1 0
vn 0 -1 0
vn 0 0 1
vn 0 1 0
usemtl none
f 49/169/49 47/170/49 45/171/49
f 47/172/50 49/173/50 50/174/50 48/175/50
f 48/176/51 50/177/51 46/178/51
f 51/179/52 49/180/52 45/181/52
f 49/182/53 51/183/53 52/184/53 50/185/53
f 50/186/54 52/187/54 46/188/54
f 53/189/55 51/190/55 45/191/55
f 51/192/56 53/193/56 54/194/56 52/195/56
f 52/196/57 54/197/57 46/198/57
f 55/199/58 53/200/58 45/201/58
f 53/202/59 55/203/59 56/204/59 54/205/59
f 54/206/60 56/207/60 46/208/60
f 57/209/61 55/210/61 45/211/61
f 55/212/62 57/213/62 58/214/62 56/215/62
f 56/216/63 58/217/63 46/218/63
f 47/219/64 57/220/64 45/221/64
f 57/222/65 47/223/65 48/224/65 58/225/65
f 58/226/66 48/227/66 46/228/66
o Tubo_a_2
v 0.3375 0.53125 -0.5625
v 0.3375 1.15625 -0.5625
v 0.353125 0.53125 -0.53125
v 0.353125 1.15625 -0.53125
v 0.36875 0.53125 -0.5625
v 0.36875 1.15625 -0.5625
v 0.353125 0.53125 -0.59375
v 0.353125 1.15625 -0.59375
v 0.321875 0.53125 -0.59375
v 0.321875 1.15625 -0.59375
v 0.30625 0.53125 -0.5625
v 0.30625 1.15625 -0.5625
v 0.321875 0.53125 -0.53125
v 0.321875 1.15625 -0.53125
vt 0.07216875 0.9375
vt 0.036084375 1
vt 0 0.9375
vt 0 0.875
vt 0.07216875 0.875
vt 0.07216875 1
vt 0 1
vt 0.036084375 0.9375
vt 0.07216875 1
vt 0 1
vt 0.036084375 0.9375
vt 0.07216875 1
vt 0 1
vt 0 0.875
vt 0.07216875 0.875
vt 0.07216875 1
vt 0 1
vt 0.07216875 0.9375
vt 0.036084375 1
vt 0 0.9375
vt 0 0.9375
vt 0.07216875 0.9375
vt 0.036084375 1
vt 0 0.875
vt 0.07216875 0.875
vt 0.07216875 1
vt 0 1
vt 0.07216875 1
vt 0 1
vt 0.036084375 0.9375
vt 0 1
vt 0.036084375 0.9375
vt 0.07216875 1
vt 0 0.875
vt 0.07216875 0.875
vt 0.07216875 1
vt 0 1
vt 0.036084375 1
vt 0 0.9375
vt 0.07216875 0.9375
vt 0.036084375 1
vt 0 0.9375
vt 0.07216875 0.9375
vt 0 0.875
vt 0.07216875 0.875
vt 0.07216875 1
vt 0 1
vt 0 1
vt 0.036084375 0.9375
vt 0.07216875 1
vt 0.07216875 1
vt 0 1
vt 0.036084375 0.9375
vt 0 0.875
vt 0.07216875 0.875
vt 0.07216875 1
vt 0 1
vt 0 0.9375
vt 0.07216875 0.9375
vt 0.036084375 1
vn 0 -1 0
vn 0.8944271909999161 0 0.44721359549995804
vn 0 1 0
vn 0 -1 0
vn 0.8944271909999161 0 -0.44721359549995804
vn 0 1 0
vn 0 -1 0
vn 0 0 -1
vn 0 1 0
vn 0 -1 0
vn -0.8944271909999161 0 -0.44721359549995804
vn 0 1 0
vn 0 -1 0
vn -0.8944271909999161 0 0.44721359549995804
vn 0 1 0
vn 0 -1 0
vn 0 0 1
vn 0 1 0
usemtl none
f 63/229/67 61/230/67 59/231/67
f 61/232/68 63/233/68 64/234/68 62/235/68
f 62/236/69 64/237/69 60/238/69
f 65/239/70 63/240/70 59/241/70
f 63/242/71 65/243/71 66/244/71 64/245/71
f 64/246/72 66/247/72 60/248/72
f 67/249/73 65/250/73 59/251/73
f 65/252/74 67/253/74 68/254/74 66/255/74
f 66/256/75 68/257/75 60/258/75
f 69/259/76 67/260/76 59/261/76
f 67/262/77 69/263/77 70/264/77 68/265/77
f 68/266/78 70/267/78 60/268/78
f 71/269/79 69/270/79 59/271/79
f 69/272/80 71/273/80 72/274/80 70/275/80
f 70/276/81 72/277/81 60/278/81
f 61/279/82 71/280/82 59/281/82
f 71/282/83 61/283/83 62/284/83 72/285/83
f 72/286/84 62/287/84 60/288/84
o Tubo_d_p_2
v 0.3375 0.53125 0.1875
v 0.3375 0.84375 0.1875
v 0.35000000000000003 0.53125 0.2125
v 0.35000000000000003 0.84375 0.2125
v 0.36250000000000004 0.53125 0.1875
v 0.36250000000000004 0.84375 0.1875
v 0.35000000000000003 0.53125 0.1625
v 0.35000000000000003 0.84375 0.1625
v 0.325 0.53125 0.1625
v 0.325 0.84375 0.1625
v 0.3125 0.53125 0.1875
v 0.3125 0.84375 0.1875
v 0.325 0.53125 0.2125
v 0.325 0.84375 0.2125
vt 0.07216875 0.9375
vt 0.036084375 1
vt 0 0.9375
vt 0 0.875
vt 0.07216875 0.875
vt 0.07216875 1
vt 0 1
vt 0.036084375 0.9375
vt 0.07216875 1
vt 0 1
vt 0.036084375 0.9375
vt 0.07216875 1
vt 0 1
vt 0 0.875
vt 0.07216875 0.875
vt 0.07216875 1
vt 0 1
vt 0.07216875 0.9375
vt 0.036084375 1
vt 0 0.9375
vt 0 0.9375
vt 0.07216875 0.9375
vt 0.036084375 1
vt 0 0.875
vt 0.07216875 0.875
vt 0.07216875 1
vt 0 1
vt 0.07216875 1
vt 0 1
vt 0.036084375 0.9375
vt 0 1
vt 0.036084375 0.9375
vt 0.07216875 1
vt 0 0.875
vt 0.07216875 0.875
vt 0.07216875 1
vt 0 1
vt 0.036084375 1
vt 0 0.9375
vt 0.07216875 0.9375
vt 0.036084375 1
vt 0 0.9375
vt 0.07216875 0.9375
vt 0 0.875
vt 0.07216875 0.875
vt 0.07216875 1
vt 0 1
vt 0 1
vt 0.036084375 0.9375
vt 0.07216875 1
vt 0.07216875 1
vt 0 1
vt 0.036084375 0.9375
vt 0 0.875
vt 0.07216875 0.875
vt 0.07216875 1
vt 0 1
vt 0 0.9375
vt 0.07216875 0.9375
vt 0.036084375 1
vn 0 -1 0
vn 0.8944271909999161 0 0.44721359549995804
vn 0 1 0
vn 0 -1 0
vn 0.8944271909999161 0 -0.44721359549995804
vn 0 1 0
vn 0 -1 0
vn 0 0 -1
vn 0 1 0
vn 0 -1 0
vn -0.8944271909999161 0 -0.44721359549995804
vn 0 1 0
vn 0 -1 0
vn -0.8944271909999161 0 0.44721359549995804
vn 0 1 0
vn 0 -1 0
vn 0 0 1
vn 0 1 0
usemtl none
f 77/289/85 75/290/85 73/291/85
f 75/292/86 77/293/86 78/294/86 76/295/86
f 76/296/87 78/297/87 74/298/87
f 79/299/88 77/300/88 73/301/88
f 77/302/89 79/303/89 80/304/89 78/305/89
f 78/306/90 80/307/90 74/308/90
f 81/309/91 79/310/91 73/311/91
f 79/312/92 81/313/92 82/314/92 80/315/92
f 80/316/93 82/317/93 74/318/93
f 83/319/94 81/320/94 73/321/94
f 81/322/95 83/323/95 84/324/95 82/325/95
f 82/326/96 84/327/96 74/328/96
f 85/329/97 83/330/97 73/331/97
f 83/332/98 85/333/98 86/334/98 84/335/98
f 84/336/99 86/337/99 74/338/99
f 75/339/100 85/340/100 73/341/100
f 85/342/101 75/343/101 76/344/101 86/345/101
f 86/346/102 76/347/102 74/348/102
o tubo_d_p_1
v -0.35 0.53125 0.1875
v -0.35 0.84375 0.1875
v -0.3375 0.53125 0.2125
v -0.3375 0.84375 0.2125
v -0.32499999999999996 0.53125 0.1875
v -0.32499999999999996 0.84375 0.1875
v -0.3375 0.53125 0.1625
v -0.3375 0.84375 0.1625
v -0.36249999999999993 0.53125 0.1625
v -0.36249999999999993 0.84375 0.1625
v -0.375 0.53125 0.1875
v -0.375 0.84375 0.1875
v -0.36249999999999993 0.53125 0.2125
v -0.36249999999999993 0.84375 0.2125
vt 0.07216875 0.9375
vt 0.036084375 1
vt 0 0.9375
vt 0 0.875
vt 0.07216875 0.875
vt 0.07216875 1
vt 0 1
vt 0.036084375 0.9375
vt 0.07216875 1
vt 0 1
vt 0.036084375 0.9375
vt 0.07216875 1
vt 0 1
vt 0 0.875
vt 0.07216875 0.875
vt 0.07216875 1
vt 0 1
vt 0.07216875 0.9375
vt 0.036084375 1
vt 0 0.9375
vt 0 0.9375
vt 0.07216875 0.9375
vt 0.036084375 1
vt 0 0.875
vt 0.07216875 0.875
vt 0.07216875 1
vt 0 1
vt 0.07216875 1
vt 0 1
vt 0.036084375 0.9375
vt 0 1
vt 0.036084375 0.9375
vt 0.07216875 1
vt 0 0.875
vt 0.07216875 0.875
vt 0.07216875 1
vt 0 1
vt 0.036084375 1
vt 0 0.9375
vt 0.07216875 0.9375
vt 0.036084375 1
vt 0 0.9375
vt 0.07216875 0.9375
vt 0 0.875
vt 0.07216875 0.875
vt 0.07216875 1
vt 0 1
vt 0 1
vt 0.036084375 0.9375
vt 0.07216875 1
vt 0.07216875 1
vt 0 1
vt 0.036084375 0.9375
vt 0 0.875
vt 0.07216875 0.875
vt 0.07216875 1
vt 0 1
vt 0 0.9375
vt 0.07216875 0.9375
vt 0.036084375 1
vn 0 -1 0
vn 0.894427190999915 0 0.44721359549995987
vn 0 1 0
vn 0 -1 0
vn 0.894427190999915 0 -0.44721359549995987
vn 0 1 0
vn 0 -1 0
vn 0 0 -1
vn 0 1 0
vn 0 -1 0
vn -0.894427190999915 0 -0.44721359549995987
vn 0 1 0
vn 0 -1 0
vn -0.894427190999915 0 0.44721359549995987
vn 0 1 0
vn 0 -1 0
vn 0 0 1
vn 0 1 0
usemtl none
f 91/349/103 89/350/103 87/351/103
f 89/352/104 91/353/104 92/354/104 90/355/104
f 90/356/105 92/357/105 88/358/105
f 93/359/106 91/360/106 87/361/106
f 91/362/107 93/363/107 94/364/107 92/365/107
f 92/366/108 94/367/108 88/368/108
f 95/369/109 93/370/109 87/371/109
f 93/372/110 95/373/110 96/374/110 94/375/110
f 94/376/111 96/377/111 88/378/111
f 97/379/112 95/380/112 87/381/112
f 95/382/113 97/383/113 98/384/113 96/385/113
f 96/386/114 98/387/114 88/388/114
f 99/389/115 97/390/115 87/391/115
f 97/392/116 99/393/116 100/394/116 98/395/116
f 98/396/117 100/397/117 88/398/117
f 89/399/118 99/400/118 87/401/118
f 99/402/119 89/403/119 90/404/119 100/405/119
f 100/406/120 90/407/120 88/408/120
o cuboid
v 0.515625 0.625 -0.75
v 0.515625 0.625 -0.875
v 0.515625 0.1875 -0.75
v 0.515625 0.1875 -0.875
v -0.484375 0.625 -0.75
v -0.484375 0.625 -0.875
v -0.484375 0.1875 -0.75
v -0.484375 0.1875 -0.875
v 0.515625 0.46875 -0.875
v -0.484375 0.46875 -0.875
v -0.484375 0.46875 -0.75
v 0.515625 0.46875 -0.75
vt 0.125 0.875
vt 0.125 0.9553571875
vt 0 0.9553571875
vt 0 0.875
vt 0.125 0.875
vt 0.125 0.9553571875
vt 0 0.9553571875
vt 0 0.875
vt 0 0.875
vt 0.125 0.875
vt 0.125 1
vt 0 1
vt 0.125 0.875
vt 0.125 1
vt 0 1
vt 0 0.875
vt 0.125 0.875
vt 0.125 0.9553571875
vt 0 0.9553571875
vt 0 0.875
vt 0.125 0.875
vt 0.125 0.9553571875
vt 0 0.9553571875
vt 0 0.875
vt 0 1
vt 0 0.9553571875
vt 0.125 0.9553571875
vt 0.125 1
vt 0 1
vt 0 0.9553571875
vt 0.125 0.9553571875
vt 0.125 1
vt 0 1
vt 0 0.9553571875
vt 0.125 0.9553571875
vt 0.125 1
vn 1 0 0
vn -1 0 0
vn 0 1 0
vn 0 -1 0
vn 0 0 1
vn 0 0 -1
vn 0 0 -1
vn -1 0 0
vn 0 0 1
usemtl none
f 104/409/121 109/410/121 112/411/121 103/412/121
f 107/413/122 111/414/122 110/415/122 108/416/122
f 105/417/123 101/418/123 102/419/123 106/420/123
f 104/421/124 103/422/124 107/423/124 108/424/124
f 103/425/125 112/426/125 111/427/125 107/428/125
f 108/429/126 110/430/126 109/431/126 104/432/126
f 102/433/127 109/434/127 110/435/127 106/436/127
f 106/437/128 110/438/128 111/439/128 105/440/128
f 105/441/129 111/442/129 112/443/129 101/444/129
o tubo_d_a_2
v 0.3375 0.5489045573159028 -0.822148220817974
v 0.3375 1.0478481509786526 -0.5624146258732674
v 0.353125 0.5344749131523081 -0.7944291322811546
v 0.353125 1.0334185068150576 -0.534695537336448
v 0.36875 0.5489045573159028 -0.822148220817974
v 0.36875 1.0478481509786526 -0.5624146258732674
v 0.353125 0.5633342014794976 -0.8498673093547935
v 0.353125 1.0622777951422475 -0.5901337144100869
v 0.321875 0.5633342014794976 -0.8498673093547935
v 0.321875 1.0622777951422475 -0.5901337144100869
v 0.30625 0.5489045573159028 -0.822148220817974
v 0.30625 1.0478481509786526 -0.5624146258732674
v 0.321875 0.5344749131523081 -0.7944291322811546
v 0.321875 1.0334185068150576 -0.534695537336448
vt 0.07216875 0.9375
vt 0.036084375 1
vt 0 0.9375
vt 0 0.875
vt 0.07216875 0.875
vt 0.07216875 1
vt 0 1
vt 0.036084375 0.9375
vt 0.07216875 1
vt 0 1
vt 0.036084375 0.9375
vt 0.07216875 1
vt 0 1
vt 0 0.875
vt 0.07216875 0.875
vt 0.07216875 1
vt 0 1
vt 0.07216875 0.9375
vt 0.036084375 1
vt 0 0.9375
vt 0 0.9375
vt 0.07216875 0.9375
vt 0.036084375 1
vt 0 0.875
vt 0.07216875 0.875
vt 0.07216875 1
vt 0 1
vt 0.07216875 1
vt 0 1
vt 0.036084375 0.9375
vt 0 1
vt 0.036084375 0.9375
vt 0.07216875 1
vt 0 0.875
vt 0.07216875 0.875
vt 0.07216875 1
vt 0 1
vt 0.036084375 1
vt 0 0.9375
vt 0.07216875 0.9375
vt 0.036084375 1
vt 0 0.9375
vt 0.07216875 0.9375
vt 0 0.875
vt 0.07216875 0.875
vt 0.07216875 1
vt 0 1
vt 0 1
vt 0.036084375 0.9375
vt 0.07216875 1
vt 0.07216875 1
vt 0 1
vt 0.036084375 0.9375
vt 0 0.875
vt 0.07216875 0.875
vt 0.07216875 1
vt 0 1
vt 0 0.9375
vt 0.07216875 0.9375
vt 0.036084375 1
vn 0 -0.8870108331782217 -0.4617486132350339
vn 0.8944271909999161 -0.20650025754195903 0.396683303953046
vn 0 0.8870108331782217 0.4617486132350339
vn 0 -0.8870108331782217 -0.4617486132350339
vn 0.8944271909999161 0.20650025754195903 -0.396683303953046
vn 0 0.8870108331782217 0.4617486132350339
vn 0 -0.8870108331782217 -0.4617486132350339
vn 0 0.4617486132350339 -0.8870108331782217
vn 0 0.8870108331782217 0.4617486132350339
vn 0 -0.8870108331782217 -0.4617486132350339
vn -0.8944271909999161 0.20650025754195903 -0.396683303953046
vn 0 0.8870108331782217 0.4617486132350339
vn 0 -0.8870108331782217 -0.4617486132350339
vn -0.8944271909999161 -0.20650025754195903 0.396683303953046
vn 0 0.8870108331782217 0.4617486132350339
vn 0 -0.8870108331782217 -0.4617486132350339
vn 0 -0.4617486132350339 0.8870108331782217
vn 0 0.8870108331782217 0.4617486132350339
usemtl none
f 117/445/130 115/446/130 113/447/130
f 115/448/131 117/449/131 118/450/131 116/451/131
f 116/452/132 118/453/132 114/454/132
f 119/455/133 117/456/133 113/457/133
f 117/458/134 119/459/134 120/460/134 118/461/134
f 118/462/135 120/463/135 114/464/135
f 121/465/136 119/466/136 113/467/136
f 119/468/137 121/469/137 122/470/137 120/471/137
f 120/472/138 122/473/138 114/474/138
f 123/475/139 121/476/139 113/477/139
f 121/478/140 123/479/140 124/480/140 122/481/140
f 122/482/141 124/483/141 114/484/141
f 125/485/142 123/486/142 113/487/142
f 123/488/143 125/489/143 126/490/143 124/491/143
f 124/492/144 126/493/144 114/494/144
f 115/495/145 125/496/145 113/497/145
f 125/498/146 115/499/146 116/500/146 126/501/146
f 126/502/147 116/503/147 114/504/147
o tubo_d_a_1
v -0.35 0.555966380242264 -0.8197575091451637
v -0.35 1.0549099739050138 -0.560023914200457
v -0.334375 0.5415367360786691 -0.7920384206083443
v -0.334375 1.040480329741419 -0.5323048256636377
v -0.31875 0.555966380242264 -0.8197575091451637
v -0.31875 1.0549099739050138 -0.560023914200457
v -0.334375 0.5703960244058588 -0.8474765976819831
v -0.334375 1.0693396180686086 -0.5877430027372765
v -0.365625 0.5703960244058588 -0.8474765976819831
v -0.365625 1.0693396180686086 -0.5877430027372765
v -0.38125 0.555966380242264 -0.8197575091451637
v -0.38125 1.0549099739050138 -0.560023914200457
v -0.365625 0.5415367360786691 -0.7920384206083443
v -0.365625 1.040480329741419 -0.5323048256636377
vt 0.07216875 0.9375
vt 0.036084375 1
vt 0 0.9375
vt 0 0.875
vt 0.07216875 0.875
vt 0.07216875 1
vt 0 1
vt 0.036084375 0.9375
vt 0.07216875 1
vt 0 1
vt 0.036084375 0.9375
vt 0.07216875 1
vt 0 1
vt 0 0.875
vt 0.07216875 0.875
vt 0.07216875 1
vt 0 1
vt 0.07216875 0.9375
vt 0.036084375 1
vt 0 0.9375
vt 0 0.9375
vt 0.07216875 0.9375
vt 0.036084375 1
vt 0 0.875
vt 0.07216875 0.875
vt 0.07216875 1
vt 0 1
vt 0.07216875 1
vt 0 1
vt 0.036084375 0.9375
vt 0 1
vt 0.036084375 0.9375
vt 0.07216875 1
vt 0 0.875
vt 0.07216875 0.875
vt 0.07216875 1
vt 0 1
vt 0.036084375 1
vt 0 0.9375
vt 0.07216875 0.9375
vt 0.036084375 1
vt 0 0.9375
vt 0.07216875 0.9375
vt 0 0.875
vt 0.07216875 0.875
vt 0.07216875 1
vt 0 1
vt 0 1
vt 0.036084375 0.9375
vt 0.07216875 1
vt 0.07216875 1
vt 0 1
vt 0.036084375 0.9375
vt 0 0.875
vt 0.07216875 0.875
vt 0.07216875 1
vt 0 1
vt 0 0.9375
vt 0.07216875 0.9375
vt 0.036084375 1
vn 0 -0.8870108331782217 -0.4617486132350339
vn 0.8944271909999161 -0.20650025754195903 0.396683303953046
vn 0 0.8870108331782217 0.4617486132350339
vn 0 -0.8870108331782217 -0.4617486132350339
vn 0.8944271909999161 0.20650025754195903 -0.396683303953046
vn 0 0.8870108331782217 0.4617486132350339
vn 0 -0.8870108331782217 -0.4617486132350339
vn 0 0.4617486132350339 -0.8870108331782217
vn 0 0.8870108331782217 0.4617486132350339
vn 0 -0.8870108331782217 -0.4617486132350339
vn -0.8944271909999161 0.20650025754195903 -0.396683303953046
vn 0 0.8870108331782217 0.4617486132350339
vn 0 -0.8870108331782217 -0.4617486132350339
vn -0.8944271909999161 -0.20650025754195903 0.396683303953046
vn 0 0.8870108331782217 0.4617486132350339
vn 0 -0.8870108331782217 -0.4617486132350339
vn 0 -0.4617486132350339 0.8870108331782217
vn 0 0.8870108331782217 0.4617486132350339
usemtl none
f 131/505/148 129/506/148 127/507/148
f 129/508/149 131/509/149 132/510/149 130/511/149
f 130/512/150 132/513/150 128/514/150
f 133/515/151 131/516/151 127/517/151
f 131/518/152 133/519/152 134/520/152 132/521/152
f 132/522/153 134/523/153 128/524/153
f 135/525/154 133/526/154 127/527/154
f 133/528/155 135/529/155 136/530/155 134/531/155
f 134/532/156 136/533/156 128/534/156
f 137/535/157 135/536/157 127/537/157
f 135/538/158 137/539/158 138/540/158 136/541/158
f 136/542/159 138/543/159 128/544/159
f 139/545/160 137/546/160 127/547/160
f 137/548/161 139/549/161 140/550/161 138/551/161
f 138/552/162 140/553/162 128/554/162
f 129/555/163 139/556/163 127/557/163
f 139/558/164 129/559/164 130/560/164 140/561/164
f 140/562/165 130/563/165 128/564/165
o cuboid_selection
o cuboid_selection_selection
v 0.515625 0.625 -0.75
v 0.515625 0.625 -0.875
v 0.515625 0.46875 -0.875
v 0.515625 0.46875 -0.75
vt 0 1
vt 0 0.9553571875
vt 0.125 0.9553571875
vt 0.125 1
vn 1 0 0
usemtl none
f 141/565/166 144/566/166 143/567/166 142/568/166
o lld1
v 0.7 0.25 0.9375
v 0.575 0.25 0.9375
v 0.7 0.125 1.0096687500000001
v 0.575 0.125 1.0096687500000001
v 0.7 0.25000000000000006 1.0818375
v 0.575 0.25000000000000006 1.0818375
v 0.7 0.375 1.00966875
v 0.575 0.375 1.00966875
v 0.7 0.375 0.86533125
v 0.575 0.375 0.86533125
v 0.7 0.24999999999999997 0.7931625
v 0.575 0.24999999999999997 0.7931625
v 0.7 0.12499999999999997 0.86533125
v 0.575 0.12499999999999997 0.8653312500000001
vt 0.036084375 0.96875
vt 0.0180421875 1
vt 0 0.96875
vt 0 0.875
vt 0.036084375 0.875
vt 0.036084375 1
vt 0 1
vt 0.0180421875 0.96875
vt 0.036084375 1
vt 0 1
vt 0.0180421875 0.96875
vt 0.036084375 1
vt 0 1
vt 0 0.875
vt 0.036084375 0.875
vt 0.036084375 1
vt 0 1
vt 0.036084375 0.96875
vt 0.0180421875 1
vt 0 0.96875
vt 0 0.96875
vt 0.036084375 0.96875
vt 0.0180421875 1
vt 0 0.875
vt 0.036084375 0.875
vt 0.036084375 1
vt 0 1
vt 0.036084375 1
vt 0 1
vt 0.0180421875 0.96875
vt 0 1
vt 0.0180421875 0.96875
vt 0.036084375 1
vt 0 0.875
vt 0.036084375 0.875
vt 0.036084375 1
vt 0 1
vt 0.0180421875 1
vt 0 0.96875
vt 0.036084375 0.96875
vt 0.0180421875 1
vt 0 0.96875
vt 0.036084375 0.96875
vt 0 0.875
vt 0.036084375 0.875
vt 0.036084375 1
vt 0 1
vt 0 1
vt 0.0180421875 0.96875
vt 0.036084375 1
vt 0.036084375 1
vt 0 1
vt 0.0180421875 0.96875
vt 0 0.875
vt 0.036084375 0.875
vt 0.036084375 1
vt 0 1
vt 0 0.96875
vt 0.036084375 0.96875
vt 0.0180421875 1
vn 1 -4.930380657631324e-32 -2.220446049250313e-16
vn 1.9229629105289415e-16 -0.4999998251561785 0.8660255047305425
vn -1 4.930380657631324e-32 2.220446049250313e-16
vn 1 -4.930380657631324e-32 -2.220446049250313e-16
vn 1.922962910528941e-16 0.49999982515617886 0.8660255047305423
vn -1 4.930380657631324e-32 2.220446049250313e-16
vn 1 -4.930380657631324e-32 -2.220446049250313e-16
vn -4.930380657631324e-32 1 -2.220446049250313e-16
vn -1 4.930380657631324e-32 2.220446049250313e-16
vn 1 -4.930380657631324e-32 -2.220446049250313e-16
vn -1.9229629105289415e-16 0.4999998251561785 -0.8660255047305425
vn -1 4.930380657631324e-32 2.220446049250313e-16
vn 1 -4.930380657631324e-32 -2.220446049250313e-16
vn -1.922962910528941e-16 -0.49999982515617886 -0.8660255047305423
vn -1 4.930380657631324e-32 2.220446049250313e-16
vn 1 -4.930380657631324e-32 -2.220446049250313e-16
vn 4.930380657631324e-32 -1 2.220446049250313e-16
vn -1 4.930380657631324e-32 2.220446049250313e-16
usemtl none
f 149/569/167 147/570/167 145/571/167
f 147/572/168 149/573/168 150/574/168 148/575/168
f 148/576/169 150/577/169 146/578/169
f 151/579/170 149/580/170 145/581/170
f 149/582/171 151/583/171 152/584/171 150/585/171
f 150/586/172 152/587/172 146/588/172
f 153/589/173 151/590/173 145/591/173
f 151/592/174 153/593/174 154/594/174 152/595/174
f 152/596/175 154/597/175 146/598/175
f 155/599/176 153/600/176 145/601/176
f 153/602/177 155/603/177 156/604/177 154/605/177
f 154/606/178 156/607/178 146/608/178
f 157/609/179 155/610/179 145/611/179
f 155/612/180 157/613/180 158/614/180 156/615/180
f 156/616/181 158/617/181 146/618/181
f 147/619/182 157/620/182 145/621/182
f 157/622/183 147/623/183 148/624/183 158/625/183
f 158/626/184 148/627/184 146/628/184
o lld2
v -0.55 0.25 0.9375
v -0.675 0.25 0.9375
v -0.55 0.125 1.0096687500000001
v -0.675 0.125 1.0096687500000001
v -0.55 0.25000000000000006 1.0818375
v -0.675 0.25000000000000006 1.0818375
v -0.55 0.375 1.00966875
v -0.675 0.375 1.00966875
v -0.55 0.375 0.86533125
v -0.675 0.375 0.86533125
v -0.55 0.24999999999999997 0.7931625
v -0.675 0.24999999999999997 0.7931625
v -0.55 0.12499999999999997 0.86533125
v -0.675 0.12499999999999997 0.8653312500000001
vt 0.036084375 0.96875
vt 0.0180421875 1
vt 0 0.96875
vt 0 0.875
vt 0.036084375 0.875
vt 0.036084375 1
vt 0 1
vt 0.0180421875 0.96875
vt 0.036084375 1
vt 0 1
vt 0.0180421875 0.96875
vt 0.036084375 1
vt 0 1
vt 0 0.875
vt 0.036084375 0.875
vt 0.036084375 1
vt 0 1
vt 0.036084375 0.96875
vt 0.0180421875 1
vt 0 0.96875
vt 0 0.96875
vt 0.036084375 0.96875
vt 0.0180421875 1
vt 0 0.875
vt 0.036084375 0.875
vt 0.036084375 1
vt 0 1
vt 0.036084375 1
vt 0 1
vt 0.0180421875 0.96875
vt 0 1
vt 0.0180421875 0.96875
vt 0.036084375 1
vt 0 0.875
vt 0.036084375 0.875
vt 0.036084375 1
vt 0 1
vt 0.0180421875 1
vt 0 0.96875
vt 0.036084375 0.96875
vt 0.0180421875 1
vt 0 0.96875
vt 0.036084375 0.96875
vt 0 0.875
vt 0.036084375 0.875
vt 0.036084375 1
vt 0 1
vt 0 1
vt 0.0180421875 0.96875
vt 0.036084375 1
vt 0.036084375 1
vt 0 1
vt 0.0180421875 0.96875
vt 0 0.875
vt 0.036084375 0.875
vt 0.036084375 1
vt 0 1
vt 0 0.96875
vt 0.036084375 0.96875
vt 0.0180421875 1
vn 1 -4.930380657631324e-32 -2.220446049250313e-16
vn 1.9229629105289415e-16 -0.4999998251561785 0.8660255047305425
vn -1 4.930380657631324e-32 2.220446049250313e-16
vn 1 -4.930380657631324e-32 -2.220446049250313e-16
vn 1.922962910528941e-16 0.49999982515617886 0.8660255047305423
vn -1 4.930380657631324e-32 2.220446049250313e-16
vn 1 -4.930380657631324e-32 -2.220446049250313e-16
vn -4.930380657631324e-32 1 -2.220446049250313e-16
vn -1 4.930380657631324e-32 2.220446049250313e-16
vn 1 -4.930380657631324e-32 -2.220446049250313e-16
vn -1.9229629105289415e-16 0.4999998251561785 -0.8660255047305425
vn -1 4.930380657631324e-32 2.220446049250313e-16
vn 1 -4.930380657631324e-32 -2.220446049250313e-16
vn -1.922962910528941e-16 -0.49999982515617886 -0.8660255047305423
vn -1 4.930380657631324e-32 2.220446049250313e-16
vn 1 -4.930380657631324e-32 -2.220446049250313e-16
vn 4.930380657631324e-32 -1 2.220446049250313e-16
vn -1 4.930380657631324e-32 2.220446049250313e-16
usemtl none
f 163/629/185 161/630/185 159/631/185
f 161/632/186 163/633/186 164/634/186 162/635/186
f 162/636/187 164/637/187 160/638/187
f 165/639/188 163/640/188 159/641/188
f 163/642/189 165/643/189 166/644/189 164/645/189
f 164/646/190 166/647/190 160/648/190
f 167/649/191 165/650/191 159/651/191
f 165/652/192 167/653/192 168/654/192 166/655/192
f 166/656/193 168/657/193 160/658/193
f 169/659/194 167/660/194 159/661/194
f 167/662/195 169/663/195 170/664/195 168/665/195
f 168/666/196 170/667/196 160/668/196
f 171/669/197 169/670/197 159/671/197
f 169/672/198 171/673/198 172/674/198 170/675/198
f 170/676/199 172/677/199 160/678/199
f 161/679/200 171/680/200 159/681/200
f 171/682/201 161/683/201 162/684/201 172/685/201
f 172/686/202 162/687/202 160/688/202
o llt1
v 0.7 0.25 -0.5625
v 0.575 0.25 -0.5625
v 0.7 0.125 -0.49033125
v 0.575 0.125 -0.49033124999999994
v 0.7 0.25000000000000006 -0.4181625
v 0.575 0.25000000000000006 -0.4181625
v 0.7 0.375 -0.49033125
v 0.575 0.375 -0.49033125
v 0.7 0.375 -0.63466875
v 0.575 0.375 -0.63466875
v 0.7 0.24999999999999997 -0.7068375
v 0.575 0.24999999999999997 -0.7068375
v 0.7 0.12499999999999997 -0.63466875
v 0.575 0.12499999999999997 -0.6346687499999999
vt 0.036084375 0.96875
vt 0.0180421875 1
vt 0 0.96875
vt 0 0.875
vt 0.036084375 0.875
vt 0.036084375 1
vt 0 1
vt 0.0180421875 0.96875
vt 0.036084375 1
vt 0 1
vt 0.0180421875 0.96875
vt 0.036084375 1
vt 0 1
vt 0 0.875
vt 0.036084375 0.875
vt 0.036084375 1
vt 0 1
vt 0.036084375 0.96875
vt 0.0180421875 1
vt 0 0.96875
vt 0 0.96875
vt 0.036084375 0.96875
vt 0.0180421875 1
vt 0 0.875
vt 0.036084375 0.875
vt 0.036084375 1
vt 0 1
vt 0.036084375 1
vt 0 1
vt 0.0180421875 0.96875
vt 0 1
vt 0.0180421875 0.96875
vt 0.036084375 1
vt 0 0.875
vt 0.036084375 0.875
vt 0.036084375 1
vt 0 1
vt 0.0180421875 1
vt 0 0.96875
vt 0.036084375 0.96875
vt 0.0180421875 1
vt 0 0.96875
vt 0.036084375 0.96875
vt 0 0.875
vt 0.036084375 0.875
vt 0.036084375 1
vt 0 1
vt 0 1
vt 0.0180421875 0.96875
vt 0.036084375 1
vt 0.036084375 1
vt 0 1
vt 0.0180421875 0.96875
vt 0 0.875
vt 0.036084375 0.875
vt 0.036084375 1
vt 0 1
vt 0 0.96875
vt 0.036084375 0.96875
vt 0.0180421875 1
vn 1 -4.930380657631324e-32 -2.220446049250313e-16
vn 1.9229629105289415e-16 -0.4999998251561785 0.8660255047305425
vn -1 4.930380657631324e-32 2.220446049250313e-16
vn 1 -4.930380657631324e-32 -2.220446049250313e-16
vn 1.922962910528941e-16 0.49999982515617886 0.8660255047305423
vn -1 4.930380657631324e-32 2.220446049250313e-16
vn 1 -4.930380657631324e-32 -2.220446049250313e-16
vn -4.930380657631324e-32 1 -2.220446049250313e-16
vn -1 4.930380657631324e-32 2.220446049250313e-16
vn 1 -4.930380657631324e-32 -2.220446049250313e-16
vn -1.9229629105289415e-16 0.4999998251561785 -0.8660255047305425
vn -1 4.930380657631324e-32 2.220446049250313e-16
vn 1 -4.930380657631324e-32 -2.220446049250313e-16
vn -1.922962910528941e-16 -0.49999982515617886 -0.8660255047305423
vn -1 4.930380657631324e-32 2.220446049250313e-16
vn 1 -4.930380657631324e-32 -2.220446049250313e-16
vn 4.930380657631324e-32 -1 2.220446049250313e-16
vn -1 4.930380657631324e-32 2.220446049250313e-16
usemtl none
f 177/689/203 175/690/203 173/691/203
f 175/692/204 177/693/204 178/694/204 176/695/204
f 176/696/205 178/697/205 174/698/205
f 179/699/206 177/700/206 173/701/206
f 177/702/207 179/703/207 180/704/207 178/705/207
f 178/706/208 180/707/208 174/708/208
f 181/709/209 179/710/209 173/711/209
f 179/712/210 181/713/210 182/714/210 180/715/210
f 180/716/211 182/717/211 174/718/211
f 183/719/212 181/720/212 173/721/212
f 181/722/213 183/723/213 184/724/213 182/725/213
f 182/726/214 184/727/214 174/728/214
f 185/729/215 183/730/215 173/731/215
f 183/732/216 185/733/216 186/734/216 184/735/216
f 184/736/217 186/737/217 174/738/217
f 175/739/218 185/740/218 173/741/218
f 185/742/219 175/743/219 176/744/219 186/745/219
f 186/746/220 176/747/220 174/748/220
o llt2
v -0.55 0.25 -0.5625
v -0.675 0.25 -0.5625
v -0.55 0.125 -0.49033125
v -0.675 0.125 -0.49033124999999994
v -0.55 0.25000000000000006 -0.4181625
v -0.675 0.25000000000000006 -0.4181625
v -0.55 0.375 -0.49033125
v -0.675 0.375 -0.49033125
v -0.55 0.375 -0.63466875
v -0.675 0.375 -0.63466875
v -0.55 0.24999999999999997 -0.7068375
v -0.675 0.24999999999999997 -0.7068375
v -0.55 0.12499999999999997 -0.63466875
v -0.675 0.12499999999999997 -0.6346687499999999
vt 0.036084375 0.96875
vt 0.0180421875 1
vt 0 0.96875
vt 0 0.875
vt 0.036084375 0.875
vt 0.036084375 1
vt 0 1
vt 0.0180421875 0.96875
vt 0.036084375 1
vt 0 1
vt 0.0180421875 0.96875
vt 0.036084375 1
vt 0 1
vt 0 0.875
vt 0.036084375 0.875
vt 0.036084375 1
vt 0 1
vt 0.036084375 0.96875
vt 0.0180421875 1
vt 0 0.96875
vt 0 0.96875
vt 0.036084375 0.96875
vt 0.0180421875 1
vt 0 0.875
vt 0.036084375 0.875
vt 0.036084375 1
vt 0 1
vt 0.036084375 1
vt 0 1
vt 0.0180421875 0.96875
vt 0 1
vt 0.0180421875 0.96875
vt 0.036084375 1
vt 0 0.875
vt 0.036084375 0.875
vt 0.036084375 1
vt 0 1
vt 0.0180421875 1
vt 0 0.96875
vt 0.036084375 0.96875
vt 0.0180421875 1
vt 0 0.96875
vt 0.036084375 0.96875
vt 0 0.875
vt 0.036084375 0.875
vt 0.036084375 1
vt 0 1
vt 0 1
vt 0.0180421875 0.96875
vt 0.036084375 1
vt 0.036084375 1
vt 0 1
vt 0.0180421875 0.96875
vt 0 0.875
vt 0.036084375 0.875
vt 0.036084375 1
vt 0 1
vt 0 0.96875
vt 0.036084375 0.96875
vt 0.0180421875 1
vn 1 -4.930380657631324e-32 -2.220446049250313e-16
vn 1.9229629105289415e-16 -0.4999998251561785 0.8660255047305425
vn -1 4.930380657631324e-32 2.220446049250313e-16
vn 1 -4.930380657631324e-32 -2.220446049250313e-16
vn 1.922962910528941e-16 0.49999982515617886 0.8660255047305423
vn -1 4.930380657631324e-32 2.220446049250313e-16
vn 1 -4.930380657631324e-32 -2.220446049250313e-16
vn -4.930380657631324e-32 1 -2.220446049250313e-16
vn -1 4.930380657631324e-32 2.220446049250313e-16
vn 1 -4.930380657631324e-32 -2.220446049250313e-16
vn -1.9229629105289415e-16 0.4999998251561785 -0.8660255047305425
vn -1 4.930380657631324e-32 2.220446049250313e-16
vn 1 -4.930380657631324e-32 -2.220446049250313e-16
vn -1.922962910528941e-16 -0.49999982515617886 -0.8660255047305423
vn -1 4.930380657631324e-32 2.220446049250313e-16
vn 1 -4.930380657631324e-32 -2.220446049250313e-16
vn 4.930380657631324e-32 -1 2.220446049250313e-16
vn -1 4.930380657631324e-32 2.220446049250313e-16
usemtl none
f 191/749/221 189/750/221 187/751/221
f 189/752/222 191/753/222 192/754/222 190/755/222
f 190/756/223 192/757/223 188/758/223
f 193/759/224 191/760/224 187/761/224
f 191/762/225 193/763/225 194/764/225 192/765/225
f 192/766/226 194/767/226 188/768/226
f 195/769/227 193/770/227 187/771/227
f 193/772/228 195/773/228 196/774/228 194/775/228
f 194/776/229 196/777/229 188/778/229
f 197/779/230 195/780/230 187/781/230
f 195/782/231 197/783/231 198/784/231 196/785/231
f 196/786/232 198/787/232 188/788/232
f 199/789/233 197/790/233 187/791/233
f 197/792/234 199/793/234 200/794/234 198/795/234
f 198/796/235 200/797/235 188/798/235
f 189/799/236 199/800/236 187/801/236
f 199/802/237 189/803/237 190/804/237 200/805/237
f 200/806/238 190/807/238 188/808/238
o cylinder
v 0.7 0.25 -0.5625000000000001
v -0.675 0.25 -0.5624999999999999
v 0.7 0.21875 -0.5468750000000001
v -0.675 0.21875 -0.5468749999999999
v 0.7 0.25 -0.5312500000000001
v -0.675 0.25 -0.5312499999999999
v 0.7 0.28125 -0.5468750000000001
v -0.675 0.28125 -0.5468749999999999
v 0.7 0.28125 -0.5781250000000001
v -0.675 0.28125 -0.5781249999999999
v 0.7 0.25 -0.5937500000000001
v -0.675 0.25 -0.5937499999999999
v 0.7 0.21875 -0.5781250000000001
v -0.675 0.21875 -0.5781249999999999
vt 0.07216875 0.9375
vt 0.036084375 1
vt 0 0.9375
vt 0 0.875
vt 0.07216875 0.875
vt 0.07216875 1
vt 0 1
vt 0.036084375 0.9375
vt 0.07216875 1
vt 0 1
vt 0.036084375 0.9375
vt 0.07216875 1
vt 0 1
vt 0 0.875
vt 0.07216875 0.875
vt 0.07216875 1
vt 0 1
vt 0.07216875 0.9375
vt 0.036084375 1
vt 0 0.9375
vt 0 0.9375
vt 0.07216875 0.9375
vt 0.036084375 1
vt 0 0.875
vt 0.07216875 0.875
vt 0.07216875 1
vt 0 1
vt 0.07216875 1
vt 0 1
vt 0.036084375 0.9375
vt 0 1
vt 0.036084375 0.9375
vt 0.07216875 1
vt 0 0.875
vt 0.07216875 0.875
vt 0.07216875 1
vt 0 1
vt 0.036084375 1
vt 0 0.9375
vt 0.07216875 0.9375
vt 0.036084375 1
vt 0 0.9375
vt 0.07216875 0.9375
vt 0 0.875
vt 0.07216875 0.875
vt 0.07216875 1
vt 0 1
vt 0 1
vt 0.036084375 0.9375
vt 0.07216875 1
vt 0.07216875 1
vt 0 1
vt 0.036084375 0.9375
vt 0 0.875
vt 0.07216875 0.875
vt 0.07216875 1
vt 0 1
vt 0 0.9375
vt 0.07216875 0.9375
vt 0.036084375 1
vn 1 -4.930380657631324e-32 -2.220446049250313e-16
vn 1.9860273225978186e-16 -0.4472135954999577 0.894427190999916
vn -1 4.930380657631324e-32 2.220446049250313e-16
vn 1 -4.930380657631324e-32 -2.220446049250313e-16
vn 1.9860273225978186e-16 0.44721359549995826 0.894427190999916
vn -1 4.930380657631324e-32 2.220446049250313e-16
vn 1 -4.930380657631324e-32 -2.220446049250313e-16
vn -4.930380657631324e-32 1 -2.220446049250313e-16
vn -1 4.930380657631324e-32 2.220446049250313e-16
vn 1 -4.930380657631324e-32 -2.220446049250313e-16
vn -1.9860273225978186e-16 0.4472135954999577 -0.894427190999916
vn -1 4.930380657631324e-32 2.220446049250313e-16
vn 1 -4.930380657631324e-32 -2.220446049250313e-16
vn -1.9860273225978186e-16 -0.44721359549995826 -0.894427190999916
vn -1 4.930380657631324e-32 2.220446049250313e-16
vn 1 -4.930380657631324e-32 -2.220446049250313e-16
vn 4.930380657631324e-32 -1 2.220446049250313e-16
vn -1 4.930380657631324e-32 2.220446049250313e-16
usemtl none
f 205/809/239 203/810/239 201/811/239
f 203/812/240 205/813/240 206/814/240 204/815/240
f 204/816/241 206/817/241 202/818/241
f 207/819/242 205/820/242 201/821/242
f 205/822/243 207/823/243 208/824/243 206/825/243
f 206/826/244 208/827/244 202/828/244
f 209/829/245 207/830/245 201/831/245
f 207/832/246 209/833/246 210/834/246 208/835/246
f 208/836/247 210/837/247 202/838/247
f 211/839/248 209/840/248 201/841/248
f 209/842/249 211/843/249 212/844/249 210/845/249
f 210/846/250 212/847/250 202/848/250
f 213/849/251 211/850/251 201/851/251
f 211/852/252 213/853/252 214/854/252 212/855/252
f 212/856/253 214/857/253 202/858/253
f 203/859/254 213/860/254 201/861/254
f 213/862/255 203/863/255 204/864/255 214/865/255
f 214/866/256 204/867/256 202/868/256
o cylinder
v 0.7 0.25 0.9374999999999999
v -0.675 0.25 0.9375000000000001
v 0.7 0.21875 0.9531249999999999
v -0.675 0.21875 0.9531250000000001
v 0.7 0.25 0.9687499999999999
v -0.675 0.25 0.9687500000000001
v 0.7 0.28125 0.9531249999999999
v -0.675 0.28125 0.9531250000000001
v 0.7 0.28125 0.9218749999999999
v -0.675 0.28125 0.9218750000000001
v 0.7 0.25 0.9062499999999999
v -0.675 0.25 0.9062500000000001
v 0.7 0.21875 0.9218749999999999
v -0.675 0.21875 0.9218750000000001
vt 0.07216875 0.9375
vt 0.036084375 1
vt 0 0.9375
vt 0 0.875
vt 0.07216875 0.875
vt 0.07216875 1
vt 0 1
vt 0.036084375 0.9375
vt 0.07216875 1
vt 0 1
vt 0.036084375 0.9375
vt 0.07216875 1
vt 0 1
vt 0 0.875
vt 0.07216875 0.875
vt 0.07216875 1
vt 0 1
vt 0.07216875 0.9375
vt 0.036084375 1
vt 0 0.9375
vt 0 0.9375
vt 0.07216875 0.9375
vt 0.036084375 1
vt 0 0.875
vt 0.07216875 0.875
vt 0.07216875 1
vt 0 1
vt 0.07216875 1
vt 0 1
vt 0.036084375 0.9375
vt 0 1
vt 0.036084375 0.9375
vt 0.07216875 1
vt 0 0.875
vt 0.07216875 0.875
vt 0.07216875 1
vt 0 1
vt 0.036084375 1
vt 0 0.9375
vt 0.07216875 0.9375
vt 0.036084375 1
vt 0 0.9375
vt 0.07216875 0.9375
vt 0 0.875
vt 0.07216875 0.875
vt 0.07216875 1
vt 0 1
vt 0 1
vt 0.036084375 0.9375
vt 0.07216875 1
vt 0.07216875 1
vt 0 1
vt 0.036084375 0.9375
vt 0 0.875
vt 0.07216875 0.875
vt 0.07216875 1
vt 0 1
vt 0 0.9375
vt 0.07216875 0.9375
vt 0.036084375 1
vn 1 -4.930380657631324e-32 -2.220446049250313e-16
vn 1.9860273225978186e-16 -0.4472135954999577 0.894427190999916
vn -1 4.930380657631324e-32 2.220446049250313e-16
vn 1 -4.930380657631324e-32 -2.220446049250313e-16
vn 1.9860273225978186e-16 0.44721359549995826 0.894427190999916
vn -1 4.930380657631324e-32 2.220446049250313e-16
vn 1 -4.930380657631324e-32 -2.220446049250313e-16
vn -4.930380657631324e-32 1 -2.220446049250313e-16
vn -1 4.930380657631324e-32 2.220446049250313e-16
vn 1 -4.930380657631324e-32 -2.220446049250313e-16
vn -1.9860273225978186e-16 0.4472135954999577 -0.894427190999916
vn -1 4.930380657631324e-32 2.220446049250313e-16
vn 1 -4.930380657631324e-32 -2.220446049250313e-16
vn -1.9860273225978186e-16 -0.44721359549995826 -0.894427190999916
vn -1 4.930380657631324e-32 2.220446049250313e-16
vn 1 -4.930380657631324e-32 -2.220446049250313e-16
vn 4.930380657631324e-32 -1 2.220446049250313e-16
vn -1 4.930380657631324e-32 2.220446049250313e-16
usemtl none
f 219/869/257 217/870/257 215/871/257
f 217/872/258 219/873/258 220/874/258 218/875/258
f 218/876/259 220/877/259 216/878/259
f 221/879/260 219/880/260 215/881/260
f 219/882/261 221/883/261 222/884/261 220/885/261
f 220/886/262 222/887/262 216/888/262
f 223/889/263 221/890/263 215/891/263
f 221/892/264 223/893/264 224/894/264 222/895/264
f 222/896/265 224/897/265 216/898/265
f 225/899/266 223/900/266 215/901/266
f 223/902/267 225/903/267 226/904/267 224/905/267
f 224/906/268 226/907/268 216/908/268
f 227/909/269 225/910/269 215/911/269
f 225/912/270 227/913/270 228/914/270 226/915/270
f 226/916/271 228/917/271 216/918/271
f 217/919/272 227/920/272 215/921/272
f 227/922/273 217/923/273 218/924/273 228/925/273
f 228/926/274 218/927/274 216/928/274